<svg xmlns="http://www.w3.org/2000/svg" width="63.203" height="19.422" viewBox="0 0 63.203 19.422"><linearGradient id="a" gradientUnits="userSpaceOnUse" x1="301.254" y1="-160.784" x2="301.254" y2="-178.899" gradientTransform="matrix(1 0 0 -1 -271 -159.625)"><stop offset="0" stop-color="#F18621"/><stop offset=".147" stop-color="#F08022"/><stop offset=".689" stop-color="#EE6A25"/><stop offset="1" stop-color="#ED6126"/></linearGradient><path fill="url(#a)" d="M2.183 19.422c-1.223 0-2.183-1.238-2.183-2.816v-13.79c0-1.58.958-2.816 2.183-2.816h.073l55.982 2.4c1.252.05 2.272 1.067 2.272 2.263v10.097c0 1.195-1.02 2.21-2.272 2.262l-55.984 2.398-.07.002z"/><linearGradient id="b" gradientUnits="userSpaceOnUse" x1="332.555" y1="-162.238" x2="332.555" y2="-175.382" gradientTransform="matrix(1 0 0 -1 -271 -159.625)"><stop offset="0" stop-color="#F18621"/><stop offset=".147" stop-color="#F08022"/><stop offset=".689" stop-color="#EE6A25"/><stop offset="1" stop-color="#ED6126"/></linearGradient><path fill="url(#b)" d="M61.09 3.03v-.008c0-.047.028-.073.08-.073h.772l.078.072v.008c0 .047-.026.074-.078.074h-.298v.863c0 .052-.027.08-.078.08h-.022c-.05 0-.073-.028-.073-.08v-.863h-.3c-.052 0-.08-.027-.08-.074z"/><linearGradient id="c" gradientUnits="userSpaceOnUse" x1="333.687" y1="-162.238" x2="333.687" y2="-175.371" gradientTransform="matrix(1 0 0 -1 -271 -159.625)"><stop offset="0" stop-color="#F18621"/><stop offset=".147" stop-color="#F08022"/><stop offset=".689" stop-color="#EE6A25"/><stop offset="1" stop-color="#ED6126"/></linearGradient><path fill="url(#c)" d="M62.172 3.968v-.93c0-.058.04-.095.1-.095h.045c.068 0 .086.025.113.087l.258.582.26-.582c.027-.064.047-.087.11-.087h.044c.062 0 .102.037.102.096v.928l-.07.08h-.025c-.05 0-.07-.028-.07-.08v-.8l-.242.542c-.02.044-.038.074-.112.074l-.11-.074-.237-.538v.795l-.07.08h-.03l-.068-.08z"/><path d="M3.37 12.587l1.295-6.145c.126-.597.494-.872 1.055-.872h4.095c.472 0 .724.184.724.504 0 .184-.105.598-.29.78-.124.14-.274.185-.653.185h-3.36l-.396 1.811h2.514c.436 0 .666.183.666.47 0 .17-.08.55-.252.733-.115.114-.265.183-.608.183h-2.616l-.405 1.96h3.35c.47 0 .71.185.71.495 0 .196-.092.597-.275.793-.125.126-.287.185-.653.185h-4.05c-.7-.002-1.01-.358-.85-1.08zm7.728.539l-.458-3.188c-.115-.873-.38-1.102-.838-1.136-.022 0 .08-.827 1.01-.827.344 0 .586.092.804.31.31.31.447.814.504 1.583l.207 2.088 2.27-3.97c.014-.023 1.114.035 1.114.792 0 .252-.09.447-.343.826l-2.363 3.638c-.263.412-.7.48-1.01.48-.413 0-.838-.15-.896-.596zm4.659-1.709c0-2.03 1.56-3.488 3.522-3.488 1.422 0 2.213.664 2.213 1.64 0 1.147-.735 1.834-3.224 1.834-.345 0-.723-.022-1.148-.046v.036c0 .78.482 1.262 1.365 1.262.747 0 1.286-.333 1.653-.816.023-.033.688.083.688.61 0 .298-.09.458-.31.688-.425.413-1.09.666-2.053.666-1.836 0-2.708-1.01-2.708-2.387zm1.572-1.045c.298.022.56.035.802.035 1.56 0 1.996-.355 1.996-.792 0-.296-.31-.597-.917-.597-.85 0-1.548.586-1.88 1.354zm6.758-1.352c.447-.677 1.1-1.09 1.928-1.09 1.147 0 1.812.747 1.812 1.813 0 .4-.138.953-.333 1.64-.15.562-.264 1.01-.264 1.24 0 .32.15.448.46.493.022 0-.093.665-.976.665-.757 0-1.113-.39-1.113-.998 0-.32.105-.745.277-1.377.15-.527.253-.963.253-1.204 0-.573-.322-.916-.906-.916-.562 0-.93.264-1.285.814l-.598 2.845c-.126.573-.333.768-.746.768h-.17c-.437 0-.828-.172-.7-.767l1.02-4.82c.01-.033.195-.102.447-.102.46.002.906.253.894 1zm4.957 2.672l.494-2.363h-.276c-.368 0-.585-.162-.585-.426 0-.16.07-.505.23-.677.114-.103.24-.16.562-.16h.33l.07-.32c.16-.827.493-1.172 1.204-1.172.344 0 .607.138.597.195l-.274 1.296h.94c.39 0 .608.172.608.425 0 .162-.07.516-.24.678-.104.104-.24.16-.55.16h-1.046l-.493 2.294c-.15.678.08.964.527.964.287 0 .54-.148.688-.287.046-.035.264.148.264.492 0 .24-.09.448-.275.632-.252.252-.655.39-1.194.39-1.283 0-1.87-.768-1.582-2.122zm5.474 1.022c-.22.723-.574.998-1.205.998-.31 0-.574-.14-.563-.195l1.51-7.155c.126-.585.334-.78.748-.78h.183c.425 0 .827.184.69.78l-.523 2.496c.412-.573 1.01-.93 1.778-.93 1.206 0 2.203.862 2.203 2.398 0 1.767-1.158 3.478-2.926 3.478-.827 0-1.55-.402-1.894-1.09zm.573-2.628l-.17.802c-.172.895.31 1.64 1.262 1.64 1.02 0 1.583-.986 1.583-1.995 0-.815-.516-1.32-1.193-1.32-.597 0-1.137.356-1.48.873zm7.019-1.079c.344-.676.86-1.078 1.515-1.078.562 0 .998.32.998.79 0 .792-.7 1.044-.724 1.02-.16-.17-.39-.33-.78-.33-.723 0-1.182.802-1.434 1.984l-.32 1.55c-.128.572-.334.767-.748.767h-.17c-.437 0-.827-.172-.7-.767l1.02-4.82c.012-.033.195-.102.447-.102.46.002.907.253.895.987zm2.594 3.225l.735-3.43c.124-.587.33-.78.744-.78h.17c.438 0 .828.17.703.78l-.747 3.476c-.126.62-.023.86.446.93.012.012-.08.573-.94.573-1.044 0-1.308-.642-1.112-1.548zm1.176-5.72c0-.552.378-.942.94-.942.576 0 .896.288.896.7 0 .54-.378.94-.94.94-.575 0-.896-.286-.896-.7zm2.334 5.18l.495-2.363h-.277c-.368 0-.584-.162-.584-.426 0-.16.068-.505.228-.677.115-.103.24-.16.563-.16h.333l.07-.32c.16-.827.492-1.172 1.204-1.172.345 0 .608.138.597.195l-.276 1.296h.94c.39 0 .61.172.61.425 0 .162-.07.516-.242.678-.104.104-.243.16-.55.16h-1.044l-.494 2.294c-.15.678.08.964.528.964.287 0 .54-.148.687-.287.047-.035.265.148.265.492 0 .24-.09.448-.275.632-.252.252-.653.39-1.193.39-1.287 0-1.872-.768-1.586-2.122zm3.892-.275c0-2.03 1.56-3.488 3.52-3.488 1.425 0 2.217.664 2.217 1.64 0 1.147-.736 1.834-3.224 1.834-.346 0-.725-.022-1.15-.046v.036c0 .78.483 1.262 1.366 1.262.747 0 1.286-.333 1.653-.816.022-.033.686.083.686.61 0 .298-.09.458-.31.688-.424.413-1.09.666-2.053.666-1.836 0-2.707-1.01-2.707-2.387zm1.57-1.045c.298.022.56.035.803.035 1.56 0 1.994-.355 1.994-.792 0-.296-.31-.597-.917-.597-.85 0-1.55.586-1.88 1.354z" fill="#D45727"/><path d="M3.538 12.42l1.294-6.146c.126-.597.494-.873 1.056-.873h4.096c.47 0 .723.185.723.506 0 .184-.104.596-.288.78-.126.137-.275.184-.655.184h-3.36l-.394 1.811h2.514c.436 0 .665.183.665.47 0 .172-.082.55-.254.735-.114.114-.264.183-.607.183h-2.618l-.405 1.96h3.35c.472 0 .712.184.712.494 0 .195-.093.597-.276.792-.126.126-.287.183-.655.183h-4.046c-.702-.002-1.012-.358-.852-1.08zm7.728.54l-.458-3.19c-.115-.873-.378-1.102-.837-1.136-.022 0 .08-.826 1.01-.826.344 0 .585.092.804.31.31.31.448.814.505 1.583l.206 2.088 2.27-3.97c.012-.023 1.115.035 1.115.792 0 .25-.09.447-.344.826l-2.363 3.637c-.264.413-.7.482-1.01.482-.415 0-.84-.15-.897-.595zm4.658-1.712c0-2.03 1.56-3.487 3.523-3.487 1.422 0 2.214.667 2.214 1.64 0 1.15-.733 1.837-3.222 1.837-.345 0-.724-.022-1.148-.047v.036c0 .78.482 1.26 1.365 1.26.746 0 1.286-.332 1.652-.814.023-.034.69.082.69.608 0 .298-.093.46-.31.688-.426.414-1.09.667-2.055.667-1.835.002-2.708-1.008-2.708-2.387zm1.573-1.043c.297.023.56.035.802.035 1.56 0 1.994-.355 1.994-.792 0-.298-.31-.596-.916-.596-.85 0-1.548.585-1.88 1.353zm6.758-1.353c.447-.677 1.1-1.09 1.927-1.09 1.148 0 1.813.747 1.813 1.814 0 .4-.138.95-.333 1.64-.148.56-.263 1.01-.263 1.24 0 .32.148.447.457.493.023 0-.09.665-.975.665-.757 0-1.113-.39-1.113-.998 0-.32.103-.746.275-1.377.15-.528.252-.964.252-1.206 0-.574-.322-.917-.907-.917-.562 0-.93.263-1.285.814l-.596 2.846c-.128.574-.334.77-.748.77h-.17c-.44 0-.828-.173-.7-.77l1.02-4.82c.012-.034.196-.102.448-.102.458 0 .906.252.895.998zm4.955 2.673l.495-2.363h-.276c-.368 0-.585-.162-.585-.425 0-.16.068-.505.23-.677.114-.103.24-.16.562-.16h.332l.068-.322c.16-.826.493-1.17 1.204-1.17.345 0 .608.14.596.195l-.272 1.297h.94c.39 0 .608.172.608.425 0 .16-.07.516-.242.675-.104.105-.24.163-.55.163h-1.044l-.493 2.293c-.15.677.08.963.528.963.288 0 .54-.15.69-.288.045-.034.263.15.263.494 0 .24-.09.447-.275.63-.252.253-.653.39-1.192.39-1.287 0-1.87-.767-1.585-2.12zm5.476 1.021c-.22.724-.574 1-1.205 1-.31 0-.573-.14-.56-.196l1.51-7.155c.125-.585.332-.78.746-.78h.184c.424 0 .825.183.688.78l-.523 2.496c.413-.572 1.01-.928 1.778-.928 1.205 0 2.203.86 2.203 2.397 0 1.767-1.158 3.477-2.925 3.477-.83 0-1.552-.403-1.894-1.09zm.57-2.627l-.17.802c-.172.895.31 1.64 1.262 1.64 1.02 0 1.583-.986 1.583-1.996 0-.814-.516-1.32-1.193-1.32-.595 0-1.135.356-1.48.873zm7.022-1.079c.343-.676.86-1.078 1.514-1.078.562 0 1 .32 1 .792 0 .79-.702 1.043-.725 1.02-.16-.172-.39-.332-.78-.332-.724 0-1.18.803-1.435 1.985l-.32 1.55c-.126.572-.332.768-.746.768h-.173c-.436 0-.825-.172-.7-.77l1.022-4.817c.01-.035.195-.104.448-.104.46 0 .906.252.895.986zm2.592 3.225l.735-3.43c.125-.586.333-.78.744-.78h.17c.438 0 .828.17.702.78l-.745 3.475c-.128.62-.024.86.447.93.01.01-.08.574-.94.574-1.045 0-1.31-.643-1.114-1.55zm1.177-5.72c0-.552.38-.943.942-.943.572 0 .893.288.893.7 0 .54-.378.942-.94.942-.574 0-.896-.287-.896-.7zm2.333 5.18l.495-2.363h-.275c-.367 0-.585-.162-.585-.425 0-.16.068-.505.23-.677.114-.103.24-.16.56-.16h.334l.07-.322c.16-.826.49-1.17 1.203-1.17.344 0 .608.14.596.195l-.274 1.297h.94c.39 0 .608.172.608.425 0 .16-.068.516-.24.675-.105.105-.242.163-.55.163h-1.046l-.494 2.293c-.147.677.08.963.53.963.286 0 .54-.15.687-.288.047-.034.265.15.265.494 0 .24-.092.447-.276.63-.25.253-.653.39-1.193.39-1.287 0-1.872-.767-1.586-2.12zm3.892-.277c0-2.03 1.56-3.487 3.52-3.487 1.424 0 2.216.667 2.216 1.64 0 1.15-.734 1.837-3.225 1.837-.344 0-.72-.022-1.147-.047v.036c0 .78.482 1.26 1.364 1.26.747 0 1.287-.332 1.653-.814.023-.034.69.082.69.608 0 .298-.092.46-.31.688-.426.414-1.09.667-2.054.667-1.837.002-2.708-1.008-2.708-2.387zm1.57-1.043c.3.023.564.035.805.035 1.56 0 1.996-.355 1.996-.792 0-.298-.31-.596-.918-.596-.85 0-1.55.585-1.882 1.353z" fill="#fff"/></svg>