<svg xmlns="http://www.w3.org/2000/svg" width="241.153" height="87.163" viewBox="0 0 241.153 87.163"><path d="M200.28 22.918l-.278-.153c-4.117-2.268-6.84-6.3-6.84-11.727 0-4.652 2.026-8.31 5.478-10.74-10.32 4.742-17.486 15.17-17.486 27.27 0 8.213 3.3 15.653 8.646 21.07l-.02-.44c0-5.354 5.22-7.33 9.853-8.284v-.004c-4.41-.953-6.543-4.104-6.543-7.33 0-4.322 4.836-8.053 7.19-9.662zm10.834-2.788c2.946 0 5.473-.88 5.473-9.092s-2.453-9.46-5.473-9.46c-2.946 0-5.398 1.1-5.398 9.46s2.45 9.093 5.398 9.093zm30.039 7.44c0-12.362-7.48-22.976-18.157-27.57 3.57 2.33 5.74 5.896 5.905 10.468.058.352.09.69.09 1.01 0 8.946-7.278 13.7-17.877 13.7-2.724 0-4.563-.145-6.772-.804-1.03.73-1.84 1.907-1.84 3.008 0 1.47 1.325 2.644 2.945 2.644h14.724c9.12 0 13.604 3.735 13.604 11.793 0 2.688-.534 5.103-1.642 7.19 5.565-5.445 9.02-13.038 9.02-21.44zm-24.223 14.792h-11.164c-3.75 0-4.86 2.77-4.86 4.826 0 2.97 2.674 5.71 10.47 5.71 8.866 0 11.272-2.497 11.272-5.745 0-2.834-2.134-4.79-5.717-4.79z" fill="#1D1D1B"/><path d="M.108 84.787l2.196-1.008v-13.679l-2.304-1.04v-1.764l8.35-1.332h.54v2.627h.217c1.8-1.656 3.527-2.628 6.263-2.628 2.375 0 3.887.828 4.607 2.627h.18c1.8-1.656 3.78-2.628 6.515-2.628 3.348 0 5.11 1.69 5.11 5.398v12.42l2.197 1.007v1.836h-10.619v-1.836l1.765-1.008v-10.943c0-2.088-.684-2.844-2.483-2.844-.684 0-1.476.18-2.232.504v13.284l1.764 1.007v1.836h-10.224v-1.836l1.764-1.008v-10.943c0-2.088-.648-2.844-2.484-2.844-.72 0-1.44.18-2.232.54v13.248l1.764 1.007v1.836h-10.654v-1.836zm38.879-12.022h-3.132v-5.255c1.908-.612 4.175-1.548 7.703-1.548 5.4 0 8.64 1.584 8.64 6.12v11.697l2.123 1.007v1.514c-.647.36-2.16.827-3.78.827-2.086 0-3.958-.685-4.282-2.844h-.18c-.9 1.8-3.275 2.88-5.795 2.88-3.563 0-5.795-2.304-5.795-5.65 0-4.14 2.664-4.97 7.127-5.725l3.852-.647v-2.7c0-2.554-.756-3.85-3.348-3.85-.325 0-1.297.036-1.73.07l-1.403 4.105zm6.48 4.535l-1.55.145c-1.547.145-2.807 1.188-2.807 3.096 0 2.232 1.224 2.952 2.52 2.952.72 0 1.476-.36 1.836-.756v-5.437zm9.519 8.567v-5.327h2.844l1.152 3.348c.468.432 2.088.647 3.24.647 1.908 0 3.24-.432 3.24-2.016 0-1.477-.505-2.09-2.665-2.557l-2.448-.54c-3.71-.827-5.436-3.78-5.436-6.767 0-3.852 2.627-6.695 8.567-6.695 2.376 0 4.788.36 6.372 1.044v4.968h-2.808l-.864-2.77c-.468-.253-1.872-.505-2.952-.505-1.584 0-2.664.756-2.664 1.98 0 1.187.54 1.907 2.77 2.375l2.376.504c3.888.828 5.363 3.42 5.363 6.48 0 4.21-2.664 7.09-9.07 7.09-2.158 0-5.073-.432-7.017-1.26zm19.104-15.947h-3.095v-3.02l3.096-.432v-3.78l6.696-.936v4.716h4.392v3.455h-4.392v10.62c0 1.98.54 2.987 2.484 2.987.72 0 1.656-.07 2.16-.144v2.592c-1.116.647-3.383 1.188-5.47 1.188-3.997 0-5.868-1.764-5.868-6.047v-11.199zm18.09 7.236c.324 3.923 2.196 5.796 5.867 5.796 2.556 0 3.996-.252 5.4-.685v1.944c-.937 1.296-3.96 2.952-7.668 2.952-6.912 0-10.476-3.815-10.476-10.654 0-6.66 3.923-10.512 9.935-10.512 6.046 0 8.962 2.7 8.962 11.16h-12.02zm-.072-2.41l5.58-.325c0-5.362-.9-6.227-2.557-6.227-1.835 0-2.95 1.19-3.022 6.552zm20.566-8.856h.576v4.248h.216c1.188-2.664 2.988-4.104 5.184-4.104.36 0 .792.035 1.008.107v5.868c-.396-.107-1.116-.18-1.692-.18-1.8 0-3.312.18-4.463.72v11.194l2.77 1.008v1.872h-11.59v-1.873l2.125-1.008v-13.64l-2.23-1.044v-1.836l8.096-1.332zm7.294 10.654c0-6.623 4.32-10.582 10.98-10.582 2.34 0 5.254.396 6.406.828v6.047h-3.492l-1.152-3.96c-.324-.144-1.044-.288-1.944-.288-2.23 0-3.923 2.087-3.923 7.595 0 4.75 2.484 6.768 5.76 6.768 1.87 0 3.922-.29 4.895-.576v1.87c-1.08 1.297-3.888 2.88-7.163 2.88-6.84 0-10.367-4.212-10.367-10.583zm26.764-18.824h.54v26.023l2.16 1.008v1.873h-11.015v-1.874l2.16-1.007v-21.813l-2.268-1.044v-1.836l8.422-1.33zm7.68 15.045h-3.132v-5.255c1.908-.612 4.175-1.548 7.703-1.548 5.4 0 8.638 1.584 8.638 6.12v11.697l2.126 1.007v1.514c-.648.36-2.16.827-3.78.827-2.087 0-3.96-.685-4.283-2.844h-.18c-.9 1.8-3.275 2.88-5.795 2.88-3.563 0-5.795-2.304-5.795-5.65 0-4.14 2.664-4.97 7.127-5.725l3.852-.647v-2.7c0-2.554-.756-3.85-3.348-3.85-.324 0-1.296.036-1.728.07l-1.404 4.105zm6.48 4.535l-1.55.145c-1.547.145-2.807 1.188-2.807 3.096 0 2.232 1.224 2.952 2.52 2.952.72 0 1.476-.36 1.836-.756v-5.437zm9.518 8.567v-5.327h2.845l1.15 3.348c.47.432 2.09.647 3.24.647 1.908 0 3.24-.432 3.24-2.016 0-1.477-.504-2.09-2.664-2.557l-2.446-.54c-3.708-.827-5.436-3.78-5.436-6.767 0-3.852 2.627-6.695 8.566-6.695 2.376 0 4.787.36 6.37 1.044v4.968h-2.806l-.864-2.77c-.468-.253-1.872-.505-2.952-.505-1.584 0-2.663.756-2.663 1.98 0 1.187.54 1.907 2.77 2.375l2.376.504c3.887.828 5.363 3.42 5.363 6.48 0 4.21-2.665 7.09-9.072 7.09-2.158 0-5.074-.432-7.017-1.26zm17.23 0v-5.327h2.843l1.152 3.348c.468.432 2.088.647 3.24.647 1.907 0 3.238-.432 3.238-2.016 0-1.477-.504-2.09-2.663-2.557l-2.448-.54c-3.707-.827-5.435-3.78-5.435-6.767 0-3.852 2.628-6.695 8.567-6.695 2.375 0 4.787.36 6.37 1.044v4.968h-2.808l-.863-2.77c-.47-.253-1.872-.505-2.95-.505-1.585 0-2.665.756-2.665 1.98 0 1.187.54 1.907 2.77 2.375l2.376.504c3.89.828 5.364 3.42 5.364 6.48 0 4.21-2.664 7.09-9.07 7.09-2.16 0-5.075-.432-7.02-1.26zm23.78-8.711c.324 3.923 2.195 5.796 5.867 5.796 2.556 0 3.996-.252 5.4-.685v1.944c-.938 1.296-3.96 2.952-7.668 2.952-6.912 0-10.476-3.815-10.476-10.654 0-6.66 3.924-10.512 9.935-10.512 6.047 0 8.962 2.7 8.962 11.16h-12.02zm-.072-2.41l5.58-.325c0-5.362-.9-6.227-2.557-6.227-1.834 0-2.95 1.19-3.022 6.552zm13.282 11.121v-5.327h2.843l1.152 3.348c.467.432 2.088.647 3.24.647 1.906 0 3.238-.432 3.238-2.016 0-1.477-.504-2.09-2.664-2.557l-2.448-.54c-3.707-.827-5.436-3.78-5.436-6.767 0-3.852 2.628-6.695 8.567-6.695 2.376 0 4.787.36 6.37 1.044v4.968h-2.807l-.863-2.77c-.47-.253-1.873-.505-2.952-.505-1.583 0-2.662.756-2.662 1.98 0 1.187.54 1.907 2.77 2.375l2.376.504c3.888.828 5.363 3.42 5.363 6.48 0 4.21-2.664 7.09-9.07 7.09-2.158 0-5.074-.432-7.018-1.26z" fill="#fff"/></svg>