<svg xmlns="http://www.w3.org/2000/svg" width="62" height="90" viewBox="0 0 62.336 89.592" enable-background="new 0 0 62.336 89.592"><path d="M21.464 25.347l-.28-.153c-4.116-2.268-6.838-6.3-6.838-11.727 0-4.652 2.025-8.31 5.477-10.74-10.32 4.773-17.523 15.173-17.523 27.271 0 8.2 3.3 15.7 8.6 21.067l-.02-.438c0-5.356 5.22-7.333 9.853-8.286v-.004c-4.41-.953-6.543-4.104-6.543-7.33.082-4.31 4.91-8.01 7.31-9.663zm10.833-2.787c2.946 0 5.473-.88 5.473-9.093 0-8.212-2.453-9.46-5.473-9.46-2.946 0-5.398 1.1-5.398 9.46s2.45 9.133 5.4 9.093zm30.039 7.44c0-12.363-7.48-22.977-18.157-27.57 3.57 2.3 5.7 5.9 5.9 10.5.056.4.1.7.1 1.01 0 8.945-7.28 13.7-17.88 13.7-2.723 0-4.562-.146-6.77-.805-1.032.73-1.842 1.907-1.842 3.008 0 1.5 1.3 2.6 2.9 2.644h14.724c9.12 0 13.6 3.7 13.6 11.8 0 2.69-.534 5.104-1.642 7.19 5.611-5.477 9.031-13.077 9.031-21.477zm-24.222 14.79h-11.164c-3.752 0-4.862 2.772-4.862 4.827 0 3 2.7 5.7 10.5 5.7 8.866 0 11.272-2.496 11.272-5.744-.03-2.873-2.16-4.773-5.76-4.782z" fill="#fff"/><path d="M8.422 60.147h.54v26.023l2.16 1.01v1.87h-11.015v-1.87l2.16-1.008v-21.812l-2.267-1.047v-1.836l8.422-1.33zm11.708 8.171h.54v17.854l2.16 1.008v1.872h-11.017v-1.872l2.16-1.008v-13.642l-2.268-1.044v-1.836l8.423-1.332zm.647-4.714c0 1.943-1.62 3.527-3.563 3.527-1.98 0-3.563-1.583-3.563-3.526 0-1.98 1.585-3.564 3.564-3.564 1.943-.041 3.585 1.559 3.585 3.563zm13.846 19.256h.145l3.49-11.087-2.16-1.008v-1.87h7.92v1.87l-2.16 1.008-6.082 17.278h-5.796l-5.94-17.277-2.16-1.008v-1.87h11.7v1.87l-2.16 1.008 3.203 11.087zm15.327-3.275c.325 3.9 2.2 5.8 5.9 5.796 2.558 0 3.997-.25 5.4-.684v1.944c-.936 1.295-3.96 2.95-7.667 2.95-6.91 0-10.475-3.814-10.475-10.653 0-6.66 3.924-10.512 9.936-10.512 6.047 0 9 2.7 9 11.16h-12.094zm-.07-2.41l5.58-.325c0-5.363-.9-6.228-2.557-6.228-1.836-.022-2.903 1.178-3.003 6.552z" fill="#fff"/></svg>
