<?xml version="1.0" encoding="utf-8"?>
<!-- Generator: Adobe Illustrator 22.0.1, SVG Export Plug-In . SVG Version: 6.00 Build 0)  -->
<svg version="1.1" id="The_Guardian_Patrons" xmlns="http://www.w3.org/2000/svg" xmlns:xlink="http://www.w3.org/1999/xlink"
	 x="0px" y="0px" viewBox="0 0 251.2 123.5" style="enable-background:new 0 0 251.2 123.5;" xml:space="preserve">
<style type="text/css">
	.st0{fill:#FFFFFF;}
	.st1{fill:#B29163;}
</style>
<g>
	<g>
		<g>
			<g>
				<path class="st0" d="M53.2,40.9l4.1-2.1v-32h-3.1l-7.5,10h-0.8l0.5-11.1h32.6l0.5,11.1h-0.9l-7.4-10h-3.2v31.9l4.1,2.2v1.1H53.2
					V40.9z"/>
				<path class="st0" d="M82.5,39.5V4l-3.2-1.3V2.1L90.8,0H92v16.8l0.3-0.3c2.5-2.2,6.2-3.6,9.8-3.6c5,0,7.2,2.8,7.2,8.1v18.5
					l2.7,1.5l0,1.1h-15v-1.1l2.7-1.5V20.9c0-2.9-1.3-4.1-3.6-4.1c-1.6,0-2.9,0.5-4,1.3v21.3l2.6,1.5v1h-15v-1L82.5,39.5z"/>
				<path class="st0" d="M120.1,28.6c0.3,5.9,2.9,10.4,9.2,10.4c3,0,5.1-1.4,7.2-2.5v1.2c-1.6,2.1-5.5,5.1-11,5.1
					c-9.6,0-14.6-5.4-14.6-14.6c0-9.1,5.4-14.7,14.1-14.7c8.2,0,12.4,4.1,12.4,14.9v0.3H120.1z M120,27.2l8.5-0.5
					c0-7.3-1.2-12.1-3.7-12.1C122.1,14.6,120,20.2,120,27.2z"/>
				<path class="st0" d="M0,56.1c0-15.4,10.2-20.9,21.6-20.9c4.8,0,9.4,0.8,11.9,1.8l0.2,10.8h-1.1L26,37.4
					c-1.1-0.5-2.2-0.7-4.2-0.7c-6.1,0-9.1,7-9,18.5c0.1,13.7,2.5,19.9,8.1,19.9c1.4,0,2.6-0.2,3.3-0.6V59.8l-3.7-2.1v-1.2h17.7v1.3
					l-3.6,2v14.5c-3,1.2-8.1,2.3-13.4,2.3C8.2,76.6,0,70.6,0,56.1z"/>
				<path class="st0" d="M36.6,48.9V48l11.9-2.1l1.3,0.1v23.5c0,2.8,1.4,3.7,3.6,3.7c1.5,0,2.8-0.6,3.9-1.8V50.3l-3.3-1.4V48
					L66,45.9l1.2,0.1v26.9l3.2,1.3v0.9l-11.8,1.4l-1.2-0.1v-3.5h-0.3c-2.2,2-5.2,3.8-8.9,3.8c-5.7,0-8.3-3.4-8.3-8.5V50.3L36.6,48.9
					z"/>
				<path class="st0" d="M111.3,45.9l1,0.1l0,8.7h0.3c1.3-6.4,4.1-8.7,7.5-8.7c0.5,0,1.1,0.1,1.5,0.2V55c-0.5-0.2-1.5-0.2-2.4-0.2
					c-2.7,0-4.7,0.5-6.5,1.3l0,17.2l2.7,1.5l0,1.1H99.8v-1.1l2.8-1.5V49.9l-3.3-1v-0.8L111.3,45.9z"/>
				<path class="st0" d="M141.2,46.6v-9.2l-3.3-1.1v-0.7l12-2.2l1.1,0.2v39.4l3.3,1.2v1l-11.9,1.6l-0.9-0.1v-3.3h-0.3
					c-1.7,1.7-4.1,3.3-7.9,3.3c-6.5,0-11.2-5-11.2-15.1c0-10.7,5.5-15.9,13.8-15.9C138.5,45.7,140.3,46.1,141.2,46.6z M141.2,71.8
					V48.3c-0.8-0.5-1.3-1.1-3.3-1c-3.2,0.1-5.2,5-5.2,13.6c0,7.8,1.4,12.1,5.7,12C139.6,72.8,140.6,72.4,141.2,71.8z"/>
				<path class="st0" d="M167.4,45.9l1,0.1v27.3l2.7,1.5l0,1.1h-15.4v-1.1l2.8-1.5v-23l-3.3-1.3v-0.9L167.4,45.9z M168.5,38.5
					c0,2.9-2.4,5.1-5.3,5.1c-2.9,0-5.2-2.2-5.2-5.1c0-2.9,2.3-5.1,5.2-5.1C166,33.4,168.5,35.6,168.5,38.5z"/>
				<path class="st0" d="M203.2,73.3V50l-3.3-1.1v-1.1l11.9-2.2l1.2,0.1v3.5h0.3c2.6-2.3,6.4-3.8,10.1-3.8c5.2,0,7.5,2.4,7.5,7.9v20
					l2.8,1.5l0,1.1h-15.4v-1.1l2.8-1.5V53.8c0-3-1.3-4.2-3.8-4.2c-1.6,0-2.9,0.4-4.1,1.3v22.4l2.7,1.5v1.1h-15.5v-1.1L203.2,73.3z"
					/>
				<path class="st0" d="M186.4,58.7v-3.9c0-5.9-1.3-7.8-4.9-7.8c-0.4,0-0.8,0.1-1.2,0.1l-6.5,8.8h-0.9v-8.1
					c2.8-0.9,6.3-1.9,10.9-1.9c7.9,0,12.5,2.2,12.5,8.8v19l2.8,0.7v0.7c-1.1,0.7-3.4,1.3-5.8,1.3c-3.9,0-5.8-1.3-6.6-3.4h-0.3
					c-1.7,2.2-4,3.5-7.7,3.5c-4.7,0-7.9-2.9-7.9-8c0-4.9,3-7.6,9.2-8.8L186.4,58.7z M186.4,71.8V60.1l-2,0.2
					c-3.1,0.3-4.2,2.2-4.2,6.6c0,4.8,1.6,6,3.7,6C185.1,72.8,185.8,72.5,186.4,71.8z"/>
				<path class="st0" d="M86.1,58.7v-3.9c0-5.9-1.3-7.8-4.9-7.8c-0.4,0-0.8,0.1-1.2,0.1l-6.5,8.8h-0.9v-8.1
					c2.8-0.9,6.3-1.9,10.9-1.9c7.9,0,12.5,2.2,12.5,8.8v19l2.8,0.7v0.7c-1.1,0.7-3.4,1.3-5.8,1.3c-3.9,0-5.8-1.3-6.6-3.4H86
					c-1.7,2.2-4,3.5-7.7,3.5c-4.7,0-7.9-2.9-7.9-8c0-4.9,3-7.6,9.2-8.8L86.1,58.7z M86.1,71.8V60.1l-2,0.2c-3.1,0.3-4.2,2.2-4.2,6.6
					c0,4.8,1.6,6,3.7,6C84.9,72.8,85.6,72.5,86.1,71.8z"/>
			</g>
		</g>
	</g>
</g>
<g>
	<path class="st1" d="M88.1,95.5c0,8.6-6,12.5-14.9,12.5c-1.8,0-3.1-0.2-4.4-0.5V121l4.4,0.8v0.9H53.5v-0.9l3.7-0.8V85.2l-3.7-0.8
		v-0.9h18.7C83.4,83.4,88.1,87.4,88.1,95.5z M76.6,95.6c0-8.5-1.8-11.1-5.5-11.1h-2.3v21.9c0.8,0.2,1.6,0.2,2.5,0.2
		C74.8,106.6,76.6,103.8,76.6,95.6z"/>
	<path class="st1" d="M104.4,105.1v-4c0-6-1.3-8-4.7-8c-0.4,0-0.7,0.1-1.1,0.1l-7.4,10h-0.9l0.2-9.2c2.9-0.9,6.4-1.8,11.1-1.8
		c8.1,0,12.8,2.2,12.8,9v19.4l2.9,0.8v0.8c-1.2,0.7-3.5,1.4-6,1.4c-4,0-5.9-1.3-6.8-3.5h-0.3c-1.7,2.3-4.1,3.6-7.9,3.6
		c-4.8,0-8.1-3-8.1-8.2c0-5,3.1-7.7,9.5-8.9L104.4,105.1z M104.4,118.5v-12l-2,0.2c-3.2,0.3-4.3,2.3-4.3,6.7c0,4.8,1.6,6.1,3.8,6.1
		C103.2,119.6,103.9,119.2,104.4,118.5z"/>
	<path class="st1" d="M115.4,94.9v-1l4.3-1.1v-5.3l10-1.6v6.9h6.6v2.1h-6.6v19.8c0,3,0.9,4.3,4.2,4.3c1,0,2.1-0.1,2.7-0.3v0.9
		c-1.8,1.8-4.8,3.6-8.3,3.6c-5.7,0-8.6-2.6-8.6-9V94.9H115.4z"/>
	<path class="st1" d="M149.8,92.3l1,0.1v8.5h0.3c1.5-6.5,4.1-8.9,7.5-8.9c0.5,0,1.2,0.1,1.5,0.2v9c-0.5-0.2-1.5-0.2-2.5-0.2
		c-2.7,0-4.8,0.3-6.5,1v19l4.1,0.8v0.9h-17.2v-0.9l3.1-0.8V96.3l-3.3-1.3v-0.9L149.8,92.3z"/>
	<path class="st1" d="M161.1,107.7c0-9.6,6.1-15.5,15.4-15.5c9.2,0,15.5,5.9,15.5,15.6c0,9.7-6.1,15.8-15.4,15.8
		C167.4,123.5,161.1,117.3,161.1,107.7z M172,107.7c0,11.8,1.6,14.8,4.7,14.8c3,0,4.6-3.1,4.6-14.9c0-11.7-1.5-14.5-4.6-14.5
		C173.5,93.1,172,96,172,107.7z"/>
	<path class="st1" d="M195.5,120.9V96.3l-3.3-1.3v-0.9l12-1.7l1.2,0.1v3.8h0.3c2.6-2.6,6.4-4.1,10.2-4.1c5.2,0,7.5,2.4,7.5,7.9v20.8
		l3.1,0.9v0.9h-15.9v-0.9l2.8-0.7v-20.5c0-2.9-1.3-4.2-3.9-4.2c-1.6,0-2.9,0.4-4,1V121l2.7,0.7v0.9h-15.9v-0.9L195.5,120.9z"/>
	<path class="st1" d="M251.2,113.5c0,6.1-4.3,9.8-12.3,9.8c-3.6,0-7.4-0.4-10.3-1.5l-0.3-8.8h0.9l7.8,9.1c0.5,0.2,1.2,0.3,1.6,0.3
		c3.3,0,4.9-1.8,4.9-4.6c0-2.4-1.3-3.4-4.8-5L237,112c-5.5-2.6-8.7-5.2-8.7-10.2c0-6.1,4.3-9.7,11.6-9.7c3,0,6.3,0.3,8.8,1l0.3,8.2
		h-0.9l-6-7.9c-0.7-0.2-1.3-0.3-1.9-0.3c-3,0-4.3,1.7-4.3,4.1c0,2.7,1.3,3.5,4.9,5.2l1.7,0.8C248.2,105.7,251.2,108.1,251.2,113.5z"
		/>
</g>
</svg>
