<svg xmlns="http://www.w3.org/2000/svg" width="244" height="30" viewBox="0 0 244 30.473" enable-background="new 0 0 244 30.473"><g fill="#231F20"><path d="M106.794 16.525h6.216v-1.035l-1.2-.57v-7.35c.45-.32.976-.43 1.545-.43 1.036 0 1.523.426 1.523 1.604v6.176l-1.198.57v1.035h6.216v-1.035l-1.24-.57v-7.03c0-2.09-.954-3.026-2.843-3.026-1.543 0-3.047.55-4.063 1.483v-1.483h-.305l-4.713.752v.996l1.3.59v7.72l-1.238.568v1.035zm-14.464-16.373c-1.118 0-2.012.894-2.012 2.01 0 1.098.894 1.992 2.01 1.992 1.098 0 2.012-.894 2.012-1.99 0-1.12-.914-2.012-2.01-2.012m-3.11 5.424v1.036l1.28.59v7.698l-1.22.568v1.057h6.22v-1.057l-1.22-.568v-10.076h-.304zm-5.286 8.809c-.274.227-.59.393-1.158.393-1.503 0-2.214-1.22-2.214-4.022 0-3.21.894-4.286 2.092-4.286.67 0 1.006.21 1.28.51v7.405zm0-9.012c-.467-.325-1.198-.51-1.828-.51-2.797 0-5.44 1.604-5.44 6.195 0 4.368 2.662 5.772 4.445 5.772 1.423 0 2.397-.63 2.865-1.24h.122v1.2h.326l4.49-.53v-.827l-1.2-.67v-14.53h-.304l-4.734.75v1.038l1.26.57v2.783zm-15.882.203v1.036l1.26.59v7.698l-1.198.568v1.057h6.54v-1.057l-1.564-.568v-6.032c.67-.526 1.503-.692 2.52-.692.324 0 .73.04.954.102v-3.312c-.122-.04-.365-.06-.57-.06-1.238 0-2.375.81-3.046 2.314v-2.396h-.325l-4.57.752zm-8.115.897c.268-.12.82-.125 1.003-.125 1.462 0 1.89.73 1.89 2.174l-.003 1.284-2.166.407c-2.217.41-3.89 1.083-3.89 3.42 0 1.89 1.327 3.198 3.134 3.198 1.422 0 2.763-.608 3.27-1.624h.103c.183 1.22 1.24 1.605 2.417 1.605.915 0 1.798-.284 2.134-.664v-.656l-1.2-.57v-6.602c0-2.56-1.828-3.496-4.875-3.496-1.99 0-3.292.497-4.348 1v2.882h1.768l.764-2.23zm2.892 7.795c-.22.32-.63.49-1.037.49-.73 0-1.42-.406-1.42-1.666 0-.9.81-1.726 1.7-1.862l.757-.144v3.182zm35.721-7.795c.268-.12.82-.125 1.003-.125 1.462 0 1.89.73 1.89 2.174l-.004 1.284-2.167.407c-2.217.41-3.89 1.083-3.89 3.42 0 1.89 1.327 3.198 3.134 3.198 1.422 0 2.763-.608 3.27-1.624h.104c.184 1.22 1.24 1.605 2.418 1.605.914 0 1.797-.284 2.133-.664v-.656l-1.198-.57v-6.602c0-2.56-1.828-3.496-4.875-3.496-1.99 0-3.292.497-4.347 1v2.882h1.768l.76-2.23zm2.892 7.795c-.218.32-.63.49-1.036.49-.73 0-1.422-.406-1.422-1.666 0-.9.812-1.726 1.702-1.862l.756-.144v3.182zm-56.346-1.054c0 1.97.976 3.616 3.27 3.616 1.525 0 2.866-.67 3.597-1.564v1.545h.304l4.612-.55v-.827l-1.28-.67v-9.879h-.305l-4.733.752v1.036l1.26.59v6.822c-.422.28-.712.408-1.38.408-.953 0-1.566-.283-1.566-1.583v-8.025h-.326l-4.733.752v1.036l1.28.59v5.95zm-4.936.812h-4.06c-.448 0-.815-.325-.815-.73 0-.305.224-.63.51-.834.608.182 1.116.223 1.868.223 2.924 0 4.936-1.32 4.936-3.8 0-1.116-.468-1.746-1.18-2.396l1.926.6.004-2.266-3.067.57c-.712-.265-1.707-.59-2.62-.59-2.927 0-4.958 1.503-4.958 3.96 0 1.504.75 2.622 1.89 3.25l.09.058c-.65.447-2 1.467-2 2.666 0 .894.59 1.768 1.81 2.03v.004c-1.28.264-2.724.81-2.724 2.292 0 1.523 2.194 3.03 5.77 3.03 4.45 0 6.38-2.095 6.38-4.797 0-2.235-1.24-3.27-3.76-3.27m-2.497-7.882c.833 0 1.402.58 1.402 2.62 0 2.093-.59 2.52-1.402 2.52-.813 0-1.383-.427-1.383-2.52 0-2.143.57-2.62 1.383-2.62m-.02 14.22c-2.072 0-2.816-.808-2.784-1.605.02-.548.292-1.257 1.265-1.32h3.23c.934 0 1.524.648 1.524 1.238 0 1.177-.88 1.688-3.237 1.688m-6.099-9.183c0-4.774-2.117-6.34-5.058-6.34-3.393 0-5.607 2.216-5.607 5.975 0 3.86 2.01 6.013 5.91 6.013 2.094 0 3.744-1.102 4.27-1.833l.06-.93c-.793.244-1.606.386-3.048.386-2.073 0-3.314-1.06-3.313-3.27h6.785zm-5.12-5.058c.935 0 1.443.68 1.443 3.515l-3.15.182c.044-2.897.67-3.698 1.707-3.698"/><path d="M8.552 16.525h6.216v-1.035l-1.198-.57-.002-7.333c.454-.313.972-.48 1.54-.48 1.037 0 1.55.652 1.53 1.637v6.176l-1.198.57v1.035h6.217v-1.035l-1.24-.57v-7.03c0-2.09-1.206-3.026-2.844-3.026-1.543 0-3.05.55-4.066 1.483h.003v-6.337h-.305l-4.715.75v.997l1.302.59v12.573l-1.24.57v1.035zm-6.804-3.108c0 2.09.994 3.413 3.248 3.413 1.18 0 2.435-.305 3.15-.838v-1.4c-.297.096-.81.187-1.218.187-1.097 0-1.4-.57-1.4-1.688v-5.991h2.477v-1.95h-2.48v-2.663l-3.777.528v2.135l-1.748.327v1.623h1.748v6.317z"/></g><path d="M121.452 15.488l1.24-.57v-7.722l-1.3-.59v-.996l4.715-.753h.305v1.483h.122c1.016-.934 1.992-1.483 3.537-1.483 1.342 0 2.196.468 2.603 1.484h.102c1.016-.934 2.134-1.483 3.68-1.483 1.89 0 2.885.956 2.885 3.05v7.01l1.24.57v1.036h-5.996v-1.036l.996-.57v-6.178c0-1.18-.386-1.605-1.402-1.605-.386 0-.833.102-1.26.284v7.5l.996.568v1.036h-5.772v-1.036l.996-.57v-6.177c0-1.18-.366-1.605-1.402-1.605-.407 0-.813.102-1.26.305v7.48l.996.568v1.036h-6.017v-1.036zm23.073-4.308c.183 2.214 1.24 3.27 3.313 3.27 1.443 0 2.256-.14 3.048-.385v1.098c-.528.73-2.236 1.667-4.33 1.667-3.9 0-5.914-2.154-5.914-6.016 0-3.76 2.215-5.935 5.61-5.935 3.415 0 5.06 1.523 5.06 6.3h-6.787zm-.04-1.363l3.15-.183c0-3.028-.508-3.516-1.442-3.516-1.037 0-1.668.67-1.708 3.7zm7.069 5.671l1.24-.57v-7.722l-1.3-.59v-.996l4.715-.753h.304v1.483h.122c1.017-.934 1.992-1.483 3.537-1.483 1.34 0 2.195.468 2.602 1.484h.102c1.016-.934 2.134-1.483 3.68-1.483 1.89 0 2.885.956 2.885 3.05v7.01l1.24.57v1.036h-5.996v-1.036l.996-.57v-6.178c0-1.18-.386-1.605-1.402-1.605-.386 0-.833.102-1.26.284v7.5l.996.568v1.036h-5.772v-1.036l.996-.57v-6.177c0-1.18-.366-1.605-1.403-1.605-.406 0-.813.102-1.26.305v7.48l.996.568v1.036h-6.016v-1.036zm23.816-9.308h.142c.65-.692 1.728-1.322 3.19-1.322 1.952 0 4.005 1.565 4.005 5.793 0 4.635-2.643 6.18-6.16 6.18-2.113 0-3.983-.447-4.958-1.016v-13.233l-1.26-.57v-1.035l4.735-.752h.305v5.955zm3.373 4.755c0-3.07-.833-3.862-2.012-3.862-.61 0-1.036.143-1.36.305v7.703c.223.184.568.387 1.24.387 1.422 0 2.133-1.28 2.133-4.532zm8.414.245c.183 2.214 1.24 3.27 3.313 3.27 1.443 0 2.256-.14 3.05-.385v1.098c-.53.73-2.237 1.667-4.33 1.667-3.903 0-5.915-2.154-5.915-6.016 0-3.76 2.215-5.935 5.61-5.935 3.415 0 5.06 1.523 5.06 6.3h-6.788zm-.04-1.363l3.15-.183c0-3.028-.507-3.516-1.442-3.516-1.037 0-1.668.67-1.708 3.7zm11.581-5h.325v2.398h.122c.67-1.504 1.687-2.317 2.927-2.317.203 0 .447.02.57.06v3.314c-.225-.06-.63-.102-.957-.102-1.016 0-1.87.102-2.52.407v6.32l1.564.57v1.057h-6.545v-1.057l1.2-.57v-7.701l-1.26-.59v-1.036l4.573-.753zm4.299 11.28v-3.007h1.606l.65 1.89c.264.243 1.18.365 1.83.365 1.077 0 1.83-.244 1.83-1.138 0-.833-.285-1.18-1.505-1.443l-1.382-.305c-2.093-.47-3.07-2.135-3.07-3.822 0-2.175 1.485-3.78 4.84-3.78 1.34 0 2.702.202 3.597.59v2.803h-1.585l-.488-1.565c-.264-.142-1.057-.285-1.667-.285-.895 0-1.504.427-1.504 1.118 0 .67.304 1.078 1.564 1.342l1.34.285c2.196.467 3.03 1.93 3.03 3.658 0 2.378-1.505 4.004-5.123 4.004-1.22 0-2.866-.246-3.963-.713zm9.215-.609l1.24-.57v-12.578l-1.3-.59v-1l4.714-.75h.305v6.34h.122c1.016-.934 2.398-1.483 3.943-1.483 1.89 0 2.846.935 2.846 3.03v7.03l1.24.57v1.036h-6.22v-1.036l1.2-.57v-6.177c0-1.18-.488-1.605-1.525-1.605-.57 0-1.078.122-1.545.305v7.48l1.2.568v1.036h-6.22v-1.036zm18.148-10.671h.306v10.08l1.22.57v1.057h-6.22v-1.057l1.22-.57v-7.701l-1.28-.59v-1.036l4.755-.753zm.367-2.663c0 1.098-.915 1.992-2.012 1.992-1.118 0-2.012-.895-2.012-1.992 0-1.118.895-2.012 2.012-2.012 1.097 0 2.012.895 2.012 2.012zm6.098 4.186c.63-.75 1.625-1.483 3.09-1.483 2.235 0 4.085 1.26 4.085 5.772 0 4.633-2.602 6.178-5.59 6.178-.914 0-1.3-.183-1.667-.345v3.415l1.423.57v1.057h-6.423v-1.058l1.22-.57v-12.68l-1.28-.59v-.996l4.715-.753h.305v1.483h.122zm3.212 4.554c0-2.642-.752-3.78-1.972-3.78-.63 0-.996.142-1.32.305v7.438c.263.183.67.366 1.198.366 1.18 0 2.094-1.078 2.094-4.33z" fill="#fff"/><path fill="#FDBA12" d="M121.45 17.818h29.444v12.655h-29.444z"/><path d="M124.97 27.898v-6.838l-.722-.184v-.906l2.283-.264.173.08v2.937h.08c.39-.32.918-.643 1.732-.643 1.113 0 2.237.643 2.237 2.926 0 2.41-1.308 3.407-3.235 3.407-1.1.002-2.02-.24-2.547-.515zm3.925-2.65c0-1.41-.425-1.88-1.216-1.88-.402 0-.735.114-.94.217v3.522c.182.126.39.252.86.252.79 0 1.295-.448 1.295-2.11zm2.612-.035c0-1.973 1.216-3.12 2.972-3.12 1.824 0 2.66 1.02 2.66 3.36h-3.796c.092 1.23.71 1.733 1.767 1.733.815 0 1.31-.15 1.745-.287v.928c-.413.264-1.102.585-2.214.585-2.1.002-3.133-1.214-3.133-3.2zm3.856-.676c0-1.044-.356-1.41-.93-1.41-.608 0-1.02.377-1.09 1.48l2.02-.07zm2.989 2.237v-3.487h-.71v-.78l.87-.3.23-1.41h1.388v1.422h1.33v1.066h-1.33v3.178c0 .573.218.78.792.78.218 0 .436-.035.62-.08v.882c-.265.172-.78.344-1.39.344-1.158.002-1.8-.4-1.8-1.616zm3.848-.012c0-1.147.814-1.526 2.1-1.766l1.204-.24v-.402c0-.7-.206-.964-1.205-.964-.518 0-1.148.046-1.55.115v-.987c.55-.206 1.457-.424 2.398-.424 1.457 0 2.134.62 2.134 1.916v2.938c0 .31.184.39.447.39h.217v.814c-.184.104-.654.253-1.136.253-.596 0-.963-.207-1.112-.688h-.057c-.31.38-.86.7-1.628.7-1.09-.002-1.813-.667-1.813-1.655zm3.303.3v-1.435l-.734.046c-.575.046-.804.32-.804.85 0 .55.24.836.77.836.32 0 .618-.16.767-.3z" fill="#010101"/></svg>