<svg xmlns="http://www.w3.org/2000/svg" width="25" height="25" viewBox="0 0 60 60" enable-background="new 0 0 60 60"><path fill="#767676" d="M60 27.954V13.622l-2.728-2.727H2.728L0 13.622v14.333l2.728 1.363v1.364L0 32.045V46.36l2.728 2.728h54.545L60 46.36V32.046l-2.728-1.363v-1.364L60 27.954zm-11.245 15.68H46.03V40.91h2.725v2.724zm0-4.092H46.03v-2.725h2.725v2.725zm0-4.09H46.03v-2.725h2.725v2.725zm0-4.09H46.03v-2.726h2.725v2.725zm0-4.09H46.03v-2.727h2.725v2.726zm0-4.09H46.03v-2.727h2.725v2.726zm0-4.092H46.03v-2.726h2.725v2.726z"/></svg>