<svg xmlns="http://www.w3.org/2000/svg" width="25" height="25" viewBox="0 0 60 60" enable-background="new 0 0 60 60"><g fill="#005689"><path d="M28.006 23.21h3.985v28.233h-3.984zM7.91 47.76l3.68 3.683h13.352V23.21H7.91zM55.77 16.136H39.848c1.325-1.365 2.284-2.944 2.698-4.467.472-1.727.21-3.2-.74-4.147-.632-.632-1.517-.966-2.562-.966-1.96 0-4.275 1.144-6.19 3.06-1.864 1.863-2.927 4.03-3.043 5.857-.026-.398-.098-.815-.216-1.25-.43-1.576-1.436-3.213-2.832-4.608-1.914-1.915-4.23-3.06-6.19-3.06-1.045 0-1.932.335-2.563.967-1.84 1.84-.973 5.597 1.958 8.613H4.228L3 17.363v3.068l1.227 1.228h20.716v-2.68h3.063v2.68h3.985v-2.68h3.065v2.68H55.77L57 20.432v-3.068l-1.23-1.228zm-27.305 0h-6.003c-.37-.285-.734-.597-1.08-.942-2.595-2.596-3.178-5.5-2.093-6.587.343-.344.842-.517 1.48-.517 1.54 0 3.498 1 5.106 2.61 1.21 1.21 2.078 2.604 2.438 3.927.106.386.21.955.15 1.51zm1.542 0v-.005.006zm7.544 0h-6.006c-.158-1.397.657-3.503 2.59-5.438 1.61-1.61 3.567-2.608 5.108-2.608.64 0 1.137.173 1.48.517.73.732.53 1.98.345 2.658-.36 1.322-1.226 2.718-2.438 3.93-.345.344-.71.656-1.08.94zM35.056 51.443h13.352l3.68-3.682V23.21H35.057z"/></g></svg>