<?xml version="1.0" encoding="utf-8"?>
<!-- Generator: Adobe Illustrator 16.0.0, SVG Export Plug-In . SVG Version: 6.00 Build 0)  -->
<!DOCTYPE svg PUBLIC "-//W3C//DTD SVG 1.1//EN" "http://www.w3.org/Graphics/SVG/1.1/DTD/svg11.dtd">
<svg version="1.1" id="Layer_1" xmlns="http://www.w3.org/2000/svg" xmlns:xlink="http://www.w3.org/1999/xlink" x="0px" y="0px"
	 width="25" height="29" viewBox="0 0 193.589 221.269" enable-background="new 0 0 193.589 221.269"
	 xml:space="preserve">
<path fill="#FFFFFF" stroke="#000000" stroke-width="8" stroke-miterlimit="10" d="M155.747,203.939c0,7.361-5.373,13.33-12,13.33
	H16c-6.627,0-12-5.969-12-13.33V62.028c0-7.362,5.373-13.331,12-13.331h127.747c6.627,0,12,5.968,12,13.331V203.939z"/>
<line fill="none" stroke="#000000" stroke-width="12" stroke-miterlimit="10" x1="25.905" y1="175.551" x2="133.842" y2="175.551"/>
<line fill="none" stroke="#000000" stroke-width="12" stroke-miterlimit="10" x1="25.905" y1="133.032" x2="133.842" y2="133.032"/>
<line fill="none" stroke="#000000" stroke-width="12" stroke-miterlimit="10" x1="25.905" y1="90.512" x2="133.842" y2="90.512"/>
<g>
	<path fill="none" stroke="#000000" stroke-width="16" stroke-linejoin="round" stroke-miterlimit="10" d="M111.526,52.603H48.221
		C48.221,27.969,55.24,8,79.874,8S111.526,27.969,111.526,52.603z"/>
	<circle fill="none" stroke="#000000" stroke-width="16" stroke-miterlimit="10" cx="79.874" cy="31.165" r="21.253"/>
</g>
<line fill="#FFFFFF" stroke="#FFFFFF" stroke-width="45" stroke-linecap="round" stroke-linejoin="round" stroke-miterlimit="10" x1="107.653" y1="131.094" x2="162.064" y2="131.094"/>
<polygon fill="#FFFFFF" stroke="#FFFFFF" stroke-width="16" stroke-linecap="round" stroke-linejoin="round" stroke-miterlimit="10" points="
	61.094,132.875 136.733,196.031 136.733,69.715 "/>
<line fill="none" stroke="#000000" stroke-width="30" stroke-linecap="round" stroke-linejoin="round" stroke-miterlimit="10" x1="127.325" y1="131.506" x2="178.589" y2="131.506"/>
<polygon stroke="#000000" stroke-width="16" stroke-linecap="round" stroke-linejoin="round" stroke-miterlimit="10" points="
	72.375,132.873 130.464,181.375 130.464,84.368 "/>
</svg>
