<?xml version="1.0" encoding="utf-8"?>
<!-- Generator: Adobe Illustrator 16.0.1, SVG Export Plug-In . SVG Version: 6.00 Build 0)  -->
<!DOCTYPE svg PUBLIC "-//W3C//DTD SVG 1.1//EN" "http://www.w3.org/Graphics/SVG/1.1/DTD/svg11.dtd">
<svg version="1.1" id="Layer_1" xmlns="http://www.w3.org/2000/svg" xmlns:xlink="http://www.w3.org/1999/xlink" x="0px" y="0px"
	 width="60" height="60" viewBox="0 0 60 60" enable-background="new 0 0 60 60" xml:space="preserve">
<g>
	<path fill="#767676" d="M3,20.293C3,11.512,9.033,7.988,14.887,7.988c5.734,0,11.948,3.404,11.948,12.005
		c0,8.662-6.034,12.187-12.008,12.187C8.795,32.181,3,28.776,3,20.293z M40.393,7.509h6.811L19.127,52.491h-6.809L40.393,7.509z
		 M17.097,20.293c0-4.778-0.119-7.049-2.21-7.049c-2.09,0-2.21,2.151-2.21,6.81c0,4.66,0.12,6.87,2.21,6.87
		C16.978,26.923,17.097,25.012,17.097,20.293z M33.165,38.931c0-8.782,6.033-12.306,11.889-12.306C50.788,26.625,57,30.03,57,38.632
		c0,8.661-6.034,12.187-12.007,12.187C38.96,50.818,33.165,47.414,33.165,38.931z M47.263,38.931c0-4.778-0.12-7.047-2.209-7.047
		c-2.092,0-2.211,2.148-2.211,6.808c0,4.66,0.119,6.869,2.211,6.869C47.143,45.561,47.263,43.65,47.263,38.931z"/>
</g>
</svg>
