<?xml version="1.0" encoding="utf-8"?>
<!-- Generator: Adobe Illustrator 16.0.1, SVG Export Plug-In . SVG Version: 6.00 Build 0)  -->
<!DOCTYPE svg PUBLIC "-//W3C//DTD SVG 1.1//EN" "http://www.w3.org/Graphics/SVG/1.1/DTD/svg11.dtd">
<svg version="1.1" id="Layer_1" xmlns="http://www.w3.org/2000/svg" xmlns:xlink="http://www.w3.org/1999/xlink" x="0px" y="0px"
	 width="60" height="60" viewBox="0 0 60 60" enable-background="new 0 0 60 60" xml:space="preserve">
<g>
	<path fill="#767676" d="M2,19.934C2,10.827,8.257,7.173,14.327,7.173c5.946,0,12.391,3.531,12.391,12.451
		c0,8.982-6.258,12.637-12.452,12.637C8.01,32.261,2,28.73,2,19.934z M40.777,6.676h7.062L18.725,53.323h-7.062L40.777,6.676z
		 M16.619,19.934c0-4.956-0.124-7.31-2.292-7.31c-2.167,0-2.292,2.23-2.292,7.062c0,4.831,0.125,7.124,2.292,7.124
		C16.495,26.81,16.619,24.827,16.619,19.934z M33.282,39.261c0-9.106,6.257-12.761,12.329-12.761C51.558,26.5,58,30.031,58,38.951
		c0,8.982-6.258,12.638-12.451,12.638C39.292,51.589,33.282,48.058,33.282,39.261z M47.902,39.261c0-4.955-0.125-7.309-2.291-7.309
		c-2.169,0-2.293,2.229-2.293,7.062s0.124,7.123,2.293,7.123C47.777,46.137,47.902,44.156,47.902,39.261z"/>
</g>
</svg>
