<svg xmlns="http://www.w3.org/2000/svg" width="25" height="25" viewBox="0 0 60 60" enable-background="new 0 0 60 60"><path fill="#02c7e1" d="M3 20.293c0-8.78 6.033-12.305 11.887-12.305 5.734 0 11.948 3.404 11.948 12.005 0 8.662-6.034 12.187-12.008 12.187C8.795 32.18 3 28.776 3 20.293zM40.393 7.51h6.81L19.128 52.49h-6.81L40.394 7.51zM17.097 20.292c0-4.778-.12-7.05-2.21-7.05s-2.21 2.152-2.21 6.81c0 4.66.12 6.87 2.21 6.87s2.21-1.91 2.21-6.63zM33.165 38.93c0-8.78 6.033-12.305 11.89-12.305C50.787 26.625 57 30.03 57 38.632c0 8.66-6.034 12.187-12.007 12.187-6.033-.002-11.828-3.406-11.828-11.89zm14.098 0c0-4.777-.12-7.046-2.21-7.046s-2.21 2.148-2.21 6.808.12 6.87 2.21 6.87 2.21-1.912 2.21-6.63z"/></svg>