<?xml version="1.0" encoding="utf-8"?>
<!-- Generator: Adobe Illustrator 16.0.0, SVG Export Plug-In . SVG Version: 6.00 Build 0)  -->
<!DOCTYPE svg PUBLIC "-//W3C//DTD SVG 1.1//EN" "http://www.w3.org/Graphics/SVG/1.1/DTD/svg11.dtd">
<svg version="1.1" id="Layer_1" xmlns="http://www.w3.org/2000/svg" xmlns:xlink="http://www.w3.org/1999/xlink" x="0px" y="0px"
	 width="63.203px" height="19.422px" viewBox="0 0 63.203 19.422" enable-background="new 0 0 63.203 19.422" xml:space="preserve">
<g>
	<g>
		
			<linearGradient id="SVGID_1_" gradientUnits="userSpaceOnUse" x1="301.2539" y1="-160.7842" x2="301.2539" y2="-178.8989" gradientTransform="matrix(1 0 0 -1 -271 -159.625)">
			<stop  offset="0" style="stop-color:#F18621"/>
			<stop  offset="0.1473" style="stop-color:#F08022"/>
			<stop  offset="0.6894" style="stop-color:#EE6A25"/>
			<stop  offset="1" style="stop-color:#ED6126"/>
		</linearGradient>
		<path fill="url(#SVGID_1_)" d="M2.183,19.422C0.959,19.422,0,18.184,0,16.606V2.816C0,1.236,0.958,0,2.183,0l0.073,0.001
			l55.982,2.4c1.252,0.05,2.272,1.066,2.272,2.262v10.096c0,1.196-1.02,2.21-2.272,2.263L2.254,19.42L2.183,19.422z"/>
		<g>
			
				<linearGradient id="SVGID_2_" gradientUnits="userSpaceOnUse" x1="332.5547" y1="-162.2378" x2="332.5547" y2="-175.3816" gradientTransform="matrix(1 0 0 -1 -271 -159.625)">
				<stop  offset="0" style="stop-color:#F18621"/>
				<stop  offset="0.1473" style="stop-color:#F08022"/>
				<stop  offset="0.6894" style="stop-color:#EE6A25"/>
				<stop  offset="1" style="stop-color:#ED6126"/>
			</linearGradient>
			<path fill="url(#SVGID_2_)" d="M61.09,3.03V3.022c0-0.047,0.028-0.073,0.079-0.073h0.773c0.052,0,0.078,0.026,0.078,0.073V3.03
				c0,0.047-0.026,0.074-0.078,0.074h-0.298v0.863c0,0.052-0.027,0.079-0.078,0.079h-0.022c-0.049,0-0.073-0.027-0.073-0.079V3.104
				h-0.3C61.118,3.104,61.09,3.077,61.09,3.03z"/>
			
				<linearGradient id="SVGID_3_" gradientUnits="userSpaceOnUse" x1="333.6865" y1="-162.2383" x2="333.6865" y2="-175.371" gradientTransform="matrix(1 0 0 -1 -271 -159.625)">
				<stop  offset="0" style="stop-color:#F18621"/>
				<stop  offset="0.1473" style="stop-color:#F08022"/>
				<stop  offset="0.6894" style="stop-color:#EE6A25"/>
				<stop  offset="1" style="stop-color:#ED6126"/>
			</linearGradient>
			<path fill="url(#SVGID_3_)" d="M62.172,3.968V3.039c0-0.059,0.04-0.096,0.101-0.096h0.044c0.068,0,0.086,0.025,0.113,0.087
				l0.258,0.582l0.26-0.582c0.027-0.064,0.047-0.087,0.111-0.087h0.043c0.062,0,0.102,0.037,0.102,0.096v0.929
				c0,0.052-0.022,0.079-0.071,0.079h-0.024c-0.049,0-0.068-0.027-0.068-0.079V3.167L62.798,3.71
				c-0.021,0.044-0.038,0.074-0.112,0.074s-0.091-0.03-0.111-0.074l-0.236-0.538v0.795c0,0.052-0.021,0.079-0.07,0.079h-0.028
				C62.192,4.046,62.172,4.02,62.172,3.968z"/>
		</g>
	</g>
	<g>
		<path fill="#D45727" d="M3.371,12.587l1.294-6.145C4.791,5.845,5.159,5.57,5.72,5.57h4.095c0.472,0,0.724,0.184,0.724,0.504
			c0,0.184-0.104,0.598-0.288,0.781c-0.125,0.138-0.275,0.184-0.654,0.184H6.237l-0.396,1.81h2.513c0.436,0,0.666,0.184,0.666,0.471
			c0,0.171-0.081,0.55-0.252,0.733c-0.115,0.114-0.265,0.183-0.608,0.183H5.544l-0.405,1.96h3.35c0.472,0,0.711,0.185,0.711,0.495
			c0,0.195-0.092,0.596-0.275,0.792c-0.125,0.126-0.287,0.185-0.653,0.185h-4.05C3.521,13.666,3.211,13.31,3.371,12.587z"/>
		<path fill="#D45727" d="M11.098,13.126L10.64,9.938c-0.115-0.873-0.379-1.102-0.838-1.136c-0.022,0,0.081-0.827,1.011-0.827
			c0.343,0,0.585,0.092,0.803,0.31c0.31,0.309,0.447,0.814,0.504,1.583l0.207,2.088l2.271-3.97c0.013-0.023,1.113,0.035,1.113,0.792
			c0,0.252-0.092,0.447-0.344,0.826l-2.363,3.638c-0.263,0.412-0.7,0.481-1.01,0.481C11.581,13.723,11.156,13.573,11.098,13.126z"/>
		<path fill="#D45727" d="M15.757,11.417c0-2.03,1.561-3.488,3.522-3.488c1.423,0,2.214,0.665,2.214,1.64
			c0,1.148-0.735,1.835-3.224,1.835c-0.344,0-0.722-0.022-1.147-0.046v0.036c0,0.78,0.482,1.262,1.365,1.262
			c0.747,0,1.286-0.333,1.653-0.816c0.023-0.033,0.688,0.083,0.688,0.61c0,0.298-0.091,0.458-0.31,0.688
			c-0.425,0.413-1.089,0.666-2.053,0.666C16.629,13.804,15.757,12.793,15.757,11.417z M17.329,10.372
			c0.299,0.022,0.562,0.035,0.803,0.035c1.561,0,1.996-0.355,1.996-0.792c0-0.296-0.309-0.597-0.917-0.597
			C18.361,9.019,17.662,9.604,17.329,10.372z"/>
		<path fill="#D45727" d="M24.087,9.019c0.447-0.676,1.101-1.089,1.928-1.089c1.147,0,1.812,0.747,1.812,1.813
			c0,0.401-0.138,0.953-0.333,1.64c-0.149,0.562-0.264,1.01-0.264,1.239c0,0.322,0.149,0.449,0.459,0.494
			c0.023,0-0.092,0.665-0.975,0.665c-0.757,0-1.113-0.39-1.113-0.999c0-0.321,0.104-0.745,0.276-1.377
			c0.149-0.527,0.253-0.963,0.253-1.204c0-0.574-0.322-0.917-0.906-0.917c-0.562,0-0.931,0.264-1.285,0.814l-0.597,2.845
			c-0.126,0.573-0.333,0.768-0.746,0.768h-0.171c-0.436,0-0.827-0.173-0.7-0.768l1.02-4.82c0.011-0.033,0.196-0.102,0.448-0.102
			C23.652,8.022,24.099,8.273,24.087,9.019z"/>
		<path fill="#D45727" d="M29.044,11.692l0.494-2.363h-0.276c-0.368,0-0.585-0.161-0.585-0.425c0-0.16,0.069-0.505,0.229-0.677
			c0.115-0.103,0.241-0.16,0.563-0.16h0.331l0.069-0.321c0.161-0.826,0.494-1.171,1.205-1.171c0.344,0,0.607,0.138,0.597,0.195
			l-0.275,1.296h0.94c0.391,0,0.608,0.172,0.608,0.425c0,0.161-0.069,0.515-0.241,0.677c-0.103,0.104-0.24,0.161-0.55,0.161h-1.045
			l-0.493,2.293c-0.149,0.678,0.08,0.964,0.527,0.964c0.287,0,0.539-0.148,0.688-0.287c0.046-0.034,0.264,0.149,0.264,0.493
			c0,0.241-0.091,0.448-0.275,0.632c-0.251,0.252-0.654,0.39-1.193,0.39C29.343,13.815,28.757,13.046,29.044,11.692z"/>
		<path fill="#D45727" d="M34.518,12.714c-0.219,0.723-0.574,0.998-1.205,0.998c-0.31,0-0.574-0.139-0.563-0.195l1.51-7.155
			c0.126-0.585,0.334-0.78,0.748-0.78h0.183c0.424,0,0.826,0.184,0.688,0.78l-0.522,2.496c0.412-0.573,1.009-0.929,1.778-0.929
			c1.206,0,2.203,0.861,2.203,2.397c0,1.767-1.158,3.478-2.926,3.478C35.585,13.804,34.861,13.402,34.518,12.714z M35.091,10.086
			l-0.172,0.802c-0.171,0.895,0.311,1.641,1.263,1.641c1.02,0,1.583-0.987,1.583-1.996c0-0.815-0.516-1.32-1.193-1.32
			C35.975,9.214,35.435,9.569,35.091,10.086z"/>
		<path fill="#D45727" d="M42.11,9.007c0.344-0.676,0.86-1.078,1.515-1.078c0.562,0,0.998,0.321,0.998,0.791
			c0,0.792-0.7,1.044-0.724,1.021c-0.16-0.172-0.389-0.332-0.778-0.332c-0.724,0-1.183,0.803-1.435,1.985l-0.321,1.549
			c-0.127,0.573-0.333,0.768-0.747,0.768h-0.171c-0.436,0-0.826-0.173-0.7-0.768l1.021-4.82c0.012-0.033,0.195-0.102,0.447-0.102
			C41.674,8.022,42.122,8.273,42.11,9.007z"/>
		<path fill="#D45727" d="M44.704,12.232l0.735-3.431c0.125-0.586,0.332-0.779,0.745-0.779h0.171c0.437,0,0.827,0.171,0.702,0.779
			l-0.747,3.477c-0.126,0.62-0.023,0.861,0.446,0.93c0.012,0.012-0.08,0.573-0.94,0.573C44.772,13.78,44.508,13.138,44.704,12.232z
			 M45.88,6.511c0-0.551,0.378-0.941,0.94-0.941c0.576,0,0.896,0.288,0.896,0.7c0,0.539-0.378,0.941-0.94,0.941
			C46.201,7.21,45.88,6.924,45.88,6.511z"/>
		<path fill="#D45727" d="M48.214,11.692l0.495-2.363h-0.276c-0.368,0-0.584-0.161-0.584-0.425c0-0.16,0.069-0.505,0.229-0.677
			c0.115-0.103,0.241-0.16,0.563-0.16h0.332l0.069-0.321c0.16-0.826,0.493-1.171,1.205-1.171c0.345,0,0.608,0.138,0.597,0.195
			l-0.276,1.296h0.939c0.392,0,0.61,0.172,0.61,0.425c0,0.161-0.07,0.515-0.241,0.677c-0.104,0.104-0.243,0.161-0.55,0.161h-1.044
			l-0.494,2.293c-0.149,0.678,0.08,0.964,0.528,0.964c0.287,0,0.539-0.148,0.687-0.287c0.047-0.034,0.265,0.149,0.265,0.493
			c0,0.241-0.091,0.448-0.275,0.632c-0.252,0.252-0.653,0.39-1.193,0.39C48.513,13.815,47.928,13.046,48.214,11.692z"/>
		<path fill="#D45727" d="M52.106,11.417c0-2.03,1.559-3.488,3.521-3.488c1.424,0,2.216,0.665,2.216,1.64
			c0,1.148-0.736,1.835-3.224,1.835c-0.345,0-0.724-0.022-1.149-0.046v0.036c0,0.78,0.483,1.262,1.366,1.262
			c0.747,0,1.286-0.333,1.653-0.816c0.023-0.033,0.687,0.083,0.687,0.61c0,0.298-0.09,0.458-0.31,0.688
			c-0.424,0.413-1.089,0.666-2.053,0.666C52.977,13.804,52.106,12.793,52.106,11.417z M53.677,10.372
			c0.297,0.022,0.56,0.035,0.802,0.035c1.561,0,1.995-0.355,1.995-0.792c0-0.296-0.309-0.597-0.917-0.597
			C54.708,9.019,54.008,9.604,53.677,10.372z"/>
	</g>
	<g>
		<path fill="#FFFFFF" d="M3.538,12.419l1.294-6.145c0.126-0.597,0.494-0.873,1.056-0.873h4.096c0.47,0,0.723,0.184,0.723,0.505
			c0,0.184-0.104,0.596-0.288,0.78c-0.125,0.137-0.274,0.184-0.654,0.184H6.405L6.01,8.682h2.514c0.436,0,0.665,0.183,0.665,0.47
			c0,0.172-0.081,0.551-0.253,0.735c-0.114,0.114-0.264,0.183-0.607,0.183H5.712l-0.405,1.96h3.351c0.471,0,0.711,0.184,0.711,0.494
			c0,0.195-0.092,0.597-0.275,0.792c-0.126,0.126-0.287,0.183-0.655,0.183h-4.05C3.688,13.498,3.378,13.142,3.538,12.419z"/>
		<path fill="#FFFFFF" d="M11.266,12.96l-0.458-3.19c-0.115-0.873-0.378-1.102-0.837-1.136c-0.023,0,0.08-0.826,1.01-0.826
			c0.343,0,0.584,0.092,0.803,0.31c0.31,0.31,0.448,0.814,0.505,1.583l0.207,2.087l2.271-3.97c0.011-0.023,1.114,0.035,1.114,0.792
			c0,0.251-0.092,0.447-0.345,0.826l-2.363,3.637c-0.264,0.413-0.701,0.482-1.01,0.482C11.748,13.556,11.323,13.406,11.266,12.96z"
			/>
		<path fill="#FFFFFF" d="M15.924,11.248c0-2.029,1.561-3.487,3.523-3.487c1.422,0,2.214,0.666,2.214,1.64
			c0,1.148-0.734,1.836-3.223,1.836c-0.345,0-0.724-0.022-1.148-0.047v0.036c0,0.779,0.482,1.261,1.365,1.261
			c0.746,0,1.286-0.333,1.652-0.815c0.023-0.034,0.689,0.082,0.689,0.608c0,0.298-0.092,0.46-0.31,0.688
			c-0.425,0.414-1.09,0.667-2.054,0.667C16.797,13.637,15.924,12.627,15.924,11.248z M17.497,10.205
			c0.297,0.023,0.56,0.035,0.802,0.035c1.561,0,1.995-0.355,1.995-0.792c0-0.298-0.309-0.596-0.916-0.596
			C18.529,8.852,17.83,9.437,17.497,10.205z"/>
		<path fill="#FFFFFF" d="M24.255,8.852c0.447-0.677,1.101-1.089,1.927-1.089c1.148,0,1.813,0.746,1.813,1.813
			c0,0.401-0.138,0.951-0.333,1.64c-0.148,0.561-0.263,1.009-0.263,1.239c0,0.321,0.149,0.448,0.458,0.494
			c0.023,0-0.091,0.666-0.975,0.666c-0.757,0-1.113-0.391-1.113-0.998c0-0.321,0.104-0.746,0.276-1.377
			c0.149-0.528,0.252-0.964,0.252-1.206c0-0.574-0.322-0.917-0.907-0.917c-0.562,0-0.93,0.263-1.285,0.814l-0.596,2.845
			c-0.127,0.574-0.333,0.769-0.747,0.769h-0.171c-0.438,0-0.827-0.172-0.7-0.769l1.021-4.819c0.012-0.035,0.196-0.103,0.448-0.103
			C23.818,7.854,24.266,8.106,24.255,8.852z"/>
		<path fill="#FFFFFF" d="M29.211,11.525l0.494-2.363h-0.276c-0.367,0-0.584-0.162-0.584-0.425c0-0.16,0.068-0.505,0.23-0.677
			c0.114-0.103,0.241-0.16,0.562-0.16h0.332l0.069-0.322c0.161-0.826,0.493-1.17,1.204-1.17c0.345,0,0.608,0.139,0.596,0.195
			L31.564,7.9h0.94c0.39,0,0.608,0.172,0.608,0.425c0,0.16-0.069,0.516-0.242,0.675c-0.104,0.105-0.241,0.163-0.551,0.163h-1.043
			l-0.493,2.293c-0.149,0.677,0.08,0.963,0.528,0.963c0.287,0,0.54-0.149,0.688-0.287c0.046-0.034,0.264,0.149,0.264,0.494
			c0,0.241-0.091,0.447-0.275,0.63c-0.252,0.253-0.653,0.391-1.192,0.391C29.509,13.647,28.925,12.879,29.211,11.525z"/>
		<path fill="#FFFFFF" d="M34.686,12.546c-0.219,0.724-0.574,0.999-1.205,0.999c-0.31,0-0.574-0.138-0.562-0.195l1.51-7.155
			c0.126-0.585,0.333-0.78,0.747-0.78h0.184c0.424,0,0.825,0.183,0.688,0.78l-0.523,2.496c0.413-0.573,1.01-0.929,1.778-0.929
			c1.205,0,2.203,0.86,2.203,2.397c0,1.768-1.158,3.478-2.925,3.478C35.751,13.637,35.028,13.234,34.686,12.546z M35.257,9.919
			l-0.171,0.803c-0.172,0.895,0.309,1.641,1.262,1.641c1.021,0,1.583-0.987,1.583-1.997c0-0.814-0.517-1.319-1.194-1.319
			C36.142,9.047,35.602,9.402,35.257,9.919z"/>
		<path fill="#FFFFFF" d="M42.278,8.84c0.343-0.676,0.861-1.078,1.514-1.078c0.562,0,1,0.321,1,0.792
			c0,0.791-0.702,1.043-0.725,1.021c-0.16-0.173-0.39-0.333-0.78-0.333c-0.724,0-1.181,0.803-1.435,1.985l-0.32,1.549
			c-0.126,0.573-0.332,0.769-0.746,0.769h-0.173c-0.436,0-0.825-0.172-0.699-0.769l1.021-4.818c0.011-0.035,0.195-0.104,0.448-0.104
			C41.842,7.854,42.289,8.106,42.278,8.84z"/>
		<path fill="#FFFFFF" d="M44.87,12.065l0.735-3.431c0.125-0.585,0.333-0.78,0.744-0.78h0.172c0.437,0,0.827,0.171,0.701,0.78
			l-0.745,3.476c-0.128,0.62-0.024,0.861,0.447,0.93c0.011,0.01-0.08,0.574-0.941,0.574C44.939,13.614,44.675,12.971,44.87,12.065z
			 M46.047,6.344c0-0.551,0.379-0.942,0.942-0.942c0.573,0,0.894,0.288,0.894,0.701c0,0.539-0.378,0.941-0.94,0.941
			C46.369,7.044,46.047,6.757,46.047,6.344z"/>
		<path fill="#FFFFFF" d="M48.381,11.525l0.494-2.363h-0.274c-0.368,0-0.586-0.162-0.586-0.425c0-0.16,0.068-0.505,0.23-0.677
			c0.114-0.103,0.24-0.16,0.561-0.16h0.333l0.07-0.322c0.161-0.826,0.491-1.17,1.204-1.17c0.344,0,0.608,0.139,0.596,0.195
			L50.735,7.9h0.94c0.389,0,0.608,0.172,0.608,0.425c0,0.16-0.068,0.516-0.241,0.675c-0.104,0.105-0.241,0.163-0.55,0.163h-1.045
			l-0.494,2.293c-0.147,0.677,0.081,0.963,0.529,0.963c0.287,0,0.54-0.149,0.688-0.287c0.047-0.034,0.265,0.149,0.265,0.494
			c0,0.241-0.092,0.447-0.276,0.63c-0.25,0.253-0.652,0.391-1.192,0.391C48.68,13.647,48.095,12.879,48.381,11.525z"/>
		<path fill="#FFFFFF" d="M52.272,11.248c0-2.029,1.56-3.487,3.521-3.487c1.423,0,2.215,0.666,2.215,1.64
			c0,1.148-0.734,1.836-3.225,1.836c-0.344,0-0.721-0.022-1.147-0.047v0.036c0,0.779,0.482,1.261,1.364,1.261
			c0.747,0,1.287-0.333,1.653-0.815c0.023-0.034,0.689,0.082,0.689,0.608c0,0.298-0.091,0.46-0.31,0.688
			c-0.425,0.414-1.09,0.667-2.053,0.667C53.143,13.637,52.272,12.627,52.272,11.248z M53.843,10.205
			c0.299,0.023,0.563,0.035,0.804,0.035c1.559,0,1.996-0.355,1.996-0.792c0-0.298-0.311-0.596-0.918-0.596
			C54.875,8.852,54.176,9.437,53.843,10.205z"/>
	</g>
</g>
</svg>
