<svg xmlns="http://www.w3.org/2000/svg" width="36" height="36"><g fill="#333"><path d="M-169.248 14.897l-.186-.102c-2.746-1.512-4.56-4.2-4.56-7.818 0-3.1 1.35-5.54 3.65-7.16C-177.22 2.98-182 9.93-182 18c0 5.474 2.2 10.433 5.764 14.045-.007-.097-.013-.194-.013-.293 0-3.57 3.48-4.887 6.57-5.523v-.003c-2.94-.636-4.362-2.737-4.362-4.886 0-2.882 3.225-5.37 4.794-6.443zM-162.026 13.04c1.964 0 3.65-.586 3.65-6.062 0-5.475-1.637-6.306-3.65-6.306-1.964 0-3.6.733-3.6 6.306s1.636 6.062 3.6 6.062zM-142 18c0-8.242-4.985-15.318-12.104-18.38 2.38 1.55 3.826 3.93 3.937 6.978.038.234.06.46.06.673 0 5.965-4.854 9.135-11.918 9.135-1.816 0-3.043-.098-4.516-.537-.688.488-1.228 1.27-1.228 2.005 0 .98.883 1.763 1.963 1.763h9.816c6.08 0 9.07 2.49 9.07 7.862 0 1.793-.355 3.402-1.093 4.794C-144.303 28.662-142 23.6-142 18zM-158.147 27.86h-7.443c-2.5 0-3.24 1.848-3.24 3.218 0 1.98 1.783 3.806 6.98 3.806 5.91 0 7.515-1.664 7.515-3.83 0-1.888-1.423-3.194-3.812-3.194z"/></g><g fill="#231F20"><path d="M11.478 15.133l-.168-.092c-2.47-1.36-4.104-3.78-4.104-7.035 0-2.79 1.215-4.986 3.285-6.444C4.3 4.408 0 10.664 0 17.925c0 4.927 1.98 9.39 5.188 12.64-.007-.086-.012-.174-.012-.263 0-3.21 3.133-4.397 5.91-4.97-2.644-.573-3.924-2.464-3.924-4.398 0-2.595 2.902-4.834 4.316-5.8zM17.977 13.46c1.77 0 3.284-.527 3.284-5.455 0-4.927-1.472-5.675-3.283-5.675-1.767 0-3.24.66-3.24 5.675 0 5.016 1.473 5.456 3.24 5.456zM36 17.924c0-7.417-4.487-13.786-10.894-16.542C27.25 2.78 28.55 4.92 28.65 7.662c.032.212.053.416.053.607 0 5.367-4.368 8.22-10.727 8.22-1.634 0-2.74-.088-4.064-.483-.618.44-1.104 1.144-1.104 1.805 0 .88.794 1.586 1.767 1.586h8.834c5.472 0 8.163 2.24 8.163 7.075 0 1.614-.32 3.062-.984 4.315C33.926 27.52 36 22.965 36 17.924zM21.468 26.8h-6.7c-2.25 0-2.916 1.662-2.916 2.895 0 1.78 1.605 3.425 6.283 3.425 5.32 0 6.762-1.497 6.762-3.447 0-1.7-1.28-2.874-3.43-2.874z"/></g><g fill="#005689"><path d="M-109.248 14.897l-.186-.102c-2.746-1.512-4.56-4.2-4.56-7.818 0-3.1 1.35-5.54 3.65-7.16C-117.22 2.98-122 9.93-122 18c0 5.474 2.2 10.433 5.764 14.045-.007-.097-.013-.194-.013-.293 0-3.57 3.48-4.887 6.57-5.523v-.003c-2.94-.636-4.362-2.737-4.362-4.886 0-2.882 3.225-5.37 4.794-6.443zM-102.026 13.04c1.964 0 3.65-.586 3.65-6.062 0-5.475-1.637-6.306-3.65-6.306-1.964 0-3.6.733-3.6 6.306s1.636 6.062 3.6 6.062zM-82 18C-82 9.757-86.985 2.68-94.104-.38c2.38 1.55 3.826 3.93 3.937 6.978.038.234.06.46.06.673 0 5.965-4.854 9.135-11.918 9.135-1.816 0-3.043-.098-4.516-.537-.688.488-1.228 1.27-1.228 2.005 0 .98.883 1.763 1.963 1.763h9.816c6.08 0 9.07 2.49 9.07 7.862 0 1.793-.355 3.402-1.093 4.794C-84.303 28.662-82 23.6-82 18zM-98.147 27.86h-7.443c-2.5 0-3.24 1.848-3.24 3.218 0 1.98 1.783 3.806 6.98 3.806 5.91 0 7.515-1.664 7.515-3.83 0-1.888-1.423-3.194-3.812-3.194z"/></g><g fill="#4BC6DF"><path d="M-49.248 14.897l-.186-.102c-2.746-1.512-4.56-4.2-4.56-7.818 0-3.1 1.35-5.54 3.65-7.16C-57.22 2.98-62 9.93-62 18c0 5.474 2.2 10.433 5.764 14.045-.007-.097-.013-.194-.013-.293 0-3.57 3.48-4.887 6.57-5.523v-.003c-2.94-.636-4.362-2.737-4.362-4.886 0-2.882 3.225-5.37 4.794-6.443zM-42.026 13.04c1.964 0 3.65-.586 3.65-6.062 0-5.475-1.637-6.306-3.65-6.306-1.964 0-3.6.733-3.6 6.306s1.636 6.062 3.6 6.062zM-22 18C-22 9.757-26.985 2.68-34.104-.38c2.38 1.55 3.826 3.93 3.937 6.978.038.234.06.46.06.673 0 5.965-4.854 9.135-11.918 9.135-1.816 0-3.043-.098-4.516-.537-.688.488-1.228 1.27-1.228 2.005 0 .98.883 1.763 1.963 1.763h9.816c6.08 0 9.07 2.49 9.07 7.862 0 1.793-.355 3.402-1.093 4.794C-24.303 28.662-22 23.6-22 18zM-38.147 27.86h-7.443c-2.5 0-3.24 1.848-3.24 3.218 0 1.98 1.783 3.806 6.98 3.806 5.91 0 7.515-1.664 7.515-3.83 0-1.888-1.423-3.194-3.812-3.194z"/></g></svg>