<?xml version="1.0" encoding="utf-8"?>
<!-- Generator: Adobe Illustrator 16.0.1, SVG Export Plug-In . SVG Version: 6.00 Build 0)  -->
<!DOCTYPE svg PUBLIC "-//W3C//DTD SVG 1.1//EN" "http://www.w3.org/Graphics/SVG/1.1/DTD/svg11.dtd">
<svg version="1.1" xmlns="http://www.w3.org/2000/svg" xmlns:xlink="http://www.w3.org/1999/xlink" x="0px" y="0px" width="28"
	 height="28" viewBox="0 0 28 28" enable-background="new 0 0 28 28" xml:space="preserve">
<g id="Layer_2" display="none">
	<rect display="inline" fill="#3BB34A" width="28" height="28"/>
</g>
<g id="Layer_1">
	<g>
		<path fill="#FFFFFF" d="M8.927,11.828l-0.13-0.071c-1.922-1.058-3.191-2.94-3.191-5.473c0-2.171,0.945-3.878,2.555-5.012
			C3.345,3.486,0,8.352,0,13.999c0,3.832,1.54,7.304,4.035,9.832c-0.005-0.068-0.009-0.136-0.009-0.205
			c0-2.498,2.437-3.421,4.599-3.866v-0.001c-2.059-0.445-3.053-1.916-3.053-3.42C5.571,14.32,7.828,12.579,8.927,11.828z"/>
		<path fill="#FFFFFF" d="M13.982,10.528c1.375,0,2.554-0.411,2.554-4.244c0-3.832-1.146-4.414-2.554-4.414
			c-1.375,0-2.52,0.513-2.52,4.414C11.462,10.186,12.607,10.528,13.982,10.528z"/>
		<path fill="#FFFFFF" d="M28,13.999c0-5.769-3.49-10.722-8.473-12.866c1.666,1.087,2.678,2.752,2.755,4.886
			c0.027,0.164,0.043,0.322,0.043,0.471c0,4.175-3.397,6.394-8.343,6.394c-1.271,0-2.13-0.068-3.161-0.376
			c-0.481,0.342-0.859,0.89-0.859,1.404c0,0.685,0.618,1.234,1.375,1.234h6.872c4.256,0,6.349,1.742,6.349,5.503
			c0,1.255-0.249,2.382-0.767,3.356C26.388,21.464,28,17.92,28,13.999z"/>
		<path fill="#FFFFFF" d="M16.697,20.902h-5.211c-1.75,0-2.269,1.293-2.269,2.252c0,1.386,1.249,2.664,4.886,2.664
			c4.139,0,5.262-1.165,5.262-2.681C19.365,21.815,18.369,20.902,16.697,20.902z"/>
	</g>
</g>
</svg>
