<svg width="36" height="36" xmlns="http://www.w3.org/2000/svg"><title>background</title><path fill="none" d="M-1-1h582v402h-582z"/><title>Layer 1</title><path fill="#333" d="M-169.248 14.897l-.186-.102c-2.746-1.512-4.56-4.2-4.56-7.818 0-3.1 1.35-5.54 3.65-7.16-6.876 3.163-11.656 10.113-11.656 18.183 0 5.474 2.2 10.433 5.764 14.045l-.013-.293c0-3.57 3.48-4.887 6.57-5.523v-.003c-2.94-.636-4.362-2.737-4.362-4.886 0-2.882 3.225-5.37 4.794-6.443h-.001zm7.223-1.857c1.964 0 3.65-.586 3.65-6.062 0-5.475-1.637-6.306-3.65-6.306-1.964 0-3.6.733-3.6 6.306s1.636 6.062 3.6 6.062zm20.026 4.96c0-8.242-4.985-15.318-12.104-18.38 2.38 1.55 3.826 3.93 3.937 6.978.038.234.06.46.06.673 0 5.965-4.854 9.135-11.918 9.135-1.816 0-3.043-.098-4.516-.537-.688.488-1.228 1.27-1.228 2.005 0 .98.883 1.763 1.963 1.763h9.816c6.08 0 9.07 2.49 9.07 7.862 0 1.793-.355 3.402-1.093 4.794 3.71-3.631 6.013-8.693 6.013-14.293zm-16.147 9.86h-7.443c-2.5 0-3.24 1.848-3.24 3.218 0 1.98 1.783 3.806 6.98 3.806 5.91 0 7.515-1.664 7.515-3.83 0-1.888-1.423-3.194-3.812-3.194z"/><path fill="#02c7e1" d="M11.478 15.133l-.168-.092c-2.47-1.36-4.104-3.78-4.104-7.035 0-2.79 1.215-4.986 3.285-6.444-6.191 2.846-10.491 9.102-10.491 16.363 0 4.927 1.98 9.39 5.188 12.64l-.012-.263c0-3.21 3.133-4.397 5.91-4.97-2.644-.573-3.924-2.464-3.924-4.398 0-2.595 2.902-4.834 4.316-5.8v-.001zm6.499-1.672c1.77 0 3.284-.527 3.284-5.455 0-4.927-1.472-5.675-3.283-5.675-1.767 0-3.24.66-3.24 5.675 0 5.016 1.473 5.456 3.24 5.456l-.001-.001zm18.023 4.464c0-7.417-4.487-13.786-10.894-16.542 2.144 1.398 3.444 3.538 3.544 6.28.032.212.053.416.053.607 0 5.367-4.368 8.22-10.727 8.22-1.634 0-2.74-.088-4.064-.483-.618.44-1.104 1.144-1.104 1.805 0 .88.794 1.586 1.767 1.586h8.834c5.472 0 8.163 2.24 8.163 7.075 0 1.614-.32 3.062-.984 4.315 3.338-3.267 5.412-7.822 5.412-12.863zm-14.532 8.876h-6.7c-2.25 0-2.916 1.662-2.916 2.895 0 1.78 1.605 3.425 6.283 3.425 5.32 0 6.762-1.497 6.762-3.447 0-1.7-1.28-2.874-3.43-2.874l.001.001z"/><path fill="#005689" d="M-109.248 14.897l-.186-.102c-2.746-1.512-4.56-4.2-4.56-7.818 0-3.1 1.35-5.54 3.65-7.16-6.876 3.163-11.656 10.113-11.656 18.183 0 5.474 2.2 10.433 5.764 14.045l-.013-.293c0-3.57 3.48-4.887 6.57-5.523v-.003c-2.94-.636-4.362-2.737-4.362-4.886 0-2.882 3.225-5.37 4.794-6.443h-.001zm7.223-1.857c1.964 0 3.65-.586 3.65-6.062 0-5.475-1.637-6.306-3.65-6.306-1.964 0-3.6.733-3.6 6.306s1.636 6.062 3.6 6.062zm20.026 4.96c0-8.243-4.985-15.32-12.104-18.38 2.38 1.55 3.826 3.93 3.937 6.978.038.234.06.46.06.673 0 5.965-4.854 9.135-11.918 9.135-1.816 0-3.043-.098-4.516-.537-.688.488-1.228 1.27-1.228 2.005 0 .98.883 1.763 1.963 1.763h9.816c6.08 0 9.07 2.49 9.07 7.862 0 1.793-.355 3.402-1.093 4.794 3.71-3.631 6.013-8.693 6.013-14.293zm-16.147 9.86h-7.443c-2.5 0-3.24 1.848-3.24 3.218 0 1.98 1.783 3.806 6.98 3.806 5.91 0 7.515-1.664 7.515-3.83 0-1.888-1.423-3.194-3.812-3.194z"/><path fill="#4BC6DF" d="M-49.248 14.897l-.186-.102c-2.746-1.512-4.56-4.2-4.56-7.818 0-3.1 1.35-5.54 3.65-7.16-6.876 3.163-11.656 10.113-11.656 18.183 0 5.474 2.2 10.433 5.764 14.045l-.013-.293c0-3.57 3.48-4.887 6.57-5.523v-.003c-2.94-.636-4.362-2.737-4.362-4.886 0-2.882 3.225-5.37 4.794-6.443h-.001zm7.223-1.857c1.964 0 3.65-.586 3.65-6.062 0-5.475-1.637-6.306-3.65-6.306-1.964 0-3.6.733-3.6 6.306s1.636 6.062 3.6 6.062zm20.026 4.96c0-8.243-4.985-15.32-12.104-18.38 2.38 1.55 3.826 3.93 3.937 6.978.038.234.06.46.06.673 0 5.965-4.854 9.135-11.918 9.135-1.816 0-3.043-.098-4.516-.537-.688.488-1.228 1.27-1.228 2.005 0 .98.883 1.763 1.963 1.763h9.816c6.08 0 9.07 2.49 9.07 7.862 0 1.793-.355 3.402-1.093 4.794 3.71-3.631 6.013-8.693 6.013-14.293zm-16.147 9.86h-7.443c-2.5 0-3.24 1.848-3.24 3.218 0 1.98 1.783 3.806 6.98 3.806 5.91 0 7.515-1.664 7.515-3.83 0-1.888-1.423-3.194-3.812-3.194z"/></svg>