<svg width="36" height="36" xmlns="http://www.w3.org/2000/svg"><title>background</title><path d="M-1-1h582v402h-582z" fill="none"/><title>Layer 1</title><path fill="#005689" d="M11.478 15.133l-.168-.092c-2.47-1.36-4.104-3.78-4.104-7.035 0-2.79 1.215-4.986 3.285-6.444-6.191 2.846-10.491 9.102-10.491 16.363 0 4.927 1.98 9.39 5.188 12.64l-.012-.263c0-3.21 3.133-4.397 5.91-4.97-2.644-.573-3.924-2.464-3.924-4.398 0-2.595 2.902-4.834 4.316-5.8v-.001zm6.499-1.672c1.77 0 3.284-.527 3.284-5.455 0-4.927-1.472-5.675-3.283-5.675-1.767 0-3.24.66-3.24 5.675 0 5.016 1.473 5.456 3.24 5.456l-.001-.001zm18.023 4.464c0-7.417-4.487-13.786-10.894-16.542 2.144 1.398 3.444 3.538 3.544 6.28.032.212.053.416.053.607 0 5.367-4.368 8.22-10.727 8.22-1.634 0-2.74-.088-4.064-.483-.618.44-1.104 1.144-1.104 1.805 0 .88.794 1.586 1.767 1.586h8.834c5.472 0 8.163 2.24 8.163 7.075 0 1.614-.32 3.062-.984 4.315 3.338-3.267 5.412-7.822 5.412-12.863zm-14.532 8.876h-6.7c-2.25 0-2.916 1.662-2.916 2.895 0 1.78 1.605 3.425 6.283 3.425 5.32 0 6.762-1.497 6.762-3.447 0-1.7-1.28-2.874-3.43-2.874l.001.001z"/></svg>