<svg xmlns="http://www.w3.org/2000/svg" width="28" height="28" viewBox="0 0 28 28"><path d="M8.927 11.828l-.13-.07c-1.922-1.06-3.19-2.94-3.19-5.474 0-2.17.944-3.878 2.554-5.012-4.815 2.214-8.161 7.08-8.161 12.728 0 3.83 1.54 7.303 4.035 9.83l-.01-.204c0-2.498 2.438-3.42 4.6-3.866-2.06-.446-3.053-1.917-3.053-3.42 0-2.02 2.256-3.76 3.355-4.512zm5.055-1.3c1.375 0 2.554-.41 2.554-4.244 0-3.832-1.146-4.414-2.554-4.414-1.375 0-2.52.513-2.52 4.414 0 3.902 1.145 4.244 2.52 4.244zm14.018 3.472c0-5.77-3.49-10.723-8.473-12.867 1.666 1.087 2.678 2.752 2.755 4.886.027.163.043.32.043.47 0 4.175-3.397 6.394-8.343 6.394-1.27 0-2.13-.068-3.16-.376-.482.342-.86.89-.86 1.404 0 .685.618 1.234 1.375 1.234h6.872c4.255 0 6.348 1.742 6.348 5.503 0 1.254-.25 2.38-.767 3.355 2.6-2.538 4.21-6.083 4.21-10.003zm-11.303 6.902h-5.21c-1.75 0-2.27 1.293-2.27 2.252 0 1.386 1.25 2.664 4.886 2.664 4.14 0 5.262-1.165 5.262-2.68 0-1.323-.996-2.236-2.668-2.236z" fill="#fff"/></svg>