<svg xmlns="http://www.w3.org/2000/svg" width="36" height="36">
<g>
	<path fill="#ffffff" d="M-169.248,14.897l-0.186-0.102c-2.746-1.512-4.559-4.2-4.559-7.818c0-3.101,1.35-5.541,3.65-7.16
		C-177.222,2.979-182,9.931-182,17.999c0,5.475,2.2,10.434,5.764,14.046c-0.007-0.097-0.013-0.194-0.013-0.293
		c0-3.569,3.48-4.887,6.569-5.523v-0.002c-2.94-0.636-4.362-2.737-4.362-4.886C-174.042,18.458-170.817,15.97-169.248,14.897z"/>
	<path fill="#ffffff" d="M-162.026,13.04c1.964,0,3.649-0.586,3.649-6.062c0-5.475-1.636-6.306-3.649-6.306
		c-1.964,0-3.599,0.733-3.599,6.306C-165.625,12.551-163.99,13.04-162.026,13.04z"/>
	<path fill="#ffffff" d="M-142,17.999c0-8.241-4.985-15.317-12.104-18.38c2.381,1.552,3.826,3.931,3.937,6.979
		c0.038,0.234,0.06,0.46,0.06,0.673c0,5.964-4.854,9.134-11.918,9.134c-1.816,0-3.043-0.098-4.516-0.537
		c-0.687,0.488-1.227,1.271-1.227,2.005c0,0.979,0.883,1.763,1.963,1.763h9.816c6.08,0,9.07,2.49,9.07,7.862
		c0,1.793-0.356,3.402-1.094,4.794C-144.304,28.662-142,23.6-142,17.999z"/>
	<path fill="#ffffff" d="M-158.147,27.86h-7.443c-2.501,0-3.241,1.848-3.241,3.218c0,1.979,1.784,3.806,6.981,3.806
		c5.911,0,7.515-1.664,7.515-3.83C-154.336,29.166-155.758,27.86-158.147,27.86z"/>
</g>
<g>
	<path fill="#ffffff" d="M11.478,15.133l-0.168-0.092c-2.471-1.36-4.104-3.78-4.104-7.036c0-2.791,1.215-4.986,3.285-6.444
		C4.301,4.407,0,10.663,0,17.924c0,4.927,1.98,9.391,5.188,12.641c-0.007-0.087-0.012-0.175-0.012-0.264
		c0-3.212,3.133-4.398,5.911-4.971v-0.001c-2.645-0.572-3.925-2.463-3.925-4.397C7.162,18.337,10.064,16.098,11.478,15.133z"/>
	<path fill="#ffffff" d="M17.977,13.461c1.769,0,3.284-0.528,3.284-5.456c0-4.927-1.473-5.675-3.284-5.675
		c-1.767,0-3.239,0.66-3.239,5.675C14.737,13.021,16.21,13.461,17.977,13.461z"/>
	<path fill="#ffffff" d="M36,17.924c0-7.417-4.487-13.786-10.894-16.542c2.143,1.397,3.443,3.538,3.543,6.281
		c0.033,0.211,0.054,0.415,0.054,0.606c0,5.368-4.368,8.221-10.727,8.221c-1.634,0-2.739-0.088-4.064-0.483
		c-0.618,0.439-1.104,1.144-1.104,1.805c0,0.881,0.794,1.586,1.767,1.586h8.834c5.473,0,8.164,2.241,8.164,7.075
		c0,1.614-0.321,3.062-0.984,4.315C33.927,27.521,36,22.965,36,17.924z"/>
	<path fill="#ffffff" d="M21.468,26.799h-6.699c-2.251,0-2.917,1.663-2.917,2.896c0,1.781,1.605,3.425,6.283,3.425
		c5.319,0,6.762-1.497,6.762-3.447C24.896,27.974,23.617,26.799,21.468,26.799z"/>
</g>
<g>
	<path fill="#ffffff" d="M-109.248,14.897l-0.186-0.102c-2.746-1.512-4.559-4.2-4.559-7.818c0-3.101,1.35-5.541,3.65-7.16
		C-117.222,2.979-122,9.931-122,17.999c0,5.475,2.2,10.434,5.764,14.046c-0.007-0.097-0.013-0.194-0.013-0.293
		c0-3.569,3.48-4.887,6.569-5.523v-0.002c-2.94-0.636-4.362-2.737-4.362-4.886C-114.042,18.458-110.817,15.97-109.248,14.897z"/>
	<path fill="#ffffff" d="M-102.026,13.04c1.964,0,3.649-0.586,3.649-6.062c0-5.475-1.636-6.306-3.649-6.306
		c-1.964,0-3.599,0.733-3.599,6.306C-105.625,12.551-103.99,13.04-102.026,13.04z"/>
	<path fill="#ffffff" d="M-82,17.999c0-8.241-4.985-15.317-12.104-18.38c2.381,1.552,3.826,3.931,3.937,6.979
		c0.038,0.234,0.06,0.46,0.06,0.673c0,5.964-4.854,9.134-11.918,9.134c-1.816,0-3.043-0.098-4.516-0.537
		c-0.687,0.488-1.227,1.271-1.227,2.005c0,0.979,0.883,1.763,1.963,1.763h9.816c6.08,0,9.07,2.49,9.07,7.862
		c0,1.793-0.356,3.402-1.094,4.794C-84.304,28.662-82,23.6-82,17.999z"/>
	<path fill="#ffffff" d="M-98.147,27.86h-7.443c-2.501,0-3.241,1.848-3.241,3.218c0,1.979,1.784,3.806,6.981,3.806
		c5.911,0,7.515-1.664,7.515-3.83C-94.336,29.166-95.758,27.86-98.147,27.86z"/>
</g>
<g>
	<path fill="#ffffff" d="M-49.248,14.897l-0.186-0.102c-2.746-1.512-4.559-4.2-4.559-7.818c0-3.101,1.35-5.541,3.65-7.16
		C-57.222,2.979-62,9.931-62,17.999c0,5.475,2.2,10.434,5.764,14.046c-0.007-0.097-0.013-0.194-0.013-0.293
		c0-3.569,3.48-4.887,6.569-5.523v-0.002c-2.94-0.636-4.362-2.737-4.362-4.886C-54.042,18.458-50.817,15.97-49.248,14.897z"/>
	<path fill="#ffffff" d="M-42.026,13.04c1.964,0,3.649-0.586,3.649-6.062c0-5.475-1.636-6.306-3.649-6.306
		c-1.964,0-3.599,0.733-3.599,6.306C-45.625,12.551-43.99,13.04-42.026,13.04z"/>
	<path fill="#ffffff" d="M-22,17.999c0-8.241-4.985-15.317-12.104-18.38c2.381,1.552,3.826,3.931,3.937,6.979
		c0.038,0.234,0.06,0.46,0.06,0.673c0,5.964-4.854,9.134-11.918,9.134c-1.816,0-3.043-0.098-4.516-0.537
		c-0.687,0.488-1.227,1.271-1.227,2.005c0,0.979,0.883,1.763,1.963,1.763h9.816c6.08,0,9.07,2.49,9.07,7.862
		c0,1.793-0.356,3.402-1.094,4.794C-24.304,28.662-22,23.6-22,17.999z"/>
	<path fill="#ffffff" d="M-38.147,27.86h-7.443c-2.501,0-3.241,1.848-3.241,3.218c0,1.979,1.784,3.806,6.981,3.806
		c5.911,0,7.515-1.664,7.515-3.83C-34.336,29.166-35.758,27.86-38.147,27.86z"/>
</g>
</svg>
