<svg xmlns="http://www.w3.org/2000/svg" xmlns:xlink="http://www.w3.org/1999/xlink" version="1.1" x="0px" y="0px"
width="62" height="90" viewBox="0 0 62.336 89.592" enable-background="new 0 0 62.336 89.592" xml:space="preserve"><g display="none"><rect x="-25.3" y="-14" display="inline" fill="#E5332A" width="113" height="125.3"/></g><g display="none"><g display="inline"><defs><rect x="-22.3" y="-70" width="60" height="52.9"/></defs><clipPath><use xlink:href="#SVGID_1_" overflow="visible"/></clipPath><path clip-path="url(#SVGID_2_)" fill="#1D1D1B" d="M13.104-58.937c0-8.213-2.453-9.46-5.473-9.46c-2.946 0-5.398 1.1-5.398 9.5 c0 8.4 2.5 9.1 5.4 9.092S13.104-50.724 13.104-58.937 M2.283-27.614c-3.752 0-4.861 2.772-4.861 4.8 c0 3 2.7 5.7 10.5 5.709c8.867 0 11.272-2.496 11.272-5.745c0-2.833-2.134-4.792-5.717-4.792H2.283z M-4.844-69.678 c-10.32 4.743-17.487 15.17-17.487 27.272c0 8.2 3.3 15.7 8.6 21.068c-0.011-0.146-0.02-0.292-0.02-0.439 c0-5.354 5.221-7.331 9.854-8.284v-0.003c-4.411-0.954-6.543-4.105-6.543-7.33c0-4.325 4.837-8.055 7.191-9.665L-3.48-47.21 c-4.119-2.268-6.84-6.3-6.84-11.726C-10.32-63.589-8.295-67.248-4.844-69.678 M37.67-42.406c0-12.362-7.479-22.976-18.157-27.57 c3.571 2.3 5.7 5.9 5.9 10.468c0.057 0.4 0.1 0.7 0.1 1.01c0 8.946-7.279 13.701-17.877 13.7 c-2.725 0-4.564-0.146-6.773-0.805c-1.031 0.731-1.841 1.906-1.841 3.007c0 1.5 1.3 2.6 2.9 2.644h14.725 c9.121 0 13.6 3.7 13.6 11.792c0 2.69-0.534 5.104-1.642 7.192C34.214-26.411 37.67-34.004 37.67-42.406"/></g></g><g display="none"><circle display="inline" fill="#39A835" cx="32.3" cy="30" r="30"/></g><g><g><path fill="#1D1D1B" d="M21.464 25.347l-0.279-0.153c-4.117-2.268-6.839-6.3-6.839-11.727c0-4.652 2.025-8.311 5.477-10.741 C9.502 7.5 2.3 17.9 2.3 29.999c0 8.2 3.3 15.7 8.6 21.068c-0.012-0.145-0.021-0.291-0.021-0.438 c0-5.355 5.221-7.332 9.854-8.285V42.34c-4.411-0.953-6.543-4.104-6.543-7.329C14.272 30.7 19.1 27 21.5 25.347z"/><path fill="#1D1D1B" d="M32.297 22.56c2.946 0 5.473-0.88 5.473-9.093c0-8.212-2.453-9.459-5.473-9.459 c-2.946 0-5.398 1.1-5.398 9.459S29.351 22.6 32.3 22.56z"/><path fill="#1D1D1B" d="M62.336 29.999c0-12.362-7.479-22.976-18.157-27.57c3.571 2.3 5.7 5.9 5.9 10.5 c0.057 0.4 0.1 0.7 0.1 1.01c0 8.946-7.279 13.701-17.878 13.701c-2.724 0-4.563-0.146-6.772-0.805 c-1.031 0.731-1.841 1.907-1.841 3.008c0 1.5 1.3 2.6 2.9 2.644h14.724c9.12 0 13.6 3.7 13.6 11.8 c0 2.689-0.534 5.104-1.642 7.191C58.88 46 62.3 38.4 62.3 29.999z"/><path fill="#1D1D1B" d="M38.114 44.791H26.949c-3.751 0-4.861 2.771-4.861 4.826c0 3 2.7 5.7 10.5 5.7 c8.866 0 11.272-2.496 11.272-5.744C43.831 46.7 41.7 44.8 38.1 44.791z"/></g></g><g display="none"><g display="inline"><path fill="#FFFFFF" d="M8.422 60.147h0.541v26.024l2.159 1.008v1.872H0.107V87.18l2.16-1.008V64.359L0 63.314v-1.836 L8.422 60.147z"/><path fill="#FFFFFF" d="M20.129 68.318h0.541v17.854l2.159 1.008v1.872H11.814V87.18l2.16-1.008V72.529l-2.268-1.043V69.65 L20.129 68.318z M20.777 63.604c0 1.943-1.619 3.527-3.563 3.527c-1.979 0-3.563-1.584-3.563-3.527 c0-1.98 1.584-3.564 3.563-3.564C19.158 60 20.8 61.6 20.8 63.604z"/><path fill="#FFFFFF" d="M34.623 82.86h0.145l3.49-11.087l-2.159-1.008v-1.871h7.919v1.871l-2.16 1.008l-6.082 17.278h-5.796 L24.04 71.773l-2.159-1.008v-1.871h11.698v1.871l-2.159 1.008L34.623 82.86z"/><path fill="#FFFFFF" d="M49.951 79.585c0.324 3.9 2.2 5.8 5.9 5.796c2.557 0 3.996-0.252 5.4-0.685v1.944 c-0.937 1.295-3.96 2.951-7.668 2.951c-6.91 0-10.475-3.815-10.475-10.654c0-6.66 3.924-10.512 9.936-10.512 c6.047 0 9 2.7 9 11.159H49.951z M49.88 77.174l5.579-0.324c0-5.363-0.9-6.228-2.556-6.228 C51.067 70.6 50 71.8 49.9 77.174z"/></g></g><g><g><path fill="#FFFFFF" d="M8.422 60.147h0.541v26.024l2.159 1.008v1.872H0.107V87.18l2.16-1.008V64.359L0 63.314v-1.836 L8.422 60.147z"/><path fill="#FFFFFF" d="M20.129 68.318h0.541v17.854l2.159 1.008v1.872H11.814V87.18l2.16-1.008V72.529l-2.268-1.043V69.65 L20.129 68.318z M20.777 63.604c0 1.943-1.619 3.527-3.563 3.527c-1.979 0-3.563-1.584-3.563-3.527 c0-1.98 1.584-3.564 3.563-3.564C19.158 60 20.8 61.6 20.8 63.604z"/><path fill="#FFFFFF" d="M34.623 82.86h0.145l3.49-11.087l-2.159-1.008v-1.871h7.919v1.871l-2.16 1.008l-6.082 17.278h-5.796 L24.04 71.773l-2.159-1.008v-1.871h11.698v1.871l-2.159 1.008L34.623 82.86z"/><path fill="#FFFFFF" d="M49.951 79.585c0.324 3.9 2.2 5.8 5.9 5.796c2.557 0 3.996-0.252 5.4-0.685v1.944 c-0.937 1.295-3.96 2.951-7.668 2.951c-6.91 0-10.475-3.815-10.475-10.654c0-6.66 3.924-10.512 9.936-10.512 c6.047 0 9 2.7 9 11.159H49.951z M49.88 77.174l5.579-0.324c0-5.363-0.9-6.228-2.556-6.228 C51.067 70.6 50 71.8 49.9 77.174z"/></g><g></g><g></g><g></g><g></g><g></g><g></g></g></svg>
