<svg xmlns="http://www.w3.org/2000/svg" width="60" height="60" viewBox="0 0 60 60"><g fill="#767676"><circle cx="30" cy="30" r="8.969"/><path d="M52.082 13.252l-1.177 1.176c3.347 4.305 5.357 9.697 5.357 15.57 0 5.875-2.01 11.268-5.357 15.572l1.177 1.176C56.916 42.772 60 36.748 60 30c0-6.747-3.084-12.772-7.918-16.748zM42.26 20.832c1.762 2.62 2.79 5.772 2.79 9.168s-1.028 6.55-2.79 9.168l1.402 1.403c2.705-2.705 4.38-6.442 4.38-10.57s-1.675-7.865-4.38-10.57l-1.4 1.402zM7.918 13.252C3.084 17.228 0 23.252 0 30c0 6.748 3.084 12.772 7.918 16.747l1.177-1.176C5.748 41.268 3.737 35.875 3.737 30c0-5.875 2.01-11.267 5.357-15.57L7.918 13.25zM16.338 19.43c-2.705 2.705-4.38 6.442-4.38 10.57s1.675 7.865 4.38 10.57l1.4-1.402c-1.76-2.62-2.79-5.772-2.79-9.168s1.03-6.55 2.79-9.168l-1.4-1.402z"/></g></svg>