<?xml version="1.0" encoding="utf-8"?>
<!-- Generator: Adobe Illustrator 16.0.1, SVG Export Plug-In . SVG Version: 6.00 Build 0)  -->
<!DOCTYPE svg PUBLIC "-//W3C//DTD SVG 1.1//EN" "http://www.w3.org/Graphics/SVG/1.1/DTD/svg11.dtd">
<svg version="1.1" id="Layer_1" xmlns="http://www.w3.org/2000/svg" xmlns:xlink="http://www.w3.org/1999/xlink" x="0px" y="0px"
	 width="60" height="60" viewBox="0 0 60 60" enable-background="new 0 0 60 60" xml:space="preserve">
<path fill="#767676" d="M1.979,14.288c1.63,0.872,24.162,12.977,24.999,13.427c0.841,0.451,1.928,0.667,3.023,0.667
	c1.093,0,2.18-0.216,3.019-0.667c0.84-0.45,23.371-12.555,25-13.427c1.629-0.875,3.17-3.622,0.178-3.622H1.803
	C-1.188,10.666,0.351,13.413,1.979,14.288 M58.711,20.953c-1.849,0.964-24.558,12.84-25.691,13.43
	c-1.131,0.591-1.926,0.667-3.019,0.667c-1.096,0-1.89-0.076-3.023-0.667c-1.13-0.59-23.837-12.466-25.687-13.43
	C-0.01,20.274,0,21.07,0,21.683v24.454c0,1.397,1.861,3.198,3.306,3.198h53.388c1.447,0,3.307-1.801,3.307-3.198V21.683
	C60,21.07,60.014,20.274,58.711,20.953"/>
</svg>
