<svg xmlns="http://www.w3.org/2000/svg" width="60" height="60" viewBox="0 0 60 60"><path fill="#767676" d="M56.902 38.8l-1.444-1.405c-3.23-1.068-6.68-1.65-10.27-1.65-2.583 0-5.093.305-7.502.873l3.597 14.78-1.433 1.788h18.823L60 51.53 56.902 38.8zM45.188 32.656c3.048 0 6.69-3.42 6.69-7.644 0-4.222-2.47-6.69-6.69-6.69-4.223 0-6.69 2.468-6.69 6.69 0 4.223 3.943 7.644 6.69 7.644z"/><g fill="#767676"><path d="M19.72 25.88c4.052 0 8.897-4.552 8.897-10.17 0-5.615-3.283-8.896-8.898-8.896-5.617 0-8.9 3.282-8.9 8.897 0 5.618 5.243 10.17 8.9 10.17zM35.3 34.053l-1.922-1.87c-4.296-1.423-8.886-2.196-13.66-2.196-4.8 0-9.412.78-13.728 2.216L4.05 34.1 0 51.023l1.73 2.162h35.925l1.763-2.203-4.12-16.93z"/></g></svg>