<svg xmlns="http://www.w3.org/2000/svg" width="60" height="60" viewBox="0 0 60 60"><path fill="#767676" d="M1.98 14.288c1.63.872 24.16 12.977 24.998 13.427.84.45 1.928.667 3.023.667 1.094 0 2.18-.216 3.02-.667.84-.45 23.37-12.555 25-13.427 1.63-.875 3.17-3.622.178-3.622H1.803c-2.99 0-1.452 2.747.176 3.622m56.73 6.665c-1.848.964-24.557 12.84-25.69 13.43-1.13.59-1.926.667-3.02.667-1.095 0-1.89-.076-3.022-.667-1.13-.59-23.837-12.466-25.687-13.43-1.3-.68-1.29.117-1.29.73v24.454c0 1.397 1.86 3.198 3.306 3.198h53.388c1.447 0 3.307-1.8 3.307-3.198V21.683c0-.613.014-1.41-1.29-.73"/></svg>