<?xml version="1.0" encoding="utf-8"?>
<!-- Generator: Adobe Illustrator 16.0.1, SVG Export Plug-In . SVG Version: 6.00 Build 0)  -->
<!DOCTYPE svg PUBLIC "-//W3C//DTD SVG 1.1//EN" "http://www.w3.org/Graphics/SVG/1.1/DTD/svg11.dtd">
<svg version="1.1" id="Layer_1" xmlns="http://www.w3.org/2000/svg" xmlns:xlink="http://www.w3.org/1999/xlink" x="0px" y="0px"
	 width="60" height="60" viewBox="0 0 60 60" enable-background="new 0 0 60 60" xml:space="preserve">
<g>
	<rect x="28.006" y="23.209" fill="#767676" width="3.985" height="28.234"/>
	<polygon fill="#767676" points="7.909,47.761 11.59,51.443 24.942,51.443 24.942,23.209 7.909,23.209 	"/>
	<path fill="#767676" d="M55.771,16.136H39.847c1.325-1.365,2.284-2.944,2.698-4.467c0.472-1.726,0.209-3.198-0.739-4.146
		c-0.633-0.632-1.518-0.966-2.563-0.966c-1.961,0-4.275,1.144-6.19,3.059c-1.864,1.864-2.927,4.03-3.043,5.858
		c-0.026-0.398-0.098-0.815-0.216-1.249c-0.43-1.577-1.436-3.214-2.832-4.609c-1.914-1.915-4.229-3.059-6.19-3.059
		c-1.045,0-1.932,0.334-2.563,0.966c-1.84,1.841-0.972,5.597,1.959,8.613H4.227L3,17.363v3.068l1.227,1.227h20.716v-2.68h3.063v2.68
		h3.985v-2.68h3.064v2.68h20.716L57,20.432v-3.068L55.771,16.136z M28.465,16.136h-6.003c-0.37-0.285-0.734-0.597-1.079-0.942
		c-2.596-2.596-3.179-5.501-2.094-6.587c0.344-0.344,0.843-0.517,1.481-0.517c1.541,0,3.498,0.999,5.106,2.609
		c1.211,1.21,2.078,2.605,2.438,3.928C28.42,15.013,28.525,15.582,28.465,16.136z M30.007,16.136L30.007,16.136
		c-0.001-0.001-0.001-0.003,0-0.005C30.007,16.133,30.007,16.135,30.007,16.136z M37.551,16.136h-6.007
		c-0.158-1.397,0.657-3.503,2.59-5.438c1.61-1.609,3.567-2.608,5.108-2.608c0.639,0,1.137,0.173,1.48,0.517
		c0.731,0.732,0.529,1.98,0.345,2.658c-0.36,1.322-1.226,2.718-2.438,3.929C38.285,15.539,37.921,15.851,37.551,16.136z"/>
	<polygon fill="#767676" points="35.056,51.443 48.408,51.443 52.089,47.761 52.089,23.209 35.056,23.209 	"/>
</g>
</svg>
