<?xml version="1.0" encoding="utf-8"?>
<!-- Generator: Adobe Illustrator 16.0.1, SVG Export Plug-In . SVG Version: 6.00 Build 0)  -->
<!DOCTYPE svg PUBLIC "-//W3C//DTD SVG 1.1//EN" "http://www.w3.org/Graphics/SVG/1.1/DTD/svg11.dtd">
<svg version="1.1" id="Layer_1" xmlns="http://www.w3.org/2000/svg" xmlns:xlink="http://www.w3.org/1999/xlink" x="0px" y="0px"
	 width="60" height="60" viewBox="0 0 60 60" enable-background="new 0 0 60 60" xml:space="preserve">
<g>
	<circle fill="#767676" cx="30" cy="30" r="8.969"/>
	<path fill="#767676" d="M52.082,13.252l-1.177,1.176c3.347,4.305,5.357,9.697,5.357,15.571c0,5.874-2.011,11.267-5.357,15.571
		l1.177,1.176C56.916,42.772,60,36.748,60,30C60,23.253,56.916,17.228,52.082,13.252z"/>
	<path fill="#767676" d="M42.261,20.832c1.761,2.619,2.79,5.772,2.79,9.168s-1.029,6.549-2.79,9.168l1.401,1.403
		c2.705-2.706,4.379-6.443,4.379-10.571s-1.674-7.865-4.379-10.57L42.261,20.832z"/>
	<path fill="#767676" d="M7.918,13.252C3.084,17.228,0,23.253,0,30c0,6.748,3.084,12.772,7.918,16.747l1.177-1.176
		C5.748,41.267,3.737,35.874,3.737,30c0-5.875,2.011-11.267,5.357-15.571L7.918,13.252z"/>
	<path fill="#767676" d="M16.338,19.43c-2.705,2.705-4.379,6.442-4.379,10.57s1.674,7.865,4.379,10.571l1.401-1.403
		c-1.761-2.619-2.79-5.772-2.79-9.168s1.029-6.549,2.79-9.168L16.338,19.43z"/>
</g>
</svg>
