<?xml version="1.0" encoding="UTF-8" standalone="no"?>
<svg width="25px" height="25px" viewBox="0 0 25 25" version="1.1" xmlns="http://www.w3.org/2000/svg" xmlns:xlink="http://www.w3.org/1999/xlink" xmlns:sketch="http://www.bohemiancoding.com/sketch/ns">
    <!-- Generator: Sketch 3.2 (9961) - http://www.bohemiancoding.com/sketch -->
    <title>Slice 1</title>
    <desc>Created with Sketch.</desc>
    <defs></defs>
    <g id="Page-1" stroke="none" stroke-width="1" fill="none" fill-rule="evenodd" sketch:type="MSPage">
        <path d="M12.654,0 C8.78785538,0 5.654,3.04916667 5.654,6.81 C5.654,7.80791667 5.93663795,8.87958333 6.27494702,9.785 L12.1551012,25 L13.1541835,25 L19.0878676,9.82666667 C19.4591511,8.73791667 19.654,7.7625 19.654,6.81 C19.6535718,3.04916667 16.5201446,0 12.654,0 L12.654,0 Z M12.6454352,11.65 C9.90341882,11.65 7.68000024,9.4875 7.68000024,6.82 C7.68000024,4.1525 9.90256234,1.98916667 12.6454352,1.98916667 C15.3861669,1.98916667 17.6095855,4.1525 17.6095855,6.82 C17.6095855,9.4875 15.3861669,11.65 12.6454352,11.65 L12.6454352,11.65 Z" id="Shape" fill="#4EC6DC" sketch:type="MSShapeGroup"></path>
    </g>
</svg>