<svg xmlns="http://www.w3.org/2000/svg" width="508" height="54.221"><g fill="#231F20"><path d="M222.342 34.404h12.942v-2.156l-2.496-1.185v-15.3c.933-.67 2.03-.898 3.215-.898 2.157 0 3.17.888 3.17 3.342v12.857l-2.494 1.185v2.155h12.94v-2.154l-2.58-1.186v-14.634c0-4.356-1.987-6.302-5.92-6.302-3.215 0-6.345 1.142-8.46 3.087v-3.087h-.634l-9.813 1.565v2.073l2.708 1.226v16.072l-2.58 1.185v2.154zm-30.116-34.088c-2.327 0-4.188 1.86-4.188 4.187 0 2.284 1.86 4.145 4.188 4.145 2.284 0 4.187-1.86 4.187-4.145 0-2.327-1.903-4.187-4.187-4.187m-6.472 11.292v2.158l2.664 1.225v16.03l-2.538 1.185v2.2h12.944v-2.2l-2.54-1.184v-20.978h-.633zm-11.007 18.342c-.57.47-1.226.817-2.41.817-3.13 0-4.61-2.538-4.61-8.375 0-6.683 1.86-8.924 4.355-8.924 1.398 0 2.095.436 2.665 1.064v15.418zm0-18.765c-.972-.677-2.495-1.06-3.806-1.06-5.822 0-11.327 3.338-11.327 12.896 0 9.095 5.544 12.02 9.256 12.02 2.96 0 4.99-1.313 5.962-2.58h.253v2.496h.678l9.347-1.102v-1.725l-2.496-1.396v-30.25h-.634l-9.854 1.565v2.157l2.62 1.184v5.795zm-33.064.423v2.157l2.623 1.226v16.03l-2.495 1.185v2.2h13.618v-2.2l-3.257-1.184v-12.558c1.394-1.095 3.13-1.44 5.245-1.44.677 0 1.523.084 1.988.21v-6.894c-.254-.085-.76-.127-1.185-.127-2.58 0-4.947 1.692-6.343 4.82v-4.99h-.677l-9.515 1.565zm-16.897 1.868c.558-.25 1.708-.26 2.09-.26 3.043 0 3.933 1.52 3.933 4.525l-.008 2.674-4.508.847c-4.62.853-8.1 2.256-8.1 7.12 0 3.934 2.76 6.66 6.524 6.66 2.96 0 5.753-1.27 6.81-3.384h.21c.382 2.537 2.583 3.342 5.034 3.342 1.903 0 3.744-.594 4.443-1.385v-1.365l-2.498-1.185v-13.747c0-5.33-3.805-7.278-10.15-7.278-4.145 0-6.854 1.034-9.05 2.082v6h3.68l1.59-4.646zm6.022 16.23c-.453.668-1.31 1.02-2.157 1.02-1.52 0-2.958-.847-2.958-3.47 0-1.87 1.69-3.59 3.542-3.874l1.574-.3v6.623zm74.368-16.23c.56-.25 1.71-.26 2.09-.26 3.045 0 3.933 1.52 3.933 4.525l-.008 2.674-4.51.847c-4.615.853-8.098 2.256-8.098 7.12 0 3.934 2.76 6.66 6.524 6.66 2.96 0 5.753-1.27 6.81-3.384h.213c.38 2.537 2.58 3.342 5.034 3.342 1.903 0 3.742-.594 4.44-1.385v-1.365l-2.496-1.185v-13.747c0-5.33-3.805-7.278-10.15-7.278-4.145 0-6.853 1.034-9.05 2.082v6h3.68l1.588-4.646zm6.024 16.23c-.454.668-1.31 1.02-2.157 1.02-1.522 0-2.96-.847-2.96-3.47 0-1.87 1.69-3.59 3.543-3.874l1.574-.3v6.623zm-117.31-2.196c0 4.103 2.03 7.53 6.81 7.53 3.172 0 5.963-1.397 7.486-3.257v3.217h.633l9.6-1.146v-1.724l-2.664-1.396v-20.564h-.634l-9.854 1.565v2.157l2.622 1.227v14.204c-.877.582-1.48.85-2.87.85-1.986 0-3.263-.59-3.263-3.296v-16.707h-.678l-9.855 1.565v2.157l2.664 1.227v12.39zm-10.277 1.692h-8.457c-.93 0-1.694-.677-1.694-1.522 0-.634.466-1.312 1.06-1.733 1.267.38 2.326.464 3.89.464 6.09 0 10.278-2.748 10.278-7.907 0-2.327-.973-3.638-2.453-4.992l4.01 1.25.008-4.717-6.386 1.185c-1.482-.55-3.554-1.23-5.457-1.23-6.09 0-10.32 3.133-10.32 8.25 0 3.13 1.565 5.457 3.934 6.768l.188.117c-1.354.93-4.166 3.055-4.166 5.55 0 1.86 1.227 3.68 3.765 4.23v.006c-2.664.55-5.668 1.685-5.668 4.772 0 3.17 4.566 6.308 12.01 6.308 9.263 0 13.283-4.363 13.283-9.988 0-4.653-2.582-6.81-7.827-6.81m-5.2-16.41c1.732 0 2.92 1.21 2.92 5.455 0 4.357-1.23 5.245-2.92 5.245-1.693 0-2.88-.888-2.88-5.245 0-4.46 1.187-5.455 2.88-5.455m-.042 29.61c-4.314 0-5.863-1.686-5.795-3.345.047-1.142.612-2.618 2.636-2.748h6.725c1.946 0 3.175 1.348 3.175 2.576 0 2.453-1.832 3.515-6.74 3.515m-12.7-19.121c0-9.94-4.41-13.198-10.53-13.198-7.064 0-11.675 4.613-11.675 12.438 0 8.035 4.188 12.52 12.308 12.52 4.357 0 7.79-2.295 8.89-3.818l.12-1.935c-1.65.508-3.342.804-6.345.804-4.314 0-6.898-2.205-6.894-6.81h14.126zm-10.66-10.53c1.947 0 3.004 1.414 3.004 7.318l-6.556.38c.09-6.03 1.396-7.698 3.553-7.698"/><path d="M17.806 34.404h12.942v-2.156l-2.496-1.185-.005-15.267c.945-.652 2.022-1 3.207-1 2.157 0 3.225 1.36 3.186 3.41v12.857l-2.497 1.185v2.156h12.944v-2.156l-2.582-1.185v-14.633c0-4.356-2.51-6.302-5.922-6.302-3.213 0-6.35 1.142-8.466 3.087h.008v-13.195h-.634l-9.81 1.564v2.073l2.707 1.227v26.18l-2.58 1.185v2.154zm-14.168-6.47c0 4.354 2.07 7.105 6.762 7.105 2.454 0 5.07-.636 6.56-1.747v-2.912c-.62.2-1.69.388-2.537.388-2.284 0-2.918-1.185-2.918-3.51v-12.478h5.16v-4.06h-5.16v-5.54l-7.867 1.1v4.44l-3.638.682v3.376h3.638v13.154z"/></g><path d="M252.858 32.244l2.58-1.185v-16.079l-2.707-1.227v-2.073l9.818-1.567h.635v3.09h.254c2.116-1.947 4.147-3.09 7.363-3.09 2.793 0 4.57.974 5.417 3.09h.21c2.117-1.947 4.444-3.09 7.66-3.09 3.936 0 6.01 1.99 6.01 6.348v14.6l2.58 1.185v2.158h-12.483v-2.158l2.074-1.185v-12.865c0-2.455-.804-3.343-2.92-3.343-.804 0-1.735.21-2.624.592v15.615l2.074 1.185v2.158h-12.019v-2.158l2.074-1.185v-12.864c0-2.455-.762-3.343-2.92-3.343-.847 0-1.693.21-2.624.635v15.572l2.074 1.185v2.158h-12.526v-2.16zm48.039-8.97c.38 4.612 2.58 6.813 6.898 6.813 3.004 0 4.696-.296 6.347-.804v2.284c-1.1 1.523-4.655 3.47-9.013 3.47-8.126 0-12.315-4.485-12.315-12.525 0-7.83 4.612-12.356 11.68-12.356 7.108 0 10.536 3.173 10.536 13.118h-14.133zm-.085-2.835l6.56-.382c0-6.305-1.058-7.32-3.004-7.32-2.158 0-3.47 1.395-3.556 7.7zm14.718 11.805l2.58-1.185v-16.079l-2.708-1.227v-2.073l9.818-1.567h.635v3.09h.253c2.116-1.947 4.147-3.09 7.364-3.09 2.792 0 4.57.974 5.416 3.09h.212c2.115-1.947 4.443-3.09 7.66-3.09 3.934 0 6.008 1.99 6.008 6.348v14.6l2.58 1.185v2.158h-12.482v-2.158l2.073-1.185v-12.865c0-2.455-.805-3.343-2.92-3.343-.805 0-1.736.21-2.624.592v15.615l2.073 1.185v2.158h-12.02v-2.158l2.074-1.185v-12.864c0-2.455-.762-3.343-2.92-3.343-.846 0-1.692.21-2.623.635v15.572l2.074 1.185v2.158h-12.526v-2.16zm49.583-19.38h.296c1.353-1.438 3.596-2.75 6.643-2.75 4.062 0 8.337 3.258 8.337 12.06 0 9.648-5.502 12.865-12.822 12.865-4.4 0-8.294-.932-10.325-2.117v-27.549l-2.622-1.183v-2.16l9.86-1.564h.634v12.398zm7.025 9.902c0-6.39-1.734-8.04-4.19-8.04-1.27 0-2.157.297-2.834.635v16.039c.466.38 1.185.804 2.58.804 2.962 0 4.444-2.667 4.444-9.438zm17.517.508c.38 4.612 2.582 6.813 6.898 6.813 3.004 0 4.697-.296 6.347-.804v2.284c-1.1 1.523-4.654 3.47-9.013 3.47-8.125 0-12.314-4.485-12.314-12.525 0-7.83 4.613-12.356 11.68-12.356 7.108 0 10.536 3.173 10.536 13.118h-14.135zm-.084-2.835l6.56-.382c0-6.305-1.058-7.32-3.005-7.32-2.157 0-3.47 1.395-3.554 7.7zm24.113-10.409h.677v4.993h.255c1.396-3.132 3.512-4.825 6.094-4.825.422 0 .93.042 1.184.127v6.897c-.465-.126-1.312-.21-1.988-.21-2.116 0-3.894.21-5.248.846v13.16l3.26 1.186v2.2h-13.628v-2.2l2.498-1.186v-16.038l-2.624-1.227v-2.16l9.52-1.564zm8.949 23.485v-6.263h3.344l1.354 3.936c.55.508 2.455.762 3.81.762 2.242 0 3.81-.508 3.81-2.37 0-1.735-.593-2.455-3.132-3.005l-2.878-.634c-4.36-.973-6.39-4.443-6.39-7.955 0-4.528 3.088-7.87 10.07-7.87 2.793 0 5.63.422 7.49 1.227v5.84h-3.3l-1.017-3.26c-.55-.295-2.2-.592-3.47-.592-1.862 0-3.13.89-3.13 2.328 0 1.396.634 2.243 3.257 2.793l2.793.594c4.57.973 6.305 4.02 6.305 7.617 0 4.952-3.13 8.337-10.663 8.337-2.54-.002-5.967-.51-8.252-1.482zm19.187-1.271l2.58-1.185v-26.194l-2.708-1.228v-2.072l9.82-1.565h.634v13.202h.253c2.115-1.946 4.993-3.09 8.21-3.09 3.935 0 5.923 1.947 5.923 6.306v14.642l2.58 1.185v2.158h-12.947v-2.158l2.496-1.185v-12.864c0-2.455-1.015-3.343-3.173-3.343-1.186 0-2.244.254-3.218.635v15.572l2.497 1.185v2.158h-12.95v-2.16zm37.784-22.214h.635v20.988l2.538 1.186v2.2h-12.95v-2.2l2.54-1.186v-16.038l-2.666-1.227v-2.16l9.902-1.564zm.76-5.545c0 2.285-1.903 4.147-4.187 4.147-2.327 0-4.19-1.862-4.19-4.147 0-2.328 1.863-4.19 4.19-4.19 2.284 0 4.188 1.863 4.188 4.19zm12.698 8.717c1.312-1.565 3.386-3.09 6.432-3.09 4.655 0 8.507 2.625 8.507 12.02 0 9.648-5.415 12.863-11.637 12.863-1.903 0-2.708-.38-3.47-.72v7.11l2.962 1.184v2.2h-13.372v-2.2l2.54-1.186v-26.403l-2.667-1.227v-2.073l9.818-1.567h.634v3.09h.254zm6.686 9.48c0-5.502-1.565-7.872-4.104-7.872-1.312 0-2.074.296-2.75.635v15.487c.55.38 1.396.763 2.496.763 2.454 0 4.358-2.243 4.358-9.014z" fill="#fff"/><path fill="#FDBA12" d="M252.854 37.096h39.844v17.124h-39.844z"/><path d="M257.62 50.736v-9.252l-.98-.25v-1.224l3.09-.358.234.11v3.974h.108c.527-.434 1.24-.87 2.343-.87 1.508 0 3.028.87 3.028 3.96 0 3.26-1.77 4.61-4.378 4.61-1.49 0-2.73-.326-3.445-.7zm5.31-3.586c0-1.91-.574-2.546-1.646-2.546-.543 0-.993.155-1.273.295v4.766c.25.17.53.342 1.166.342 1.07 0 1.754-.606 1.754-2.858zm3.567-.046c0-2.67 1.645-4.223 4.02-4.223 2.47 0 3.603 1.383 3.603 4.55h-5.14c.124 1.66.963 2.344 2.39 2.344 1.105 0 1.772-.2 2.362-.388v1.258c-.56.356-1.49.79-2.996.79-2.842 0-4.24-1.644-4.24-4.33zm5.216-.916c0-1.412-.482-1.908-1.257-1.908-.823 0-1.382.512-1.477 2.003l2.733-.095zm4.08 3.028v-4.72h-.962v-1.056l1.18-.403.31-1.91h1.88v1.926h1.8v1.443h-1.8v4.3c0 .777.295 1.057 1.07 1.057.295 0 .59-.047.838-.11v1.197c-.356.23-1.055.465-1.877.465-1.567 0-2.437-.545-2.437-2.19zm5.232-.016c0-1.553 1.104-2.064 2.84-2.39l1.632-.328v-.543c0-.947-.28-1.305-1.63-1.305-.7 0-1.554.062-2.097.155v-1.335c.746-.28 1.972-.574 3.244-.574 1.972 0 2.89.84 2.89 2.593v3.975c0 .42.247.528.604.528h.296v1.103c-.25.14-.886.34-1.54.34-.806 0-1.302-.28-1.504-.932h-.077c-.42.513-1.164.946-2.205.946-1.475 0-2.453-.898-2.453-2.234zm4.472.404v-1.94l-.993.062c-.777.062-1.09.435-1.09 1.147 0 .746.328 1.135 1.042 1.135.435 0 .838-.218 1.04-.404z" fill="#010101"/></svg>