<?xml version="1.0" encoding="utf-8"?>
<svg xmlns="http://www.w3.org/2000/svg" width="508" height="54.221">
<g>
	<g>
		<path fill="#231F20" d="M222.342,34.404h12.942v-2.156l-2.496-1.185V15.762c0.933-0.668,2.03-0.897,3.215-0.897
			c2.157,0,3.171,0.888,3.171,3.342v12.857l-2.495,1.185v2.156h12.941v-2.156l-2.58-1.185V16.43c0-4.356-1.987-6.302-5.921-6.302
			c-3.214,0-6.344,1.142-8.459,3.087l0,0v-3.087h-0.634l-9.813,1.565v2.073l2.708,1.226v16.072l-2.58,1.185V34.404z"/>
		<path fill="#231F20" d="M192.226,0.316c-2.327,0-4.188,1.86-4.188,4.187c0,2.284,1.861,4.145,4.188,4.145
			c2.284,0,4.187-1.86,4.187-4.145C196.412,2.176,194.51,0.316,192.226,0.316"/>
		<polygon fill="#231F20" points="185.754,11.608 185.754,13.766 188.418,14.991 188.418,31.021 185.88,32.205 185.88,34.404
			198.824,34.404 198.824,32.205 196.285,31.021 196.285,10.043 195.651,10.043 		"/>
		<path fill="#231F20" d="M174.747,29.95c-0.57,0.471-1.226,0.817-2.41,0.817c-3.13,0-4.61-2.538-4.61-8.375
			c0-6.683,1.861-8.924,4.355-8.924c1.398,0,2.095,0.436,2.665,1.064V29.95z M174.747,11.185c-0.972-0.677-2.495-1.061-3.806-1.061
			c-5.823,0-11.328,3.339-11.328,12.897c0,9.094,5.544,12.018,9.256,12.018c2.96,0,4.99-1.312,5.963-2.579h0.253v2.496h0.678
			l9.347-1.102v-1.724l-2.496-1.396V0.484h-0.634l-9.854,1.565v2.158l2.621,1.184V11.185z"/>
		<path fill="#231F20" d="M141.683,11.608v2.157l2.623,1.226v16.03l-2.495,1.184v2.199h13.617v-2.199l-3.257-1.184V18.463
			c1.393-1.095,3.13-1.441,5.244-1.441c0.677,0,1.523,0.085,1.988,0.212v-6.894c-0.254-0.085-0.76-0.127-1.185-0.127
			c-2.579,0-4.947,1.692-6.343,4.821l0,0v-4.991h-0.677L141.683,11.608z"/>
		<path fill="#231F20" d="M124.786,13.476c0.558-0.25,1.708-0.261,2.089-0.261c3.044,0,3.934,1.522,3.934,4.526l-0.007,2.673
			l-4.508,0.847c-4.619,0.852-8.101,2.255-8.101,7.118c0,3.935,2.762,6.66,6.525,6.66c2.961,0,5.753-1.27,6.81-3.383h0.211
			c0.381,2.537,2.582,3.342,5.033,3.342c1.903,0,3.744-0.594,4.443-1.385v-1.365l-2.498-1.185V17.318
			c0-5.329-3.805-7.278-10.149-7.278c-4.146,0-6.855,1.034-9.052,2.082v6h3.68L124.786,13.476z M130.808,29.705
			c-0.453,0.669-1.31,1.021-2.157,1.021c-1.522,0-2.959-0.847-2.959-3.469c0-1.871,1.691-3.592,3.542-3.875l1.574-0.3V29.705z"/>
		<path fill="#231F20" d="M205.176,13.476c0.559-0.25,1.71-0.261,2.09-0.261c3.045,0,3.933,1.522,3.933,4.526l-0.007,2.673
			l-4.509,0.847c-4.616,0.852-8.099,2.255-8.099,7.118c0,3.935,2.761,6.66,6.524,6.66c2.961,0,5.753-1.27,6.81-3.383h0.213
			c0.38,2.537,2.58,3.342,5.033,3.342c1.903,0,3.742-0.594,4.441-1.385v-1.365l-2.497-1.185V17.318c0-5.329-3.805-7.278-10.15-7.278
			c-4.145,0-6.853,1.034-9.051,2.082v6h3.68L205.176,13.476z M211.2,29.705c-0.454,0.669-1.31,1.021-2.157,1.021
			c-1.522,0-2.96-0.847-2.96-3.469c0-1.871,1.691-3.592,3.543-3.875l1.574-0.3V29.705z"/>
		<path fill="#231F20" d="M93.889,27.51c0,4.103,2.031,7.529,6.81,7.529c3.173,0,5.964-1.396,7.487-3.256l0,0V35h0.633l9.601-1.146
			v-1.724l-2.664-1.396V10.17h-0.634l-9.854,1.565v2.157l2.622,1.227v14.205c-0.877,0.582-1.479,0.85-2.87,0.85
			c-1.986,0-3.263-0.59-3.263-3.296V10.17h-0.678l-9.854,1.565v2.157l2.664,1.227V27.51z"/>
		<path fill="#231F20" d="M83.613,29.202h-8.457c-0.931,0-1.694-0.677-1.694-1.522c0-0.634,0.466-1.312,1.059-1.733
			c1.268,0.38,2.327,0.464,3.892,0.464c6.088,0,10.277-2.749,10.277-7.908c0-2.327-0.973-3.638-2.453-4.992l4.009,1.25l0.009-4.718
			l-6.386,1.185c-1.481-0.55-3.553-1.229-5.456-1.229c-6.091,0-10.32,3.132-10.32,8.249c0,3.13,1.565,5.457,3.934,6.768l0.188,0.117
			c-1.354,0.931-4.166,3.055-4.166,5.55c0,1.861,1.228,3.68,3.766,4.229v0.007c-2.664,0.55-5.668,1.686-5.668,4.773
			c0,3.171,4.566,6.308,12.011,6.308c9.262,0,13.282-4.363,13.282-9.988C91.439,31.359,88.858,29.202,83.613,29.202 M78.412,12.792
			c1.733,0,2.92,1.21,2.92,5.455c0,4.357-1.229,5.245-2.92,5.245c-1.692,0-2.88-0.888-2.88-5.245
			C75.532,13.786,76.72,12.792,78.412,12.792 M78.371,42.401c-4.315,0-5.864-1.685-5.796-3.344c0.047-1.142,0.612-2.618,2.636-2.748
			h6.724c1.946,0,3.175,1.349,3.175,2.577C85.11,41.339,83.278,42.401,78.371,42.401"/>
		<path fill="#231F20" d="M65.669,23.281c0-9.94-4.408-13.199-10.53-13.199c-7.063,0-11.674,4.613-11.674,12.438
			c0,8.035,4.188,12.519,12.308,12.519c4.357,0,7.791-2.294,8.89-3.817l0.119-1.935c-1.649,0.508-3.341,0.804-6.344,0.804
			c-4.314,0-6.898-2.206-6.894-6.81H65.669z M55.011,12.75c1.946,0,3.003,1.414,3.003,7.318l-6.556,0.381
			C51.547,14.418,52.854,12.75,55.011,12.75"/>
		<path fill="#231F20" d="M17.806,34.404h12.942v-2.156l-2.496-1.185l-0.005-15.267c0.945-0.652,2.022-1.001,3.207-1.001
			c2.157,0,3.225,1.361,3.186,3.411v12.857l-2.497,1.185v2.156h12.944v-2.156l-2.582-1.185V16.43c0-4.356-2.511-6.302-5.922-6.302
			c-3.213,0-6.351,1.142-8.466,3.087h0.008V0.02h-0.634l-9.812,1.564v2.073l2.708,1.227v26.18l-2.581,1.185V34.404z"/>
		<path fill="#231F20" d="M3.638,27.934c0,4.354,2.069,7.105,6.762,7.105c2.454,0,5.069-0.635,6.561-1.746v-2.914
			c-0.62,0.2-1.692,0.389-2.538,0.389c-2.284,0-2.918-1.185-2.918-3.511V14.78h5.159v-4.06h-5.159V5.179l-7.867,1.1v4.44L0,11.403
			v3.376h3.638V27.934z"/>
	</g>
</g>
<g>
	<path fill="#FFFFFF" d="M252.858,32.244l2.581-1.185V14.98l-2.708-1.227v-2.074l9.817-1.566h0.635v3.089h0.254
		c2.116-1.946,4.147-3.089,7.363-3.089c2.793,0,4.569,0.974,5.417,3.089h0.211c2.116-1.946,4.443-3.089,7.659-3.089
		c3.936,0,6.009,1.989,6.009,6.348V31.06l2.582,1.185v2.158h-12.484v-2.158l2.074-1.185V18.196c0-2.455-0.804-3.343-2.92-3.343
		c-0.804,0-1.735,0.211-2.624,0.592V31.06l2.074,1.185v2.158H266.78v-2.158l2.074-1.185V18.196c0-2.455-0.762-3.343-2.92-3.343
		c-0.847,0-1.693,0.211-2.624,0.635V31.06l2.074,1.185v2.158h-12.526V32.244z"/>
	<path fill="#FFFFFF" d="M300.897,23.274c0.381,4.612,2.581,6.813,6.898,6.813c3.004,0,4.696-0.296,6.347-0.804v2.284
		c-1.1,1.523-4.655,3.471-9.013,3.471c-8.125,0-12.314-4.486-12.314-12.526c0-7.829,4.612-12.356,11.68-12.356
		c7.108,0,10.536,3.173,10.536,13.118H300.897z M300.812,20.439l6.56-0.381c0-6.305-1.058-7.321-3.004-7.321
		C302.21,12.737,300.897,14.133,300.812,20.439z"/>
	<path fill="#FFFFFF" d="M315.529,32.244l2.582-1.185V14.98l-2.709-1.227v-2.074l9.818-1.566h0.635v3.089h0.253
		c2.116-1.946,4.147-3.089,7.364-3.089c2.792,0,4.569,0.974,5.416,3.089h0.212c2.115-1.946,4.443-3.089,7.659-3.089
		c3.935,0,6.009,1.989,6.009,6.348V31.06l2.581,1.185v2.158h-12.483v-2.158l2.073-1.185V18.196c0-2.455-0.804-3.343-2.92-3.343
		c-0.804,0-1.735,0.211-2.623,0.592V31.06l2.073,1.185v2.158h-12.019v-2.158l2.074-1.185V18.196c0-2.455-0.762-3.343-2.92-3.343
		c-0.846,0-1.692,0.211-2.623,0.635V31.06l2.073,1.185v2.158h-12.526V32.244z"/>
	<path fill="#FFFFFF" d="M365.113,12.864h0.296c1.354-1.438,3.597-2.75,6.644-2.75c4.062,0,8.337,3.258,8.337,12.06
		c0,9.648-5.502,12.865-12.822,12.865c-4.401,0-8.294-0.931-10.325-2.116V5.374l-2.623-1.185V2.031l9.859-1.565h0.635V12.864z
		 M372.138,22.766c0-6.389-1.734-8.04-4.189-8.04c-1.27,0-2.158,0.297-2.835,0.635v16.038c0.466,0.382,1.185,0.805,2.581,0.805
		C370.656,32.203,372.138,29.537,372.138,22.766z"/>
	<path fill="#FFFFFF" d="M389.655,23.274c0.381,4.612,2.582,6.813,6.898,6.813c3.004,0,4.697-0.296,6.347-0.804v2.284
		c-1.1,1.523-4.654,3.471-9.013,3.471c-8.125,0-12.314-4.486-12.314-12.526c0-7.829,4.613-12.356,11.68-12.356
		c7.108,0,10.536,3.173,10.536,13.118H389.655z M389.571,20.439l6.56-0.381c0-6.305-1.059-7.321-3.006-7.321
		C390.968,12.737,389.655,14.133,389.571,20.439z"/>
	<path fill="#FFFFFF" d="M413.684,10.029h0.677v4.994h0.254c1.396-3.132,3.512-4.825,6.094-4.825c0.423,0,0.932,0.042,1.185,0.127
		v6.897c-0.465-0.126-1.312-0.211-1.988-0.211c-2.116,0-3.894,0.211-5.248,0.847v13.16l3.259,1.186v2.199h-13.626v-2.199
		l2.497-1.186V14.98l-2.624-1.227v-2.159L413.684,10.029z"/>
	<path fill="#FFFFFF" d="M422.633,33.515v-6.263h3.344l1.354,3.936c0.55,0.508,2.454,0.762,3.809,0.762
		c2.242,0,3.809-0.508,3.809-2.371c0-1.734-0.592-2.454-3.131-3.004l-2.878-0.634c-4.359-0.974-6.391-4.444-6.391-7.956
		c0-4.528,3.089-7.871,10.072-7.871c2.792,0,5.628,0.423,7.49,1.228v5.839h-3.301l-1.017-3.258c-0.55-0.296-2.2-0.593-3.47-0.593
		c-1.862,0-3.131,0.889-3.131,2.328c0,1.396,0.635,2.243,3.258,2.793l2.793,0.593c4.57,0.973,6.305,4.02,6.305,7.617
		c0,4.951-3.131,8.336-10.663,8.336C428.346,34.995,424.918,34.487,422.633,33.515z"/>
	<path fill="#FFFFFF" d="M441.819,32.244l2.582-1.185V4.866l-2.709-1.228V1.565L451.511,0h0.635v13.202h0.253
		c2.116-1.946,4.994-3.089,8.21-3.089c3.936,0,5.924,1.946,5.924,6.305V31.06l2.581,1.185v2.158h-12.948v-2.158l2.496-1.185V18.196
		c0-2.455-1.015-3.343-3.173-3.343c-1.185,0-2.243,0.254-3.217,0.635V31.06l2.497,1.185v2.158h-12.949V32.244z"/>
	<path fill="#FFFFFF" d="M479.604,10.029h0.635v20.989l2.539,1.186v2.199h-12.949v-2.199l2.539-1.186V14.98l-2.666-1.227v-2.159
		L479.604,10.029z M480.365,4.485c0,2.285-1.904,4.147-4.188,4.147c-2.327,0-4.189-1.862-4.189-4.147
		c0-2.328,1.862-4.189,4.189-4.189C478.461,0.296,480.365,2.158,480.365,4.485z"/>
	<path fill="#FFFFFF" d="M493.062,13.202c1.312-1.565,3.386-3.089,6.432-3.089c4.655,0,8.507,2.624,8.507,12.018
		c0,9.649-5.416,12.864-11.638,12.864c-1.903,0-2.708-0.38-3.47-0.719v7.108l2.962,1.185v2.202h-13.372v-2.202l2.539-1.185V14.98
		l-2.666-1.227v-2.074l9.818-1.566h0.634v3.089H493.062z M499.748,22.681c0-5.501-1.565-7.871-4.104-7.871
		c-1.312,0-2.074,0.296-2.751,0.635v15.487c0.55,0.381,1.397,0.763,2.497,0.763C497.844,31.695,499.748,29.452,499.748,22.681z"/>
</g>
<rect x="252.854" y="37.096" fill="#FDBA12" width="39.844" height="17.125"/>
<g>
	<path fill="#010101" d="M257.62,50.736v-9.252l-0.979-0.249V40.01l3.089-0.358l0.234,0.109v3.975h0.108
		c0.527-0.434,1.241-0.869,2.343-0.869c1.508,0,3.028,0.869,3.028,3.959c0,3.26-1.769,4.609-4.378,4.609
		C259.575,51.435,258.334,51.11,257.62,50.736z M262.93,47.15c0-1.909-0.574-2.546-1.646-2.546c-0.543,0-0.993,0.155-1.273,0.295
		v4.767c0.25,0.171,0.529,0.342,1.165,0.342C262.247,50.008,262.93,49.402,262.93,47.15z"/>
	<path fill="#010101" d="M266.497,47.104c0-2.67,1.645-4.223,4.02-4.223c2.469,0,3.603,1.382,3.603,4.549h-5.14
		c0.124,1.661,0.963,2.344,2.391,2.344c1.104,0,1.771-0.201,2.361-0.388v1.258c-0.559,0.356-1.491,0.79-2.996,0.79
		C267.894,51.435,266.497,49.79,266.497,47.104z M271.713,46.188c0-1.412-0.482-1.908-1.257-1.908c-0.823,0-1.382,0.512-1.477,2.003
		L271.713,46.188z"/>
	<path fill="#010101" d="M275.793,49.216v-4.72h-0.962v-1.055l1.179-0.404l0.311-1.91h1.879v1.926H280v1.443h-1.801v4.301
		c0,0.776,0.296,1.056,1.07,1.056c0.296,0,0.591-0.047,0.839-0.109v1.196c-0.356,0.231-1.055,0.465-1.877,0.465
		C276.663,51.404,275.793,50.86,275.793,49.216z"/>
	<path fill="#010101" d="M281.025,49.2c0-1.553,1.104-2.064,2.841-2.391l1.631-0.327v-0.543c0-0.946-0.279-1.304-1.631-1.304
		c-0.698,0-1.553,0.062-2.096,0.155v-1.335c0.746-0.279,1.972-0.574,3.244-0.574c1.972,0,2.889,0.839,2.889,2.592v3.975
		c0,0.419,0.248,0.528,0.605,0.528h0.296v1.103c-0.25,0.14-0.886,0.341-1.539,0.341c-0.807,0-1.303-0.279-1.505-0.932h-0.077
		c-0.421,0.513-1.164,0.946-2.205,0.946C282.003,51.435,281.025,50.536,281.025,49.2z M285.497,49.604v-1.94l-0.993,0.062
		c-0.777,0.062-1.089,0.435-1.089,1.147c0,0.746,0.327,1.135,1.041,1.135C284.891,50.008,285.294,49.79,285.497,49.604z"/>
</g>
</svg>
