<svg xmlns="http://www.w3.org/2000/svg" width="504.292" height="49.423">
<g>
	<g>
		<path fill="#231F20" d="M220.719,34.153h12.848v-2.141l-2.478-1.176v-15.19c0.926-0.663,2.016-0.891,3.191-0.891
			c2.142,0,3.148,0.882,3.148,3.317v12.764l-2.477,1.176v2.141h12.847v-2.141l-2.561-1.176V16.31c0-4.324-1.973-6.256-5.878-6.256
			c-3.19,0-6.298,1.134-8.397,3.064l0,0v-3.064h-0.63l-9.741,1.554v2.058l2.688,1.217v15.955l-2.562,1.176V34.153z"/>
		<path fill="#231F20" d="M190.822,0.313c-2.31,0-4.157,1.847-4.157,4.156c0,2.268,1.848,4.114,4.157,4.114
			c2.268,0,4.156-1.847,4.156-4.114C194.979,2.16,193.09,0.313,190.822,0.313"/>
		<polygon fill="#231F20" points="184.398,11.523 184.398,13.665 187.043,14.882 187.043,30.795 184.523,31.97 184.523,34.153
			197.373,34.153 197.373,31.97 194.853,30.795 194.853,9.97 194.223,9.97 		"/>
		<path fill="#231F20" d="M173.472,29.731c-0.566,0.468-1.217,0.812-2.393,0.812c-3.107,0-4.576-2.52-4.576-8.313
			c0-6.634,1.848-8.858,4.323-8.858c1.388,0,2.079,0.433,2.646,1.057V29.731z M173.472,11.104c-0.965-0.672-2.477-1.053-3.778-1.053
			c-5.78,0-11.245,3.314-11.245,12.803c0,9.027,5.504,11.93,9.188,11.93c2.938,0,4.953-1.302,5.919-2.561h0.252v2.479h0.673
			l9.278-1.094v-1.711l-2.478-1.386V0.48h-0.629l-9.782,1.554v2.143l2.602,1.175V11.104z"/>
		<path fill="#231F20" d="M140.648,11.523v2.142l2.604,1.217v15.913l-2.477,1.175v2.184h13.518V31.97l-3.233-1.175V18.328
			c1.383-1.087,3.107-1.431,5.206-1.431c0.672,0,1.512,0.084,1.974,0.21v-6.844c-0.252-0.084-0.755-0.126-1.176-0.126
			c-2.561,0-4.911,1.68-6.297,4.786l0,0V9.97h-0.672L140.648,11.523z"/>
		<path fill="#231F20" d="M123.875,13.378c0.554-0.248,1.695-0.26,2.073-0.26c3.022,0,3.905,1.512,3.905,4.493l-0.007,2.653
			l-4.476,0.841c-4.585,0.846-8.042,2.238-8.042,7.066c0,3.905,2.742,6.611,6.478,6.611c2.939,0,5.711-1.26,6.76-3.358h0.21
			c0.378,2.519,2.562,3.317,4.996,3.317c1.89,0,3.717-0.589,4.411-1.374v-1.355l-2.479-1.176V17.191
			c0-5.29-3.777-7.225-10.075-7.225c-4.115,0-6.805,1.026-8.986,2.066v5.956h3.653L123.875,13.378z M129.854,29.488
			c-0.45,0.664-1.301,1.013-2.142,1.013c-1.511,0-2.938-0.84-2.938-3.443c0-1.857,1.679-3.566,3.517-3.848l1.562-0.298V29.488z"/>
		<path fill="#231F20" d="M203.679,13.378c0.555-0.248,1.697-0.26,2.075-0.26c3.022,0,3.904,1.512,3.904,4.493l-0.007,2.653
			l-4.477,0.841c-4.582,0.846-8.04,2.238-8.04,7.066c0,3.905,2.741,6.611,6.477,6.611c2.939,0,5.711-1.26,6.76-3.358h0.212
			c0.377,2.519,2.561,3.317,4.996,3.317c1.889,0,3.715-0.589,4.408-1.374v-1.355l-2.479-1.176V17.191
			c0-5.29-3.777-7.225-10.076-7.225c-4.114,0-6.803,1.026-8.984,2.066v5.956h3.653L203.679,13.378z M209.658,29.488
			c-0.45,0.664-1.301,1.013-2.142,1.013c-1.511,0-2.938-0.84-2.938-3.443c0-1.857,1.679-3.566,3.518-3.848l1.562-0.298V29.488z"/>
		<path fill="#231F20" d="M93.203,27.31c0,4.073,2.017,7.474,6.761,7.474c3.149,0,5.921-1.386,7.433-3.232l0,0v3.193h0.628
			l9.531-1.137v-1.711l-2.645-1.386V10.096h-0.63l-9.782,1.554v2.141l2.603,1.218v14.102c-0.871,0.577-1.469,0.843-2.849,0.843
			c-1.972,0-3.239-0.585-3.239-3.271V10.096h-0.673l-9.782,1.554v2.141l2.645,1.218V27.31z"/>
		<path fill="#231F20" d="M83.003,28.989h-8.396c-0.924,0-1.682-0.672-1.682-1.512c0-0.629,0.463-1.302,1.051-1.721
			c1.259,0.377,2.31,0.461,3.863,0.461c6.044,0,10.202-2.729,10.202-7.851c0-2.31-0.966-3.611-2.435-4.955l3.979,1.241l0.009-4.684
			l-6.34,1.176c-1.471-0.546-3.527-1.22-5.416-1.22c-6.047,0-10.245,3.109-10.245,8.188c0,3.107,1.554,5.417,3.905,6.719
			l0.187,0.116c-1.344,0.924-4.135,3.032-4.135,5.51c0,1.848,1.219,3.652,3.738,4.198v0.007c-2.645,0.546-5.627,1.673-5.627,4.738
			c0,3.148,4.533,6.262,11.924,6.262c9.194,0,13.185-4.331,13.185-9.915C90.771,31.131,88.21,28.989,83.003,28.989 M77.84,12.699
			c1.721,0,2.898,1.201,2.898,5.415c0,4.325-1.22,5.207-2.898,5.207c-1.68,0-2.859-0.882-2.859-5.207
			C74.98,13.686,76.16,12.699,77.84,12.699 M77.799,42.092c-4.283,0-5.821-1.672-5.754-3.319c0.047-1.133,0.607-2.599,2.617-2.728
			h6.675c1.932,0,3.152,1.339,3.152,2.558C84.489,41.037,82.67,42.092,77.799,42.092"/>
		<path fill="#231F20" d="M65.189,23.111c0-9.867-4.376-13.103-10.453-13.103c-7.012,0-11.589,4.579-11.589,12.347
			c0,7.977,4.157,12.428,12.218,12.428c4.325,0,7.734-2.277,8.825-3.789l0.118-1.921c-1.638,0.504-3.316,0.798-6.298,0.798
			c-4.282,0-6.848-2.189-6.844-6.76H65.189z M54.609,12.656c1.932,0,2.981,1.403,2.981,7.265l-6.508,0.378
			C51.171,14.312,52.468,12.656,54.609,12.656"/>
		<path fill="#231F20" d="M17.676,34.153h12.848v-2.141l-2.478-1.176l-0.005-15.155c0.938-0.647,2.008-0.994,3.184-0.994
			c2.142,0,3.201,1.351,3.162,3.386v12.764l-2.479,1.176v2.141h12.85v-2.141l-2.562-1.176V16.31c0-4.324-2.493-6.256-5.879-6.256
			c-3.189,0-6.305,1.134-8.404,3.064h0.008V0.02h-0.63l-9.74,1.553V3.63l2.688,1.218v25.989l-2.562,1.176V34.153z"/>
		<path fill="#231F20" d="M3.611,27.729c0,4.322,2.054,7.054,6.713,7.054c2.436,0,5.032-0.63,6.513-1.733v-2.893
			c-0.615,0.198-1.68,0.386-2.52,0.386c-2.267,0-2.896-1.176-2.896-3.485V14.672h5.121v-4.03h-5.121v-5.5l-7.81,1.092v4.408L0,11.32
			v3.352h3.611V27.729z"/>
	</g>
</g>
<g>
	<path fill="#FFFFFF" d="M251.013,32.009l2.562-1.176V14.871l-2.688-1.218v-2.059l9.746-1.554h0.63v3.066h0.252
		c2.101-1.932,4.117-3.066,7.31-3.066c2.772,0,4.536,0.966,5.377,3.066h0.21c2.101-1.932,4.411-3.066,7.604-3.066
		c3.906,0,5.965,1.975,5.965,6.301v14.492l2.562,1.176v2.143h-12.393v-2.143l2.059-1.176v-12.77c0-2.437-0.798-3.318-2.898-3.318
		c-0.798,0-1.723,0.21-2.604,0.588v15.5l2.059,1.176v2.143h-11.931v-2.143l2.059-1.176v-12.77c0-2.437-0.756-3.318-2.898-3.318
		c-0.84,0-1.681,0.21-2.604,0.63v15.458l2.059,1.176v2.143h-12.435V32.009z"/>
	<path fill="#FFFFFF" d="M298.701,23.104c0.378,4.579,2.562,6.763,6.848,6.763c2.982,0,4.662-0.294,6.301-0.798v2.268
		c-1.092,1.513-4.621,3.445-8.947,3.445c-8.065,0-12.225-4.453-12.225-12.435c0-7.771,4.579-12.266,11.595-12.266
		c7.057,0,10.459,3.15,10.459,13.022H298.701z M298.617,20.29l6.512-0.378c0-6.259-1.051-7.267-2.982-7.267
		C300.004,12.644,298.701,14.03,298.617,20.29z"/>
	<path fill="#FFFFFF" d="M313.227,32.009l2.562-1.176V14.871l-2.688-1.218v-2.059l9.746-1.554h0.63v3.066h0.252
		c2.101-1.932,4.117-3.066,7.31-3.066c2.772,0,4.536,0.966,5.377,3.066h0.21c2.101-1.932,4.411-3.066,7.604-3.066
		c3.906,0,5.965,1.975,5.965,6.301v14.492l2.562,1.176v2.143h-12.393v-2.143l2.059-1.176v-12.77c0-2.437-0.798-3.318-2.898-3.318
		c-0.798,0-1.723,0.21-2.604,0.588v15.5l2.059,1.176v2.143h-11.931v-2.143l2.059-1.176v-12.77c0-2.437-0.756-3.318-2.898-3.318
		c-0.84,0-1.681,0.21-2.604,0.63v15.458l2.059,1.176v2.143h-12.435V32.009z"/>
	<path fill="#FFFFFF" d="M362.448,12.77h0.294c1.344-1.428,3.57-2.73,6.595-2.73c4.033,0,8.276,3.234,8.276,11.972
		c0,9.577-5.462,12.771-12.729,12.771c-4.369,0-8.233-0.924-10.25-2.101V5.335l-2.604-1.176V2.016l9.788-1.554h0.63V12.77z
		 M369.421,22.6c0-6.343-1.722-7.981-4.158-7.981c-1.261,0-2.143,0.294-2.814,0.63v15.92c0.462,0.379,1.176,0.799,2.562,0.799
		C367.951,31.968,369.421,29.321,369.421,22.6z"/>
	<path fill="#FFFFFF" d="M386.812,23.104c0.378,4.579,2.562,6.763,6.848,6.763c2.982,0,4.663-0.294,6.301-0.798v2.268
		c-1.092,1.513-4.621,3.445-8.947,3.445c-8.065,0-12.225-4.453-12.225-12.435c0-7.771,4.579-12.266,11.595-12.266
		c7.057,0,10.459,3.15,10.459,13.022H386.812z M386.728,20.29l6.512-0.378c0-6.259-1.051-7.267-2.983-7.267
		C388.114,12.644,386.812,14.03,386.728,20.29z"/>
	<path fill="#FFFFFF" d="M410.664,9.956h0.672v4.957h0.252c1.387-3.109,3.486-4.789,6.049-4.789c0.42,0,0.925,0.042,1.177,0.126
		v6.847c-0.462-0.126-1.303-0.21-1.975-0.21c-2.101,0-3.864,0.21-5.209,0.84v13.064l3.234,1.177v2.184h-13.526v-2.184l2.479-1.177
		v-15.92l-2.604-1.218V11.51L410.664,9.956z"/>
	<path fill="#FFFFFF" d="M419.548,33.27v-6.217h3.319l1.344,3.907c0.546,0.504,2.437,0.756,3.78,0.756
		c2.227,0,3.781-0.504,3.781-2.354c0-1.722-0.588-2.436-3.108-2.982l-2.856-0.629c-4.327-0.966-6.344-4.411-6.344-7.897
		c0-4.495,3.066-7.813,9.998-7.813c2.772,0,5.587,0.42,7.436,1.218v5.797h-3.276l-1.009-3.234c-0.546-0.294-2.185-0.588-3.444-0.588
		c-1.849,0-3.108,0.882-3.108,2.311c0,1.386,0.63,2.227,3.234,2.772l2.772,0.588c4.537,0.966,6.259,3.991,6.259,7.561
		c0,4.916-3.108,8.275-10.586,8.275C425.219,34.739,421.816,34.235,419.548,33.27z"/>
	<path fill="#FFFFFF" d="M438.596,32.009l2.562-1.176V4.831l-2.688-1.218V1.554L448.216,0h0.63v13.106h0.252
		c2.101-1.932,4.957-3.066,8.149-3.066c3.907,0,5.881,1.932,5.881,6.259v14.534l2.562,1.176v2.143h-12.854v-2.143l2.479-1.176
		v-12.77c0-2.437-1.008-3.318-3.15-3.318c-1.176,0-2.227,0.252-3.192,0.63v15.458l2.479,1.176v2.143h-12.854V32.009z"/>
	<path fill="#FFFFFF" d="M476.104,9.956h0.63v20.835l2.521,1.177v2.184h-12.854v-2.184l2.521-1.177v-15.92l-2.646-1.218V11.51
		L476.104,9.956z M476.859,4.453c0,2.269-1.891,4.117-4.158,4.117c-2.311,0-4.159-1.848-4.159-4.117
		c0-2.311,1.849-4.159,4.159-4.159C474.969,0.294,476.859,2.142,476.859,4.453z"/>
	<path fill="#FFFFFF" d="M489.463,13.106c1.303-1.554,3.36-3.066,6.385-3.066c4.621,0,8.444,2.604,8.444,11.93
		c0,9.578-5.377,12.77-11.553,12.77c-1.89,0-2.688-0.377-3.444-0.713v7.057l2.94,1.176v2.186h-13.274v-2.186l2.521-1.176V14.871
		l-2.646-1.218v-2.059l9.746-1.554h0.63v3.066H489.463z M496.101,22.516c0-5.461-1.555-7.813-4.075-7.813
		c-1.302,0-2.059,0.294-2.73,0.63v15.375c0.546,0.378,1.387,0.757,2.479,0.757C494.21,31.464,496.101,29.237,496.101,22.516z"/>
</g>
<g>
	<path fill="#010101" d="M253.587,48.799V38.251l-1.246-0.262v-0.623l2.46-0.377l0.197,0.082v4.478h0.082
		c0.673-0.509,1.477-0.919,2.624-0.919c1.592,0,3.265,0.805,3.265,4.052c0,3.116-1.738,4.724-4.33,4.724
		C255.343,49.405,254.293,49.095,253.587,48.799z M259.41,44.978c0-2.363-0.918-3.183-2.477-3.183c-0.771,0-1.477,0.246-1.854,0.409
		v5.824c0.36,0.229,0.755,0.508,1.738,0.508C258.344,48.536,259.41,47.667,259.41,44.978z"/>
	<path fill="#010101" d="M261.857,44.928c0-2.69,1.723-4.298,3.854-4.298c2.444,0,3.429,1.706,3.429,4.348h-5.725
		c0.065,2.246,1.115,3.362,2.854,3.362c1.197,0,1.854-0.229,2.461-0.443v0.738c-0.525,0.312-1.378,0.771-2.772,0.771
		C263.088,49.405,261.857,47.536,261.857,44.928z M267.435,44.025c0-1.739-0.607-2.509-1.821-2.509
		c-1.312,0-2.083,0.819-2.197,2.641L267.435,44.025z"/>
	<path fill="#010101" d="M270.948,47.323v-5.562h-1.198v-0.573l1.312-0.395l0.263-1.969h1.132v1.969h2.198v0.968h-2.198v5.249
		c0,0.936,0.278,1.361,1.312,1.361c0.36,0,0.722-0.049,1.05-0.114v0.606c-0.361,0.246-1.018,0.492-1.723,0.492
		C271.67,49.356,270.948,48.849,270.948,47.323z"/>
	<path fill="#010101" d="M275.411,47.126c0-1.46,1.05-1.952,2.575-2.264l2.148-0.443v-0.885c0-1.312-0.213-1.772-1.886-1.772
		c-0.673,0-1.624,0.099-2.133,0.181v-0.705c0.64-0.279,1.82-0.607,2.87-0.607c1.821,0,2.658,0.787,2.658,2.477v4.84
		c0,0.524,0.295,0.623,0.787,0.623h0.41v0.558c-0.197,0.099-0.738,0.246-1.329,0.246c-0.656,0-1.099-0.246-1.214-0.87H280.2
		c-0.442,0.477-1.147,0.92-2.23,0.92C276.478,49.423,275.411,48.553,275.411,47.126z M280.135,47.798v-2.41l-1.673,0.131
		c-1.148,0.098-1.509,0.606-1.509,1.443c0,0.869,0.492,1.443,1.558,1.443C279.184,48.405,279.823,48.077,280.135,47.798z"/>
</g>
</svg>