<?xml version="1.0" encoding="utf-8"?>
<!-- Generator: Adobe Illustrator 16.0.1, SVG Export Plug-In . SVG Version: 6.00 Build 0)  -->
<!DOCTYPE svg PUBLIC "-//W3C//DTD SVG 1.1//EN" "http://www.w3.org/Graphics/SVG/1.1/DTD/svg11.dtd">
<svg version="1.1" xmlns="http://www.w3.org/2000/svg" xmlns:xlink="http://www.w3.org/1999/xlink" x="0px" y="0px"
	 width="241.153" height="87.163" viewBox="0 0 241.153 87.163" enable-background="new 0 0 241.153 87.163"
	 xml:space="preserve">
<g id="BG" display="none">
	<rect x="153.486" y="-16.429" display="inline" fill="#E5332A" width="113" height="125.334"/>
</g>
<g id="Layer_1" display="none">
	<g display="inline">
		<defs>
			<rect id="SVGID_1_" x="156.486" y="-72.404" width="60" height="52.898"/>
		</defs>
		<clipPath id="SVGID_2_">
			<use xlink:href="#SVGID_1_"  overflow="visible"/>
		</clipPath>
		<path clip-path="url(#SVGID_2_)" fill="#1D1D1B" d="M191.92-61.365c0-8.213-2.453-9.46-5.473-9.46c-2.946,0-5.398,1.1-5.398,9.46
			c0,8.359,2.452,9.092,5.398,9.092S191.92-53.153,191.92-61.365 M181.1-30.042c-3.752,0-4.861,2.772-4.861,4.827
			c0,2.969,2.675,5.709,10.471,5.709c8.867,0,11.272-2.496,11.272-5.745c0-2.833-2.134-4.792-5.717-4.792H181.1z M173.973-72.106
			c-10.32,4.743-17.487,15.17-17.487,27.272c0,8.212,3.3,15.651,8.646,21.068c-0.011-0.146-0.02-0.292-0.02-0.439
			c0-5.354,5.221-7.331,9.854-8.284v-0.003c-4.411-0.954-6.543-4.105-6.543-7.33c0-4.325,4.837-8.055,7.191-9.665l-0.278-0.153
			c-4.119-2.268-6.84-6.3-6.84-11.726C168.497-66.018,170.522-69.676,173.973-72.106 M216.487-44.834
			c0-12.362-7.479-22.976-18.157-27.57c3.571,2.329,5.739,5.896,5.905,10.468c0.057,0.352,0.09,0.691,0.09,1.01
			c0,8.946-7.279,13.701-17.877,13.701c-2.725,0-4.564-0.146-6.773-0.805c-1.031,0.731-1.841,1.906-1.841,3.007
			c0,1.469,1.325,2.644,2.944,2.644h14.725c9.121,0,13.605,3.735,13.605,11.792c0,2.69-0.534,5.104-1.642,7.192
			C213.031-28.839,216.487-36.433,216.487-44.834"/>
	</g>
</g>
<g id="Layer_2" display="none">
	<circle display="inline" fill="#39A835" cx="211.153" cy="27.571" r="30"/>
</g>
<g id="Layer_3">
	<g>
		<path fill="#1D1D1B" d="M200.281,22.918l-0.279-0.153c-4.117-2.268-6.839-6.3-6.839-11.727c0-4.652,2.025-8.311,5.477-10.741
			c-10.32,4.743-17.486,15.17-17.486,27.272c0,8.212,3.3,15.652,8.646,21.068c-0.012-0.145-0.021-0.291-0.021-0.438
			c0-5.355,5.221-7.332,9.854-8.285v-0.004c-4.411-0.953-6.543-4.104-6.543-7.329C193.089,28.258,197.926,24.527,200.281,22.918z"/>
		<path fill="#1D1D1B" d="M211.114,20.131c2.946,0,5.473-0.88,5.473-9.093c0-8.212-2.453-9.459-5.473-9.459
			c-2.946,0-5.398,1.1-5.398,9.459S208.167,20.131,211.114,20.131z"/>
		<path fill="#1D1D1B" d="M241.153,27.57c0-12.362-7.479-22.976-18.157-27.57c3.571,2.329,5.739,5.896,5.905,10.468
			c0.057,0.352,0.09,0.691,0.09,1.01c0,8.946-7.279,13.701-17.878,13.701c-2.724,0-4.563-0.146-6.772-0.805
			c-1.031,0.731-1.841,1.907-1.841,3.008c0,1.469,1.325,2.644,2.945,2.644h14.724c9.12,0,13.605,3.735,13.605,11.793
			c0,2.689-0.534,5.104-1.642,7.191C237.697,43.565,241.153,35.972,241.153,27.57z"/>
		<path fill="#1D1D1B" d="M216.931,42.362h-11.165c-3.751,0-4.861,2.771-4.861,4.826c0,2.969,2.675,5.709,10.471,5.709
			c8.866,0,11.272-2.496,11.272-5.744C222.648,44.319,220.514,42.362,216.931,42.362z"/>
	</g>
</g>
<g id="text_orig" display="none">
	<g display="inline">
		<path fill="#FFFFFF" d="M0.108,84.787l2.196-1.008V70.101L0,69.058v-1.764l8.351-1.332h0.54v2.627h0.216
			c1.8-1.655,3.527-2.627,6.263-2.627c2.375,0,3.887,0.828,4.607,2.627h0.18c1.8-1.655,3.78-2.627,6.515-2.627
			c3.348,0,5.111,1.691,5.111,5.398v12.419l2.196,1.008v1.836H23.361v-1.836l1.764-1.008V72.837c0-2.088-0.684-2.844-2.483-2.844
			c-0.684,0-1.476,0.18-2.232,0.504v13.282l1.764,1.008v1.836H11.95v-1.836l1.764-1.008V72.837c0-2.088-0.648-2.844-2.484-2.844
			c-0.72,0-1.44,0.18-2.232,0.54v13.246l1.764,1.008v1.836H0.108V84.787z"/>
		<path fill="#FFFFFF" d="M38.987,72.765h-3.132v-5.256c1.908-0.611,4.175-1.547,7.703-1.547c5.399,0,8.639,1.584,8.639,6.119
			v11.698l2.124,1.008V86.3c-0.648,0.359-2.16,0.827-3.78,0.827c-2.087,0-3.959-0.685-4.283-2.844h-0.18
			c-0.9,1.8-3.275,2.88-5.795,2.88c-3.563,0-5.795-2.304-5.795-5.651c0-4.14,2.664-4.968,7.127-5.724l3.852-0.647v-2.7
			c0-2.555-0.756-3.852-3.348-3.852c-0.324,0-1.296,0.037-1.728,0.072L38.987,72.765z M45.466,77.3l-1.548,0.145
			c-1.548,0.145-2.808,1.188-2.808,3.096c0,2.231,1.224,2.951,2.52,2.951c0.72,0,1.476-0.359,1.836-0.756V77.3z"/>
		<path fill="#FFFFFF" d="M54.986,85.867V80.54h2.844l1.152,3.348c0.468,0.432,2.088,0.647,3.24,0.647
			c1.908,0,3.239-0.432,3.239-2.016c0-1.476-0.504-2.088-2.664-2.556l-2.448-0.54c-3.708-0.827-5.435-3.779-5.435-6.767
			c0-3.852,2.627-6.695,8.567-6.695c2.375,0,4.787,0.359,6.371,1.043v4.968h-2.808l-0.864-2.771
			c-0.468-0.252-1.872-0.504-2.952-0.504c-1.584,0-2.664,0.756-2.664,1.979c0,1.188,0.54,1.908,2.771,2.376l2.375,0.504
			c3.888,0.828,5.363,3.419,5.363,6.479c0,4.211-2.664,7.091-9.071,7.091C59.845,87.127,56.93,86.694,54.986,85.867z"/>
		<path fill="#FFFFFF" d="M74.091,69.921h-3.096v-3.023l3.096-0.432v-3.779l6.695-0.937v4.716h4.392v3.455h-4.392V80.54
			c0,1.979,0.54,2.987,2.484,2.987c0.72,0,1.656-0.071,2.16-0.144v2.592c-1.116,0.647-3.383,1.188-5.471,1.188
			c-3.996,0-5.867-1.764-5.867-6.047V69.921z"/>
		<path fill="#FFFFFF" d="M92.18,77.156c0.324,3.923,2.196,5.796,5.867,5.796c2.556,0,3.996-0.252,5.399-0.685v1.944
			c-0.936,1.295-3.959,2.951-7.667,2.951c-6.911,0-10.475-3.815-10.475-10.654c0-6.66,3.923-10.512,9.935-10.512
			c6.047,0,8.963,2.7,8.963,11.159H92.18z M92.108,74.745l5.579-0.324c0-5.363-0.9-6.228-2.556-6.228
			C93.295,68.193,92.18,69.382,92.108,74.745z"/>
		<path fill="#FFFFFF" d="M112.674,65.89h0.576v4.248h0.216c1.188-2.664,2.988-4.104,5.184-4.104c0.36,0,0.792,0.035,1.008,0.107
			v5.867c-0.396-0.107-1.116-0.18-1.692-0.18c-1.8,0-3.312,0.18-4.463,0.72v11.194l2.771,1.008v1.872h-11.59v-1.872l2.124-1.008
			V70.101l-2.231-1.043v-1.836L112.674,65.89z"/>
		<path fill="#FFFFFF" d="M119.968,76.544c0-6.623,4.319-10.582,10.979-10.582c2.34,0,5.255,0.396,6.407,0.828v6.047h-3.492
			l-1.152-3.959c-0.324-0.145-1.044-0.289-1.944-0.289c-2.231,0-3.923,2.088-3.923,7.596c0,4.751,2.484,6.768,5.759,6.768
			c1.872,0,3.923-0.289,4.896-0.576v1.871c-1.08,1.296-3.888,2.88-7.163,2.88C123.496,87.127,119.968,82.915,119.968,76.544z"/>
		<path fill="#FFFFFF" d="M146.732,57.719h0.54v26.024l2.16,1.008v1.872h-11.015v-1.872l2.16-1.008V61.931l-2.268-1.045V59.05
			L146.732,57.719z"/>
		<path fill="#FFFFFF" d="M154.412,72.765h-3.132v-5.256c1.908-0.611,4.175-1.547,7.703-1.547c5.399,0,8.638,1.584,8.638,6.119
			v11.698l2.125,1.008V86.3c-0.648,0.359-2.16,0.827-3.78,0.827c-2.087,0-3.959-0.685-4.283-2.844h-0.18
			c-0.9,1.8-3.275,2.88-5.795,2.88c-3.563,0-5.795-2.304-5.795-5.651c0-4.14,2.664-4.968,7.127-5.724l3.852-0.647v-2.7
			c0-2.555-0.756-3.852-3.348-3.852c-0.324,0-1.296,0.037-1.728,0.072L154.412,72.765z M160.891,77.3l-1.548,0.145
			c-1.548,0.145-2.808,1.188-2.808,3.096c0,2.231,1.224,2.951,2.52,2.951c0.72,0,1.476-0.359,1.836-0.756V77.3z"/>
		<path fill="#FFFFFF" d="M170.411,85.867V80.54h2.844l1.151,3.348c0.468,0.432,2.088,0.647,3.239,0.647
			c1.908,0,3.24-0.432,3.24-2.016c0-1.476-0.504-2.088-2.664-2.556l-2.447-0.54c-3.708-0.827-5.436-3.779-5.436-6.767
			c0-3.852,2.627-6.695,8.566-6.695c2.376,0,4.787,0.359,6.371,1.043v4.968h-2.807l-0.864-2.771
			c-0.468-0.252-1.872-0.504-2.952-0.504c-1.584,0-2.663,0.756-2.663,1.979c0,1.188,0.54,1.908,2.771,2.376l2.376,0.504
			c3.887,0.828,5.363,3.419,5.363,6.479c0,4.211-2.664,7.091-9.071,7.091C175.27,87.127,172.354,86.694,170.411,85.867z"/>
		<path fill="#FFFFFF" d="M187.639,85.867V80.54h2.844l1.152,3.348c0.468,0.432,2.088,0.647,3.24,0.647
			c1.907,0,3.238-0.432,3.238-2.016c0-1.476-0.504-2.088-2.663-2.556l-2.448-0.54c-3.707-0.827-5.435-3.779-5.435-6.767
			c0-3.852,2.628-6.695,8.567-6.695c2.375,0,4.787,0.359,6.371,1.043v4.968h-2.809l-0.863-2.771
			c-0.469-0.252-1.872-0.504-2.951-0.504c-1.584,0-2.664,0.756-2.664,1.979c0,1.188,0.539,1.908,2.771,2.376l2.375,0.504
			c3.889,0.828,5.364,3.419,5.364,6.479c0,4.211-2.664,7.091-9.071,7.091C192.499,87.127,189.583,86.694,187.639,85.867z"/>
		<path fill="#FFFFFF" d="M211.42,77.156c0.324,3.923,2.195,5.796,5.867,5.796c2.556,0,3.996-0.252,5.399-0.685v1.944
			c-0.937,1.295-3.96,2.951-7.667,2.951c-6.911,0-10.475-3.815-10.475-10.654c0-6.66,3.924-10.512,9.935-10.512
			c6.048,0,8.963,2.7,8.963,11.159H211.42z M211.348,74.745l5.58-0.324c0-5.363-0.9-6.228-2.557-6.228
			C212.536,68.193,211.42,69.382,211.348,74.745z"/>
		<path fill="#FFFFFF" d="M224.629,85.867V80.54h2.844l1.152,3.348c0.467,0.432,2.088,0.647,3.239,0.647
			c1.907,0,3.239-0.432,3.239-2.016c0-1.476-0.504-2.088-2.664-2.556l-2.447-0.54c-3.707-0.827-5.436-3.779-5.436-6.767
			c0-3.852,2.628-6.695,8.567-6.695c2.376,0,4.787,0.359,6.371,1.043v4.968h-2.808l-0.863-2.771
			c-0.469-0.252-1.873-0.504-2.952-0.504c-1.584,0-2.663,0.756-2.663,1.979c0,1.188,0.539,1.908,2.771,2.376l2.375,0.504
			c3.888,0.828,5.363,3.419,5.363,6.479c0,4.211-2.664,7.091-9.07,7.091C229.489,87.127,226.573,86.694,224.629,85.867z"/>
	</g>
</g>
<g id="text_outlined_1_">
	<g>
		<path fill="#FFFFFF" d="M0.108,84.787l2.196-1.008V70.101L0,69.058v-1.764l8.351-1.332h0.54v2.627h0.216
			c1.8-1.655,3.527-2.627,6.263-2.627c2.375,0,3.887,0.828,4.607,2.627h0.18c1.8-1.655,3.78-2.627,6.515-2.627
			c3.348,0,5.111,1.691,5.111,5.398v12.419l2.196,1.008v1.836H23.361v-1.836l1.764-1.008V72.837c0-2.088-0.684-2.844-2.483-2.844
			c-0.684,0-1.476,0.18-2.232,0.504v13.282l1.764,1.008v1.836H11.95v-1.836l1.764-1.008V72.837c0-2.088-0.648-2.844-2.484-2.844
			c-0.72,0-1.44,0.18-2.232,0.54v13.246l1.764,1.008v1.836H0.108V84.787z"/>
		<path fill="#FFFFFF" d="M38.987,72.765h-3.132v-5.256c1.908-0.611,4.175-1.547,7.703-1.547c5.399,0,8.639,1.584,8.639,6.119
			v11.698l2.124,1.008V86.3c-0.648,0.359-2.16,0.827-3.78,0.827c-2.087,0-3.959-0.685-4.283-2.844h-0.18
			c-0.9,1.8-3.275,2.88-5.795,2.88c-3.563,0-5.795-2.304-5.795-5.651c0-4.14,2.664-4.968,7.127-5.724l3.852-0.647v-2.7
			c0-2.555-0.756-3.852-3.348-3.852c-0.324,0-1.296,0.037-1.728,0.072L38.987,72.765z M45.466,77.3l-1.548,0.145
			c-1.548,0.145-2.808,1.188-2.808,3.096c0,2.231,1.224,2.951,2.52,2.951c0.72,0,1.476-0.359,1.836-0.756V77.3z"/>
		<path fill="#FFFFFF" d="M54.986,85.867V80.54h2.844l1.152,3.348c0.468,0.432,2.088,0.647,3.24,0.647
			c1.908,0,3.239-0.432,3.239-2.016c0-1.476-0.504-2.088-2.664-2.556l-2.448-0.54c-3.708-0.827-5.435-3.779-5.435-6.767
			c0-3.852,2.627-6.695,8.567-6.695c2.375,0,4.787,0.359,6.371,1.043v4.968h-2.808l-0.864-2.771
			c-0.468-0.252-1.872-0.504-2.952-0.504c-1.584,0-2.664,0.756-2.664,1.979c0,1.188,0.54,1.908,2.771,2.376l2.375,0.504
			c3.888,0.828,5.363,3.419,5.363,6.479c0,4.211-2.664,7.091-9.071,7.091C59.845,87.127,56.93,86.694,54.986,85.867z"/>
		<path fill="#FFFFFF" d="M74.091,69.921h-3.096v-3.023l3.096-0.432v-3.779l6.695-0.937v4.716h4.392v3.455h-4.392V80.54
			c0,1.979,0.54,2.987,2.484,2.987c0.72,0,1.656-0.071,2.16-0.144v2.592c-1.116,0.647-3.383,1.188-5.471,1.188
			c-3.996,0-5.867-1.764-5.867-6.047V69.921z"/>
		<path fill="#FFFFFF" d="M92.18,77.156c0.324,3.923,2.196,5.796,5.867,5.796c2.556,0,3.996-0.252,5.399-0.685v1.944
			c-0.936,1.295-3.959,2.951-7.667,2.951c-6.911,0-10.475-3.815-10.475-10.654c0-6.66,3.923-10.512,9.935-10.512
			c6.047,0,8.963,2.7,8.963,11.159H92.18z M92.108,74.745l5.579-0.324c0-5.363-0.9-6.228-2.556-6.228
			C93.295,68.193,92.18,69.382,92.108,74.745z"/>
		<path fill="#FFFFFF" d="M112.674,65.89h0.576v4.248h0.216c1.188-2.664,2.988-4.104,5.184-4.104c0.36,0,0.792,0.035,1.008,0.107
			v5.867c-0.396-0.107-1.116-0.18-1.692-0.18c-1.8,0-3.312,0.18-4.463,0.72v11.194l2.771,1.008v1.872h-11.59v-1.872l2.124-1.008
			V70.101l-2.231-1.043v-1.836L112.674,65.89z"/>
		<path fill="#FFFFFF" d="M119.968,76.544c0-6.623,4.319-10.582,10.979-10.582c2.34,0,5.255,0.396,6.407,0.828v6.047h-3.492
			l-1.152-3.959c-0.324-0.145-1.044-0.289-1.944-0.289c-2.231,0-3.923,2.088-3.923,7.596c0,4.751,2.484,6.768,5.759,6.768
			c1.872,0,3.923-0.289,4.896-0.576v1.871c-1.08,1.296-3.888,2.88-7.163,2.88C123.496,87.127,119.968,82.915,119.968,76.544z"/>
		<path fill="#FFFFFF" d="M146.732,57.719h0.54v26.024l2.16,1.008v1.872h-11.015v-1.872l2.16-1.008V61.931l-2.268-1.045V59.05
			L146.732,57.719z"/>
		<path fill="#FFFFFF" d="M154.412,72.765h-3.132v-5.256c1.908-0.611,4.175-1.547,7.703-1.547c5.399,0,8.638,1.584,8.638,6.119
			v11.698l2.125,1.008V86.3c-0.648,0.359-2.16,0.827-3.78,0.827c-2.087,0-3.959-0.685-4.283-2.844h-0.18
			c-0.9,1.8-3.275,2.88-5.795,2.88c-3.563,0-5.795-2.304-5.795-5.651c0-4.14,2.664-4.968,7.127-5.724l3.852-0.647v-2.7
			c0-2.555-0.756-3.852-3.348-3.852c-0.324,0-1.296,0.037-1.728,0.072L154.412,72.765z M160.891,77.3l-1.548,0.145
			c-1.548,0.145-2.808,1.188-2.808,3.096c0,2.231,1.224,2.951,2.52,2.951c0.72,0,1.476-0.359,1.836-0.756V77.3z"/>
		<path fill="#FFFFFF" d="M170.411,85.867V80.54h2.844l1.151,3.348c0.468,0.432,2.088,0.647,3.239,0.647
			c1.908,0,3.24-0.432,3.24-2.016c0-1.476-0.504-2.088-2.664-2.556l-2.447-0.54c-3.708-0.827-5.436-3.779-5.436-6.767
			c0-3.852,2.627-6.695,8.566-6.695c2.376,0,4.787,0.359,6.371,1.043v4.968h-2.807l-0.864-2.771
			c-0.468-0.252-1.872-0.504-2.952-0.504c-1.584,0-2.663,0.756-2.663,1.979c0,1.188,0.54,1.908,2.771,2.376l2.376,0.504
			c3.887,0.828,5.363,3.419,5.363,6.479c0,4.211-2.664,7.091-9.071,7.091C175.27,87.127,172.354,86.694,170.411,85.867z"/>
		<path fill="#FFFFFF" d="M187.639,85.867V80.54h2.844l1.152,3.348c0.468,0.432,2.088,0.647,3.24,0.647
			c1.907,0,3.238-0.432,3.238-2.016c0-1.476-0.504-2.088-2.663-2.556l-2.448-0.54c-3.707-0.827-5.435-3.779-5.435-6.767
			c0-3.852,2.628-6.695,8.567-6.695c2.375,0,4.787,0.359,6.371,1.043v4.968h-2.809l-0.863-2.771
			c-0.469-0.252-1.872-0.504-2.951-0.504c-1.584,0-2.664,0.756-2.664,1.979c0,1.188,0.539,1.908,2.771,2.376l2.375,0.504
			c3.889,0.828,5.364,3.419,5.364,6.479c0,4.211-2.664,7.091-9.071,7.091C192.499,87.127,189.583,86.694,187.639,85.867z"/>
		<path fill="#FFFFFF" d="M211.42,77.156c0.324,3.923,2.195,5.796,5.867,5.796c2.556,0,3.996-0.252,5.399-0.685v1.944
			c-0.937,1.295-3.96,2.951-7.667,2.951c-6.911,0-10.475-3.815-10.475-10.654c0-6.66,3.924-10.512,9.935-10.512
			c6.048,0,8.963,2.7,8.963,11.159H211.42z M211.348,74.745l5.58-0.324c0-5.363-0.9-6.228-2.557-6.228
			C212.536,68.193,211.42,69.382,211.348,74.745z"/>
		<path fill="#FFFFFF" d="M224.629,85.867V80.54h2.844l1.152,3.348c0.467,0.432,2.088,0.647,3.239,0.647
			c1.907,0,3.239-0.432,3.239-2.016c0-1.476-0.504-2.088-2.664-2.556l-2.447-0.54c-3.707-0.827-5.436-3.779-5.436-6.767
			c0-3.852,2.628-6.695,8.567-6.695c2.376,0,4.787,0.359,6.371,1.043v4.968h-2.808l-0.863-2.771
			c-0.469-0.252-1.873-0.504-2.952-0.504c-1.584,0-2.663,0.756-2.663,1.979c0,1.188,0.539,1.908,2.771,2.376l2.375,0.504
			c3.888,0.828,5.363,3.419,5.363,6.479c0,4.211-2.664,7.091-9.07,7.091C229.489,87.127,226.573,86.694,224.629,85.867z"/>
	</g>
</g>
<g id="text_outlined" display="none">
	<g display="inline">
		<path fill="#FFFFFF" d="M187.239,57.719h0.541v26.024l2.159,1.008v1.872h-11.015v-1.872l2.16-1.008V61.931l-2.268-1.045V59.05
			L187.239,57.719z"/>
		<path fill="#FFFFFF" d="M198.946,65.89h0.541v17.854l2.159,1.008v1.872h-11.015v-1.872l2.16-1.008V70.101l-2.268-1.043v-1.836
			L198.946,65.89z M199.594,61.175c0,1.943-1.619,3.527-3.563,3.527c-1.979,0-3.563-1.584-3.563-3.527
			c0-1.98,1.584-3.564,3.563-3.564C197.975,57.61,199.594,59.194,199.594,61.175z"/>
		<path fill="#FFFFFF" d="M213.44,80.432h0.145l3.49-11.087l-2.159-1.008v-1.871h7.919v1.871l-2.16,1.008l-6.082,17.278h-5.796
			l-5.939-17.278l-2.159-1.008v-1.871h11.698v1.871l-2.159,1.008L213.44,80.432z"/>
		<path fill="#FFFFFF" d="M228.768,77.156c0.324,3.923,2.196,5.796,5.867,5.796c2.557,0,3.996-0.252,5.4-0.685v1.944
			c-0.937,1.295-3.96,2.951-7.668,2.951c-6.91,0-10.475-3.815-10.475-10.654c0-6.66,3.924-10.512,9.936-10.512
			c6.047,0,8.963,2.7,8.963,11.159H228.768z M228.697,74.745l5.579-0.324c0-5.363-0.9-6.228-2.556-6.228
			C229.884,68.193,228.768,69.382,228.697,74.745z"/>
	</g>
</g>
</svg>
