<?xml version="1.0" encoding="utf-8"?>
<!-- Generator: Adobe Illustrator 16.0.1, SVG Export Plug-In . SVG Version: 6.00 Build 0)  -->
<!DOCTYPE svg PUBLIC "-//W3C//DTD SVG 1.1//EN" "http://www.w3.org/Graphics/SVG/1.1/DTD/svg11.dtd">
<svg version="1.1" id="Layer_1" xmlns="http://www.w3.org/2000/svg" xmlns:xlink="http://www.w3.org/1999/xlink" x="0px" y="0px"
	 width="244" height="30" viewBox="0 0 244 30.473" enable-background="new 0 0 244 30.473" xml:space="preserve">
<g>
	<g>
		<path fill="#231F20" d="M106.794,16.525h6.216v-1.036l-1.199-0.569V7.57c0.448-0.321,0.975-0.431,1.544-0.431
			c1.036,0,1.523,0.427,1.523,1.605v6.176l-1.198,0.569v1.036h6.216v-1.036l-1.239-0.569V7.891c0-2.092-0.955-3.027-2.844-3.027
			c-1.543,0-3.047,0.549-4.063,1.483l0,0V4.864h-0.305l-4.713,0.752v0.996l1.301,0.589v7.72l-1.239,0.569V16.525z"/>
		<path fill="#231F20" d="M92.329,0.152c-1.117,0-2.011,0.894-2.011,2.011c0,1.097,0.894,1.991,2.011,1.991
			c1.097,0,2.011-0.894,2.011-1.991C94.34,1.045,93.426,0.152,92.329,0.152"/>
		<polygon fill="#231F20" points="89.221,5.576 89.221,6.612 90.5,7.201 90.5,14.9 89.281,15.468 89.281,16.525 95.498,16.525 
			95.498,15.468 94.279,14.9 94.279,4.824 93.974,4.824 		"/>
		<path fill="#231F20" d="M83.934,14.385c-0.274,0.227-0.589,0.393-1.158,0.393c-1.503,0-2.214-1.219-2.214-4.022
			c0-3.21,0.894-4.286,2.092-4.286c0.671,0,1.006,0.209,1.28,0.511V14.385z M83.934,5.373c-0.467-0.325-1.198-0.51-1.828-0.51
			c-2.797,0-5.441,1.604-5.441,6.195c0,4.368,2.663,5.772,4.446,5.772c1.422,0,2.396-0.63,2.864-1.239h0.122v1.199h0.326
			l4.489-0.529v-0.828l-1.199-0.67V0.232h-0.304l-4.733,0.752v1.037l1.259,0.568V5.373z"/>
		<path fill="#231F20" d="M68.052,5.576v1.036l1.26,0.589V14.9l-1.198,0.568v1.057h6.541v-1.057L73.09,14.9V8.868
			c0.669-0.526,1.503-0.692,2.519-0.692c0.325,0,0.731,0.041,0.955,0.102V4.966c-0.122-0.041-0.365-0.061-0.569-0.061
			c-1.239,0-2.376,0.812-3.047,2.315l0,0V4.824h-0.325L68.052,5.576z"/>
		<path fill="#231F20" d="M59.937,6.473c0.268-0.12,0.82-0.125,1.003-0.125c1.462,0,1.89,0.731,1.89,2.174l-0.003,1.284
			l-2.166,0.407c-2.218,0.409-3.891,1.083-3.891,3.419c0,1.89,1.327,3.199,3.134,3.199c1.422,0,2.763-0.609,3.271-1.625h0.102
			c0.183,1.219,1.24,1.605,2.417,1.605c0.915,0,1.798-0.285,2.134-0.665v-0.656l-1.2-0.569V8.318c0-2.56-1.828-3.496-4.875-3.496
			c-1.991,0-3.292,0.497-4.348,1v2.882h1.768L59.937,6.473z M62.829,14.268c-0.218,0.321-0.629,0.49-1.036,0.49
			c-0.731,0-1.421-0.406-1.421-1.666c0-0.899,0.812-1.726,1.702-1.862l0.756-0.144V14.268z"/>
		<path fill="#231F20" d="M98.549,6.473c0.269-0.12,0.821-0.125,1.004-0.125c1.462,0,1.889,0.731,1.889,2.174l-0.003,1.284
			l-2.166,0.407c-2.217,0.409-3.89,1.083-3.89,3.419c0,1.89,1.327,3.199,3.134,3.199c1.422,0,2.763-0.609,3.271-1.625h0.103
			c0.183,1.219,1.239,1.605,2.417,1.605c0.914,0,1.797-0.285,2.133-0.665v-0.656l-1.199-0.569V8.318c0-2.56-1.828-3.496-4.875-3.496
			c-1.991,0-3.292,0.497-4.347,1v2.882h1.768L98.549,6.473z M101.442,14.268c-0.218,0.321-0.629,0.49-1.036,0.49
			c-0.731,0-1.422-0.406-1.422-1.666c0-0.899,0.812-1.726,1.702-1.862l0.756-0.144V14.268z"/>
		<path fill="#231F20" d="M45.096,13.214c0,1.971,0.976,3.616,3.271,3.616c1.524,0,2.865-0.67,3.596-1.564l0,0v1.545h0.304
			l4.612-0.55v-0.828l-1.279-0.67V4.885h-0.305l-4.733,0.752v1.036l1.259,0.589v6.823c-0.421,0.279-0.711,0.408-1.378,0.408
			c-0.954,0-1.567-0.283-1.567-1.583V4.885H48.55l-4.733,0.752v1.036l1.28,0.589V13.214z"/>
		<path fill="#231F20" d="M40.161,14.026h-4.062c-0.447,0-0.814-0.325-0.814-0.731c0-0.304,0.224-0.63,0.509-0.833
			c0.609,0.182,1.117,0.223,1.869,0.223c2.924,0,4.936-1.32,4.936-3.799c0-1.117-0.467-1.747-1.178-2.397l1.925,0.601l0.004-2.266
			l-3.067,0.569c-0.712-0.264-1.707-0.59-2.621-0.59c-2.926,0-4.957,1.504-4.957,3.962c0,1.503,0.751,2.621,1.89,3.25l0.09,0.057
			c-0.65,0.447-2,1.467-2,2.666c0,0.894,0.59,1.768,1.809,2.031v0.003c-1.28,0.264-2.723,0.81-2.723,2.292
			c0,1.523,2.193,3.03,5.769,3.03c4.449,0,6.379-2.095,6.379-4.797C43.919,15.062,42.68,14.026,40.161,14.026 M37.663,6.145
			c0.833,0,1.402,0.581,1.402,2.62c0,2.093-0.59,2.519-1.402,2.519c-0.813,0-1.383-0.426-1.383-2.519
			C36.279,6.622,36.85,6.145,37.663,6.145 M37.643,20.366c-2.072,0-2.816-0.809-2.784-1.606c0.022-0.548,0.293-1.257,1.266-1.319
			h3.229c0.935,0,1.525,0.647,1.525,1.237C40.88,19.855,40,20.366,37.643,20.366"/>
		<path fill="#231F20" d="M31.542,11.182c0-4.774-2.117-6.339-5.058-6.339c-3.393,0-5.607,2.215-5.607,5.974
			c0,3.86,2.011,6.013,5.911,6.013c2.093,0,3.743-1.102,4.27-1.833l0.058-0.93c-0.792,0.244-1.605,0.386-3.047,0.386
			c-2.072,0-3.313-1.06-3.312-3.271H31.542z M26.422,6.124c0.935,0,1.443,0.679,1.443,3.515l-3.149,0.183
			C24.759,6.925,25.386,6.124,26.422,6.124"/>
		<path fill="#231F20" d="M8.552,16.525h6.216v-1.036L13.57,14.92l-0.002-7.333c0.454-0.313,0.972-0.481,1.541-0.481
			c1.036,0,1.549,0.653,1.53,1.638v6.176l-1.199,0.569v1.036h6.217v-1.036l-1.24-0.569V7.891c0-2.092-1.206-3.027-2.844-3.027
			c-1.543,0-3.051,0.549-4.066,1.483h0.003V0.009h-0.305L8.491,0.761v0.996l1.301,0.589V14.92l-1.24,0.569V16.525z"/>
		<path fill="#231F20" d="M1.748,13.417c0,2.091,0.994,3.413,3.248,3.413c1.179,0,2.435-0.305,3.151-0.838v-1.4
			c-0.298,0.096-0.812,0.187-1.219,0.187c-1.097,0-1.401-0.569-1.401-1.687V7.099h2.478v-1.95H5.526V2.488L1.748,3.016v2.133
			L0,5.478v1.622h1.748V13.417z"/>
	</g>
</g>
<g>
	<path fill="#FFFFFF" d="M121.452,15.488l1.24-0.569V7.195l-1.301-0.59V5.609l4.716-0.752h0.305v1.484h0.122
		c1.016-0.935,1.992-1.484,3.537-1.484c1.341,0,2.195,0.468,2.602,1.484h0.102c1.016-0.935,2.134-1.484,3.679-1.484
		c1.89,0,2.886,0.956,2.886,3.049v7.012l1.24,0.569v1.036h-5.996v-1.036l0.996-0.569V8.74c0-1.179-0.386-1.605-1.402-1.605
		c-0.386,0-0.833,0.102-1.26,0.284v7.5l0.996,0.569v1.036h-5.772v-1.036l0.996-0.569V8.74c0-1.179-0.366-1.605-1.402-1.605
		c-0.407,0-0.813,0.102-1.26,0.305v7.479l0.996,0.569v1.036h-6.017V15.488z"/>
	<path fill="#FFFFFF" d="M144.525,11.179c0.183,2.215,1.24,3.272,3.313,3.272c1.443,0,2.256-0.142,3.048-0.386v1.098
		c-0.528,0.731-2.236,1.667-4.329,1.667c-3.902,0-5.915-2.154-5.915-6.016c0-3.76,2.215-5.935,5.61-5.935
		c3.415,0,5.061,1.524,5.061,6.301H144.525z M144.485,9.817l3.151-0.183c0-3.028-0.509-3.516-1.443-3.516
		C145.156,6.118,144.525,6.789,144.485,9.817z"/>
	<path fill="#FFFFFF" d="M151.554,15.488l1.24-0.569V7.195l-1.301-0.59V5.609l4.716-0.752h0.305v1.484h0.122
		c1.017-0.935,1.992-1.484,3.537-1.484c1.341,0,2.195,0.468,2.602,1.484h0.102c1.016-0.935,2.134-1.484,3.679-1.484
		c1.89,0,2.886,0.956,2.886,3.049v7.012l1.24,0.569v1.036h-5.996v-1.036l0.996-0.569V8.74c0-1.179-0.386-1.605-1.402-1.605
		c-0.386,0-0.833,0.102-1.26,0.284v7.5l0.996,0.569v1.036h-5.772v-1.036l0.996-0.569V8.74c0-1.179-0.366-1.605-1.403-1.605
		c-0.406,0-0.813,0.102-1.26,0.305v7.479l0.996,0.569v1.036h-6.016V15.488z"/>
	<path fill="#FFFFFF" d="M175.369,6.179h0.143c0.65-0.691,1.728-1.321,3.191-1.321c1.951,0,4.004,1.565,4.004,5.793
		c0,4.634-2.643,6.179-6.159,6.179c-2.114,0-3.984-0.447-4.959-1.016V2.582l-1.26-0.569V0.976l4.736-0.752h0.305V6.179z
		 M178.743,10.935c0-3.069-0.833-3.862-2.012-3.862c-0.61,0-1.037,0.143-1.362,0.305v7.703c0.224,0.183,0.569,0.386,1.24,0.386
		C178.032,15.467,178.743,14.187,178.743,10.935z"/>
	<path fill="#FFFFFF" d="M187.157,11.179c0.183,2.215,1.24,3.272,3.313,3.272c1.443,0,2.256-0.142,3.049-0.386v1.098
		c-0.528,0.731-2.236,1.667-4.329,1.667c-3.903,0-5.915-2.154-5.915-6.016c0-3.76,2.215-5.935,5.61-5.935
		c3.415,0,5.061,1.524,5.061,6.301H187.157z M187.117,9.817l3.151-0.183c0-3.028-0.508-3.516-1.443-3.516
		C187.788,6.118,187.157,6.789,187.117,9.817z"/>
	<path fill="#FFFFFF" d="M198.698,4.817h0.325v2.398h0.122c0.671-1.504,1.687-2.317,2.927-2.317c0.203,0,0.447,0.02,0.569,0.061
		v3.313c-0.224-0.061-0.63-0.102-0.956-0.102c-1.016,0-1.87,0.102-2.521,0.407v6.321l1.565,0.569v1.057h-6.544v-1.057l1.199-0.569
		V7.195l-1.26-0.59V5.569L198.698,4.817z"/>
	<path fill="#FFFFFF" d="M202.997,16.097v-3.008h1.606l0.65,1.89c0.264,0.244,1.179,0.366,1.829,0.366
		c1.078,0,1.83-0.244,1.83-1.138c0-0.833-0.284-1.179-1.504-1.443l-1.382-0.305c-2.093-0.468-3.069-2.134-3.069-3.821
		c0-2.175,1.484-3.781,4.838-3.781c1.341,0,2.703,0.203,3.598,0.59v2.805h-1.585l-0.488-1.565c-0.264-0.142-1.057-0.285-1.667-0.285
		c-0.895,0-1.504,0.427-1.504,1.118c0,0.671,0.305,1.078,1.565,1.342l1.341,0.285c2.195,0.467,3.028,1.931,3.028,3.658
		c0,2.378-1.504,4.004-5.122,4.004C205.741,16.809,204.094,16.564,202.997,16.097z"/>
	<path fill="#FFFFFF" d="M212.212,15.488l1.24-0.569V2.337l-1.301-0.59V0.752L216.867,0h0.305v6.341h0.122
		c1.016-0.935,2.398-1.484,3.943-1.484c1.891,0,2.846,0.935,2.846,3.029v7.032l1.24,0.569v1.036h-6.22v-1.036l1.199-0.569V8.74
		c0-1.179-0.487-1.605-1.524-1.605c-0.569,0-1.078,0.122-1.545,0.305v7.479l1.199,0.569v1.036h-6.22V15.488z"/>
	<path fill="#FFFFFF" d="M230.361,4.817h0.305v10.081l1.219,0.569v1.057h-6.219v-1.057l1.219-0.569V7.195l-1.28-0.59V5.569
		L230.361,4.817z M230.727,2.154c0,1.098-0.915,1.992-2.012,1.992c-1.118,0-2.012-0.895-2.012-1.992
		c0-1.118,0.895-2.012,2.012-2.012C229.812,0.142,230.727,1.037,230.727,2.154z"/>
	<path fill="#FFFFFF" d="M236.825,6.341c0.63-0.752,1.625-1.484,3.089-1.484c2.236,0,4.086,1.26,4.086,5.772
		c0,4.634-2.602,6.179-5.59,6.179c-0.914,0-1.301-0.183-1.667-0.345v3.415l1.423,0.569v1.058h-6.423v-1.058l1.22-0.569V7.195
		l-1.281-0.59V5.609l4.716-0.752h0.305v1.484H236.825z M240.037,10.894c0-2.642-0.752-3.78-1.972-3.78
		c-0.63,0-0.996,0.142-1.321,0.305v7.439c0.264,0.183,0.671,0.366,1.199,0.366C239.122,15.224,240.037,14.146,240.037,10.894z"/>
</g>
<g>
	<rect x="121.45" y="17.818" fill="#FDBA12" width="29.444" height="12.655"/>
	<g>
		<path fill="#010101" d="M124.97,27.898v-6.838l-0.722-0.184v-0.906l2.283-0.264l0.172,0.08v2.937h0.08
			c0.39-0.321,0.918-0.643,1.732-0.643c1.113,0,2.237,0.643,2.237,2.926c0,2.409-1.308,3.407-3.235,3.407
			C126.417,28.415,125.498,28.174,124.97,27.898z M128.895,25.249c0-1.412-0.425-1.882-1.216-1.882c-0.401,0-0.734,0.115-0.94,0.218
			v3.522c0.183,0.126,0.39,0.252,0.86,0.252C128.39,27.359,128.895,26.912,128.895,25.249z"/>
		<path fill="#010101" d="M131.507,25.213c0-1.973,1.216-3.121,2.972-3.121c1.825,0,2.662,1.021,2.662,3.362h-3.797
			c0.092,1.228,0.711,1.732,1.767,1.732c0.814,0,1.308-0.149,1.744-0.287v0.929c-0.413,0.264-1.102,0.585-2.214,0.585
			C132.54,28.415,131.507,27.199,131.507,25.213z M135.363,24.537c0-1.044-0.356-1.411-0.93-1.411c-0.608,0-1.021,0.378-1.09,1.48
			L135.363,24.537z"/>
		<path fill="#010101" d="M138.352,26.774v-3.487h-0.711v-0.781l0.872-0.298l0.229-1.412h1.388v1.423h1.331v1.067h-1.331v3.178
			c0,0.573,0.218,0.779,0.792,0.779c0.218,0,0.436-0.034,0.619-0.08v0.883c-0.264,0.172-0.78,0.344-1.388,0.344
			C138.994,28.392,138.352,27.99,138.352,26.774z"/>
		<path fill="#010101" d="M142.199,26.762c0-1.147,0.815-1.526,2.1-1.766l1.205-0.241v-0.401c0-0.7-0.206-0.964-1.205-0.964
			c-0.517,0-1.147,0.046-1.549,0.115v-0.987c0.551-0.206,1.457-0.424,2.398-0.424c1.457,0,2.134,0.62,2.134,1.916v2.938
			c0,0.31,0.184,0.39,0.447,0.39h0.218v0.814c-0.184,0.104-0.654,0.253-1.136,0.253c-0.597,0-0.964-0.207-1.113-0.688h-0.057
			c-0.31,0.379-0.86,0.7-1.629,0.7C142.921,28.415,142.199,27.75,142.199,26.762z M145.503,27.061v-1.434l-0.734,0.046
			c-0.574,0.046-0.803,0.321-0.803,0.849c0,0.55,0.241,0.837,0.769,0.837C145.056,27.359,145.354,27.199,145.503,27.061z"/>
	</g>
</g>
</svg>
