<?xml version="1.0" encoding="utf-8"?>
<!-- Generator: Adobe Illustrator 16.0.1, SVG Export Plug-In . SVG Version: 6.00 Build 0)  -->
<!DOCTYPE svg PUBLIC "-//W3C//DTD SVG 1.1//EN" "http://www.w3.org/Graphics/SVG/1.1/DTD/svg11.dtd">
<svg version="1.1" id="Layer_1" xmlns="http://www.w3.org/2000/svg" xmlns:xlink="http://www.w3.org/1999/xlink" x="0px" y="0px"
	 width="60" height="60" viewBox="0 0 60 60" enable-background="new 0 0 60 60" xml:space="preserve">
<path fill="#767676" d="M54.002,8.626h-48C2.701,8.626,0,11.326,0,14.625v30.749c0,3.3,2.701,6,6.002,6h48c3.3,0,5.998-2.7,5.998-6
	V14.625C60,11.326,57.302,8.626,54.002,8.626z M29.662,45c0,0,0-5.388,0.388-5.388c0,0,6.537-1.706,6.537-5.063
	c0-3.205-4.23-4.549-4.23-11.087c0-5.312,1.613-8.462,6.925-8.462c5.309,0,6.919,3.15,6.919,8.462c0,6.538-4.229,7.882-4.229,11.087
	c0,3.357,6.538,5.063,6.538,5.063c0.385,0,0.385,5.388,0.385,5.388H29.662z"/>
</svg>
