<svg xmlns="http://www.w3.org/2000/svg" width="25" height="25" viewBox="0 0 60 60" enable-background="new 0 0 60 60"><path fill="#02c7e1" d="M55.91 11.6H4.09L0 15.69v28.643L4.09 48.4h51.82L60 44.225V15.69l-4.09-4.09zM39.79 15.38c1.684 0 3.054.696 3.054 5.278 0 4.583-1.408 5.074-3.054 5.074-1.645 0-3.01-.41-3.01-5.074s1.365-5.278 3.01-5.278zm-6.407 21.39c-2.585.533-5.497 1.638-5.497 4.625 0 .082.005.162.01.245-2.982-3.023-4.823-7.174-4.823-11.757 0-6.753 4-12.57 9.758-15.217-1.927 1.355-3.056 3.397-3.056 5.993 0 3.028 1.518 5.277 3.815 6.54l.155.088c-1.313.898-4.01 2.98-4.01 5.393 0 1.8 1.187 3.557 3.648 4.09zm6.553 7.246c-4.35 0-5.843-1.53-5.843-3.187 0-1.147.62-2.693 2.713-2.693h6.23c1.998 0 3.188 1.093 3.188 2.674.002 1.814-1.34 3.206-6.288 3.206zm11.583-2.168c.62-1.166.917-2.513.917-4.014 0-4.497-2.503-6.58-7.592-6.58h-8.217c-.904 0-1.643-.655-1.643-1.476 0-.614.452-1.27 1.027-1.677 1.232.368 2.26.448 3.78.448 5.91 0 9.975-2.652 9.975-7.645 0-.18-.02-.368-.05-.564-.094-2.552-1.302-4.543-3.295-5.84 5.958 2.56 10.13 8.484 10.13 15.382.002 4.69-1.927 8.926-5.03 11.966z"/></svg>