<?xml version="1.0" encoding="utf-8"?>
<!-- Generator: Adobe Illustrator 16.0.1, SVG Export Plug-In . SVG Version: 6.00 Build 0)  -->
<!DOCTYPE svg PUBLIC "-//W3C//DTD SVG 1.1//EN" "http://www.w3.org/Graphics/SVG/1.1/DTD/svg11.dtd">
<svg version="1.1" id="Layer_1" xmlns="http://www.w3.org/2000/svg" xmlns:xlink="http://www.w3.org/1999/xlink" x="0px" y="0px"
	 width="60" height="60" viewBox="0 0 60 60" enable-background="new 0 0 60 60" xml:space="preserve">
<path fill="#767676" d="M55.909,11.6H4.09L0,15.69v28.643L4.09,48.4h51.819L60,44.225V15.69L55.909,11.6z M39.792,15.38
	c1.684,0,3.054,0.696,3.054,5.278c0,4.583-1.408,5.074-3.054,5.074c-1.645,0-3.011-0.409-3.011-5.074S38.147,15.38,39.792,15.38z
	 M33.385,36.771L33.385,36.771c-2.585,0.532-5.497,1.637-5.497,4.624c0,0.082,0.005,0.162,0.011,0.245
	c-2.983-3.023-4.824-7.174-4.824-11.757c0-6.753,3.999-12.57,9.758-15.217c-1.927,1.355-3.056,3.397-3.056,5.993
	c0,3.029,1.518,5.278,3.815,6.542l0.155,0.087c-1.313,0.898-4.011,2.979-4.011,5.393C29.736,34.479,30.924,36.237,33.385,36.771z
	 M39.938,44.016c-4.351,0-5.843-1.529-5.843-3.187c0-1.146,0.62-2.692,2.713-2.692h6.229c1.999,0,3.189,1.093,3.189,2.674
	C46.228,42.624,44.886,44.016,39.938,44.016z M51.521,41.848c0.618-1.166,0.916-2.513,0.916-4.014c0-4.497-2.503-6.58-7.592-6.58
	h-8.217c-0.904,0-1.643-0.655-1.643-1.476c0-0.614,0.452-1.271,1.027-1.677c1.232,0.367,2.26,0.447,3.779,0.447
	c5.912,0,9.976-2.652,9.976-7.645c0-0.179-0.019-0.368-0.05-0.564c-0.094-2.551-1.302-4.542-3.295-5.84
	c5.958,2.562,10.131,8.485,10.131,15.383C56.554,34.571,54.625,38.808,51.521,41.848z"/>
</svg>
