<?xml version="1.0" encoding="utf-8"?>
<!-- Generator: Adobe Illustrator 16.0.1, SVG Export Plug-In . SVG Version: 6.00 Build 0)  -->
<!DOCTYPE svg PUBLIC "-//W3C//DTD SVG 1.1//EN" "http://www.w3.org/Graphics/SVG/1.1/DTD/svg11.dtd">
<svg version="1.1" id="Layer_1" xmlns="http://www.w3.org/2000/svg" xmlns:xlink="http://www.w3.org/1999/xlink" x="0px" y="0px"
	 width="60" height="60" viewBox="0 0 60 60" enable-background="new 0 0 60 60" xml:space="preserve">
<g>
	<path fill="#767676" d="M56.902,38.801l-1.444-1.406c-3.229-1.068-6.681-1.65-10.27-1.65c-2.583,0-5.093,0.305-7.502,0.873
		l3.597,14.779l-1.433,1.789h18.823L60,51.529L56.902,38.801z"/>
	<g>
		<path fill="#767676" d="M45.188,32.656c3.048,0,6.691-3.421,6.691-7.644c0-4.222-2.47-6.689-6.691-6.689
			c-4.223,0-6.69,2.467-6.69,6.689C38.498,29.235,42.441,32.656,45.188,32.656z"/>
	</g>
	<g>
		<path fill="#767676" d="M19.719,25.881c4.053,0,8.898-4.553,8.898-10.17c0-5.616-3.283-8.897-8.898-8.897
			c-5.616,0-8.899,3.282-8.899,8.897C10.819,21.328,16.063,25.881,19.719,25.881z"/>
		<path fill="#767676" d="M35.299,34.053l-1.921-1.871c-4.296-1.422-8.886-2.195-13.659-2.195c-4.8,0-9.413,0.779-13.729,2.216
			L4.05,34.1L0,51.023l1.729,2.162h35.926l1.763-2.203L35.299,34.053z"/>
	</g>
</g>
</svg>
