<svg xmlns="http://www.w3.org/2000/svg" width="34" height="20"><path fill="#4BC6DF" d="M26.558 5.998c-2.023 0-3.845.86-5.124 2.232-.077-.47-.118-.957-.118-1.46 0-3.506 2.45-6.35 6.055-6.35 1.616 0 3.13.588 4.268 1.532h.512c-1.621-1.344-2.724-1.865-5.203-1.947-5.67-.187-9.595 4.476-9.595 9.997s3.377 9.998 9.05 9.998v-.004l.155.004c3.867 0 7-3.135 7-7 .002-3.868-3.133-7.002-7-7.002zm-17.354 0c-2.023 0-3.845.86-5.123 2.232-.077-.47-.117-.957-.117-1.46 0-3.506 2.45-6.35 6.056-6.35 1.614 0 3.126.588 4.266 1.532h.512c-1.62-1.344-2.722-1.865-5.2-1.947-5.673-.187-9.598 4.475-9.598 9.997s3.376 9.998 9.05 9.998v-.004l.154.004c3.867 0 7.002-3.135 7.002-7 0-3.868-3.135-7.002-7.002-7.002z"/></svg>