<svg xmlns="http://www.w3.org/2000/svg" width="161" height="39.338" viewBox="0 0 161 39.338"><path d="M49.194 11.956v-.09c1.46-.458 1.917-.73 2.738-1.37 1.55-1.278 1.917-3.013 1.917-4.564 0-1.826-1.006-3.833-3.013-4.837-1.278-.64-3.103-.913-5.385-.913h-8.031v.64h.274c1.735 0 2.282 2.098 2.282 4.653v14.057c0 2.554-.64 4.564-2.282 4.564h-.274v.73h9.766c1.735 0 2.92-.185 4.016-.548 2.556-.82 3.833-3.742 3.833-6.024 0-3.012-2.373-5.567-5.84-6.298zm-6.298-10.86h1.734c1.46 0 2.1.09 2.92.273 2.19.638 3.012 2.19 3.012 4.472 0 2.83-2.007 5.66-5.293 5.66h-2.374v-10.407zm7.574 21.174c-.91 1.188-1.915 1.643-3.832 1.643h-1.186c-2.008 0-2.555-.73-2.555-3.834v-7.393h2.19c3.924 0 6.48 3.012 6.48 6.206 0 1.37-.364 2.554-1.096 3.377zm11.958-.823c0 2.282.274 2.65 2.373 2.65v.728h-7.665v-.73h.73c1.37 0 1.916-.456 1.916-1.918v-8.67c0-1.186-.547-1.733-1.824-1.733h-.82v-.73l5.292-.457v10.86zm9.767-7.939c2.647-2.28 3.742-2.92 4.747-2.92.82 0 1.825.273 2.555.82l-1.095 2.647-.275-.182c-1.46-.73-2.19-1.004-3.012-1.004-.913 0-1.642.364-2.92 1.643v6.936c0 2.19.365 2.646 1.917 2.646h.365v.73h-7.392v-.73h.365c1.642 0 2.007-.457 2.007-2.647v-7.485c0-1.916-.457-2.373-2.19-2.373h-.548v-.64l5.475-.456v3.012zm12.412 4.107l3.74-3.286c.64-.55 1.004-1.188 1.004-1.644 0-.73-.454-1.095-1.64-1.095v-.638h7.574v.64h-.64c-1.55 0-2.554.546-4.47 2.28l-3.015 2.648 5.843 5.84c1.277 1.277 2.008 1.643 3.378 1.734v.73h-4.564l-7.21-7.028v3.65c0 2.282.273 2.647 2.28 2.647v.73h-7.3v-.73c2.007 0 2.28-.365 2.28-2.647v-18.252c0-1.734-.274-2.008-2.464-2.008v-.638l5.204-.456v17.523zm21.083-7.028c-1.732 0-3.47.73-4.655 2.01v-12.597l-5.11.365v.73c2.28 0 2.373.183 2.464 2.555v20.9c1.824.366 2.92.366 4.106.366 2.373 0 4.108-.365 5.66-1.188 2.555-1.277 4.016-3.74 4.016-6.388 0-3.832-2.83-6.753-6.482-6.753zm-2.28 13.69c-2.01 0-2.375-.546-2.375-3.65v-7.027c1.096-1.37 2.192-2.008 3.56-2.008 2.647 0 4.655 2.555 4.655 6.023 0 4.107-2.19 6.663-5.84 6.663zm19.257.001c-1.46 0-3.104-.912-4.107-2.464-1.004-1.46-1.37-2.738-1.46-5.475h10.223v-.55c.09-2.738-2.83-5.203-5.934-5.203-3.925 0-7.028 3.195-7.028 7.394 0 4.197 3.104 7.21 7.484 7.21 2.463 0 4.016-.82 5.75-2.918v-1.097c-1.826 2.193-3.287 3.103-4.93 3.103zm-1.643-12.96c2.28 0 3.65 1.55 3.65 4.29h-7.484c.366-2.92 1.553-4.29 3.834-4.29zm21.631 4.107h-.64c-.546-2.555-2.373-4.198-4.745-4.198-2.74 0-4.656 2.373-4.656 5.84 0 3.833 2.374 6.938 5.203 6.938 2.008 0 3.47-.822 5.202-2.83v1.003c-1.37 1.825-3.56 3.013-6.114 3.013-4.108 0-7.028-2.92-7.028-7.026 0-4.2 3.193-7.577 7.21-7.577.913 0 2.01.183 3.012.457.365.183.64.183.82.183.366 0 .732-.183 1.005-.64h.73v4.838zm6.115 2.19l3.742-3.286c.64-.55 1.005-1.188 1.005-1.644 0-.73-.458-1.095-1.644-1.095v-.638h7.576v.64h-.64c-1.554 0-2.558.546-4.474 2.28l-3.012 2.647 5.842 5.84c1.277 1.277 2.008 1.643 3.378 1.734v.73h-4.563l-7.21-7.028v3.65c0 2.282.274 2.647 2.28 2.647v.73h-7.302v-.73c2.008 0 2.28-.365 2.28-2.647v-18.251c0-1.734-.273-2.008-2.463-2.008v-.638l5.203-.456.003 17.523zm-106.877 20.809c-.547.64-1.095.822-1.917.822-1.46 0-2.282-.914-2.19-2.28v-2.922c0-.73-.184-.912-.64-.912h-.09v-.275h2.373v.275h-.092c-.457 0-.547.182-.547.912v2.83c0 .73 0 1.003.184 1.278.274.363.73.547 1.277.547.73 0 1.188-.274 1.644-.915v-3.742c0-.547-.09-.912-.547-.912h-.09v-.274h2.372v.275h-.183c-.273 0-.547.183-.547.913v3.833c0 .64.09.914.547.914h.182v.363h-1.735v-.73h-.002zm9.584-5.294h-.09c-.548 0-.73.184-.73.912v5.112h-.277l-4.29-5.202v3.833c0 .822.183 1.004.73 1.004h.09v.362h-2.007v-.362h.09c.457 0 .64-.275.64-1.004v-3.468c0-.822-.183-1.096-.913-1.188v-.275h1.734l3.743 4.657v-3.194c0-1.004-.183-1.188-.64-1.188h-.09v-.275h2.008l.002.275zm86.796 0h-.092c-.546 0-.73.184-.73.912v5.112h-.272l-4.29-5.202v3.833c0 .822.184 1.004.73 1.004h.092v.362h-2.01v-.362h.094c.455 0 .64-.275.64-1.004v-3.468c0-.822-.185-1.096-.915-1.188v-.275h1.733l3.74 4.657v-3.194c0-1.004-.182-1.188-.638-1.188h-.092v-.275h2.008v.275h.003zm22.727 0h-.09c-.55 0-.73.184-.73.912v5.112h-.275l-4.29-5.202v3.833c0 .822.184 1.004.73 1.004h.092v.362h-2.008v-.362h.09c.456 0 .64-.275.64-1.004v-3.468c0-.822-.184-1.096-.914-1.188v-.275h1.734l3.742 4.657v-3.194c0-1.004-.183-1.188-.64-1.188h-.092v-.275h2.011v.275zm-106.056 6.023h-2.374v-.363h.092c.456 0 .64-.184.64-.914v-3.833c-.092-.73-.184-.912-.64-.912h-.09v-.274h2.372v.275h-.09c-.366 0-.55.274-.55.913v3.833c0 .73.184.914.55.914h.09v.363zm28.202 0h-2.372v-.363h.092c.455 0 .64-.184.64-.914v-3.833c-.093-.73-.185-.912-.64-.912h-.092v-.274h2.372v.275h-.09c-.458 0-.64.274-.64.913v3.833c0 .73.182.914.64.914h.09v.363zm-21.083-6.023c-.548.092-.822.273-1.096 1.188l-1.825 4.927h-.365l-1.916-5.11c-.273-.73-.547-.914-1.003-1.004v-.274h2.374v.275c-.273 0-.547.185-.547.366 0 .092 0 .092.182.365v.274l1.37 3.378 1.277-3.378c.09-.273.09-.455.09-.64s-.09-.274-.547-.364v-.275h2.008v.275zm5.387.912h-.366c-.09-.64-.274-.822-1.004-.822h-1.642v2.558h1.37c.73 0 .73-.092.82-.55l.092-.09h.274v1.644h-.365c-.092-.457-.092-.55-.823-.55h-1.37v2.1c0 .458 0 .458.64.458h.913c.913 0 1.004-.184 1.278-.914h.456l-.365 1.277h-4.565v-.363c.456 0 .64-.184.64-.914v-3.836c0-.728-.185-.91-.64-.91v-.276h4.563l.09 1.188zm7.39 4.748c-.364 0-.728-.275-1.186-1.186l-.457-.73c-.365-.457-.365-.547-.73-.822.82-.184 1.187-.822 1.187-1.462 0-.73-.365-1.186-.913-1.46-.364-.274-.82-.274-1.55-.274h-2.374v.275h.09c.458 0 .64.183.64.913v3.833c0 .64-.183.914-.64.914h-.09v.363h2.464v-.363h-.09c-.457 0-.64-.184-.64-.914v-1.55h.275c.365 0 .457 0 .64.09.182.093.364.274.364.366.273.184.547.64.912 1.37.456.73.548.73.73 1h1.46v-.362h-.09zm-2.736-3.194c-.183.182-.456.273-.82.273h-.73v-2.649h.546c.913 0 1.46.547 1.46 1.37 0 .455-.09.73-.456 1.004zm7.119-1.278h-.365v-.092c-.092-.457-.184-.73-.457-.914-.274-.182-.547-.273-.82-.273-.64 0-1.004.454-1.004.91 0 .276.09.55.365.824l.548.365c.183.09.365.272.73.454.457.273.73.455.913.822.275.273.458.73.458 1.094 0 1.004-.822 1.826-1.917 1.826-.273 0-.455-.092-1.002-.184-.183-.092-.274-.184-.365-.184-.09 0-.09.092-.183.275h-.275v-1.821h.365v.09c0 .55.09.822.457 1.096.274.184.547.273.913.273.73 0 1.186-.366 1.186-1.005 0-.273-.183-.547-.547-.912-.183-.182-.457-.365-.73-.457-.366-.273-.64-.455-.82-.547l-.458-.456c-.274-.365-.365-.73-.365-1.187 0-1.004.73-1.643 1.734-1.643.366 0 .548 0 .913.09.183.092.274.092.274.184.092 0 .184-.092.184-.184h.275l-.002 1.554zm10.589-1.553l.09 1.46h-.365v-.09c-.183-.64-.364-.823-1.187-.823h-.912v4.563c0 .73.183.914.64.914h.09v.362h-2.372v-.362h.092c.456 0 .64-.184.64-.914v-4.563h-.823c-.912 0-1.094.184-1.277.822h-.273v-1.37h5.657zm6.388.365c-.458.092-.55.092-.823.457l-.092.182-1.46 2.28v1.825c0 .73.183.914.547.914h.092v.362h-2.372v-.362h.09c.457 0 .64-.184.64-.914v-1.824l-1.277-2.1c-.455-.64-.64-.73-1.094-.82v-.276h2.556v.275h-.092c-.364 0-.547.09-.547.274 0 0 0 .092.09.275l.093.18 1.095 1.553.913-1.37c.09-.273.183-.455.183-.547 0-.273-.09-.363-.364-.363v-.275h1.827v.273h-.005zm8.213-.455c-1.917 0-3.47 1.367-3.47 3.286 0 1.917 1.553 3.378 3.378 3.378 1.92 0 3.378-1.46 3.378-3.377 0-1.826-1.46-3.285-3.285-3.285zm-.09 6.206c-1.46 0-2.282-1.276-2.282-3.01 0-1.645.82-2.832 2.373-2.832 1.46 0 2.19 1.28 2.19 3.013 0 1.644-.82 2.83-2.28 2.83zm22.999-6.206c-1.916 0-3.378 1.367-3.378 3.286 0 1.917 1.462 3.378 3.378 3.378 1.825 0 3.376-1.46 3.376-3.377 0-1.826-1.46-3.285-3.376-3.285zm-.092 6.206c-1.368 0-2.19-1.276-2.19-3.01 0-1.645.82-2.832 2.282-2.832 1.46 0 2.19 1.28 2.19 3.013 0 1.644-.82 2.83-2.282 2.83zm23.092-6.206c-2.008 0-3.47 1.367-3.47 3.286 0 1.917 1.462 3.378 3.378 3.378s3.378-1.46 3.378-3.377c-.002-1.826-1.462-3.285-3.286-3.285zm-.092 6.206c-1.46 0-2.28-1.276-2.28-3.01 0-1.645.82-2.832 2.28-2.832s2.28 1.28 2.28 3.013c.002 1.644-.82 2.83-2.28 2.83zm-37.238-4.839h-.365c-.09-.64-.183-.822-.913-.822h-1.46v2.466h1.277c.73 0 .823-.092.823-.73h.365v1.916h-.365c0-.64-.092-.73-.822-.73h-1.276v1.733c0 .73.183.914.64.914h.09v.362h-2.464v-.362h.09c.46 0 .64-.275.64-1.006v-3.74c0-.73-.18-.913-.64-.913h-.09v-.274h4.473v1.186zm9.858 5.111h-4.655v-.363h.092c.456 0 .64-.184.64-1.096v-3.741c0-.64-.184-.822-.64-.822h-.092v-.274h2.373v.275c-.548 0-.64.185-.64 1.097v3.833c0 .547 0 .64.456.64h1.369c.73 0 .912-.185 1.186-1.005h.364l-.454 1.458zm21.174-5.933c-.275-.184-.55-.275-.73-.275-.457-.092-.73-.092-1.46-.092h-2.648v.275h.09c.458 0 .64.184.64.912v3.835c0 .73-.182.914-.64.914h-.09v.362h2.92c.73 0 1.28-.09 1.735-.273 1.187-.456 1.917-1.554 1.917-2.83 0-1.187-.73-2.28-1.733-2.83zm0 4.747c-.457.547-1.005.822-1.918.822h-.455c-.638 0-.73-.276-.73-1.097v-4.472h.822c.82 0 1.277.093 1.733.366.73.455 1.096 1.37 1.096 2.464 0 .824-.09 1.462-.546 1.917zm-81.596-32.034c-1.368 0-2.555-1.096-2.555-2.555 0-.548.184-1.003.457-1.46-1.187.183-2.1 1.277-2.1 2.556 0 1.46 1.096 2.555 2.465 2.555.912 0 1.642-.458 2.19-1.096h-.457zm-54.944 5.293c0-.365-.183-.64-.183-.64-.82-.182-1.46-1.367-.18-2.098 1.276-.73 1.094-1.368 1.094-1.368h-1.55c-.824 0-.824-.274-.824-.274s0 .274-.82.274h-1.554s-.184.64 1.095 1.37c1.277.73.64 1.915-.09 2.098 0 0-.275.274-.275.64h3.286v-.002zm-1.644-4.654s-1.186-1.002-.64-1.734c0 0 .55-.822.457-1.55 0 0 1.187 1.916.64 2.646-.457.82-.457.638-.457.638zm20.08 4.563c0-.274-.274-.548-.274-.548-.73-.273-1.37-1.46-.09-2.19 1.277-.73 1.002-1.277 1.002-1.277h-1.46c-.822 0-.822-.365-.822-.365s-.09.365-.82.365h-1.552s-.184.547 1.096 1.278c1.277.73.548 1.916-.183 2.19 0 0-.183.273-.183.547h3.286zm-1.643-4.655s-1.187-.913-.64-1.735c0 0 .55-.82.457-1.46 0 0 1.186 1.825.64 2.647-.548.73-.457.548-.457.548zm-7.209-5.02s-.822.274-1.187.456c0 0-.547-.274-1.916-.274-1.277 0-1.826.274-1.826.274-.365-.182-1.187-.456-1.187-.456-.088.914.55 1.278.55 1.278-.09.274-.274.73-.183 1.368.09 1.004 1.094 1.096 1.825.913.822-.185.822.547.822.547s.09-.73.913-.548c.73.182 1.734.09 1.825-.914.09-.64-.09-1.095-.183-1.368 0 0 .64-.364.548-1.278zm-3.56 2.556c-1.55.365-1.37-.822-1.37-.822s.092-.09.822 0c.73.092.548.822.548.822zm1.004 0s-.274-.73.547-.822c.82-.092.82 0 .82 0s.275 1.278-1.368.822zm2.282 1.551c-.456.82-1.826.547-2.1.456-.64 0-.73.64-.73.73 0-.09 0-.73-.638-.73.182 0-1.826.365-2.008-.548l-.09-.182s-.822 1.55.455 3.285c1.096 1.46 1.644 2.19 1.734 3.378.183 1.277-.64 1.003-1.278 1.094-.73 0-.64.822-.64.822.09-.09.548-.09.548-.09 1.37.455 1.552.09 1.826-.458.273-.548 1.003-.73 1.186-1.187.09-.182-.456-.456-.64-.547-.09-.09 0-.274.184-.183.274.09.365-.183.365-.274-.092-.183-.275-.365-.366-.457-.09-.092-.274-.456.09-.274.55.183.55-.182.55-.456 0 0 .364.274.638 1.643.274 1.367.183 1.276-.73 1.46-.913.09-.64 1.002-.64 1.002.092-.182.274-.274.457-.274s.273 0 .82.09c.64 0 1.095-.182 1.826-.182.64 0 1.003.183 1.003.09.183-.638-.548-.73-1.004-.82-.547 0-.82-.365-.456-.64.274-.182.274-.182.182-.364-.182-.183-.456-.365-.365-.458.09-.182.183.09.365-.182.09-.183-.365-.548-.365-.548.365-.09.73-.183.913.365.183.455.183.547.365.912.09.365.274.365.73.274.73-.183 1.277-.183 1.277-.183-.822-2.19-1.004-2.007-1.004-2.007-3.376.456-4.38-1.917-4.38-1.917l.09-.366c1.917 1.734 4.108 1.278 4.108 1.278-.913-3.28-1.917-3.28-2.282-3.555zm-16.794-5.477v15.79c.548 9.765 1.003 15.88 15.06 23.183 2.554-1.188 4.93-2.738 7.21-4.382 6.663-4.56 7.758-12.32 7.758-19.53l.09-15.06h-30.118zm10.77 35.602c-2.014-1.29-3.62-2.56-4.904-3.84h4.904v3.84zm0-9.225h-5.02v5.268c-1.694-1.71-2.817-3.443-3.58-5.268h3.58v-5.387h-4.928v-5.29h4.928v5.293h5.02v5.387zm7.393 9.95l-3.195 1.643-3.104-1.732v-20.538h6.3v20.627zm6.114-4.34c-.65.643-1.375 1.248-2.184 1.803-.956.688-1.93 1.36-2.926 1.994v-4.02h5.11v.223zm5.02-11.18l-.024.185h-4.995v5.384h3.626c-.774 1.97-1.87 3.797-3.406 5.388h-.22v-5.388h-5.11v-5.384h5.11v-5.385h5.02v5.2zm.32-6.294h-29.297l.09-14.04h29.39l-.183 14.04zm-13.097 16.975l-.64.038v-10.808s-.09-2.1-.365-3.376c-.182.822-.365 1.917-.365 3.376v10.852l-.182.012-.457-.028v-10.836c.093-2.098.548-3.833.822-4.197-.09-.364-.09-.364-.275-.364-.456 0-1.094 3.742-1.094 4.562v10.804l-.548-.034-.82-.27v.91l1.37.366h.09v.273c0 .092 0 .275.183.275h1.549c.183 0 .183-.184.183-.275v-.273l1.46-.367v-.91l-.91.27zm-.82 1.644h-1.37s-.067 1.75.03 2.647h-.396s0 1.185 1.003 1.185c1.004 0 1.004-1.186 1.004-1.186h-.36c.155-.897.09-2.648.09-2.648z" fill="#fff"/></svg>