<svg xmlns="http://www.w3.org/2000/svg" width="125.207" height="39" viewBox="25.271 7.871 125.207 39" enable-background="new 25.271 7.871 125.207 39"><path d="M25.27 7.87H150.48v39.002H25.27z"/><g fill="#fff"><path d="M66.88 21.804v-.063c1.017-.317 1.334-.508 1.908-.954 1.082-.89 1.335-2.1 1.335-3.18 0-1.274-.7-2.673-2.1-3.373-.89-.445-2.162-.636-3.753-.636h-5.6v.445h.192c1.21 0 1.59 1.463 1.59 3.244v9.8c0 1.78-.445 3.18-1.59 3.18h-.19v.51h6.807c1.208 0 2.035-.13 2.798-.383 1.782-.572 2.672-2.608 2.672-4.2 0-2.098-1.654-3.88-4.07-4.39zm-4.39-7.57h1.207c1.018 0 1.463.062 2.036.19 1.526.445 2.1 1.526 2.1 3.118 0 1.972-1.4 3.944-3.69 3.944H62.49v-7.253zm5.28 14.76c-.637.827-1.336 1.146-2.672 1.146h-.827c-1.398 0-1.78-.51-1.78-2.673v-5.153h1.527c2.735 0 4.517 2.1 4.517 4.326 0 .954-.255 1.78-.765 2.354zM76.104 28.42c0 1.59.19 1.846 1.654 1.846v.51h-5.344v-.51h.51c.954 0 1.334-.318 1.334-1.336v-6.043c0-.828-.382-1.21-1.272-1.21h-.572v-.507l3.69-.32v7.57zM82.912 22.887c1.845-1.59 2.608-2.037 3.31-2.037.57 0 1.27.19 1.78.573l-.763 1.845-.192-.126c-1.017-.51-1.527-.7-2.1-.7-.636 0-1.145.254-2.035 1.146v4.835c0 1.526.254 1.845 1.336 1.845h.253v.51H79.35v-.51h.254c1.145 0 1.4-.318 1.4-1.845v-5.218c0-1.335-.32-1.654-1.527-1.654h-.382v-.444l3.818-.318v2.1zM91.564 25.75l2.608-2.29c.445-.383.7-.828.7-1.146 0-.508-.318-.764-1.146-.764v-.445h5.28v.445h-.445c-1.08 0-1.78.382-3.116 1.59l-2.1 1.846 4.072 4.07c.89.892 1.4 1.147 2.354 1.21v.51h-3.18l-5.025-4.9v2.546c0 1.59.19 1.846 1.59 1.846v.508h-5.09v-.508c1.4 0 1.59-.255 1.59-1.846V15.696c0-1.208-.19-1.4-1.718-1.4v-.444l3.628-.317V25.75zM106.26 20.85c-1.207 0-2.417.51-3.244 1.4v-8.78l-3.562.254v.51c1.59 0 1.654.126 1.718 1.78v14.57c1.272.254 2.035.254 2.863.254 1.654 0 2.864-.254 3.945-.827 1.78-.89 2.8-2.607 2.8-4.452-.002-2.67-1.974-4.708-4.52-4.708zm-1.59 9.543c-1.4 0-1.654-.38-1.654-2.544v-4.9c.764-.955 1.528-1.4 2.48-1.4 1.847 0 3.245 1.78 3.245 4.2 0 2.862-1.525 4.643-4.07 4.643zM118.095 30.394c-1.02 0-2.163-.636-2.863-1.718-.7-1.018-.955-1.91-1.02-3.816h7.128v-.383c.062-1.91-1.973-3.626-4.136-3.626-2.736 0-4.9 2.228-4.9 5.155 0 2.926 2.164 5.026 5.218 5.026 1.718 0 2.8-.57 4.01-2.034v-.764c-1.275 1.526-2.293 2.162-3.437 2.162zm-1.145-9.034c1.59 0 2.544 1.082 2.544 2.99h-5.218c.255-2.037 1.083-2.99 2.674-2.99zM132.027 24.222h-.445c-.38-1.78-1.654-2.926-3.308-2.926-1.91 0-3.246 1.655-3.246 4.072 0 2.672 1.654 4.835 3.627 4.835 1.4 0 2.418-.573 3.626-1.973v.7c-.952 1.27-2.478 2.1-4.26 2.1-2.864 0-4.9-2.036-4.9-4.9 0-2.926 2.228-5.28 5.026-5.28.637 0 1.4.127 2.1.318.255.127.445.127.572.127.255 0 .51-.127.7-.445h.51v3.372zM136.29 25.75l2.608-2.29c.445-.383.7-.828.7-1.146 0-.508-.318-.764-1.146-.764v-.445h5.28v.445h-.444c-1.083 0-1.783.382-3.118 1.59l-2.1 1.846 4.072 4.07c.89.892 1.4 1.147 2.354 1.21v.51h-3.18l-5.028-4.9v2.546c0 1.59.19 1.846 1.59 1.846v.508h-5.09v-.508c1.4 0 1.59-.255 1.59-1.846V15.696c0-1.208-.19-1.4-1.717-1.4v-.444l3.628-.317V25.75h.002zM61.79 40.255c-.382.445-.764.573-1.337.573-1.018 0-1.59-.638-1.527-1.59V37.2c0-.508-.128-.635-.445-.635h-.062v-.19h1.654v.19h-.063c-.32 0-.383.127-.383.636v1.974c0 .51 0 .7.127.89.19.255.51.383.89.383.51 0 .828-.19 1.146-.637v-2.608c0-.38-.063-.636-.38-.636h-.065v-.19H63v.19h-.127c-.19 0-.382.127-.382.636v2.672c0 .445.064.638.383.638H63v.253h-1.21v-.51zM68.47 36.565h-.063c-.382 0-.51.128-.51.636v3.564h-.19l-2.99-3.626v2.672c0 .573.127.7.51.7h.062v.253h-1.4v-.254h.062c.318 0 .445-.192.445-.7v-2.418c0-.572-.127-.764-.636-.827v-.192h1.21l2.61 3.246V37.39c0-.7-.128-.827-.446-.827h-.064v-.192h1.4v.192zM128.974 36.565h-.064c-.38 0-.51.128-.51.636v3.564h-.19l-2.99-3.626v2.672c0 .573.13.7.51.7h.064v.253h-1.4v-.254h.064c.317 0 .445-.192.445-.7v-2.418c0-.572-.128-.764-.638-.827v-.192h1.21l2.606 3.246V37.39c0-.7-.126-.827-.444-.827h-.063v-.192h1.4v.192zM144.815 36.565h-.063c-.382 0-.51.128-.51.636v3.564h-.19l-2.99-3.626v2.672c0 .573.127.7.51.7h.062v.253h-1.4v-.254h.065c.315 0 .444-.192.444-.7v-2.418c0-.572-.13-.764-.638-.827v-.192h1.21l2.607 3.246V37.39c0-.7-.127-.827-.445-.827h-.063v-.192h1.4v.192zM70.887 40.763h-1.654v-.254h.063c.318 0 .445-.13.445-.638V37.2c-.062-.51-.126-.637-.444-.637h-.063v-.19h1.654v.19h-.063c-.254 0-.382.19-.382.637v2.672c0 .51.128.637.382.637h.063v.253zM90.546 40.763h-1.653v-.254h.064c.316 0 .444-.13.444-.638V37.2c-.062-.51-.127-.637-.443-.637h-.064v-.19h1.653v.19h-.062c-.32 0-.446.19-.446.637v2.672c0 .51.127.637.446.637h.062v.253zM75.85 36.565c-.382.063-.573.19-.764.827l-1.272 3.435h-.255l-1.337-3.562c-.19-.51-.38-.638-.7-.7v-.192h1.655v.192c-.19 0-.382.128-.382.255 0 .062 0 .062.127.254v.19l.955 2.355.89-2.355c.063-.19.063-.318.063-.445 0-.128-.062-.192-.38-.255v-.192h1.4v.192zM79.604 37.2h-.254c-.063-.444-.19-.572-.7-.572h-1.145v1.782h.955c.508 0 .508-.064.572-.383l.063-.062h.19v1.145h-.253c-.063-.317-.063-.382-.572-.382h-.955v1.464c0 .318 0 .318.445.318h.636c.636 0 .7-.128.89-.637h.32l-.255.89h-3.18v-.253c.316 0 .444-.128.444-.637V37.2c0-.508-.128-.637-.445-.637v-.19h3.18l.064.828zM84.756 40.51c-.254 0-.508-.192-.827-.828l-.32-.51c-.253-.317-.253-.38-.508-.572.572-.128.827-.573.827-1.02 0-.507-.255-.825-.637-1.017-.254-.19-.573-.19-1.082-.19h-1.653v.19h.063c.32 0 .445.128.445.637v2.672c0 .445-.127.637-.445.637h-.063v.253h1.718v-.254h-.064c-.317 0-.444-.13-.444-.638v-1.08h.19c.255 0 .32 0 .446.062.128.064.254.19.254.255.19.126.382.444.636.953.318.51.382.51.51.7h1.017v-.255h-.064zm-1.907-2.227c-.128.127-.32.19-.574.19h-.51V36.63h.382c.636 0 1.018.382 1.018.955 0 .318-.063.508-.317.7zM87.81 37.392h-.253v-.064c-.064-.317-.128-.508-.318-.636-.192-.128-.383-.19-.573-.19-.445 0-.7.316-.7.636 0 .19.064.382.255.573.127.063.254.19.38.255.13.062.255.19.51.317.318.19.51.317.636.573.19.19.32.508.32.763 0 .7-.574 1.272-1.338 1.272-.19 0-.318-.063-.7-.127-.127-.064-.19-.128-.253-.128s-.063.063-.128.19h-.192v-1.27h.254v.062c0 .382.063.573.318.764.19.13.382.19.636.19.51 0 .827-.253.827-.698 0-.19-.127-.382-.382-.636-.126-.128-.317-.255-.508-.32-.254-.19-.445-.316-.572-.38l-.32-.318c-.19-.254-.253-.508-.253-.826 0-.7.51-1.145 1.21-1.145.253 0 .38 0 .635.062.128.063.19.063.19.127.065 0 .13-.063.13-.128h.19v1.082zM95.19 36.31l.063 1.018H95v-.062c-.127-.445-.254-.573-.827-.573h-.636v3.18c0 .51.128.638.445.638h.063v.255H92.39v-.254h.065c.318 0 .445-.127.445-.636v-3.18h-.573c-.636 0-.763.127-.89.572h-.19v-.956h3.944zM99.645 36.565c-.318.063-.382.063-.573.317l-.063.128-1.02 1.59v1.272c0 .51.127.637.38.637h.065v.253H96.78v-.254h.064c.318 0 .445-.13.445-.638V38.6l-.892-1.463c-.317-.445-.445-.51-.763-.573v-.19h1.78v.19h-.063c-.254 0-.38.063-.38.19 0 0 0 .065.06.192l.065.127.764 1.08.638-.953c.063-.19.127-.317.127-.38 0-.192-.063-.255-.255-.255v-.19h1.273l.002.19zM105.37 36.248c-1.336 0-2.418.953-2.418 2.29 0 1.336 1.082 2.354 2.354 2.354 1.338 0 2.354-1.018 2.354-2.354 0-1.273-1.016-2.29-2.29-2.29zm-.062 4.325c-1.02 0-1.59-.89-1.59-2.1-.002-1.145.57-1.973 1.652-1.973 1.02 0 1.528.892 1.528 2.1 0 1.146-.574 1.973-1.59 1.973zM121.34 36.248c-1.336 0-2.355.953-2.355 2.29 0 1.336 1.02 2.354 2.355 2.354 1.27 0 2.353-1.018 2.353-2.354 0-1.273-1.017-2.29-2.353-2.29zm-.065 4.325c-.953 0-1.526-.89-1.526-2.1 0-1.145.57-1.973 1.59-1.973 1.018 0 1.526.892 1.526 2.1 0 1.146-.572 1.973-1.59 1.973zM137.372 36.248c-1.4 0-2.418.953-2.418 2.29 0 1.336 1.02 2.354 2.354 2.354 1.335 0 2.354-1.018 2.354-2.354 0-1.273-1.018-2.29-2.29-2.29zm-.063 4.325c-1.02 0-1.592-.89-1.592-2.1 0-1.145.572-1.973 1.59-1.973s1.59.892 1.59 2.1c0 1.146-.573 1.973-1.59 1.973zM111.35 37.2h-.254c-.063-.444-.127-.572-.637-.572h-1.02v1.718h.892c.51 0 .573-.063.573-.51h.255v1.337h-.255c0-.445-.063-.51-.573-.51h-.89v1.21c0 .51.127.637.444.637h.064v.254h-1.718v-.254h.062c.32 0 .445-.19.445-.7V37.2c0-.51-.127-.637-.446-.637h-.062v-.19h3.117v.826zM118.222 40.763h-3.245v-.254h.064c.318 0 .446-.13.446-.765v-2.608c0-.444-.128-.572-.445-.572h-.063v-.192h1.654v.192c-.38 0-.444.128-.444.763V40c0 .38 0 .445.317.445h.955c.508 0 .636-.128.826-.7h.254l-.316 1.018zM132.982 36.626c-.192-.127-.383-.19-.51-.19-.318-.064-.51-.064-1.02-.064h-1.844v.19h.063c.32 0 .446.13.446.638v2.673c0 .51-.127.637-.445.637h-.062v.254h2.035c.51 0 .893-.062 1.21-.19.826-.317 1.336-1.083 1.336-1.974 0-.827-.51-1.59-1.208-1.974zm0 3.31c-.32.382-.7.573-1.338.573h-.316c-.445 0-.51-.192-.51-.765v-3.117h.572c.573 0 .89.064 1.21.254.508.318.763.955.763 1.718 0 .573-.063 1.02-.38 1.336zM76.104 17.606c-.954 0-1.78-.764-1.78-1.78 0-.383.126-.7.317-1.02-.826.13-1.462.892-1.462 1.783 0 1.017.764 1.78 1.718 1.78.636 0 1.145-.318 1.527-.764h-.32zM37.804 21.295c0-.254-.127-.445-.127-.445-.572-.127-1.018-.954-.127-1.463.89-.51.763-.954.763-.954H37.23c-.572 0-.572-.19-.572-.19s0 .19-.573.19h-1.082s-.128.445.764.954c.89.51.445 1.335-.063 1.463 0 0-.19.19-.19.445h2.29zM36.66 18.05s-.828-.7-.446-1.208c0 0 .382-.572.318-1.08 0 0 .827 1.335.445 1.844-.318.572-.318.445-.318.445zM50.655 21.232c0-.19-.19-.382-.19-.382-.51-.19-.956-1.018-.064-1.526.892-.51.7-.89.7-.89h-1.018c-.573 0-.573-.255-.573-.255s-.064.253-.573.253h-1.082s-.128.382.763.89c.89.51.382 1.337-.127 1.527 0 0-.127.19-.127.382h2.292zM49.51 17.987s-.827-.636-.445-1.21c0 0 .382-.57.318-1.017 0 0 .827 1.272.445 1.845-.38.51-.318.382-.318.382zM44.485 14.488s-.573.19-.828.318c0 0-.382-.19-1.335-.19-.89 0-1.272.19-1.272.19-.254-.127-.827-.318-.827-.318-.063.636.382.89.382.89-.063.192-.19.51-.127.955.063.7.763.764 1.272.637.573-.128.573.382.573.382s.063-.51.636-.382c.508.127 1.207.063 1.27-.637.065-.445-.062-.763-.126-.954 0 0 .444-.255.38-.892zm-2.482 1.782c-1.08.254-.954-.573-.954-.573s.062-.063.57 0c.51.064.383.573.383.573zm.7 0s-.19-.51.38-.573c.574-.064.574 0 .574 0s.192.89-.954.573zM44.294 17.35c-.318.573-1.273.382-1.464.318-.445 0-.508.445-.508.51 0-.064 0-.51-.445-.51.126 0-1.272.254-1.4-.382l-.063-.126s-.573 1.082.318 2.29c.764 1.018 1.146 1.527 1.21 2.354.126.89-.446.7-.892.763-.51 0-.445.573-.445.573.063-.063.382-.063.382-.063.954.318 1.082.063 1.272-.318.19-.383.7-.51.826-.828.063-.127-.318-.318-.445-.382-.062-.063 0-.19.128-.127.19.063.254-.127.254-.19-.063-.128-.19-.255-.254-.32-.063-.063-.19-.317.063-.19.383.127.383-.127.383-.318 0 0 .254.19.445 1.146.19.955.127.89-.51 1.02-.635.062-.444.7-.444.7.063-.127.19-.192.318-.192s.19 0 .573.063c.445 0 .763-.126 1.272-.126.445 0 .7.127.7.063.127-.445-.382-.51-.7-.572-.382 0-.573-.254-.318-.445.19-.128.19-.128.125-.254-.126-.128-.317-.254-.254-.32.064-.125.128.064.255-.125.064-.126-.254-.38-.254-.38.255-.064.51-.13.637.253.127.317.127.382.254.636.065.253.192.253.51.19.508-.128.89-.128.89-.128-.572-1.527-.7-1.4-.7-1.4-2.353.318-3.053-1.335-3.053-1.335l.063-.254c1.336 1.21 2.863.89 2.863.89-.635-2.29-1.335-2.29-1.59-2.482zM32.587 13.534V24.54c.382 6.807.7 11.07 10.498 16.16 1.78-.827 3.436-1.908 5.026-3.054 4.646-3.18 5.41-8.59 5.41-13.615l.063-10.497H32.587zm7.508 24.816c-1.404-.9-2.523-1.784-3.418-2.676h3.418v2.676zm0-6.43h-3.5v3.672c-1.182-1.193-1.964-2.4-2.496-3.672h2.495v-3.754H33.16v-3.69h3.435v3.69h3.5v3.754zm5.153 6.935L43.02 40l-2.163-1.21V24.478h4.39v14.378zm4.262-3.024c-.453.448-.958.87-1.522 1.257-.667.48-1.346.947-2.04 1.39v-2.803h3.562v.157zm3.5-7.792l-.018.128h-3.48v3.753h2.527c-.54 1.37-1.304 2.645-2.376 3.754h-.153V31.92H45.95v-3.754h3.563v-3.754h3.5v3.626zm.222-4.39H32.81l.063-9.786h20.485l-.126 9.787zM44.103 35.482l-.446.026v-7.533s-.063-1.463-.254-2.354c-.127.573-.254 1.337-.254 2.355v7.564l-.128.007-.318-.02v-7.553c.064-1.462.38-2.672.572-2.926-.063-.254-.063-.254-.19-.254-.32 0-.764 2.608-.764 3.18v7.53l-.382-.023-.572-.187v.634l.955.256h.063v.19c0 .064 0 .192.128.192h1.081c.126 0 .126-.128.126-.19v-.192l1.02-.256v-.634l-.637.19zM43.53 36.628h-.954s-.046 1.22.02 1.846h-.274s0 .826.7.826.7-.826.7-.826h-.253c.106-.626.06-1.846.06-1.846z"/></g></svg>