<svg xmlns="http://www.w3.org/2000/svg" width="157.309" height="49" viewBox="9.219 2.872 157.309 49" enable-background="new 9.219 2.872 157.309 49"><path d="M9.22 2.872h157.308v49H9.218z"/><g fill="#fff"><path d="M61.496 20.377v-.08c1.28-.4 1.678-.64 2.398-1.2 1.36-1.118 1.678-2.637 1.678-3.995 0-1.6-.88-3.357-2.637-4.237-1.12-.56-2.718-.8-4.716-.8h-7.035v.56h.24c1.52 0 1.998 1.84 1.998 4.077v12.31c0 2.237-.56 3.997-1.998 3.997h-.24v.64h8.553c1.52 0 2.56-.162 3.517-.48 2.24-.72 3.358-3.277 3.358-5.276 0-2.64-2.08-4.877-5.117-5.517zm-5.515-9.512h1.52c1.278 0 1.838.08 2.557.24 1.918.56 2.638 1.917 2.638 3.917 0 2.477-1.758 4.956-4.636 4.956h-2.08v-9.113zm6.634 18.545c-.8 1.04-1.678 1.44-3.356 1.44h-1.04c-1.757 0-2.237-.642-2.237-3.36v-6.473h1.92c3.437 0 5.674 2.638 5.674 5.435 0 1.2-.32 2.237-.96 2.958zM73.086 28.69c0 1.998.24 2.318 2.078 2.318v.64H68.45v-.64h.64c1.2 0 1.678-.4 1.678-1.68v-7.592c0-1.04-.48-1.52-1.6-1.52h-.718v-.64l4.636-.4v9.513zM81.64 21.737c2.318-2 3.276-2.56 4.157-2.56.72 0 1.598.24 2.237.72l-.96 2.318-.24-.16c-1.277-.64-1.917-.88-2.637-.88-.8 0-1.438.32-2.557 1.44v6.075c0 1.918.32 2.317 1.678 2.317h.32v.64h-6.475v-.64h.32c1.437 0 1.757-.4 1.757-2.317v-6.556c0-1.678-.4-2.078-1.918-2.078h-.48v-.56l4.796-.4.002 2.64zM92.51 25.333l3.278-2.877c.56-.48.878-1.04.878-1.438 0-.64-.398-.96-1.438-.96V19.5h6.634v.56h-.56c-1.36 0-2.237.48-3.916 1.998l-2.64 2.318 5.118 5.114c1.12 1.12 1.758 1.44 2.958 1.52v.64h-4l-6.312-6.155v3.197c0 2 .24 2.32 1.997 2.32v.637h-6.394v-.64c1.76 0 2-.32 2-2.318v-15.99c0-1.517-.243-1.757-2.16-1.757v-.56l4.557-.398v15.346zM110.975 19.178c-1.518 0-3.037.64-4.077 1.76V9.905l-4.476.32v.638c1.997 0 2.078.16 2.158 2.238v18.306c1.6.318 2.557.318 3.598.318 2.078 0 3.6-.318 4.957-1.04 2.236-1.118 3.516-3.275 3.516-5.594 0-3.355-2.477-5.914-5.675-5.914zm-1.998 11.99c-1.76 0-2.08-.48-2.08-3.197v-6.154c.96-1.2 1.922-1.76 3.12-1.76 2.317 0 4.075 2.24 4.075 5.276 0 3.598-1.918 5.835-5.115 5.835zM125.843 31.17c-1.28 0-2.718-.8-3.597-2.16-.88-1.278-1.2-2.397-1.28-4.794h8.954v-.482c.08-2.397-2.48-4.555-5.195-4.555-3.438 0-6.156 2.797-6.156 6.474 0 3.676 2.717 6.315 6.554 6.315 2.158 0 3.518-.72 5.036-2.56v-.958c-1.6 1.92-2.88 2.717-4.317 2.717zm-1.438-11.352c1.997 0 3.196 1.36 3.196 3.756h-6.555c.32-2.557 1.36-3.756 3.36-3.756zM143.348 23.415h-.56c-.48-2.237-2.078-3.676-4.155-3.676-2.4 0-4.078 2.078-4.078 5.115 0 3.356 2.078 6.074 4.557 6.074 1.76 0 3.038-.72 4.556-2.48v.88c-1.197 1.598-3.115 2.64-5.354 2.64-3.6 0-6.155-2.56-6.155-6.156 0-3.677 2.797-6.636 6.312-6.636.8 0 1.76.16 2.64.4.32.16.56.16.718.16.32 0 .64-.16.88-.56h.64v4.237h-.002zM148.704 25.333l3.276-2.877c.56-.48.88-1.04.88-1.438 0-.64-.4-.96-1.44-.96V19.5h6.637v.56h-.56c-1.36 0-2.24.48-3.918 1.998l-2.64 2.318 5.117 5.114c1.12 1.12 1.76 1.44 2.96 1.52v.64h-3.998l-6.316-6.155v3.197c0 2 .24 2.32 1.997 2.32v.637h-6.394v-.64c1.76 0 1.998-.32 1.998-2.318v-15.99c0-1.517-.24-1.757-2.158-1.757v-.56l4.558-.398v15.346zM55.1 43.56c-.478.56-.957.72-1.678.72-1.278 0-1.998-.802-1.918-2v-2.558c0-.64-.16-.8-.56-.8h-.08v-.24h2.08v.24h-.08c-.4 0-.48.16-.48.8v2.48c0 .64 0 .877.16 1.118.24.318.638.48 1.118.48.64 0 1.04-.24 1.438-.8v-3.277c0-.48-.08-.8-.48-.8h-.08v-.24h2.08v.24h-.16c-.24 0-.48.16-.48.8v3.355c0 .56.08.802.48.802h.16v.317H55.1v-.638zM63.495 38.922h-.08c-.48 0-.64.16-.64.8v4.476h-.24l-3.757-4.556V43c0 .72.16.878.64.878h.08v.32h-1.76v-.32h.08c.4 0 .56-.24.56-.878v-3.038c0-.72-.16-.96-.8-1.04v-.242h1.52l3.278 4.08v-2.8c0-.878-.16-1.038-.56-1.038h-.08v-.242h1.758v.242zM139.512 38.922h-.08c-.48 0-.64.16-.64.8v4.476h-.24l-3.757-4.556V43c0 .72.16.878.64.878h.08v.32h-1.76v-.32h.082c.398 0 .56-.24.56-.878v-3.038c0-.72-.16-.96-.802-1.04v-.242h1.52l3.275 4.08v-2.8c0-.878-.16-1.038-.56-1.038h-.08v-.242h1.76v.242h.002zM159.415 38.922h-.08c-.48 0-.64.16-.64.8v4.476h-.24l-3.758-4.556V43c0 .72.16.878.642.878h.078v.32h-1.76v-.32h.082c.397 0 .56-.24.56-.878v-3.038c0-.72-.162-.96-.8-1.04v-.242h1.518l3.277 4.08v-2.8c0-.878-.16-1.038-.56-1.038h-.08v-.242h1.76v.242zM66.53 44.197h-2.077v-.32h.08c.398 0 .56-.16.56-.8v-3.355c-.08-.64-.16-.8-.56-.8h-.08v-.242h2.078v.24h-.078c-.32 0-.48.24-.48.8v3.357c0 .64.16.8.48.8h.08v.32zM91.23 44.197h-2.077v-.32h.08c.398 0 .56-.16.56-.8v-3.355c-.08-.64-.16-.8-.56-.8h-.08v-.242h2.078v.24h-.078c-.4 0-.56.24-.56.8v3.357c0 .64.158.8.56.8h.08v.32zM72.767 38.922c-.48.08-.72.24-.96 1.04l-1.597 4.314h-.32L68.212 39.8c-.24-.64-.48-.8-.878-.88v-.24h2.078v.242c-.24 0-.48.16-.48.32 0 .078 0 .078.16.318v.24l1.2 2.958L71.41 39.8c.08-.24.08-.4.08-.56 0-.16-.08-.24-.48-.32v-.24h1.76v.242h-.003zM77.483 39.72h-.32c-.08-.56-.24-.72-.878-.72h-1.438v2.24h1.2c.638 0 .638-.082.718-.48l.08-.08h.24v1.438h-.32c-.078-.4-.078-.48-.718-.48h-1.2v1.84c0 .4 0 .4.56.4h.8c.8 0 .88-.16 1.12-.8h.398l-.32 1.118H73.41v-.32c.4 0 .56-.16.56-.8V39.72c0-.64-.16-.8-.56-.8v-.24h3.996l.08 1.04zM83.957 43.877c-.32 0-.64-.24-1.04-1.04l-.4-.638c-.318-.4-.318-.48-.638-.722.718-.16 1.04-.72 1.04-1.28 0-.638-.32-1.037-.8-1.277-.32-.24-.72-.24-1.36-.24h-2.077v.24h.08c.4 0 .56.16.56.8v3.357c0 .56-.16.8-.56.8h-.08v.32h2.158v-.32h-.08c-.4 0-.56-.16-.56-.8V41.72h.24c.32 0 .4 0 .56.08.162.08.32.238.32.32.24.158.48.56.8 1.197.4.64.48.64.64.88h1.278v-.32h-.08zM81.56 41.08c-.16.16-.4.24-.72.24h-.64v-2.318h.48c.8 0 1.28.48 1.28 1.2 0 .4-.08.638-.4.88zM87.794 39.96h-.32v-.08c-.08-.398-.16-.638-.4-.8-.24-.16-.478-.24-.718-.24-.56 0-.88.4-.88.8 0 .24.08.48.32.722.16.078.32.24.48.318.16.08.32.24.64.4.4.238.64.397.797.72.24.238.4.637.4.957 0 .88-.72 1.6-1.68 1.6-.24 0-.398-.08-.877-.16-.16-.08-.24-.16-.32-.16s-.08.08-.16.24h-.242v-1.6h.32v.08c0 .48.08.72.4.96.24.16.48.24.8.24.64 0 1.04-.32 1.04-.88 0-.24-.16-.48-.48-.8-.16-.16-.4-.32-.64-.4-.32-.24-.56-.398-.718-.48l-.4-.398c-.24-.32-.32-.64-.32-1.04 0-.878.64-1.437 1.52-1.437.32 0 .48 0 .8.08.16.08.24.08.24.16.08 0 .16-.08.16-.16h.24l-.002 1.358zM97.067 38.602l.08 1.278h-.32v-.078c-.16-.56-.32-.72-1.04-.72h-.798v3.995c0 .64.16.8.56.8h.078v.32H93.55v-.32h.08c.4 0 .56-.16.56-.8V39.08h-.72c-.8 0-.958.162-1.118.722h-.24v-1.2h4.955zM102.662 38.922c-.4.08-.48.08-.72.398l-.08.16-1.278 1.998v1.6c0 .64.16.8.48.8h.08v.318h-2.078v-.32h.08c.4 0 .56-.16.56-.8V41.48l-1.12-1.838c-.398-.56-.56-.64-.958-.72v-.24h2.238v.24h-.08c-.32 0-.48.08-.48.24 0 0 0 .082.078.24l.08.16.96 1.358.8-1.198c.08-.24.16-.4.16-.48 0-.24-.08-.318-.32-.318v-.24h1.6v.24h-.002zM109.856 38.523c-1.68 0-3.038 1.198-3.038 2.878 0 1.68 1.36 2.958 2.957 2.958 1.68 0 2.958-1.28 2.958-2.957 0-1.598-1.277-2.877-2.877-2.877zm-.08 5.435c-1.278 0-1.998-1.12-1.998-2.637 0-1.44.718-2.478 2.078-2.478 1.28 0 1.92 1.12 1.92 2.638 0 1.438-.72 2.478-2 2.478zM129.92 38.523c-1.678 0-2.96 1.198-2.96 2.878 0 1.68 1.282 2.958 2.96 2.958 1.598 0 2.956-1.28 2.956-2.957 0-1.598-1.277-2.877-2.956-2.877zm-.08 5.435c-1.198 0-1.918-1.12-1.918-2.637 0-1.44.72-2.478 1.998-2.478s1.918 1.12 1.918 2.638c0 1.438-.72 2.478-2 2.478zM150.063 38.523c-1.76 0-3.038 1.198-3.038 2.878 0 1.68 1.28 2.958 2.958 2.958 1.677 0 2.957-1.28 2.957-2.957 0-1.598-1.28-2.877-2.877-2.877zm-.08 5.435c-1.278 0-2-1.12-2-2.637 0-1.44.72-2.478 2-2.478s1.997 1.12 1.997 2.638c0 1.438-.72 2.478-1.997 2.478zM117.37 39.72h-.32c-.08-.56-.16-.72-.8-.72h-1.28v2.158h1.12c.64 0 .72-.08.72-.64h.32v1.68h-.32c0-.56-.08-.64-.72-.64h-1.12v1.52c0 .64.162.8.56.8h.082v.318h-2.158v-.32h.08c.4 0 .56-.24.56-.88V39.72c0-.64-.16-.8-.56-.8h-.08v-.24h3.917v1.04zM126.003 44.197h-4.077v-.32h.08c.4 0 .56-.16.56-.958V39.64c0-.56-.16-.72-.56-.72h-.08v-.242h2.078v.242c-.48 0-.56.16-.56.958V43.238c0 .48 0 .56.398.56h1.2c.64 0 .8-.16 1.038-.88h.32l-.397 1.28zM144.548 39c-.24-.16-.48-.24-.64-.24-.4-.08-.64-.08-1.28-.08h-2.317v.24h.08c.4 0 .56.162.56.8v3.358c0 .64-.16.8-.56.8h-.08v.32h2.558c.64 0 1.12-.08 1.52-.24 1.038-.398 1.68-1.36 1.68-2.48-.003-1.038-.643-1.998-1.52-2.478zm0 4.158c-.4.48-.88.72-1.68.72h-.398c-.56 0-.64-.24-.64-.96v-3.916h.718c.72 0 1.12.08 1.52.32.64.4.96 1.2.96 2.157-.002.72-.082 1.28-.48 1.678zM73.086 15.102c-1.198 0-2.237-.96-2.237-2.238 0-.48.16-.878.398-1.28-1.04.162-1.838 1.12-1.838 2.24 0 1.28.96 2.238 2.158 2.238.8 0 1.438-.4 1.918-.96h-.4zM24.967 19.738c0-.32-.16-.56-.16-.56-.72-.16-1.28-1.198-.16-1.838 1.12-.64.96-1.2.96-1.2h-1.36c-.72 0-.72-.24-.72-.24s0 .24-.72.24h-1.36s-.16.56.96 1.2c1.12.64.56 1.678-.08 1.838 0 0-.24.24-.24.56h2.88zM23.527 15.662s-1.04-.88-.56-1.52c0 0 .48-.72.4-1.358 0 0 1.038 1.68.56 2.318-.4.718-.4.56-.4.56zM41.113 19.658c0-.24-.24-.48-.24-.48-.64-.238-1.2-1.278-.08-1.917 1.12-.638.88-1.118.88-1.118h-1.28c-.72 0-.72-.32-.72-.32s-.078.32-.718.32h-1.36s-.16.48.96 1.12c1.118.638.48 1.678-.16 1.917 0 0-.16.24-.16.478h2.878zM39.673 15.58s-1.04-.798-.56-1.52c0 0 .48-.718.4-1.277 0 0 1.04 1.598.56 2.318-.48.64-.4.48-.4.48zM33.36 11.185s-.72.24-1.04.4c0 0-.48-.24-1.678-.24-1.12 0-1.6.24-1.6.24-.32-.16-1.04-.4-1.04-.4-.08.8.48 1.12.48 1.12-.08.24-.24.638-.16 1.197.08.88.96.96 1.6.8.72-.16.72.48.72.48s.078-.64.798-.48c.64.16 1.518.08 1.598-.8.08-.56-.08-.96-.16-1.198.002 0 .56-.32.482-1.12zm-3.118 2.238c-1.358.32-1.198-.72-1.198-.72s.08-.08.72 0c.638.08.478.72.478.72zm.88 0s-.24-.64.48-.72c.72-.08.72 0 .72 0s.24 1.12-1.2.72zM33.12 14.782c-.4.72-1.6.48-1.84.4-.56 0-.638.56-.638.64 0-.08 0-.64-.56-.64.16 0-1.6.32-1.76-.48l-.08-.16s-.718 1.36.4 2.877c.96 1.278 1.44 1.918 1.52 2.957.16 1.12-.56.88-1.12.958-.64 0-.56.72-.56.72.08-.08.48-.08.48-.08 1.198.4 1.358.08 1.598-.4.24-.48.88-.64 1.04-1.04.08-.16-.4-.4-.56-.48-.08-.08 0-.24.16-.16.24.08.32-.16.32-.24-.08-.16-.24-.32-.32-.4-.08-.08-.24-.4.08-.24.48.16.48-.16.48-.4 0 0 .32.24.56 1.44.24 1.198.16 1.118-.64 1.278-.8.08-.56.88-.56.88.08-.16.24-.24.4-.24.16 0 .24 0 .72.08.56 0 .958-.16 1.598-.16.56 0 .878.16.878.078.16-.56-.48-.64-.878-.718-.48 0-.72-.32-.4-.56.24-.16.24-.16.16-.32-.16-.16-.4-.32-.32-.4.08-.16.16.08.32-.16.08-.16-.32-.48-.32-.48.32-.08.64-.16.8.32.16.4.16.48.32.8.08.32.24.32.64.24.64-.16 1.12-.16 1.12-.16-.72-1.92-.88-1.758-.88-1.758-2.958.398-3.837-1.68-3.837-1.68l.08-.32c1.678 1.52 3.597 1.12 3.597 1.12-.798-2.872-1.678-2.872-1.997-3.112zM18.412 9.986v13.828c.48 8.553.88 13.908 13.19 20.305 2.237-1.042 4.316-2.4 6.314-3.84 5.835-3.995 6.794-10.792 6.794-17.105l.08-13.19H18.413zm9.432 31.18c-1.764-1.13-3.17-2.242-4.295-3.362h4.294v3.36zm0-8.08h-4.396V37.7c-1.485-1.5-2.468-3.016-3.136-4.613h3.136V28.37h-4.316v-4.636h4.316v4.637h4.396v4.716zM34.32 41.8l-2.8 1.438-2.717-1.52V23.734h5.516V41.8zm5.353-3.8c-.57.562-1.204 1.092-1.912 1.578-.836.604-1.69 1.19-2.562 1.746v-3.52h4.475V38zm4.398-9.792l-.02.16h-4.375v4.716h3.176c-.677 1.724-1.636 3.325-2.982 4.718h-.192v-4.718H35.2V28.37h4.476v-4.717h4.396v4.555zm.28-5.513H18.693l.08-12.297H44.51l-.16 12.297zM32.88 37.56l-.56.034V28.13s-.08-1.84-.32-2.958c-.16.72-.32 1.68-.32 2.958v9.504l-.16.01-.398-.025v-9.49c.08-1.838.48-3.357.72-3.676-.08-.32-.08-.32-.24-.32-.4 0-.96 3.277-.96 3.996v9.46l-.48-.03-.718-.235v.796l1.2.323h.08v.24c0 .08 0 .24.16.24H32.244c.158 0 .158-.16.158-.24v-.24l1.28-.322v-.795l-.802.236zM32.16 39h-1.198s-.058 1.534.026 2.32h-.346s0 1.038.878 1.038c.88 0 .88-1.038.88-1.038h-.318c.136-.785.08-2.32.08-2.32z"/></g></svg>