<?xml version="1.0" encoding="utf-8"?>
<!-- Generator: Adobe Illustrator 16.0.1, SVG Export Plug-In . SVG Version: 6.00 Build 0)  -->
<!DOCTYPE svg PUBLIC "-//W3C//DTD SVG 1.1//EN" "http://www.w3.org/Graphics/SVG/1.1/DTD/svg11.dtd">
<svg version="1.1" xmlns="http://www.w3.org/2000/svg" xmlns:xlink="http://www.w3.org/1999/xlink" x="0px" y="0px"
	 width="125.207px" height="39px" viewBox="25.271 7.871 125.207 39" enable-background="new 25.271 7.871 125.207 39"
	 xml:space="preserve">
<g id="Layer_2">
	<polygon points="25.271,7.871 150.478,7.871 150.478,46.872 25.271,46.872 	"/>
</g>
<g id="Layer_1">
	<path fill="#FFFFFF" d="M66.879,21.804v-0.063c1.018-0.318,1.335-0.509,1.909-0.955c1.082-0.891,1.335-2.1,1.335-3.181
		c0-1.273-0.7-2.672-2.099-3.372c-0.891-0.445-2.163-0.636-3.754-0.636h-5.599v0.445h0.191c1.209,0,1.59,1.463,1.59,3.244v9.799
		c0,1.78-0.445,3.181-1.59,3.181h-0.191v0.509h6.808c1.209,0,2.036-0.128,2.799-0.382c1.782-0.572,2.672-2.608,2.672-4.199
		C70.951,24.095,69.296,22.313,66.879,21.804z M62.489,14.233h1.208c1.018,0,1.463,0.063,2.036,0.191
		c1.526,0.445,2.1,1.526,2.1,3.118c0,1.972-1.399,3.944-3.69,3.944h-1.654V14.233z M67.769,28.994
		c-0.636,0.827-1.335,1.146-2.671,1.146h-0.827c-1.399,0-1.781-0.51-1.781-2.673v-5.153h1.527c2.735,0,4.517,2.1,4.517,4.326
		C68.533,27.594,68.279,28.42,67.769,28.994z"/>
	<path fill="#FFFFFF" d="M76.104,28.42c0,1.591,0.191,1.846,1.654,1.846v0.509h-5.344v-0.509h0.509c0.955,0,1.335-0.318,1.335-1.336
		v-6.043c0-0.828-0.382-1.209-1.272-1.209h-0.572v-0.508l3.69-0.319V28.42L76.104,28.42z"/>
	<path fill="#FFFFFF" d="M82.912,22.887c1.845-1.591,2.608-2.037,3.309-2.037c0.572,0,1.272,0.191,1.781,0.573l-0.763,1.845
		l-0.191-0.126c-1.017-0.51-1.527-0.7-2.1-0.7c-0.636,0-1.145,0.254-2.035,1.146v4.835c0,1.526,0.254,1.845,1.336,1.845h0.254v0.509
		h-5.153v-0.509h0.254c1.145,0,1.399-0.318,1.399-1.845v-5.218c0-1.335-0.318-1.654-1.526-1.654h-0.382v-0.445l3.818-0.318
		L82.912,22.887L82.912,22.887z"/>
	<path fill="#FFFFFF" d="M91.564,25.749l2.608-2.29c0.445-0.382,0.699-0.827,0.699-1.145c0-0.508-0.317-0.764-1.145-0.764v-0.445
		h5.28v0.445h-0.445c-1.082,0-1.781,0.382-3.117,1.591l-2.101,1.845l4.073,4.071c0.891,0.891,1.399,1.146,2.354,1.21v0.508H96.59
		l-5.025-4.898v2.545c0,1.591,0.19,1.846,1.59,1.846v0.508h-5.089v-0.508c1.4,0,1.59-0.255,1.59-1.846V15.696
		c0-1.208-0.192-1.399-1.719-1.399v-0.445l3.628-0.317V25.749L91.564,25.749z"/>
	<path fill="#FFFFFF" d="M106.261,20.85c-1.208,0-2.418,0.51-3.245,1.4v-8.78l-3.562,0.254v0.509c1.59,0,1.654,0.127,1.718,1.781
		v14.57c1.272,0.254,2.035,0.254,2.863,0.254c1.654,0,2.864-0.254,3.945-0.827c1.78-0.891,2.799-2.608,2.799-4.453
		C110.778,22.887,108.806,20.85,106.261,20.85z M104.67,30.393c-1.399,0-1.654-0.381-1.654-2.544V22.95
		c0.764-0.955,1.528-1.4,2.481-1.4c1.846,0,3.244,1.781,3.244,4.199C108.741,28.612,107.215,30.393,104.67,30.393z"/>
	<path fill="#FFFFFF" d="M118.095,30.394c-1.019,0-2.163-0.636-2.863-1.718c-0.7-1.018-0.955-1.909-1.019-3.816h7.127v-0.001v-0.382
		c0.062-1.909-1.973-3.626-4.136-3.626c-2.736,0-4.899,2.227-4.899,5.154c0,2.926,2.163,5.026,5.217,5.026
		c1.718,0,2.8-0.572,4.009-2.035v-0.764C120.257,29.758,119.239,30.394,118.095,30.394z M116.95,21.36
		c1.59,0,2.544,1.082,2.544,2.99h-5.218C114.531,22.313,115.359,21.36,116.95,21.36z"/>
	<path fill="#FFFFFF" d="M132.027,24.222h-0.445c-0.381-1.781-1.654-2.926-3.308-2.926c-1.91,0-3.246,1.655-3.246,4.072
		c0,2.672,1.654,4.835,3.627,4.835c1.4,0,2.418-0.573,3.626-1.973v0.7c-0.953,1.271-2.479,2.1-4.261,2.1
		c-2.864,0-4.899-2.036-4.899-4.899c0-2.927,2.227-5.281,5.025-5.281c0.637,0,1.401,0.127,2.1,0.318
		c0.255,0.127,0.445,0.127,0.572,0.127c0.255,0,0.51-0.127,0.7-0.445h0.509V24.222L132.027,24.222z"/>
	<path fill="#FFFFFF" d="M136.29,25.749l2.608-2.29c0.445-0.382,0.7-0.827,0.7-1.145c0-0.508-0.318-0.764-1.146-0.764v-0.445h5.281
		v0.445h-0.445c-1.083,0-1.783,0.382-3.118,1.591l-2.1,1.845l4.072,4.071c0.891,0.891,1.399,1.146,2.354,1.21v0.508h-3.181
		l-5.027-4.898v2.545c0,1.591,0.191,1.846,1.59,1.846v0.508h-5.09v-0.508c1.4,0,1.591-0.255,1.591-1.846V15.696
		c0-1.208-0.191-1.399-1.718-1.399v-0.445l3.627-0.317V25.749L136.29,25.749z"/>
	<path fill="#FFFFFF" d="M61.789,40.255c-0.381,0.445-0.763,0.573-1.336,0.573c-1.018,0-1.59-0.638-1.527-1.591v-2.036
		c0-0.509-0.128-0.636-0.445-0.636h-0.063v-0.191h1.654v0.191h-0.063c-0.318,0-0.382,0.127-0.382,0.636v1.973
		c0,0.51,0,0.699,0.127,0.891c0.191,0.254,0.509,0.382,0.891,0.382c0.509,0,0.827-0.19,1.145-0.637v-2.48v-0.128
		c0-0.381-0.063-0.636-0.381-0.636h-0.064v-0.191h1.655v0.191h-0.127c-0.191,0-0.382,0.127-0.382,0.636v2.672
		c0,0.445,0.063,0.638,0.382,0.638h0.127v0.253h-1.209V40.255L61.789,40.255z"/>
	<path fill="#FFFFFF" d="M68.47,36.565h-0.063c-0.382,0-0.509,0.128-0.509,0.636v3.563h-0.191l-2.99-3.626l0,0v2.672
		c0,0.573,0.127,0.699,0.509,0.699h0.063v0.254h-1.4v-0.254h0.063c0.318,0,0.445-0.191,0.445-0.699v-2.418
		c0-0.572-0.127-0.764-0.636-0.827v-0.192h1.209l2.609,3.246l0,0v-2.227c0-0.699-0.127-0.827-0.445-0.827H67.07v-0.192h1.399
		L68.47,36.565L68.47,36.565z"/>
	<path fill="#FFFFFF" d="M128.974,36.565h-0.064c-0.381,0-0.509,0.128-0.509,0.636v3.563h-0.19l-2.99-3.626l0,0v2.672
		c0,0.573,0.128,0.699,0.509,0.699h0.064v0.254h-1.401v-0.254h0.065c0.317,0,0.445-0.191,0.445-0.699v-2.418
		c0-0.572-0.128-0.764-0.638-0.827v-0.192h1.209l2.607,3.246l0,0v-2.227c0-0.699-0.127-0.827-0.445-0.827h-0.063v-0.192h1.399v0.192
		H128.974z"/>
	<path fill="#FFFFFF" d="M144.815,36.565h-0.063c-0.382,0-0.51,0.128-0.51,0.636v3.563h-0.191l-2.99-3.626l0,0v2.672
		c0,0.573,0.128,0.699,0.511,0.699h0.062v0.254h-1.399v-0.254h0.064c0.316,0,0.445-0.191,0.445-0.699v-2.418
		c0-0.572-0.129-0.764-0.638-0.827v-0.192h1.209l2.608,3.246l0,0v-2.227c0-0.699-0.127-0.827-0.445-0.827h-0.063v-0.192h1.399
		L144.815,36.565L144.815,36.565z"/>
	<path fill="#FFFFFF" d="M70.887,40.763h-1.654v-0.254h0.063c0.318,0,0.445-0.128,0.445-0.637v-2.672
		c-0.063-0.509-0.127-0.637-0.445-0.637h-0.063v-0.191h1.654v0.191h-0.063c-0.254,0-0.382,0.191-0.382,0.637v2.672
		c0,0.509,0.128,0.637,0.382,0.637h0.063V40.763L70.887,40.763z"/>
	<path fill="#FFFFFF" d="M90.546,40.763h-1.653v-0.254h0.064c0.316,0,0.444-0.128,0.444-0.637v-2.672
		c-0.063-0.509-0.128-0.637-0.444-0.637h-0.064v-0.191h1.653v0.191h-0.062c-0.319,0-0.446,0.191-0.446,0.637v2.672
		c0,0.509,0.127,0.637,0.446,0.637h0.062V40.763L90.546,40.763z"/>
	<path fill="#FFFFFF" d="M75.85,36.565c-0.382,0.063-0.573,0.19-0.764,0.827l-1.272,3.435h-0.255l-1.336-3.562
		c-0.19-0.51-0.381-0.638-0.699-0.7v-0.192h1.654v0.192c-0.191,0-0.382,0.128-0.382,0.255c0,0.062,0,0.062,0.127,0.254v0.191
		l0.955,2.354l0.89-2.354c0.063-0.191,0.063-0.318,0.063-0.445c0-0.128-0.063-0.192-0.382-0.255v-0.192h1.4V36.565L75.85,36.565z"/>
	<path fill="#FFFFFF" d="M79.604,37.201h-0.254c-0.063-0.445-0.191-0.573-0.7-0.573h-1.145v1.782h0.955
		c0.508,0,0.508-0.064,0.572-0.383c0,0,0,0,0.063-0.062h0.191v1.145h-0.254c-0.063-0.317-0.063-0.382-0.572-0.382h-0.955v1.464
		c0,0.318,0,0.318,0.445,0.318h0.636c0.636,0,0.7-0.128,0.891-0.637h0.318l-0.254,0.891h-3.182v-0.254l0,0
		c0.317,0,0.445-0.128,0.445-0.637v-2.545V37.2c0-0.508-0.128-0.637-0.445-0.637l0,0v-0.191h3.181L79.604,37.201L79.604,37.201z"/>
	<path fill="#FFFFFF" d="M84.756,40.509c-0.254,0-0.508-0.191-0.827-0.827l-0.318-0.509c-0.254-0.318-0.254-0.382-0.509-0.573
		c0.572-0.128,0.827-0.573,0.827-1.019c0-0.508-0.254-0.826-0.636-1.018c-0.254-0.191-0.573-0.191-1.082-0.191h-1.654v0.191h0.063
		c0.319,0,0.445,0.128,0.445,0.637v2.672c0,0.445-0.127,0.637-0.445,0.637h-0.063v0.254h1.718v-0.254h-0.064
		c-0.318,0-0.445-0.128-0.445-0.637v-1.081h0.191c0.254,0,0.319,0,0.445,0.063c0.128,0.064,0.254,0.19,0.254,0.255
		c0.191,0.127,0.382,0.445,0.636,0.954c0.318,0.509,0.382,0.509,0.509,0.699h1.018v-0.254H84.756z M82.849,38.283
		c-0.127,0.127-0.318,0.191-0.573,0.191h-0.509v-1.846h0.381c0.636,0,1.018,0.382,1.018,0.955
		C83.167,37.901,83.103,38.091,82.849,38.283z"/>
	<path fill="#FFFFFF" d="M87.811,37.392h-0.254v-0.064c-0.064-0.317-0.128-0.508-0.318-0.636c-0.191-0.128-0.382-0.191-0.572-0.191
		c-0.445,0-0.7,0.317-0.7,0.637c0,0.19,0.064,0.382,0.255,0.573c0.127,0.062,0.254,0.19,0.381,0.254
		c0.128,0.062,0.254,0.19,0.509,0.317c0.318,0.19,0.509,0.317,0.636,0.573c0.191,0.19,0.319,0.508,0.319,0.763
		c0,0.7-0.573,1.272-1.337,1.272c-0.191,0-0.318-0.063-0.699-0.127c-0.128-0.064-0.191-0.128-0.254-0.128s-0.063,0.063-0.128,0.191
		h-0.191v-1.272h0.254v0.063c0,0.382,0.063,0.573,0.318,0.764c0.191,0.128,0.382,0.19,0.636,0.19c0.509,0,0.827-0.254,0.827-0.699
		c0-0.19-0.127-0.382-0.382-0.636c-0.127-0.128-0.318-0.255-0.509-0.319c-0.254-0.19-0.445-0.317-0.572-0.381
		c-0.064-0.064-0.191-0.191-0.319-0.318c-0.191-0.254-0.254-0.508-0.254-0.826c0-0.699,0.509-1.145,1.209-1.145
		c0.254,0,0.381,0,0.636,0.062c0.128,0.064,0.191,0.064,0.191,0.128c0.064,0,0.128-0.063,0.128-0.128l0,0h0.191L87.811,37.392
		L87.811,37.392z"/>
	<path fill="#FFFFFF" d="M95.191,36.31l0.062,1.018H95v-0.062c-0.127-0.445-0.254-0.573-0.827-0.573h-0.636v3.181
		c0,0.509,0.128,0.637,0.445,0.637h0.063v0.254h-1.654v-0.254h0.064c0.318,0,0.445-0.128,0.445-0.637v-3.181h-0.573
		c-0.636,0-0.763,0.128-0.891,0.573h-0.19V36.31H95.191L95.191,36.31z"/>
	<path fill="#FFFFFF" d="M99.645,36.565c-0.318,0.063-0.382,0.063-0.573,0.317l-0.063,0.128L97.99,38.6v1.272
		c0,0.509,0.127,0.637,0.381,0.637h0.064v0.254h-1.654v-0.254h0.063c0.318,0,0.445-0.128,0.445-0.637V38.6l-0.891-1.463
		c-0.317-0.445-0.445-0.51-0.763-0.573v-0.191h1.781v0.191h-0.064c-0.254,0-0.381,0.063-0.381,0.191c0,0,0,0.064,0.062,0.191
		l0.064,0.127l0.764,1.081l0.637-0.954c0.063-0.19,0.127-0.317,0.127-0.381c0-0.191-0.063-0.254-0.255-0.254v-0.191h1.273
		L99.645,36.565L99.645,36.565z"/>
	<path fill="#FFFFFF" d="M105.37,36.248c-1.336,0-2.418,0.953-2.418,2.29c0,1.336,1.082,2.354,2.354,2.354
		c1.338,0,2.354-1.018,2.354-2.354C107.66,37.265,106.644,36.248,105.37,36.248z M105.308,40.573c-1.019,0-1.591-0.891-1.591-2.099
		c-0.001-1.146,0.571-1.974,1.653-1.974c1.019,0,1.528,0.892,1.528,2.1C106.898,39.746,106.324,40.573,105.308,40.573z"/>
	<path fill="#FFFFFF" d="M121.34,36.248c-1.336,0-2.355,0.953-2.355,2.29c0,1.336,1.02,2.354,2.355,2.354
		c1.271,0,2.353-1.018,2.353-2.354C123.692,37.265,122.676,36.248,121.34,36.248z M121.275,40.573c-0.953,0-1.526-0.891-1.526-2.099
		c0-1.146,0.572-1.974,1.591-1.974c1.018,0,1.526,0.892,1.526,2.1C122.866,39.746,122.294,40.573,121.275,40.573z"/>
	<path fill="#FFFFFF" d="M137.372,36.248c-1.399,0-2.418,0.953-2.418,2.29c0,1.336,1.019,2.354,2.354,2.354
		c1.335,0,2.354-1.018,2.354-2.354C139.661,37.265,138.644,36.248,137.372,36.248z M137.309,40.573
		c-1.018,0-1.591-0.891-1.591-2.099c0-1.146,0.572-1.974,1.591-1.974s1.59,0.892,1.59,2.1
		C138.898,39.746,138.325,40.573,137.309,40.573z"/>
	<path fill="#FFFFFF" d="M111.351,37.201h-0.255c-0.063-0.445-0.127-0.573-0.637-0.573h-1.018v1.718h0.891
		c0.51,0,0.573-0.063,0.573-0.509h0.255v1.336h-0.255c0-0.445-0.063-0.509-0.573-0.509h-0.891v1.209
		c0,0.509,0.128,0.637,0.445,0.637h0.064v0.254h-1.718v-0.254h0.062c0.319,0,0.445-0.191,0.445-0.701v-2.607
		c0-0.509-0.126-0.637-0.445-0.637h-0.062v-0.191h3.117V37.201L111.351,37.201z"/>
	<path fill="#FFFFFF" d="M118.222,40.763h-3.245v-0.254h0.064c0.317,0,0.445-0.128,0.445-0.764v-2.418v-0.189
		c0-0.445-0.128-0.573-0.445-0.573h-0.064v-0.192h1.654v0.192l0,0c-0.382,0-0.445,0.128-0.445,0.763v2.418V40
		c0,0.381,0,0.445,0.317,0.445h0.255h0.7c0.508,0,0.636-0.128,0.826-0.7h0.254L118.222,40.763L118.222,40.763z"/>
	<path fill="#FFFFFF" d="M132.982,36.626c-0.192-0.127-0.383-0.191-0.51-0.191c-0.318-0.063-0.509-0.063-1.019-0.063h-1.845v0.191
		h0.063c0.318,0,0.445,0.129,0.445,0.637v2.673c0,0.509-0.127,0.637-0.445,0.637h-0.063v0.254h0.001h2.034
		c0.51,0,0.893-0.062,1.21-0.191c0.826-0.316,1.336-1.082,1.336-1.973C134.19,37.773,133.681,37.009,132.982,36.626z
		 M132.982,39.936c-0.319,0.382-0.701,0.573-1.338,0.573h-0.316c-0.445,0-0.51-0.191-0.51-0.764v-3.117h0.572
		c0.573,0,0.891,0.064,1.209,0.254c0.509,0.318,0.764,0.955,0.764,1.718C133.363,39.173,133.3,39.619,132.982,39.936z"/>
	<path fill="#FFFFFF" d="M76.104,17.606c-0.954,0-1.781-0.764-1.781-1.781c0-0.382,0.127-0.699,0.318-1.018l0,0
		c-0.827,0.128-1.463,0.891-1.463,1.782c0,1.018,0.764,1.781,1.718,1.781c0.636,0,1.145-0.318,1.527-0.764H76.104L76.104,17.606z"/>
	<path fill="#FFFFFF" d="M37.804,21.295c0-0.254-0.127-0.445-0.127-0.445c-0.572-0.127-1.018-0.954-0.127-1.463
		c0.891-0.509,0.763-0.954,0.763-0.954h-1.082c-0.573,0-0.573-0.191-0.573-0.191s0,0.191-0.573,0.191h-1.082
		c0,0-0.128,0.445,0.764,0.954c0.891,0.509,0.445,1.335-0.063,1.463c0,0-0.191,0.191-0.191,0.445H37.804L37.804,21.295z"/>
	<path fill="#FFFFFF" d="M36.659,18.051c0,0-0.827-0.7-0.445-1.209c0,0,0.382-0.572,0.318-1.081c0,0,0.827,1.336,0.445,1.845
		C36.659,18.178,36.659,18.051,36.659,18.051L36.659,18.051z"/>
	<path fill="#FFFFFF" d="M50.655,21.232c0-0.191-0.191-0.382-0.191-0.382c-0.508-0.19-0.955-1.018-0.063-1.526
		c0.891-0.509,0.699-0.891,0.699-0.891h-1.018c-0.573,0-0.573-0.254-0.573-0.254s-0.063,0.254-0.572,0.254h-1.082
		c0,0-0.128,0.382,0.763,0.891c0.891,0.508,0.382,1.336-0.127,1.526c0,0-0.128,0.191-0.128,0.382H50.655L50.655,21.232z"/>
	<path fill="#FFFFFF" d="M49.51,17.987c0,0-0.827-0.636-0.445-1.209c0,0,0.382-0.572,0.318-1.018c0,0,0.827,1.272,0.445,1.845
		C49.447,18.115,49.51,17.987,49.51,17.987L49.51,17.987z"/>
	<path fill="#FFFFFF" d="M44.485,14.488c0,0-0.573,0.191-0.828,0.318c0,0-0.382-0.191-1.335-0.191c-0.891,0-1.272,0.191-1.272,0.191
		c-0.254-0.127-0.827-0.318-0.827-0.318c-0.063,0.636,0.382,0.891,0.382,0.891c-0.063,0.191-0.191,0.509-0.127,0.954
		c0.063,0.7,0.763,0.764,1.272,0.637c0.573-0.128,0.573,0.382,0.573,0.382s0.063-0.509,0.636-0.382
		c0.509,0.127,1.208,0.063,1.272-0.637c0.064-0.445-0.063-0.763-0.127-0.954C44.103,15.379,44.548,15.125,44.485,14.488z
		 M42.003,16.27c-1.081,0.254-0.954-0.573-0.954-0.573s0.063-0.063,0.572,0C42.131,15.761,42.003,16.27,42.003,16.27z M42.703,16.27
		c0,0-0.191-0.509,0.381-0.573c0.573-0.064,0.573,0,0.573,0S43.849,16.588,42.703,16.27z"/>
	<path fill="#FFFFFF" d="M44.294,17.351c-0.318,0.572-1.273,0.381-1.464,0.317c-0.445,0-0.508,0.445-0.508,0.509
		c0-0.063,0-0.509-0.445-0.509c0.126,0-1.272,0.254-1.4-0.382l-0.063-0.126c0,0-0.573,1.082,0.318,2.29
		c0.764,1.018,1.146,1.527,1.209,2.354c0.127,0.891-0.445,0.7-0.891,0.763c-0.509,0-0.445,0.573-0.445,0.573
		c0.063-0.063,0.382-0.063,0.382-0.063c0.954,0.318,1.082,0.063,1.272-0.318c0.191-0.382,0.7-0.509,0.827-0.827
		c0.063-0.127-0.318-0.318-0.445-0.382c-0.063-0.063,0-0.191,0.127-0.127c0.191,0.063,0.254-0.127,0.254-0.191
		c-0.063-0.127-0.191-0.254-0.254-0.318c-0.063-0.064-0.191-0.318,0.063-0.191c0.382,0.127,0.382-0.127,0.382-0.318
		c0,0,0.254,0.191,0.445,1.146c0.191,0.954,0.127,0.89-0.509,1.018c-0.636,0.063-0.445,0.7-0.445,0.7
		c0.063-0.126,0.191-0.191,0.318-0.191s0.191,0,0.573,0.063c0.445,0,0.763-0.127,1.272-0.127c0.445,0,0.699,0.127,0.699,0.063
		c0.128-0.445-0.381-0.509-0.699-0.572c-0.382,0-0.573-0.254-0.318-0.445c0.191-0.128,0.191-0.128,0.126-0.254
		c-0.126-0.128-0.317-0.254-0.254-0.319c0.063-0.126,0.127,0.063,0.254-0.126c0.064-0.127-0.254-0.382-0.254-0.382
		c0.254-0.063,0.509-0.128,0.636,0.254c0.127,0.317,0.127,0.382,0.254,0.636c0.064,0.254,0.191,0.254,0.509,0.191
		c0.508-0.128,0.891-0.128,0.891-0.128c-0.573-1.527-0.7-1.399-0.7-1.399c-2.354,0.317-3.054-1.336-3.054-1.336l0.063-0.254
		c1.336,1.209,2.863,0.891,2.863,0.891C45.248,17.542,44.548,17.542,44.294,17.351L44.294,17.351z"/>
	<path fill="#FFFFFF" d="M32.587,13.534V24.54c0.382,6.807,0.7,11.07,10.498,16.161c1.781-0.828,3.436-1.909,5.026-3.055
		c4.645-3.181,5.408-8.59,5.408-13.615l0.064-10.498H32.587z M40.095,38.35c-1.404-0.899-2.523-1.784-3.418-2.676h3.418V38.35z
		 M40.095,31.92h-3.5v3.672c-1.182-1.193-1.964-2.4-2.496-3.672h2.496v-3.754H33.16v-3.69h3.435v3.69h3.5V31.92z M45.248,38.855
		L43.021,40l-2.164-1.209V24.477h4.391V38.855z M49.51,35.831c-0.453,0.447-0.958,0.869-1.522,1.256
		c-0.667,0.48-1.346,0.947-2.04,1.39v0.001h0c0,0,0,0,0-0.001v-2.803h3.562V35.831z M53.01,28.038
		c-0.006,0.044-0.012,0.085-0.018,0.128h-3.481v3.753h2.528c-0.54,1.372-1.303,2.646-2.375,3.755h-0.153v-3.755h-3.563v-3.753h3.563
		v-3.754h3.5V28.038z M53.232,23.649H32.81l0.063-9.787h20.485L53.232,23.649z"/>
	<g>
		<path fill="#FFFFFF" d="M44.103,35.482l-0.446,0.026v-7.533c0,0-0.063-1.463-0.254-2.354c-0.127,0.572-0.254,1.336-0.254,2.354
			v7.564l-0.127,0.008l-0.318-0.02v-7.553c0.064-1.462,0.381-2.672,0.572-2.926c-0.063-0.254-0.063-0.254-0.191-0.254
			c-0.318,0-0.763,2.608-0.763,3.18c0,0.549,0,6.979,0,7.53l-0.382-0.023l-0.572-0.188v0.634l0.955,0.256h0.063
			c0,0.064,0,0.191,0,0.191c0,0.063,0,0.191,0.128,0.191c0.191,0,0.508,0,0.508,0s0.382,0,0.573,0c0.126,0,0.126-0.128,0.126-0.191
			c0,0,0-0.127,0-0.191l1.018-0.256v-0.634L44.103,35.482z"/>
		<path fill="#FFFFFF" d="M43.53,36.628h-0.954c0,0-0.046,1.22,0.021,1.846h-0.275c0,0,0,0.826,0.699,0.826
			c0.7,0,0.7-0.826,0.7-0.826h-0.252C43.576,37.848,43.53,36.628,43.53,36.628z"/>
	</g>
</g>
</svg>
