<svg xmlns="http://www.w3.org/2000/svg" width="150" height="43.354" viewBox="0 0 150 43.354"><g fill="#fff"><path d="M52.394 20.018v-17.963h6.596c1.418 0 2.343.217 3.108.572 1.825.873 2.645 2.535 2.645 4.061 0 1.719-.711 2.888-2.156 3.763v.054c2.072.461 3.326 1.905 3.326 4.088 0 2.424-1.471 4.28-3.979 5.043-.901.272-1.881.381-3.435.381l-6.105.001m8.071-14.885c-.411-.189-.901-.299-1.691-.299h-3.298v4.689h3.107c.981 0 1.581-.165 2.016-.411.711-.406 1.064-1.088 1.064-1.961 0-.9-.41-1.634-1.198-2.018m.953 7.442c-.437-.189-.98-.297-2.046-.297h-3.896v4.959h3.679c1.117 0 1.773-.137 2.29-.38.874-.434 1.309-1.202 1.309-2.235 0-.929-.492-1.664-1.336-2.047zm22.471-10.52h3.08v17.963h-3.08zm22.363 0h3.077v17.963h-3.077zm13.028-.164c1.937 0 3.9.465 4.986 1.01l-.051 2.943c-1.555-.762-3.137-1.256-5.018-1.256-1.688 0-3.135.521-3.135 1.938 0 3.681 9.244 2.208 9.244 8.286 0 3.353-2.838 5.476-6.955 5.476-2.803 0-4.742-.79-6.077-1.603l1.28-2.508c1.093.681 2.838 1.417 4.906 1.417 1.857 0 3.572-.711 3.572-2.343 0-3.849-9.156-2.156-9.156-8.289.001-3.273 2.617-5.071 6.404-5.071zm20.609 18.127v-7.74h-8.724v7.74h-3.081v-17.963h3.081v7.36h8.724v-7.36h3.08v17.963zm-80.693 3.157c1.961 0 3.459.382 4.988 1.062l-.929 2.617c-.872-.407-2.017-.898-3.732-.898-3.409 0-5.533 2.889-5.533 6.402 0 3.549 1.987 6.434 5.533 6.434 1.715 0 2.86-.486 3.732-.899l.929 2.621c-1.529.677-3.027 1.059-4.988 1.059-5.373 0-8.45-3.759-8.45-9.157 0-5.042 3.077-9.241 8.45-9.241zm67.398 0c1.96 0 3.458.382 4.984 1.062l-.926 2.617c-.873-.407-2.018-.898-3.736-.898-3.408 0-5.532 2.889-5.532 6.402 0 3.549 1.989 6.434 5.532 6.434 1.719 0 2.863-.486 3.736-.899l.926 2.621c-1.527.677-3.025 1.059-4.984 1.059-5.373 0-8.454-3.759-8.454-9.157 0-5.042 3.081-9.241 8.454-9.241zm-44.802 9.129c0 5.399-3.436 9.27-8.506 9.27-5.123 0-8.503-3.734-8.503-9.13 0-5.397 3.435-9.269 8.503-9.269 5.127 0 8.506 3.735 8.506 9.129m-3.247.054c0-3.922-2.232-6.43-5.26-6.43-3.024 0-5.261 2.508-5.261 6.459 0 3.928 2.236 6.433 5.261 6.433 3.028 0 5.26-2.505 5.26-6.462zm5.329 2.182v-11.201h3.082v11.311c0 2.996 1.607 4.114 4.168 4.114 2.617 0 4.171-1.117 4.171-4.114v-11.311h3.081v11.201c0 4.881-2.781 7.032-7.305 7.032-4.444 0-7.197-2.151-7.197-7.032zm20.293-6.32h-.055c.055.597.082 1.553.082 2.397v10.684h-3.082v-17.96h3.326l8.338 12.236h.058c-.058-.602-.081-1.554-.081-2.4v-9.836h3.076v17.96h-2.721l-8.941-13.081zm29.832-4.881h3.075v17.963h-3.075zm5.89 17.963v-17.963h3.08v15.18h7.031v2.783zm-15.912-38.516"/><path d="M103.897 2.058h-14.578v2.807h5.746v15.153h3.082v-15.153h5.75zm-25.551 17.96c-2.613-5.421-3.297-6.95-4.388-6.95h-2.861v6.95h-3.079v-17.96h6.078c4.632 0 6.403 2.453 6.403 5.177 0 2.4-1.39 4.007-3.326 4.604v.029c.818.464 1.689 2.154 4.688 8.149l-3.515.001zm-4.059-15.181h-3.189v5.453h3.052c2.209 0 3.246-1.146 3.246-2.781-.001-1.473-.956-2.672-3.109-2.672z"/></g><circle fill="#fff" cx="33.08" cy="10.273" r="10.273"/><circle fill="#fff" cx="10.273" cy="10.273" r="10.273"/><path fill="#fff" d="M43.354 33.081c0 5.674-4.6 10.273-10.274 10.273-5.674 0-10.273-4.6-10.273-10.273s4.6-10.273 10.273-10.273 10.274 4.599 10.274 10.273zm-22.808 0c0 5.674-4.599 10.273-10.273 10.273-5.673 0-10.273-4.599-10.273-10.273s4.6-10.273 10.273-10.273c5.674 0 10.273 4.599 10.273 10.273z"/></svg>