<svg xmlns="http://www.w3.org/2000/svg" width="243.65" height="115" viewBox="0 0 374.681 176.885"><g fill="#fff"><path d="M201.498 114.07c-.234-1.498-1.19-2.3-2.715-2.3-2.354 0-3.128 2.378-3.128 4.343 0 1.912.75 4.213 3.05 4.213 1.706 0 2.69-1.086 2.92-2.715h3.543c-.465 3.543-2.92 5.48-6.436 5.48-4.035 0-6.748-2.842-6.748-6.85 0-4.16 2.48-7.237 6.824-7.237 3.154 0 6.05 1.654 6.28 5.066h-3.59zM209.87 116.94c.103 2.325 1.24 3.386 3.282 3.386 1.475 0 2.663-.904 2.896-1.732h3.23c-1.032 3.154-3.23 4.498-6.255 4.498-4.213 0-6.824-2.895-6.824-7.03 0-4.007 2.765-7.058 6.823-7.058 4.55 0 6.746 3.826 6.488 7.936h-9.64zm5.972-2.327c-.336-1.86-1.14-2.844-2.922-2.844-2.326 0-2.998 1.81-3.05 2.843h5.972zM221.293 109.365h3.49v1.86h.077c.93-1.5 2.532-2.222 4.083-2.222 3.904 0 4.887 2.197 4.887 5.506v8.22h-3.67v-7.548c0-2.198-.648-3.283-2.353-3.283-1.99 0-2.845 1.11-2.845 3.824v7.006h-3.67v-13.365zM240.703 109.365h2.688v2.455h-2.687v6.618c0 1.24.31 1.552 1.552 1.552.388 0 .75-.026 1.137-.104v2.87c-.62.103-1.422.128-2.146.128-2.25 0-4.213-.516-4.213-3.18v-7.885h-2.224v-2.456h2.223v-4.007h3.67v4.008zM244.76 109.365h3.49v2.482h.05c.674-1.68 2.483-2.844 4.268-2.844.258 0 .568.052.8.13v3.41c-.336-.076-.88-.128-1.316-.128-2.69 0-3.62 1.94-3.62 4.29v6.024h-3.67v-13.365zM253.754 113.477c.208-3.44 3.283-4.473 6.28-4.473 2.665 0 5.87.594 5.87 3.8v6.954c0 1.215.13 2.43.465 2.973h-3.724c-.13-.412-.232-.853-.258-1.292-1.164 1.215-2.87 1.654-4.498 1.654-2.533 0-4.55-1.266-4.55-4.006 0-3.024 2.274-3.75 4.55-4.06 2.248-.335 4.342-.26 4.342-1.757 0-1.58-1.085-1.812-2.378-1.812-1.396 0-2.3.57-2.43 2.018h-3.67zm8.478 2.713c-.62.542-1.912.57-3.05.775-1.138.23-2.17.62-2.17 1.964 0 1.37 1.058 1.706 2.247 1.706 2.868 0 2.972-2.275 2.972-3.077v-1.37zM268.46 104.273h3.67v18.457h-3.67v-18.457zM195.242 143.832c.025 1.603 1.37 2.25 2.817 2.25 1.06 0 2.403-.415 2.403-1.707 0-1.11-1.525-1.5-4.162-2.068-2.12-.465-4.24-1.215-4.24-3.567 0-3.412 2.947-4.29 5.818-4.29 2.92 0 5.61.98 5.894 4.265h-3.49c-.103-1.423-1.188-1.81-2.508-1.81-.827 0-2.042.155-2.042 1.24 0 1.32 2.068 1.5 4.162 1.99 2.146.492 4.24 1.268 4.24 3.748 0 3.516-3.05 4.654-6.102 4.654-3.102 0-6.127-1.164-6.28-4.705h3.49zM205.734 138.92c.206-3.438 3.283-4.47 6.28-4.47 2.663 0 5.87.593 5.87 3.798v6.955c0 1.215.127 2.43.463 2.973h-3.72c-.132-.415-.233-.854-.26-1.294-1.163 1.215-2.87 1.655-4.498 1.655-2.535 0-4.55-1.268-4.55-4.007 0-3.024 2.274-3.75 4.55-4.06 2.248-.336 4.342-.258 4.342-1.757 0-1.577-1.086-1.81-2.38-1.81-1.395 0-2.3.568-2.43 2.016h-3.668zm8.48 2.715c-.622.543-1.913.568-3.052.775-1.137.232-2.17.62-2.17 1.965 0 1.37 1.06 1.707 2.247 1.707 2.87 0 2.973-2.275 2.973-3.077v-1.37zM224.11 132.742h-3.67v-3.023h3.67v3.022zm-3.67 2.07h3.67v13.364h-3.67V134.81zM226.617 134.81h3.49v1.862h.077c.93-1.5 2.532-2.223 4.084-2.223 3.903 0 4.886 2.195 4.886 5.505v8.22h-3.67v-7.548c0-2.197-.647-3.283-2.353-3.283-1.99 0-2.844 1.11-2.844 3.826v7.006h-3.67V134.81zM246.207 134.81h2.69v2.456h-2.69v6.617c0 1.24.31 1.552 1.552 1.552.388 0 .75-.025 1.137-.103v2.87c-.62.103-1.422.128-2.145.128-2.25 0-4.215-.517-4.215-3.18v-7.885h-2.223v-2.455h2.223v-4.007h3.67v4.008zM257.165 134.81h3.464v1.81h.052c.956-1.37 2.352-2.17 4.084-2.17 1.68 0 3.18.62 3.902 2.223.777-1.164 2.172-2.223 4.034-2.223 2.843 0 4.886 1.317 4.886 4.78v8.946h-3.67V140.6c0-1.783-.156-3.256-2.25-3.256-2.068 0-2.455 1.705-2.455 3.387v7.446h-3.672v-7.497c0-1.553.105-3.336-2.222-3.336-.724 0-2.482.465-2.482 3.076v7.756h-3.67V134.81zM279.884 138.92c.206-3.438 3.283-4.47 6.282-4.47 2.662 0 5.867.593 5.867 3.798v6.955c0 1.215.13 2.43.465 2.973h-3.722c-.13-.415-.232-.854-.26-1.294-1.162 1.215-2.868 1.655-4.497 1.655-2.534 0-4.55-1.268-4.55-4.007 0-3.024 2.275-3.75 4.55-4.06 2.25-.336 4.343-.258 4.343-1.757 0-1.577-1.087-1.81-2.38-1.81-1.395 0-2.3.568-2.43 2.016h-3.67zm8.48 2.715c-.622.543-1.914.568-3.052.775-1.137.232-2.17.62-2.17 1.965 0 1.37 1.06 1.707 2.246 1.707 2.87 0 2.975-2.275 2.975-3.077v-1.37zM294.486 134.81h3.49v2.48h.05c.673-1.68 2.482-2.84 4.267-2.84.258 0 .568.05.8.128v3.41c-.335-.076-.878-.128-1.316-.128-2.688 0-3.62 1.94-3.62 4.29v6.025h-3.67V134.81zM309.348 134.81h2.688v2.456h-2.688v6.617c0 1.24.31 1.552 1.552 1.552.388 0 .75-.025 1.137-.103v2.87c-.62.103-1.42.128-2.146.128-2.247 0-4.212-.517-4.212-3.18v-7.885h-2.224v-2.455h2.224v-4.007h3.67v4.008zM317.282 132.742h-3.67v-3.023h3.67v3.022zm-3.67 2.07h3.67v13.364h-3.67V134.81zM319.79 134.81h3.49v1.862h.075c.932-1.5 2.534-2.223 4.086-2.223 3.903 0 4.886 2.195 4.886 5.505v8.22h-3.67v-7.548c0-2.197-.647-3.283-2.354-3.283-1.99 0-2.844 1.11-2.844 3.826v7.006h-3.67V134.81zM337.44 143.832c.026 1.603 1.37 2.25 2.818 2.25 1.06 0 2.404-.415 2.404-1.707 0-1.11-1.526-1.5-4.162-2.068-2.12-.465-4.24-1.215-4.24-3.567 0-3.412 2.948-4.29 5.817-4.29 2.92 0 5.61.98 5.894 4.265h-3.488c-.104-1.423-1.19-1.81-2.508-1.81-.827 0-2.042.155-2.042 1.24 0 1.32 2.068 1.5 4.162 1.99 2.146.492 4.24 1.268 4.24 3.748 0 3.516-3.05 4.654-6.103 4.654-3.1 0-6.124-1.164-6.28-4.705h3.49zM205.963 46.793h-3.488v-1.86h-.078c-.93 1.5-2.532 2.222-4.082 2.222-3.9 0-4.885-2.196-4.885-5.504v-8.216h3.67v7.545c0 2.195.646 3.28 2.352 3.28 1.99 0 2.843-1.11 2.843-3.823v-7.002h3.67v13.358zM208.96 33.435h3.49v1.86h.077c.93-1.5 2.53-2.222 4.082-2.222 3.9 0 4.883 2.196 4.883 5.504v8.217h-3.67V39.25c0-2.197-.645-3.283-2.35-3.283-1.99 0-2.843 1.11-2.843 3.824v7.003h-3.67V33.435zM228.188 31.367h-3.67v-3.023h3.67v3.023zm-3.67 2.068h3.67v13.36h-3.67v-13.36zM238.292 46.793h-4.083l-4.575-13.36h3.85l2.818 9.122h.05l2.817-9.12h3.643l-4.52 13.358zM246.846 41.005c.103 2.326 1.24 3.385 3.28 3.385 1.474 0 2.662-.905 2.894-1.73h3.23c-1.033 3.15-3.23 4.495-6.252 4.495-4.213 0-6.822-2.894-6.822-7.028 0-4.005 2.766-7.054 6.822-7.054 4.548 0 6.744 3.824 6.484 7.933h-9.636zm5.967-2.325c-.336-1.86-1.136-2.842-2.92-2.842-2.324 0-2.997 1.81-3.048 2.842h5.968zM258.217 33.435h3.488v2.48h.05c.673-1.68 2.482-2.842 4.265-2.842.26 0 .568.052.8.13v3.41c-.335-.078-.878-.13-1.315-.13-2.688 0-3.62 1.94-3.62 4.29v6.02h-3.667V33.436zM270.775 42.453c.025 1.602 1.37 2.248 2.815 2.248 1.06 0 2.403-.413 2.403-1.704 0-1.11-1.524-1.5-4.16-2.067-2.12-.466-4.236-1.215-4.236-3.566 0-3.41 2.945-4.29 5.812-4.29 2.92 0 5.606.982 5.89 4.264h-3.488c-.102-1.42-1.188-1.81-2.505-1.81-.827 0-2.042.156-2.042 1.24 0 1.318 2.067 1.5 4.16 1.99 2.145.49 4.237 1.266 4.237 3.747 0 3.514-3.048 4.65-6.098 4.65-3.1 0-6.124-1.162-6.278-4.702h3.49zM285.092 31.367h-3.67v-3.023h3.67v3.023zm-3.67 2.068h3.67v13.36h-3.67v-13.36zM292.56 33.435h2.687v2.455h-2.688v6.615c0 1.24.31 1.55 1.55 1.55.39 0 .75-.025 1.138-.103v2.868c-.62.103-1.42.13-2.146.13-2.247 0-4.21-.518-4.21-3.18v-7.88h-2.224v-2.454h2.223V29.43h3.67v4.005zM304.11 48.473c-.802 2.144-2.067 3.023-4.6 3.023-.75 0-1.497-.052-2.248-.13v-3.022c.698.052 1.42.155 2.146.13 1.266-.13 1.68-1.448 1.266-2.508l-4.703-12.532h3.93l3.022 9.147h.053l2.918-9.146h3.8l-5.582 15.04zM199.322 58.518c4.213 0 6.924 2.79 6.924 7.054 0 4.238-2.71 7.028-6.924 7.028-4.186 0-6.898-2.79-6.898-7.028 0-4.263 2.713-7.054 6.898-7.054zm0 11.317c2.506 0 3.256-2.145 3.256-4.264 0-2.144-.75-4.288-3.256-4.288-2.48 0-3.23 2.145-3.23 4.29 0 2.118.75 4.263 3.23 4.263zM209.014 61.334h-2.195V58.88h2.194v-1.034c0-2.352 1.474-4.057 4.47-4.057.647 0 1.317.077 1.94.103v2.74c-.44-.052-.88-.078-1.345-.078-.982 0-1.396.414-1.396 1.524v.8h2.53v2.455h-2.53V72.24h-3.67V61.333zM227.62 58.88h2.687v2.454h-2.688v6.615c0 1.24.31 1.55 1.55 1.55.39 0 .75-.026 1.137-.104v2.868c-.62.104-1.42.13-2.145.13-2.248 0-4.212-.518-4.212-3.18v-7.88h-2.222V58.88h2.222v-4.005h3.67v4.004zM232.297 53.79h3.67v6.95h.078c.93-1.5 2.532-2.223 3.9-2.223 3.902 0 4.885 2.196 4.885 5.504v8.218h-3.67v-7.545c0-2.196-.646-3.282-2.352-3.282-1.99 0-2.842 1.112-2.842 3.826v7.002h-3.67v-18.45zM250.076 66.45c.103 2.326 1.24 3.385 3.28 3.385 1.474 0 2.662-.905 2.894-1.73h3.23c-1.033 3.15-3.23 4.495-6.252 4.495-4.213 0-6.822-2.894-6.822-7.028 0-4.005 2.766-7.054 6.822-7.054 4.548 0 6.744 3.825 6.484 7.933h-9.636zm5.968-2.325c-.336-1.86-1.136-2.842-2.92-2.842-2.324 0-2.997 1.81-3.048 2.842h5.968zM266.564 62.988c.207-3.437 3.28-4.47 6.28-4.47 2.66 0 5.864.593 5.864 3.797v6.95c0 1.216.128 2.43.464 2.973h-3.72c-.13-.414-.232-.853-.26-1.292-1.162 1.214-2.867 1.654-4.495 1.654-2.532 0-4.548-1.266-4.548-4.005 0-3.023 2.273-3.747 4.547-4.057 2.247-.336 4.34-.258 4.34-1.757 0-1.575-1.084-1.808-2.376-1.808-1.395 0-2.3.568-2.43 2.016h-3.666zm8.475 2.713c-.622.543-1.913.57-3.05.776-1.137.232-2.17.62-2.17 1.963 0 1.37 1.06 1.704 2.246 1.704 2.87 0 2.973-2.273 2.973-3.074V65.7zM280.7 58.88h3.487v2.48h.053c.67-1.68 2.48-2.843 4.263-2.843.258 0 .567.052.8.13v3.41c-.336-.077-.88-.13-1.316-.13-2.688 0-3.62 1.94-3.62 4.29v6.02H280.7V58.88zM296.023 58.88h2.687v2.454h-2.687v6.615c0 1.24.31 1.55 1.55 1.55.388 0 .75-.026 1.137-.104v2.868c-.62.104-1.42.13-2.144.13-2.25 0-4.213-.518-4.213-3.18v-7.88h-2.22V58.88h2.22v-4.005h3.67v4.004zM302.923 67.897c.026 1.602 1.37 2.248 2.815 2.248 1.06 0 2.404-.413 2.404-1.705 0-1.11-1.525-1.5-4.16-2.067-2.12-.465-4.237-1.214-4.237-3.565 0-3.41 2.946-4.29 5.813-4.29 2.92 0 5.607.982 5.89 4.264h-3.487c-.102-1.42-1.187-1.81-2.505-1.81-.827 0-2.042.156-2.042 1.24 0 1.318 2.067 1.5 4.16 1.99 2.146.49 4.237 1.267 4.237 3.747 0 3.513-3.048 4.65-6.098 4.65-3.1 0-6.123-1.163-6.278-4.703h3.49zM193.534 78.836h3.67v18.45h-3.67v-18.45zM205.988 83.565c4.213 0 6.926 2.79 6.926 7.054 0 4.236-2.713 7.027-6.926 7.027-4.186 0-6.897-2.79-6.897-7.028 0-4.265 2.713-7.055 6.898-7.055zm0 11.318c2.508 0 3.257-2.145 3.257-4.264 0-2.146-.75-4.29-3.257-4.29-2.48 0-3.23 2.144-3.23 4.29.002 2.118.752 4.263 3.23 4.263zM214.905 83.927h3.488v1.86h.077c.93-1.5 2.533-2.222 4.082-2.222 3.902 0 4.885 2.196 4.885 5.503v8.218h-3.67V89.74c0-2.196-.645-3.28-2.352-3.28-1.99 0-2.842 1.11-2.842 3.823v7.003h-3.67v-13.36zM239.376 95.58h-.052c-.853 1.447-2.352 2.067-4.057 2.067-4.03 0-5.994-3.462-5.994-7.157 0-3.592 1.99-6.925 5.916-6.925 1.576 0 3.126.672 3.954 1.99h.05v-6.718h3.67v18.45h-3.488V95.58zm-3.203-9.25c-2.403 0-3.23 2.067-3.23 4.264 0 2.093.956 4.29 3.23 4.29 2.43 0 3.15-2.12 3.15-4.316 0-2.17-.773-4.238-3.15-4.238zM251.73 83.565c4.21 0 6.924 2.79 6.924 7.054 0 4.236-2.713 7.027-6.925 7.027-4.188 0-6.9-2.79-6.9-7.028 0-4.265 2.713-7.055 6.9-7.055zm0 11.318c2.505 0 3.254-2.145 3.254-4.264 0-2.146-.75-4.29-3.255-4.29-2.482 0-3.23 2.144-3.23 4.29 0 2.118.748 4.263 3.23 4.263zM260.645 83.927h3.488v1.86h.078c.932-1.5 2.534-2.222 4.084-2.222 3.9 0 4.884 2.196 4.884 5.503v8.218h-3.67V89.74c0-2.196-.646-3.28-2.35-3.28-1.99 0-2.844 1.11-2.844 3.823v7.003h-3.67v-13.36zM71.713 97.28h-12.07V90.84h-.27c-3.218 5.186-8.762 7.69-14.127 7.69-13.502 0-16.9-7.603-16.9-19.047V51.05h12.7v26.11c0 7.602 2.233 11.357 8.134 11.357 6.885 0 9.837-3.845 9.837-13.234V51.05h12.695v46.23zM80.115 65.27c.716-11.893 11.356-15.47 21.73-15.47 9.208 0 20.295 2.056 20.295 13.144v24.053c0 4.203.447 8.405 1.61 10.282h-12.876c-.447-1.43-.805-2.95-.893-4.47-4.023 4.202-9.925 5.722-15.56 5.722-8.76 0-15.736-4.382-15.736-13.86 0-10.462 7.87-12.966 15.737-14.038 7.78-1.163 15.023-.894 15.023-6.082 0-5.453-3.755-6.258-8.226-6.258-4.83 0-7.958 1.966-8.405 6.974H80.115zm29.33 9.387c-2.147 1.878-6.618 1.968-10.553 2.683-3.934.805-7.51 2.146-7.51 6.796 0 4.738 3.666 5.9 7.78 5.9 9.923 0 10.282-7.868 10.282-10.64v-4.74zM131.885 33.438h12.698V97.28h-12.698V33.438zM172.657 65.627H158.62v-13.77h14.037v13.77zM158.62 83.51h14.037v13.77H158.62V83.51z"/></g></svg>