<?xml version="1.0" encoding="utf-8"?>
<!-- Generator: Adobe Illustrator 16.0.1, SVG Export Plug-In . SVG Version: 6.00 Build 0)  -->
<!DOCTYPE svg PUBLIC "-//W3C//DTD SVG 1.1//EN" "http://www.w3.org/Graphics/SVG/1.1/DTD/svg11.dtd">
<svg version="1.1" xmlns="http://www.w3.org/2000/svg" xmlns:xlink="http://www.w3.org/1999/xlink" x="0px" y="0px"
	 width="144.522px" height="87.163px" viewBox="0 0 144.522 87.163" enable-background="new 0 0 144.522 87.163"
	 xml:space="preserve">
<g id="BG" display="none">
	<rect x="-150.144" y="-16.429" display="inline" fill="#E5332A" width="320" height="125.334"/>
</g>
<g id="Layer_1" display="none">
	<g display="inline">
		<defs>
			<rect id="SVGID_1_" x="59.856" y="-72.404" width="60" height="52.898"/>
		</defs>
		<clipPath id="SVGID_2_">
			<use xlink:href="#SVGID_1_"  overflow="visible"/>
		</clipPath>
		<path clip-path="url(#SVGID_2_)" fill="#1D1D1B" d="M95.29-61.365c0-8.213-2.453-9.46-5.473-9.46c-2.946,0-5.398,1.1-5.398,9.46
			c0,8.359,2.452,9.092,5.398,9.092S95.29-53.153,95.29-61.365 M84.47-30.042c-3.752,0-4.861,2.772-4.861,4.827
			c0,2.969,2.675,5.709,10.471,5.709c8.867,0,11.272-2.496,11.272-5.745c0-2.833-2.134-4.792-5.717-4.792H84.47z M77.343-72.106
			c-10.32,4.743-17.487,15.17-17.487,27.272c0,8.212,3.3,15.651,8.646,21.068c-0.011-0.146-0.02-0.292-0.02-0.439
			c0-5.354,5.221-7.331,9.854-8.284v-0.003c-4.411-0.954-6.543-4.105-6.543-7.33c0-4.325,4.837-8.055,7.191-9.665l-0.278-0.153
			c-4.119-2.268-6.84-6.3-6.84-11.726C71.866-66.018,73.892-69.676,77.343-72.106 M119.856-44.834
			c0-12.362-7.479-22.976-18.157-27.57c3.571,2.329,5.739,5.896,5.905,10.468c0.057,0.352,0.09,0.691,0.09,1.01
			c0,8.946-7.279,13.701-17.877,13.701c-2.725,0-4.564-0.146-6.773-0.805c-1.031,0.731-1.841,1.906-1.841,3.007
			c0,1.469,1.325,2.644,2.944,2.644h14.725c9.121,0,13.605,3.735,13.605,11.792c0,2.69-0.534,5.104-1.642,7.192
			C116.4-28.839,119.856-36.433,119.856-44.834"/>
	</g>
</g>
<g id="Layer_2" display="none">
	<circle display="inline" fill="#39A835" cx="114.522" cy="27.571" r="30"/>
</g>
<g id="Layer_3">
	<g>
		<path fill="#1D1D1B" d="M103.65,22.918l-0.279-0.153c-4.117-2.268-6.839-6.3-6.839-11.727c0-4.652,2.025-8.311,5.477-10.741
			c-10.32,4.743-17.486,15.17-17.486,27.272c0,8.212,3.3,15.652,8.646,21.068c-0.012-0.145-0.021-0.291-0.021-0.438
			c0-5.355,5.221-7.332,9.854-8.285v-0.004c-4.411-0.953-6.543-4.104-6.543-7.329C96.459,28.258,101.296,24.527,103.65,22.918z"/>
		<path fill="#1D1D1B" d="M114.483,20.131c2.946,0,5.473-0.88,5.473-9.093c0-8.212-2.453-9.459-5.473-9.459
			c-2.946,0-5.398,1.1-5.398,9.459S111.537,20.131,114.483,20.131z"/>
		<path fill="#1D1D1B" d="M144.522,27.57c0-12.362-7.479-22.976-18.157-27.57c3.571,2.329,5.739,5.896,5.905,10.468
			c0.057,0.352,0.09,0.691,0.09,1.01c0,8.946-7.279,13.701-17.878,13.701c-2.724,0-4.563-0.146-6.772-0.805
			c-1.031,0.731-1.841,1.907-1.841,3.008c0,1.469,1.325,2.644,2.945,2.644h14.724c9.12,0,13.605,3.735,13.605,11.793
			c0,2.689-0.534,5.104-1.642,7.191C141.066,43.565,144.522,35.972,144.522,27.57z"/>
		<path fill="#1D1D1B" d="M120.301,42.362h-11.165c-3.751,0-4.861,2.771-4.861,4.826c0,2.969,2.675,5.709,10.471,5.709
			c8.866,0,11.272-2.496,11.272-5.744C126.018,44.319,123.884,42.362,120.301,42.362z"/>
	</g>
</g>
<g id="text_orig" display="none">
	<g display="inline">
		<path fill="#FFFFFF" d="M13.066,61.931l-2.232-1.008v-1.836l8.387-1.332h0.54v25.484l2.124,1.188v1.729l-7.955,0.9h-0.576v-2.088
			h-0.216c-0.828,1.079-2.556,2.195-5.075,2.195C4.391,87.163,0,84.823,0,77.085c0-8.136,4.5-11.051,9.827-11.051
			c1.116,0,2.412,0.252,3.24,0.827V61.931z M13.066,69.525c-0.504-0.396-1.08-0.72-2.268-0.72c-2.124,0-3.708,1.907-3.708,7.595
			c0,4.968,1.26,7.127,3.924,7.127c1.008,0,1.583-0.18,2.052-0.36V69.525z"/>
		<path fill="#FFFFFF" d="M30.757,65.89h0.54v17.854l2.16,1.008v1.872H22.442v-1.872l2.16-1.008V70.101l-2.268-1.043v-1.836
			L30.757,65.89z M31.405,61.175c0,1.943-1.62,3.527-3.563,3.527c-1.98,0-3.563-1.584-3.563-3.527c0-1.98,1.583-3.564,3.563-3.564
			C29.785,57.61,31.405,59.194,31.405,61.175z"/>
		<path fill="#FFFFFF" d="M34.185,85.867V80.54h2.844l1.152,3.348c0.468,0.432,2.088,0.647,3.24,0.647
			c1.908,0,3.239-0.432,3.239-2.016c0-1.476-0.504-2.088-2.664-2.556l-2.448-0.54c-3.708-0.827-5.435-3.779-5.435-6.767
			c0-3.852,2.627-6.695,8.567-6.695c2.375,0,4.787,0.359,6.371,1.043v4.968h-2.808l-0.864-2.771
			c-0.468-0.252-1.872-0.504-2.952-0.504c-1.584,0-2.664,0.756-2.664,1.979c0,1.188,0.54,1.908,2.771,2.376l2.375,0.504
			c3.888,0.828,5.363,3.419,5.363,6.479c0,4.211-2.664,7.091-9.071,7.091C39.044,87.127,36.128,86.694,34.185,85.867z"/>
		<path fill="#FFFFFF" d="M50.997,76.544c0-6.623,4.319-10.582,10.979-10.582c2.34,0,5.255,0.396,6.407,0.828v6.047h-3.492
			l-1.152-3.959c-0.324-0.145-1.044-0.289-1.944-0.289c-2.231,0-3.923,2.088-3.923,7.596c0,4.751,2.484,6.768,5.759,6.768
			c1.872,0,3.923-0.289,4.896-0.576v1.871c-1.08,1.296-3.888,2.88-7.163,2.88C54.524,87.127,50.997,82.915,50.997,76.544z"/>
		<path fill="#FFFFFF" d="M89.952,76.544c0,6.84-4.211,10.619-10.33,10.619s-10.331-3.779-10.331-10.619
			c0-6.839,4.211-10.582,10.331-10.582S89.952,69.705,89.952,76.544z M82.934,76.544c0-6.658-1.044-7.811-3.275-7.811
			s-3.348,1.152-3.348,7.811c0,6.66,1.116,7.812,3.348,7.812S82.934,83.204,82.934,76.544z"/>
		<path fill="#FFFFFF" d="M101.716,80.432h0.144l3.491-11.087l-2.16-1.008v-1.871h7.92v1.871l-2.16,1.008l-6.083,17.278h-5.796
			l-5.939-17.278l-2.159-1.008v-1.871h11.698v1.871l-2.159,1.008L101.716,80.432z"/>
		<path fill="#FFFFFF" d="M117.044,77.156c0.324,3.923,2.195,5.796,5.867,5.796c2.556,0,3.996-0.252,5.399-0.685v1.944
			c-0.937,1.295-3.96,2.951-7.667,2.951c-6.911,0-10.475-3.815-10.475-10.654c0-6.66,3.924-10.512,9.935-10.512
			c6.048,0,8.963,2.7,8.963,11.159H117.044z M116.972,74.745l5.58-0.324c0-5.363-0.9-6.228-2.557-6.228
			C118.159,68.193,117.044,69.382,116.972,74.745z"/>
		<path fill="#FFFFFF" d="M137.538,65.89h0.576v4.248h0.216c1.188-2.664,2.987-4.104,5.184-4.104c0.36,0,0.792,0.035,1.008,0.107
			v5.867c-0.396-0.107-1.116-0.18-1.692-0.18c-1.799,0-3.311,0.18-4.463,0.72v11.194l2.771,1.008v1.872h-11.59v-1.872l2.123-1.008
			V70.101l-2.231-1.043v-1.836L137.538,65.89z"/>
	</g>
</g>
<g id="text_outlined">
	<g>
		<path fill="#FFFFFF" d="M13.066,61.931l-2.232-1.008v-1.836l8.387-1.332h0.54v25.484l2.124,1.188v1.729l-7.955,0.9h-0.576v-2.088
			h-0.216c-0.828,1.079-2.556,2.195-5.075,2.195C4.391,87.163,0,84.823,0,77.085c0-8.136,4.5-11.051,9.827-11.051
			c1.116,0,2.412,0.252,3.24,0.827V61.931z M13.066,69.525c-0.504-0.396-1.08-0.72-2.268-0.72c-2.124,0-3.708,1.907-3.708,7.595
			c0,4.968,1.26,7.127,3.924,7.127c1.008,0,1.583-0.18,2.052-0.36V69.525z"/>
		<path fill="#FFFFFF" d="M30.757,65.89h0.54v17.854l2.16,1.008v1.872H22.442v-1.872l2.16-1.008V70.101l-2.268-1.043v-1.836
			L30.757,65.89z M31.405,61.175c0,1.943-1.62,3.527-3.563,3.527c-1.98,0-3.563-1.584-3.563-3.527c0-1.98,1.583-3.564,3.563-3.564
			C29.785,57.61,31.405,59.194,31.405,61.175z"/>
		<path fill="#FFFFFF" d="M34.185,85.867V80.54h2.844l1.152,3.348c0.468,0.432,2.088,0.647,3.24,0.647
			c1.908,0,3.239-0.432,3.239-2.016c0-1.476-0.504-2.088-2.664-2.556l-2.448-0.54c-3.708-0.827-5.435-3.779-5.435-6.767
			c0-3.852,2.627-6.695,8.567-6.695c2.375,0,4.787,0.359,6.371,1.043v4.968h-2.808l-0.864-2.771
			c-0.468-0.252-1.872-0.504-2.952-0.504c-1.584,0-2.664,0.756-2.664,1.979c0,1.188,0.54,1.908,2.771,2.376l2.375,0.504
			c3.888,0.828,5.363,3.419,5.363,6.479c0,4.211-2.664,7.091-9.071,7.091C39.044,87.127,36.128,86.694,34.185,85.867z"/>
		<path fill="#FFFFFF" d="M50.997,76.544c0-6.623,4.319-10.582,10.979-10.582c2.34,0,5.255,0.396,6.407,0.828v6.047h-3.492
			l-1.152-3.959c-0.324-0.145-1.044-0.289-1.944-0.289c-2.231,0-3.923,2.088-3.923,7.596c0,4.751,2.484,6.768,5.759,6.768
			c1.872,0,3.923-0.289,4.896-0.576v1.871c-1.08,1.296-3.888,2.88-7.163,2.88C54.524,87.127,50.997,82.915,50.997,76.544z"/>
		<path fill="#FFFFFF" d="M89.952,76.544c0,6.84-4.211,10.619-10.33,10.619s-10.331-3.779-10.331-10.619
			c0-6.839,4.211-10.582,10.331-10.582S89.952,69.705,89.952,76.544z M82.934,76.544c0-6.658-1.044-7.811-3.275-7.811
			s-3.348,1.152-3.348,7.811c0,6.66,1.116,7.812,3.348,7.812S82.934,83.204,82.934,76.544z"/>
		<path fill="#FFFFFF" d="M101.716,80.432h0.144l3.491-11.087l-2.16-1.008v-1.871h7.92v1.871l-2.16,1.008l-6.083,17.278h-5.796
			l-5.939-17.278l-2.159-1.008v-1.871h11.698v1.871l-2.159,1.008L101.716,80.432z"/>
		<path fill="#FFFFFF" d="M117.044,77.156c0.324,3.923,2.195,5.796,5.867,5.796c2.556,0,3.996-0.252,5.399-0.685v1.944
			c-0.937,1.295-3.96,2.951-7.667,2.951c-6.911,0-10.475-3.815-10.475-10.654c0-6.66,3.924-10.512,9.935-10.512
			c6.048,0,8.963,2.7,8.963,11.159H117.044z M116.972,74.745l5.58-0.324c0-5.363-0.9-6.228-2.557-6.228
			C118.159,68.193,117.044,69.382,116.972,74.745z"/>
		<path fill="#FFFFFF" d="M137.538,65.89h0.576v4.248h0.216c1.188-2.664,2.987-4.104,5.184-4.104c0.36,0,0.792,0.035,1.008,0.107
			v5.867c-0.396-0.107-1.116-0.18-1.692-0.18c-1.799,0-3.311,0.18-4.463,0.72v11.194l2.771,1.008v1.872h-11.59v-1.872l2.123-1.008
			V70.101l-2.231-1.043v-1.836L137.538,65.89z"/>
	</g>
	<g>
	</g>
	<g>
	</g>
	<g>
	</g>
	<g>
	</g>
	<g>
	</g>
	<g>
	</g>
</g>
</svg>
