<svg xmlns="http://www.w3.org/2000/svg" width="144.522" height="87.163" viewBox="0 0 144.522 87.163"><g fill="#1D1D1B"><path d="M103.65 22.918l-.279-.153c-4.117-2.268-6.839-6.3-6.839-11.727 0-4.652 2.025-8.311 5.477-10.741-10.32 4.743-17.486 15.17-17.486 27.272 0 8.212 3.3 15.652 8.646 21.068l-.021-.438c0-5.355 5.221-7.332 9.854-8.285v-.004c-4.411-.953-6.543-4.104-6.543-7.329 0-4.323 4.837-8.054 7.191-9.663zM114.483 20.131c2.946 0 5.473-.88 5.473-9.093 0-8.212-2.453-9.459-5.473-9.459-2.946 0-5.398 1.1-5.398 9.459s2.452 9.093 5.398 9.093zM144.522 27.57c0-12.362-7.479-22.976-18.157-27.57 3.571 2.329 5.739 5.896 5.905 10.468.057.352.09.691.09 1.01 0 8.946-7.279 13.701-17.878 13.701-2.724 0-4.563-.146-6.772-.805-1.031.731-1.841 1.907-1.841 3.008 0 1.469 1.325 2.644 2.945 2.644h14.724c9.12 0 13.605 3.735 13.605 11.793 0 2.689-.534 5.104-1.642 7.191 5.565-5.445 9.021-13.038 9.021-21.44zM120.301 42.362h-11.165c-3.751 0-4.861 2.771-4.861 4.826 0 2.969 2.675 5.709 10.471 5.709 8.866 0 11.272-2.496 11.272-5.744 0-2.834-2.134-4.791-5.717-4.791z"/></g><g><g fill="#fff"><path d="M13.066 61.931l-2.232-1.008v-1.836l8.387-1.332h.54v25.484l2.124 1.188v1.729l-7.955.9h-.576v-2.088h-.216c-.828 1.079-2.556 2.195-5.075 2.195-3.672 0-8.063-2.34-8.063-10.078 0-8.136 4.5-11.051 9.827-11.051 1.116 0 2.412.252 3.24.827v-4.93zm0 7.594c-.504-.396-1.08-.72-2.268-.72-2.124 0-3.708 1.907-3.708 7.595 0 4.968 1.26 7.127 3.924 7.127 1.008 0 1.583-.18 2.052-.36v-13.642zM30.757 65.89h.54v17.854l2.16 1.008v1.872h-11.015v-1.872l2.16-1.008v-13.643l-2.268-1.043v-1.836l8.423-1.332zm.648-4.715c0 1.943-1.62 3.527-3.563 3.527-1.98 0-3.563-1.584-3.563-3.527 0-1.98 1.583-3.564 3.563-3.564 1.943-.001 3.563 1.583 3.563 3.564zM34.185 85.867v-5.327h2.844l1.152 3.348c.468.432 2.088.647 3.24.647 1.908 0 3.239-.432 3.239-2.016 0-1.476-.504-2.088-2.664-2.556l-2.448-.54c-3.708-.827-5.435-3.779-5.435-6.767 0-3.852 2.627-6.695 8.567-6.695 2.375 0 4.787.359 6.371 1.043v4.968h-2.808l-.864-2.771c-.468-.252-1.872-.504-2.952-.504-1.584 0-2.664.756-2.664 1.979 0 1.188.54 1.908 2.771 2.376l2.375.504c3.888.828 5.363 3.419 5.363 6.479 0 4.211-2.664 7.091-9.071 7.091-2.157.001-5.073-.432-7.016-1.259zM50.997 76.544c0-6.623 4.319-10.582 10.979-10.582 2.34 0 5.255.396 6.407.828v6.047h-3.492l-1.152-3.959c-.324-.145-1.044-.289-1.944-.289-2.231 0-3.923 2.088-3.923 7.596 0 4.751 2.484 6.768 5.759 6.768 1.872 0 3.923-.289 4.896-.576v1.871c-1.08 1.296-3.888 2.88-7.163 2.88-6.84-.001-10.367-4.213-10.367-10.584zM89.952 76.544c0 6.84-4.211 10.619-10.33 10.619s-10.331-3.779-10.331-10.619c0-6.839 4.211-10.582 10.331-10.582s10.33 3.743 10.33 10.582zm-7.018 0c0-6.658-1.044-7.811-3.275-7.811s-3.348 1.152-3.348 7.811c0 6.66 1.116 7.812 3.348 7.812s3.275-1.152 3.275-7.812zM101.716 80.432h.144l3.491-11.087-2.16-1.008v-1.871h7.92v1.871l-2.16 1.008-6.083 17.278h-5.796l-5.939-17.278-2.159-1.008v-1.871h11.698v1.871l-2.159 1.008 3.203 11.087zM117.044 77.156c.324 3.923 2.195 5.796 5.867 5.796 2.556 0 3.996-.252 5.399-.685v1.944c-.937 1.295-3.96 2.951-7.667 2.951-6.911 0-10.475-3.815-10.475-10.654 0-6.66 3.924-10.512 9.935-10.512 6.048 0 8.963 2.7 8.963 11.159h-12.022zm-.072-2.411l5.58-.324c0-5.363-.9-6.228-2.557-6.228-1.836 0-2.951 1.189-3.023 6.552zM137.538 65.89h.576v4.248h.216c1.188-2.664 2.987-4.104 5.184-4.104.36 0 .792.035 1.008.107v5.867c-.396-.107-1.116-.18-1.692-.18-1.799 0-3.311.18-4.463.72v11.194l2.771 1.008v1.872h-11.59v-1.872l2.123-1.008v-13.641l-2.231-1.043v-1.836l8.098-1.332z"/></g></g></svg>