<?xml version="1.0" encoding="utf-8"?>
<!-- Generator: Adobe Illustrator 27.5.0, SVG Export Plug-In . SVG Version: 6.00 Build 0)  -->
<svg version="1.1" id="Layer_1" xmlns="http://www.w3.org/2000/svg" xmlns:xlink="http://www.w3.org/1999/xlink" x="0px" y="0px"
	 viewBox="0 0 165 85" style="enable-background:new 0 0 165 85;" xml:space="preserve">
<g>
	<g>
		<path d="M36.8,83.8l2.5-0.6V58.4l-2.5-0.6v-0.6H50v0.6l-2.7,0.5v25.3h4.3l6.2-9.7h0.6l-0.5,10.4H36.8V83.8z"/>
		<path d="M67,63.4l0.9,0.1v19.8l2.1,0.6v0.6H58.9v-0.6l2.2-0.6V66.1l-2.3-0.9v-0.6L67,63.4z M68,58.5c0,2-1.7,3.5-3.7,3.5
			c-2,0-3.6-1.5-3.6-3.5s1.6-3.5,3.6-3.5C66.3,54.9,68,56.5,68,58.5z"/>
		<path d="M88.3,65.9l-6.1,18.5H78l-7.3-19.1L69,64.4v-0.6h11.7v0.6l-2.4,0.9l4.8,13.5h0.2l4.3-12.8l-2.9-1.6v-0.6h6v0.6L88.3,65.9z
			"/>
		<path d="M95.5,73.4c0.3,5.1,1.9,8.2,7.2,8.2c1.7,0,3.2-0.2,4.6-0.8v0.6c-1.2,1.8-4,3.6-8.2,3.6c-7,0-10.6-4.2-10.6-11
			c0-6.6,3.9-10.7,10.3-10.7c6.4,0,9.1,3.4,9.1,9.6v0.5H95.5z M95.5,72.6l5.8-0.3c0-6.5-0.9-8.3-2.7-8.3
			C96.7,64,95.5,66.6,95.5,72.6z"/>
	</g>
	<g>
		<polygon points="37.1,28.2 39.9,26.7 39.9,4.6 37.8,4.6 32.6,11.5 32,11.5 32.3,3.9 54.8,3.9 55.2,11.5 54.5,11.5 49.5,4.6 
			47.3,4.6 47.3,26.7 50.1,28.1 50.1,28.9 37.1,28.9 		"/>
		<path d="M57.7,27.2V2.7l-2.2-0.9V1.4L63.4,0h0.8v11.6l0.2-0.2c1.7-1.5,4.2-2.5,6.8-2.5c3.4,0,5,1.9,5,5.6v12.7l1.8,1v0.7H67.7
			v-0.7l1.8-1V14.4c0-2-0.9-2.8-2.5-2.8c-1.1,0-2,0.3-2.7,0.9v14.7l1.8,1v0.7H55.9v-0.7L57.7,27.2z"/>
		<path d="M84.6,19.7c0.2,4,2,7.2,6.3,7.2c2.1,0,3.6-1,4.9-1.7V26c-1.1,1.5-3.8,3.5-7.6,3.5c-6.7,0-10-3.7-10-10.1
			c0-6.3,3.7-10.1,9.7-10.1c5.7,0,8.6,2.8,8.6,10.3v0.2L84.6,19.7L84.6,19.7z M84.4,18.8l5.8-0.4c0-5-0.9-8.3-2.6-8.3
			C85.9,10.1,84.4,13.9,84.4,18.8"/>
		<path d="M0,38.7C0,28,7,24.2,14.9,24.2c3.3,0,6.5,0.5,8.2,1.3l0.1,7.4h-0.8l-4.6-7.2c-0.8-0.3-1.5-0.5-2.9-0.5
			c-4.2,0-6.3,4.8-6.2,12.7c0.1,9.5,1.7,13.7,5.6,13.7c1,0,1.8-0.2,2.3-0.4V41.2l-2.5-1.5v-0.8h12.2v0.9l-2.5,1.4v10
			c-2.1,0.8-5.6,1.6-9.2,1.6C5.7,52.8,0,48.7,0,38.7"/>
		<path d="M26.2,33.7v-0.6l8.2-1.5l0.9,0.1v16.2c0,2,0.9,2.5,2.5,2.5c1,0,1.9-0.4,2.7-1.3V34.7l-2.2-1v-0.6l8.2-1.5l0.8,0.1v18.5
			l2.2,0.9v0.6l-8.1,1l-0.8-0.1v-2.4h-0.2c-1.5,1.4-3.6,2.6-6.2,2.6c-3.9,0-5.7-2.3-5.7-5.8V34.7L26.2,33.7z"/>
		<path d="M78.7,31.6l0.7,0.1v6h0.2c0.9-4.4,2.8-6,5.2-6c0.4,0,0.8,0,1,0.1v6.1c-0.4-0.1-1.1-0.2-1.7-0.2c-1.9,0-3.2,0.3-4.5,0.9
			v11.8l1.9,1v0.8H70.8v-0.8l1.9-1V34.4l-2.2-0.7v-0.5L78.7,31.6z"/>
		<path d="M99.3,32.1v-6.3L97,25v-0.5l8.3-1.5l0.8,0.1v27.1l2.3,0.8v0.7l-8.2,1.1l-0.6-0.1v-2.2h-0.2c-1.2,1.2-2.8,2.3-5.4,2.3
			c-4.5,0-7.7-3.4-7.7-10.4c0-7.3,3.8-11,9.5-11C97.4,31.5,98.7,31.8,99.3,32.1 M99.3,49.5V33.3c-0.5-0.3-0.9-0.8-2.3-0.7
			c-2.2,0.1-3.6,3.4-3.6,9.4c0,5.4,1,8.4,3.9,8.3C98.2,50.2,98.9,49.9,99.3,49.5"/>
		<path d="M117.5,31.6l0.7,0.1v18.8l1.9,1v0.8h-10.7v-0.8l1.9-1V34.7l-2.3-0.9v-0.6L117.5,31.6z M118.3,26.5c0,2-1.7,3.5-3.6,3.5
			c-2,0-3.6-1.5-3.6-3.5s1.6-3.5,3.6-3.5C116.6,23,118.3,24.5,118.3,26.5"/>
		<path d="M144,50.5v-16l-2.2-0.8v-0.8l8.2-1.5l0.8,0.1v2.4h0.2c1.8-1.6,4.4-2.6,7-2.6c3.6,0,5.1,1.7,5.1,5.4v13.8l1.9,1.1v0.8
			h-10.6v-0.8l1.9-1V37.1c0-2.1-0.9-2.9-2.6-2.9c-1.1,0-2,0.3-2.8,0.9v15.4l1.9,1v0.8h-10.6v-0.8L144,50.5z"/>
		<path d="M132.2,40.4v-2.7c0-4-0.9-5.4-3.4-5.4c-0.3,0-0.6,0-0.8,0.1l-4.5,6h-0.6v-5.6c1.9-0.6,4.3-1.3,7.5-1.3
			c5.4,0,8.6,1.5,8.6,6.1v13.1l1.9,0.5v0.5c-0.8,0.5-2.3,0.9-4,0.9c-2.7,0-4-0.9-4.6-2.4h-0.2c-1.1,1.5-2.8,2.4-5.3,2.4
			c-3.2,0-5.4-2-5.4-5.5c0-3.4,2.1-5.2,6.4-6L132.2,40.4z M132.2,49.5v-8.1l-1.4,0.1c-2.1,0.2-2.9,1.5-2.9,4.6
			c0,3.3,1.1,4.1,2.6,4.1C131.4,50.2,131.8,49.9,132.2,49.5"/>
		<path d="M60.9,40.4v-2.7c0-4-0.9-5.4-3.4-5.4c-0.3,0-0.5,0-0.8,0.1l-4.5,6h-0.6v-5.6c1.9-0.6,4.3-1.3,7.5-1.3
			c5.5,0,8.6,1.5,8.6,6.1v13.1l1.9,0.5v0.5c-0.8,0.5-2.3,0.9-4,0.9c-2.7,0-4-0.9-4.6-2.4h-0.2c-1.1,1.5-2.8,2.4-5.3,2.4
			c-3.2,0-5.5-2-5.5-5.5c0-3.4,2.1-5.2,6.4-6L60.9,40.4z M60.9,49.5v-8.1l-1.4,0.1c-2.1,0.2-2.9,1.5-2.9,4.6c0,3.3,1.1,4.1,2.6,4.1
			C60.1,50.2,60.6,49.9,60.9,49.5"/>
	</g>
</g>
</svg>
