<?xml version="1.0" encoding="utf-8"?>
<!-- Generator: Adobe Illustrator 20.1.0, SVG Export Plug-In . SVG Version: 6.00 Build 0)  -->
<svg version="1.1" id="Layer_1" xmlns="http://www.w3.org/2000/svg" xmlns:xlink="http://www.w3.org/1999/xlink" x="0px" y="0px"
	 viewBox="0 0 513 85" style="enable-background:new 0 0 513 85;" xml:space="preserve">
<style type="text/css">
	.st0{clip-path:url(#SVGID_2_);fill:#1D1D1B;}
	.st1{fill:#1D1D1B;}
	.st2{clip-path:url(#SVGID_4_);fill:#1D1D1B;}
	.st3{clip-path:url(#SVGID_4_);fill:#E61C77;}
</style>
<g>
	<defs>
		<rect id="SVGID_1_" x="12.4" y="12.3" width="479.7" height="68.3"/>
	</defs>
	<clipPath id="SVGID_2_">
		<use xlink:href="#SVGID_1_"  style="overflow:visible;"/>
	</clipPath>
	<path class="st0" d="M342.5,63.3h19.2v-3.2l-3.7-1.8V35.7c1.4-1,3-1.3,4.8-1.3c3.2,0,4.7,1.3,4.7,5v19.1l-3.7,1.8v3.2H383v-3.2
		l-3.8-1.8V36.6c0-6.5-3-9.4-8.8-9.4c-4.8,0-9.4,1.7-12.6,4.6v-4.6h-0.9l-14.6,2.3v3.1l4,1.8v23.9l-3.8,1.8V63.3z"/>
	<path class="st0" d="M297.8,12.7c-3.5,0-6.2,2.8-6.2,6.2c0,3.4,2.8,6.2,6.2,6.2c3.4,0,6.2-2.8,6.2-6.2
		C304,15.5,301.2,12.7,297.8,12.7"/>
</g>
<polygon class="st1" points="288.2,29.5 288.2,32.7 292.2,34.5 292.2,58.3 288.4,60.1 288.4,63.3 307.6,63.3 307.6,60.1 303.8,58.3 
	303.8,27.2 302.9,27.2 "/>
<g>
	<defs>
		<rect id="SVGID_3_" x="12.4" y="12.3" width="479.7" height="68.3"/>
	</defs>
	<clipPath id="SVGID_4_">
		<use xlink:href="#SVGID_3_"  style="overflow:visible;"/>
	</clipPath>
	<path class="st2" d="M271.9,28.9c-1.4-1-3.7-1.6-5.7-1.6c-8.6,0-16.8,5-16.8,19.1c0,13.5,8.2,17.8,13.7,17.8c4.4,0,7.4-1.9,8.9-3.8
		h0.4v3.7h1l13.9-1.6V60l-3.7-2.1V13h-0.9L268,15.3v3.2l3.9,1.8V28.9z M271.9,56.7c-0.8,0.7-1.8,1.2-3.6,1.2
		c-4.6,0-6.8-3.8-6.8-12.4c0-9.9,2.8-13.3,6.5-13.3c2.1,0,3.1,0.7,4,1.6V56.7z"/>
	<path class="st2" d="M222.8,29.5v3.2l3.9,1.8v23.8l-3.7,1.8v3.3h20.2v-3.3l-4.8-1.8V39.7c2.1-1.6,4.6-2.1,7.8-2.1
		c1,0,2.3,0.1,3,0.3V27.6c-0.4-0.1-1.1-0.2-1.8-0.2c-3.8,0-7.3,2.5-9.4,7.2v-7.4h-1L222.8,29.5z"/>
	<path class="st2" d="M206.6,56.4c-0.7,1-1.9,1.5-3.2,1.5c-2.3,0-4.4-1.3-4.4-5.1c0-2.8,2.5-5.3,5.3-5.8l2.3-0.4V56.4z M197.7,32.3
		c0.8-0.4,2.5-0.4,3.1-0.4c4.5,0,5.8,2.3,5.8,6.7l0,4l-6.7,1.3c-6.9,1.3-12,3.4-12,10.6c0,5.8,4.1,9.9,9.7,9.9c4.4,0,8.5-1.9,10.1-5
		h0.3c0.6,3.8,3.8,5,7.5,5c2.8,0,5.6-0.9,6.6-2.1v-2l-3.7-1.8V38c0-7.9-5.7-10.8-15.1-10.8c-6.2,0-10.2,1.5-13.4,3.1v8.9h5.5
		L197.7,32.3z"/>
	<path class="st2" d="M326,56.4c-0.7,1-1.9,1.5-3.2,1.5c-2.3,0-4.4-1.3-4.4-5.1c0-2.8,2.5-5.3,5.3-5.8l2.3-0.4V56.4z M317,32.3
		c0.8-0.4,2.5-0.4,3.1-0.4c4.5,0,5.8,2.3,5.8,6.7l0,4l-6.7,1.3c-6.9,1.3-12,3.4-12,10.6c0,5.8,4.1,9.9,9.7,9.9c4.4,0,8.5-1.9,10.1-5
		h0.3c0.6,3.8,3.8,5,7.5,5c2.8,0,5.6-0.9,6.6-2.1v-2l-3.7-1.8V38c0-7.9-5.7-10.8-15.1-10.8c-6.2,0-10.2,1.5-13.4,3.1v8.9h5.5
		L317,32.3z"/>
	<path class="st2" d="M151.8,53.1c0,6.1,3,11.2,10.1,11.2c4.7,0,8.9-2.1,11.1-4.8v4.8h0.9l14.3-1.7V60l-4-2.1V27.3h-0.9l-14.6,2.3
		v3.2l3.9,1.8v21.1c-1.3,0.9-2.2,1.3-4.3,1.3c-2.9,0-4.8-0.9-4.8-4.9V27.3h-1l-14.6,2.3v3.2l4,1.8V53.1z"/>
	<path class="st2" d="M128.8,75.2c-6.4,0-8.7-2.5-8.6-5c0.1-1.7,0.9-3.9,3.9-4.1h10c2.9,0,4.7,2,4.7,3.8
		C138.8,73.6,136,75.2,128.8,75.2 M128.8,31.2c2.6,0,4.3,1.8,4.3,8.1c0,6.5-1.8,7.8-4.3,7.8c-2.5,0-4.3-1.3-4.3-7.8
		C124.6,32.7,126.3,31.2,128.8,31.2 M136.5,55.6H124c-1.4,0-2.5-1-2.5-2.3c0-0.9,0.7-1.9,1.6-2.6c1.9,0.6,3.5,0.7,5.8,0.7
		c9,0,15.3-4.1,15.3-11.7c0-3.5-1.4-5.4-3.6-7.4l6,1.9l0-7l-9.5,1.8c-2.2-0.8-5.3-1.8-8.1-1.8c-9,0-15.3,4.6-15.3,12.2
		c0,4.6,2.3,8.1,5.8,10l0.3,0.2c-2,1.4-6.2,4.5-6.2,8.2c0,2.8,1.8,5.5,5.6,6.3v0c-4,0.8-8.4,2.5-8.4,7.1c0,4.7,6.8,9.4,17.8,9.4
		c13.8,0,19.7-6.5,19.7-14.8C148.2,58.8,144.3,55.6,136.5,55.6"/>
	<path class="st2" d="M94.1,31.2c2.9,0,4.5,2.1,4.5,10.9l-9.7,0.6C88.9,33.7,90.9,31.2,94.1,31.2 M109.9,46.8
		c0-14.8-6.5-19.6-15.6-19.6c-10.5,0-17.3,6.8-17.3,18.5c0,11.9,6.2,18.6,18.3,18.6c6.5,0,11.6-3.4,13.2-5.7l0.2-2.9
		c-2.5,0.8-5,1.2-9.4,1.2c-6.4,0-10.2-3.3-10.2-10.1H109.9z"/>
	<path class="st2" d="M38.8,63.3h19.2v-3.2l-3.7-1.8l0-22.7c1.4-1,3-1.5,4.8-1.5c3.2,0,4.8,2,4.7,5.1v19.1l-3.7,1.8v3.2h19.2v-3.2
		l-3.8-1.8V36.6c0-6.5-3.7-9.4-8.8-9.4c-4.8,0-9.4,1.7-12.6,4.6h0V12.3h-0.9l-14.6,2.3v3.1l4,1.8v38.9l-3.8,1.8V63.3z"/>
	<path class="st2" d="M17.8,53.7c0,6.5,3.1,10.6,10,10.6c3.6,0,7.5-0.9,9.7-2.6v-4.3c-0.9,0.3-2.5,0.6-3.8,0.6
		c-3.4,0-4.3-1.8-4.3-5.2V34.2h7.7v-6h-7.7v-8.2l-11.7,1.6v6.6l-5.4,1v5h5.4V53.7z"/>
	<path class="st3" d="M492.1,47.1c0-14.7-5.1-19.5-15.6-19.5c-10.5,0-17.3,6.7-17.3,18.3c0,11.9,6.2,18.6,18.3,18.6
		c6.5,0,11.7-2.9,13.4-5.1V56c-2.4,0.8-5,1.2-9.4,1.2c-6.4,0-9.7-3.3-10.2-10.1H492.1z M476.3,31.4c2.9,0,4.5,1.5,4.5,10.9l-9.7,0.6
		C471.2,33.5,473.1,31.4,476.3,31.4 M441,33.4l3.8-1.8v-3.3h-20.4v3.3l3.8,1.8l10.4,30.1h10.1l10.6-30.1l3.8-1.8v-3.3h-13.8v3.3
		l3.8,1.8l-6.1,19.3h-0.3L441,33.4z M416.5,13c-3.5,0-6.2,2.8-6.2,6.2c0,3.4,2.8,6.2,6.2,6.2c3.4,0,6.2-2.8,6.2-6.2
		C422.7,15.7,419.9,13,416.5,13 M406.9,29.7v3.2l4,1.8v23.8l-3.8,1.8v3.3h19.2v-3.3l-3.8-1.8V27.4h-0.9L406.9,29.7z M386.4,15.5v3.2
		l4,1.8v38l-3.8,1.8v3.3h19.2v-3.3l-3.8-1.8V13.2h-0.9L386.4,15.5z"/>
</g>
</svg>
