<?xml version="1.0" encoding="UTF-8"?>
<svg xmlns="http://www.w3.org/2000/svg" width="478" height="68" viewBox="132.351 5.45 478 68">
    <path fill="#1D1D1B"
          d="M461.104 56.226h19.117V53.04l-3.685-1.792v-22.5c1.395-.996 2.987-1.295 4.78-1.295 3.185 0 4.68 1.295 4.68 4.978v19.017l-3.685 1.793v3.185h19.115V53.24l-3.782-1.793V29.643c0-6.47-2.986-9.358-8.762-9.358-4.78 0-9.358 1.692-12.546 4.58v-4.58h-.895l-14.536 2.29v3.086l3.982 1.793V51.25l-3.784 1.79v3.186h.002zM416.6 5.848c-3.484 0-6.173 2.788-6.173 6.172 0 3.385 2.79 6.173 6.173 6.173 3.386 0 6.173-2.788 6.173-6.173 0-3.384-2.787-6.172-6.173-6.172M407.042 22.574v3.186l3.983 1.792V51.25l-3.783 1.79v3.186h19.115V53.04l-3.783-1.79V20.284h-.897"/>
    <g>
        <path fill="#1D1D1B"
              d="M390.814 21.977c-1.395-.996-3.684-1.593-5.675-1.593-8.564 0-16.728 4.978-16.728 19.017 0 13.442 8.164 17.723 13.64 17.723 4.38 0 7.367-1.892 8.86-3.783h.398v3.684h.996l13.837-1.594v-2.49l-3.683-2.09V6.146h-.895l-14.637 2.29v3.186l3.884 1.792v8.563zm0 27.68c-.798.695-1.793 1.193-3.586 1.193-4.58 0-6.77-3.784-6.77-12.347 0-9.856 2.787-13.24 6.472-13.24 2.09 0 3.086.696 3.982 1.592v22.8h-.098zM341.93 22.574v3.186l3.882 1.792v23.696l-3.685 1.792v3.285h20.112V53.04l-4.78-1.792V32.73c2.09-1.594 4.58-2.092 7.767-2.092.995 0 2.29.1 2.986.3V20.682c-.398-.1-1.096-.2-1.792-.2-3.782 0-7.268 2.49-9.358 7.17v-7.368h-.996l-14.137 2.29zM325.8 49.356c-.697.996-1.892 1.494-3.187 1.494-2.29 0-4.38-1.296-4.38-5.08 0-2.786 2.488-5.275 5.276-5.772l2.29-.4v9.758zm-8.86-23.994c.795-.398 2.488-.398 3.086-.398 4.48 0 5.774 2.29 5.774 6.67v3.982l-6.67 1.294c-6.87 1.296-11.948 3.384-11.948 10.554 0 5.775 4.08 9.856 9.657 9.856 4.38 0 8.462-1.892 10.056-4.978h.297c.6 3.784 3.784 4.978 7.468 4.978 2.79 0 5.577-.896 6.572-2.092v-1.99l-3.684-1.792v-20.41c0-7.865-5.675-10.752-15.034-10.752-6.173 0-10.155 1.493-13.34 3.086v8.862h5.475l2.29-6.87zM444.676 49.356c-.696.996-1.892 1.494-3.186 1.494-2.29 0-4.38-1.296-4.38-5.08 0-2.786 2.49-5.275 5.276-5.772l2.29-.4v9.76zm-8.96-23.994c.797-.398 2.488-.398 3.086-.398 4.48 0 5.775 2.29 5.775 6.67v3.982l-6.67 1.294c-6.87 1.296-11.948 3.384-11.948 10.554 0 5.775 4.08 9.856 9.657 9.856 4.38 0 8.462-1.892 10.056-4.978h.298c.6 3.784 3.785 4.978 7.468 4.978 2.79 0 5.577-.896 6.573-2.092v-1.99l-3.683-1.792v-20.41c0-7.865-5.676-10.752-15.035-10.752-6.172 0-10.154 1.493-13.34 3.086v8.862h5.477l2.285-6.87zM271.24 46.07c0 6.075 2.987 11.152 10.056 11.152 4.68 0 8.86-2.09 11.05-4.78v4.78h.897l14.238-1.692v-2.59l-3.98-2.09V20.384h-.897l-14.535 2.29v3.186l3.882 1.792V48.66c-1.294.895-2.19 1.294-4.28 1.294-2.888 0-4.78-.896-4.78-4.878V20.384h-.995l-14.536 2.29v3.186l3.98 1.792v18.42h-.1zM248.34 68.075c-6.372 0-8.66-2.49-8.56-4.98.098-1.692.895-3.882 3.882-4.082h9.956c2.887 0 4.68 1.99 4.68 3.784 0 3.684-2.79 5.278-9.957 5.278m0-43.808c2.59 0 4.28 1.792 4.28 8.064 0 6.473-1.79 7.767-4.28 7.767s-4.28-1.294-4.28-7.766c.1-6.57 1.792-8.063 4.28-8.063m7.666 24.293H243.56c-1.392 0-2.487-.996-2.487-2.29 0-.896.697-1.89 1.593-2.588 1.892.597 3.485.696 5.774.696 8.96 0 15.234-4.084 15.234-11.648 0-3.485-1.395-5.377-3.585-7.37l5.973 1.893v-6.97l-9.458 1.793c-2.19-.796-5.277-1.792-8.065-1.792-8.96 0-15.232 4.58-15.232 12.146 0 4.58 2.29 8.064 5.774 9.957l.298.198c-1.99 1.395-6.172 4.48-6.172 8.163 0 2.788 1.792 5.476 5.576 6.273-3.982.798-8.364 2.49-8.364 7.07 0 4.68 6.77 9.358 17.723 9.358 13.74 0 19.613-6.472 19.613-14.736-.1-6.965-3.983-10.152-11.75-10.152M213.793 24.267c2.887 0 4.48 2.09 4.48 10.853l-9.658.598c0-8.962 1.992-11.45 5.178-11.45m15.73 15.53c0-14.735-6.47-19.514-15.532-19.514-10.453 0-17.223 6.77-17.223 18.42 0 11.846 6.173 18.518 18.22 18.518 6.472 0 11.55-3.385 13.143-5.676l.2-2.887c-2.49.797-4.98 1.194-9.36 1.194-6.372 0-10.155-3.286-10.155-10.057h20.708z"/>
        <path fill="#1D1D1B"
              d="M158.735 56.226h19.116V53.04l-3.683-1.792v-22.6c1.395-.997 2.987-1.494 4.78-1.494 3.185 0 4.778 1.99 4.678 5.078v19.016l-3.684 1.792v3.186h19.117V53.04l-3.783-1.792V29.643c0-6.47-3.684-9.358-8.76-9.358-4.78 0-9.36 1.692-12.546 4.58V5.45h-.896l-14.536 2.29v3.086l3.982 1.792v38.73l-3.784 1.792v3.086zM137.827 46.668c0 6.472 3.086 10.554 9.956 10.554 3.584 0 7.467-.896 9.658-2.588v-4.282c-.895.3-2.488.597-3.782.597-3.385 0-4.28-1.792-4.28-5.177v-18.52h7.666V21.28h-7.667v-8.165l-11.648 1.593v6.57l-5.378.997v4.978h5.377v19.415h.097z"/>
        <path fill="#E61C77"
              d="M610.047 40.097c0-14.636-5.077-19.415-15.53-19.415-10.454 0-17.224 6.67-17.224 18.22 0 11.846 6.172 18.518 18.22 18.518 6.47 0 11.648-2.887 13.34-5.077v-3.386c-2.39.798-4.978 1.196-9.358 1.196-6.372 0-9.657-3.286-10.154-10.058l20.707.002zm-15.73-15.63c2.89 0 4.48 1.493 4.48 10.852l-9.657.596c.1-9.36 1.99-11.45 5.178-11.45m-35.146 1.99l3.784-1.79v-3.287h-20.312v3.285l3.784 1.792 10.354 29.967h10.057l10.553-29.967 3.782-1.792V21.38h-13.738v3.285l3.78 1.792-6.07 19.216h-.3l-5.675-19.216zM534.78 6.147c-3.485 0-6.173 2.788-6.173 6.173 0 3.384 2.788 6.17 6.173 6.17s6.174-2.787 6.174-6.17c0-3.485-2.79-6.174-6.174-6.174m-9.558 16.627v3.186l3.982 1.79v23.696l-3.784 1.793v3.284h19.115V53.24l-3.782-1.793V20.483h-.896l-14.635 2.29zm-20.41-14.137v3.186l3.982 1.792v37.833l-3.784 1.793v3.285h19.115V53.24l-3.782-1.793v-45.1h-.896l-14.635 2.29z"/>
    </g>
</svg>
