<svg xmlns="http://www.w3.org/2000/svg" width="83.111" height="87.163" viewBox="0 0 83.111 87.163"><path d="M42.239 22.918l-.279-.153c-4.117-2.268-6.839-6.3-6.839-11.727 0-4.652 2.025-8.311 5.477-10.741-10.32 4.743-17.486 15.17-17.486 27.272 0 8.212 3.3 15.652 8.646 21.068l-.021-.438c0-5.355 5.221-7.332 9.854-8.285v-.004c-4.411-.953-6.543-4.104-6.543-7.329 0-4.323 4.837-8.054 7.191-9.663zm10.833-2.787c2.946 0 5.473-.88 5.473-9.093 0-8.212-2.453-9.459-5.473-9.459-2.946 0-5.398 1.1-5.398 9.459s2.452 9.093 5.398 9.093zm30.039 7.439c0-12.362-7.479-22.976-18.157-27.57 3.571 2.329 5.739 5.896 5.905 10.468.057.352.09.691.09 1.01 0 8.946-7.279 13.701-17.878 13.701-2.724 0-4.563-.146-6.772-.805-1.031.731-1.841 1.907-1.841 3.008 0 1.469 1.325 2.644 2.945 2.644h14.724c9.12 0 13.605 3.735 13.605 11.793 0 2.689-.534 5.104-1.642 7.191 5.565-5.445 9.021-13.038 9.021-21.44zm-24.221 14.792h-11.165c-3.751 0-4.861 2.771-4.861 4.826 0 2.969 2.675 5.709 10.471 5.709 8.866 0 11.272-2.496 11.272-5.744-.001-2.834-2.134-4.791-5.717-4.791z" fill="#1D1D1B"/><path d="M8.423 57.719h.54v26.024l2.16 1.008v1.872h-11.015v-1.872l2.16-1.008v-21.812l-2.268-1.045v-1.836l8.423-1.331zm23.514 18.825c0 6.84-4.212 10.619-10.331 10.619s-10.33-3.779-10.33-10.619c0-6.839 4.211-10.582 10.33-10.582s10.331 3.743 10.331 10.582zm-7.019 0c0-6.658-1.045-7.811-3.275-7.811-2.232 0-3.348 1.152-3.348 7.811 0 6.66 1.115 7.812 3.348 7.812 2.23-.001 3.275-1.152 3.275-7.812zm7.906 0c0-6.623 4.319-10.582 10.979-10.582 2.34 0 5.256.396 6.407.828v6.047h-3.491l-1.152-3.959c-.324-.145-1.044-.289-1.943-.289-2.232 0-3.924 2.088-3.924 7.596 0 4.751 2.484 6.768 5.76 6.768 1.871 0 3.923-.289 4.895-.576v1.871c-1.08 1.296-3.887 2.88-7.162 2.88-6.841-.001-10.369-4.213-10.369-10.584zm22.986-3.779h-3.132v-5.256c1.908-.611 4.176-1.547 7.703-1.547 5.399 0 8.639 1.584 8.639 6.119v11.698l2.124 1.008v1.513c-.647.359-2.159.827-3.78.827-2.087 0-3.959-.685-4.283-2.844h-.181c-.9 1.8-3.275 2.88-5.795 2.88-3.564 0-5.795-2.304-5.795-5.651 0-4.14 2.663-4.968 7.127-5.724l3.852-.647v-2.7c0-2.555-.756-3.852-3.348-3.852-.324 0-1.297.037-1.729.072l-1.402 4.104zm6.479 4.535l-1.549.145c-1.547.145-2.807 1.188-2.807 3.096 0 2.231 1.223 2.951 2.52 2.951.72 0 1.476-.359 1.836-.756v-5.436zm17.762-19.581h.54v26.024l2.159 1.008v1.872h-11.014v-1.872l2.159-1.008v-21.812l-2.268-1.045v-1.836l8.424-1.331z" fill="#fff"/></svg>