<?xml version="1.0" encoding="UTF-8"?>
<svg viewBox="0 0 372.16 123.53" xmlns="http://www.w3.org/2000/svg">
  <path d="M23.21 121.78l4.79-2.73V85.62l-4.81-1.37v-.93h16.29l9.18 28.19h.22l8.41-28.19h15v.93l-3.66.82V121l3.66.82v.93H54.18v-.93l3.17-.76v-33.2h-.27l-10.22 34.85h-5.63L29.38 87.86h-.27v31.24l5.08 2.68v.93h-11z" fill="#fcbc00"/>
  <path d="M88.26 105.13v-4c0-6.06-1.31-8-4.64-8a7.49 7.49 0 0 0-1.09.11l-7.37 10h-.93l.22-9.29a35.83 35.83 0 0 1 11.09-1.86c8.08 0 12.78 2.24 12.78 9v19.45l2.89.76v.77a12.4 12.4 0 0 1-6 1.37c-4 0-5.9-1.31-6.77-3.5h-.27c-1.69 2.29-4.1 3.61-7.87 3.61-4.81 0-8.08-3-8.08-8.19 0-5 3.11-7.76 9.45-9zm0 13.44v-12l-2 .16c-3.17.27-4.31 2.29-4.31 6.77 0 4.86 1.58 6.12 3.82 6.12a2.94 2.94 0 0 0 2.49-1.06zM125 113.54c0 6.17-4.32 9.89-12.29 9.89a30.17 30.17 0 0 1-10.22-1.53l-.33-8.85h.93l7.81 9.12a6.08 6.08 0 0 0 1.64.27c3.33 0 4.86-1.8 4.86-4.59 0-2.46-1.31-3.39-4.75-5l-1.8-.82c-5.46-2.57-8.63-5.24-8.63-10.27 0-6.12 4.26-9.72 11.58-9.72a34.42 34.42 0 0 1 8.79 1l.27 8.25H122l-6-8a6.13 6.13 0 0 0-1.91-.33c-2.95 0-4.26 1.69-4.26 4.15 0 2.68 1.26 3.55 4.92 5.24l1.69.76c5.62 2.62 8.56 4.97 8.56 10.43zM125.51 94.86v-1l4.26-1.09v-5.34l9.94-1.58v6.94h6.61v2.08h-6.61v19.88c0 3.06.93 4.32 4.21 4.32a12.44 12.44 0 0 0 2.73-.27v.93a11.67 11.67 0 0 1-8.3 3.61c-5.68 0-8.58-2.62-8.58-9.07V94.86zM157 106.71c.38 7.37 2.73 11.91 10.38 11.91a16.28 16.28 0 0 0 6.66-1.2v.87c-1.69 2.57-5.84 5.24-11.8 5.24-10.1 0-15.29-6.12-15.29-15.9 0-9.56 5.68-15.51 14.86-15.51S175 97 175 105.94v.76zm0-1.09l8.47-.38c0-9.39-1.26-12.07-3.88-12.07-2.8-.01-4.59 3.83-4.59 12.45zM187.39 92.23l1 .11v8.52h.27c1.53-6.5 4-9 7.43-9a3.81 3.81 0 0 1 1.47.22v9a10.25 10.25 0 0 0-2.46-.22 17 17 0 0 0-6.5 1V121l4 .82v.93h-17.12v-.93l3.11-.82V96.22l-3.28-1.31V94zM198.66 107.64c0-9.56 6.12-15.57 15.84-15.57a35.63 35.63 0 0 1 9.45 1l.16 10.1h-.93l-7.32-10a2.22 2.22 0 0 0-.6-.06c-4.26 0-6.66 4.48-6.66 12.62 0 8.52 2.89 12.84 9.67 12.84a14.07 14.07 0 0 0 6-1.15v.93c-2 2.68-5.41 5.08-11 5.08-9.75-.01-14.61-6.43-14.61-15.79zM237.11 79.56l1.2.16v41.18l3.11.87v.93H225.2v-.93l3.11-.87V83.49L225 82.24v-.93zM257.88 105.13v-4c0-6.06-1.31-8-4.64-8a7.49 7.49 0 0 0-1.09.11l-7.37 10h-.93l.22-9.29a35.83 35.83 0 0 1 11.09-1.86c8.08 0 12.78 2.24 12.78 9v19.45l2.89.76v.77a12.4 12.4 0 0 1-6 1.37c-4 0-5.9-1.31-6.77-3.5h-.27c-1.69 2.29-4.1 3.61-7.87 3.61-4.81 0-8.08-3-8.08-8.19 0-5 3.11-7.76 9.45-9zm0 13.44v-12l-2 .16c-3.17.27-4.32 2.29-4.32 6.77 0 4.86 1.58 6.12 3.82 6.12a2.94 2.94 0 0 0 2.5-1.06zM295 113.54c0 6.17-4.32 9.89-12.29 9.89a30.17 30.17 0 0 1-10.22-1.53l-.33-8.85h.93l7.81 9.12a6.08 6.08 0 0 0 1.64.27c3.33 0 4.86-1.8 4.86-4.59 0-2.46-1.31-3.39-4.75-5l-1.8-.82c-5.46-2.57-8.63-5.24-8.63-10.27 0-6.12 4.26-9.72 11.58-9.72a34.42 34.42 0 0 1 8.79 1l.27 8.25h-.93l-6-8a6.13 6.13 0 0 0-1.91-.33c-2.95 0-4.26 1.69-4.26 4.15 0 2.68 1.26 3.55 4.92 5.24l1.69.76c5.63 2.62 8.63 4.97 8.63 10.43zM319 113.54c0 6.17-4.32 9.89-12.29 9.89a30.17 30.17 0 0 1-10.22-1.53l-.33-8.85h.93l7.81 9.12a6.08 6.08 0 0 0 1.64.27c3.33 0 4.86-1.8 4.86-4.59 0-2.46-1.31-3.39-4.75-5l-1.8-.82c-5.46-2.57-8.63-5.24-8.63-10.27 0-6.12 4.26-9.72 11.58-9.72a34.42 34.42 0 0 1 8.79 1l.27 8.25H316l-6-8a6.13 6.13 0 0 0-1.91-.33c-2.95 0-4.26 1.69-4.26 4.15 0 2.68 1.26 3.55 4.92 5.24l1.69.76c5.63 2.62 8.56 4.97 8.56 10.43zM330.07 106.71c.38 7.37 2.73 11.91 10.38 11.91a16.28 16.28 0 0 0 6.66-1.2v.87c-1.69 2.57-5.84 5.24-11.8 5.24-10.1 0-15.29-6.12-15.29-15.9 0-9.56 5.68-15.51 14.86-15.51S348 97 348 105.94v.76zm0-1.09l8.47-.38c0-9.39-1.26-12.07-3.88-12.07-2.84-.01-4.59 3.83-4.59 12.45zM372.16 113.54c0 6.17-4.32 9.89-12.29 9.89a30.17 30.17 0 0 1-10.22-1.53l-.33-8.85h.93l7.81 9.12a6.08 6.08 0 0 0 1.64.27c3.33 0 4.86-1.8 4.86-4.59 0-2.46-1.31-3.39-4.75-5L358 112c-5.46-2.57-8.63-5.24-8.63-10.27 0-6.12 4.26-9.72 11.58-9.72a34.42 34.42 0 0 1 8.79 1l.27 8.25h-.93l-6-8a6.13 6.13 0 0 0-1.91-.33c-2.95 0-4.26 1.69-4.26 4.15 0 2.68 1.26 3.55 4.92 5.24l1.69.76c5.69 2.65 8.64 5 8.64 10.46z" fill="#fcbc00"/>
  <path d="M53.85 40.87l4.07-2.12V6.74h-3.08l-7.52 9.98h-.85l.48-11.12h32.61l.47 11.12h-.89l-7.37-9.98h-3.16v31.94l4.1 2.16v1.08H53.85v-1.05zM83.75 39.45V4l-3.16-1.28v-.66L92 0h1.21v16.78l.32-.27a15.26 15.26 0 0 1 9.8-3.64c5 0 7.22 2.82 7.22 8.09v18.49l2.67 1.46V42H98.29v-1.09l2.71-1.46V20.91c0-2.9-1.26-4.06-3.64-4.06a6.25 6.25 0 0 0-4 1.3V39.5L96 41v1H81v-1zM122.7 28.56c.31 5.86 2.94 10.4 9.16 10.4 3 0 5.14-1.4 7.16-2.46v1.15a14 14 0 0 1-11 5.12c-9.65 0-14.58-5.36-14.58-14.65 0-9.08 5.39-14.73 14.11-14.73 8.2 0 12.45 4.1 12.45 14.89v.28zm-.16-1.35l8.49-.52c0-7.26-1.25-12.08-3.73-12.08-2.65 0-4.75 5.6-4.75 12.6M0 56.13c0-15.44 10.22-20.94 21.6-20.94A34.7 34.7 0 0 1 33.54 37l.22 10.77h-1.08L26 37.37a9.8 9.8 0 0 0-4.23-.68c-6.05 0-9.14 7-9 18.46.12 13.72 2.5 19.94 8.05 19.94a8.62 8.62 0 0 0 3.33-.56V59.85l-3.66-2.1v-1.23h17.66v1.31l-3.61 2v14.51a39.61 39.61 0 0 1-13.38 2.28C8.22 76.62 0 70.62 0 56.13M38 48.92V48l11.92-2.1 1.28.1v23.52c0 2.83 1.36 3.7 3.65 3.7a4.86 4.86 0 0 0 3.86-1.83V50.34l-3.27-1.41V48l11.92-2.1 1.2.11v26.91l3.21 1.35v.86L60 76.56l-1.2-.11v-3.53h-.33a13.2 13.2 0 0 1-8.92 3.75c-5.71 0-8.33-3.37-8.33-8.49V50.34zM114.17 45.88l1 .11v8.69h.27c1.27-6.37 4.08-8.75 7.51-8.75a3.79 3.79 0 0 1 1.47.22V55a10.16 10.16 0 0 0-2.45-.22 15 15 0 0 0-6.47 1.29v17.22l2.71 1.5v1.11h-15.48v-1.1l2.78-1.51V49.86l-3.26-1v-.8z" fill="#fff"/>
  <path d="M144.08 46.61v-9.16l-3.26-1.14v-.73l12-2.21 1.14.16V72.9l3.32 1.21v1l-11.86 1.6-.92-.11v-3.25h-.27a10.59 10.59 0 0 1-7.89 3.32c-6.48 0-11.21-5-11.21-15.07 0-10.67 5.5-15.91 13.82-15.91a11.79 11.79 0 0 1 5.11.92m0 25.21V48.29a4.39 4.39 0 0 0-3.29-1c-3.22.11-5.2 5-5.2 13.62 0 7.78 1.43 12.13 5.71 12a4.21 4.21 0 0 0 2.77-1M170.52 45.86l1 .11v27.32l2.72 1.5v1.11h-15.42v-1.1l2.77-1.51v-23L158.28 49v-.91zm1.09-7.38a5.17 5.17 0 0 1-5.28 5.06 5.09 5.09 0 1 1 0-10.18 5.22 5.22 0 0 1 5.28 5.12M209 73.3V50l-3.27-1.14v-1.1l11.86-2.21 1.2.11v3.48h.33a15.65 15.65 0 0 1 10.12-3.75c5.17 0 7.45 2.45 7.45 7.89v20l2.77 1.55v1.11H224v-1.1l2.78-1.51V53.82c0-3-1.31-4.19-3.75-4.19a6.49 6.49 0 0 0-4.08 1.3v22.36l2.72 1.51v1.11h-15.48v-1.1zM191.82 58.67v-3.9c0-5.88-1.28-7.8-4.92-7.8a9.51 9.51 0 0 0-1.23.11l-6.47 8.77h-.91v-8.08a34.83 34.83 0 0 1 10.85-1.87c7.91 0 12.51 2.19 12.51 8.82v19l2.83.75v.75a12.14 12.14 0 0 1-5.83 1.34c-3.9 0-5.77-1.28-6.63-3.42h-.27c-1.66 2.25-4 3.53-7.7 3.53-4.7 0-7.91-2.94-7.91-8 0-4.92 3-7.59 9.25-8.77zm0 13.15V60.07l-2 .16c-3.1.27-4.22 2.25-4.22 6.63 0 4.76 1.55 6 3.74 6a2.88 2.88 0 0 0 2.46-1M88.43 58.67v-3.9c0-5.88-1.28-7.8-4.92-7.8a9.49 9.49 0 0 0-1.23.11l-6.47 8.77h-.91v-8.08a34.85 34.85 0 0 1 10.86-1.87c7.91 0 12.51 2.19 12.51 8.82v19l2.83.75v.75a12.14 12.14 0 0 1-5.83 1.34c-3.9 0-5.77-1.28-6.63-3.42h-.27c-1.66 2.25-4 3.53-7.7 3.53-4.7 0-7.91-2.94-7.91-8 0-4.92 3-7.59 9.25-8.77zm0 13.15V60.07l-2 .16c-3.1.27-4.22 2.25-4.22 6.63 0 4.76 1.55 6 3.74 6a2.88 2.88 0 0 0 2.46-1" fill="#fff"/>
</svg>
