<?xml version="1.0" encoding="UTF-8"?>
<svg xmlns="http://www.w3.org/2000/svg" width="789" height="68" viewBox="-6.805 3.8 789 68">
    <path fill="#FFF"
          d="M321.27 54.484h19.113v-3.168l-3.696-1.794V27.03c1.373-.95 2.957-1.374 4.75-1.374 3.17 0 4.647 1.267 4.647 4.963v19.005l-3.696 1.796v3.17h19.218v-3.17l-3.8-1.795V27.98c0-6.44-2.958-9.292-8.765-9.292-4.75 0-9.396 1.69-12.46 4.54v-4.54h-.95l-14.466 2.323v3.063l4.012 1.795v23.758l-3.8 1.796v3.062h-.105zM276.817 4.22c-3.485 0-6.23 2.747-6.23 6.23 0 3.38 2.746 6.125 6.23 6.125 3.378 0 6.23-2.745 6.23-6.124 0-3.482-2.852-6.23-6.23-6.23M267.313 20.905v3.168l3.907 1.795V49.52l-3.696 1.69v3.274h19.113V51.21l-3.802-1.69V18.584h-.95M251.052 47.937c-.845.738-1.795 1.16-3.59 1.16-4.646 0-6.758-3.695-6.758-12.353 0-9.82 2.745-13.2 6.44-13.2 2.113 0 3.063.635 3.908 1.585v22.807zm0-27.665c-1.478-.95-3.696-1.584-5.596-1.584-8.553 0-16.684 4.963-16.684 19.006 0 13.41 8.13 17.74 13.622 17.74 4.33 0 7.392-1.9 8.764-3.802h.422v3.696h.95l13.834-1.584V51.21l-3.696-2.11V4.432h-.95l-14.572 2.323v3.167l3.907 1.795v8.554zM202.268 20.905v3.168l3.907 1.795V49.52l-3.696 1.795v3.274h20.062v-3.274l-4.857-1.794V30.936c2.006-1.584 4.646-2.112 7.708-2.112.95 0 2.217.106 2.956.318V19.004c-.423-.105-1.162-.21-1.795-.21-3.802 0-7.286 2.534-9.398 7.074v-7.392h-.95l-13.94 2.43zM177.348 23.65c.845-.315 2.534-.422 3.062-.422 4.54 0 5.808 2.218 5.808 6.652v3.907l-6.652 1.268c-6.864 1.268-11.932 3.38-11.932 10.56 0 5.808 4.118 9.82 9.61 9.82 4.33 0 8.446-1.9 10.03-4.964h.317c.53 3.697 3.802 4.964 7.393 4.964 2.85 0 5.49-.844 6.546-2.005V51.42l-3.697-1.796v-20.38c0-7.813-5.596-10.77-14.994-10.77-6.126 0-10.138 1.48-13.412 3.062v8.87h5.385l2.535-6.757zm8.87 23.97c-.633.95-1.9 1.48-3.167 1.48-2.217 0-4.33-1.27-4.33-5.07 0-2.745 2.536-5.278 5.28-5.7l2.324-.423v9.715h-.106z"/>
    <path fill="#FFF"
          d="M295.93 23.65c.844-.315 2.534-.422 3.06-.422 4.54 0 5.81 2.218 5.81 6.652v3.907l-6.654 1.268c-6.863 1.268-11.932 3.38-11.932 10.56 0 5.808 4.118 9.82 9.61 9.82 4.328 0 8.447-1.9 10.03-4.964h.317c.53 3.697 3.802 4.964 7.393 4.964 2.85 0 5.49-.844 6.547-2.005V51.42l-3.696-1.796v-20.38c0-7.813-5.597-10.77-14.995-10.77-6.125 0-10.138 1.48-13.41 3.062v8.87h5.384l2.535-6.757zm8.974 23.97c-.633.95-1.9 1.48-3.167 1.48-2.217 0-4.33-1.27-4.33-5.07 0-2.745 2.535-5.278 5.28-5.7l2.324-.422v9.714h-.106zM131.732 44.346c0 6.02 2.957 11.087 10.03 11.087 4.647 0 8.766-2.11 11.088-4.856v4.752h.95l14.15-1.692v-2.532l-3.907-2.112V18.688h-.95L148.52 21.01v3.17l3.908 1.794v21.012c-1.267.845-2.217 1.268-4.224 1.268-2.957 0-4.857-.845-4.857-4.857v-24.71h-.95l-14.57 2.324v3.17l3.905 1.794v18.372zM116.527 46.882h-12.46c-1.372 0-2.533-.95-2.533-2.22 0-.948.74-1.9 1.583-2.532 1.9.527 3.484.738 5.702.738 8.974 0 15.204-4.014 15.204-11.722 0-3.484-1.478-5.385-3.59-7.39l5.913 1.794v-6.97l-9.398 1.795c-2.218-.845-5.28-1.794-8.026-1.794-8.975 0-15.206 4.647-15.206 12.145 0 4.645 2.323 8.025 5.808 10.03l.317.212c-2.006 1.373-6.125 4.54-6.125 8.236 0 2.746 1.795 5.387 5.597 6.23-3.907.844-8.342 2.534-8.342 7.074 0 4.646 6.758 9.292 17.74 9.292 13.62 0 19.64-6.44 19.64-14.784-.317-6.967-4.118-10.134-11.826-10.134m-7.708-24.287c2.533 0 4.33 1.795 4.33 8.024 0 6.44-1.796 7.707-4.33 7.707s-4.225-1.267-4.225-7.708c0-6.547 1.795-8.025 4.224-8.025m0 43.714c-6.336 0-8.66-2.533-8.554-4.963.106-1.69.95-3.906 3.907-4.014h9.926c2.85 0 4.645 2.007 4.645 3.804 0 3.588-2.746 5.172-9.926 5.172M90.023 38.117c0-14.677-6.546-19.534-15.522-19.534-10.452 0-17.21 6.757-17.21 18.372 0 11.827 6.23 18.48 18.162 18.48 6.44 0 11.51-3.38 13.093-5.597l.21-2.852c-2.428.74-4.962 1.162-9.397 1.162-6.335 0-10.137-3.273-10.137-10.03h20.803zM74.29 22.49c2.85 0 4.435 2.11 4.435 10.77l-9.61.634c.107-8.87 2.007-11.405 5.175-11.405"/>
    <path fill="#FFF"
          d="M19.382 54.484h19.112v-3.168l-3.696-1.69v-22.49c1.373-.952 2.957-1.48 4.75-1.48 3.17 0 4.753 2.006 4.753 5.07V49.73l-3.695 1.795v3.168H59.61v-3.168l-3.8-1.9V27.98c0-6.44-3.696-9.292-8.764-9.292-4.752 0-9.398 1.69-12.46 4.54V3.8h-.95L19.17 6.016V9.08l4.013 1.793v38.752l-3.8 1.796v3.064zM-1.525 44.98c0 6.442 3.062 10.453 10.03 10.453 3.59 0 7.498-.95 9.715-2.533v-4.33c-.95.316-2.534.528-3.696.528-3.38 0-4.33-1.796-4.33-5.174V25.55H17.8v-6.018h-7.603v-8.13L-1.42 12.984v6.547l-5.385 1.056v4.963h5.385v19.43h-.105z"/>
    <path fill="#FCBC00"
          d="M766.978 55.33c11.088 0 15.628-4.964 15.628-12.252 0-5.28-2.534-9.714-9.292-11.192l-4.118-.845c-3.907-.844-4.752-2.006-4.752-4.118s1.9-3.38 4.646-3.38c1.9 0 4.33.423 5.068.846l1.477 4.752h4.858v-8.554c-2.747-1.16-6.863-1.795-10.98-1.795-10.244 0-14.784 4.964-14.784 11.616 0 5.175 2.955 10.243 9.397 11.723l4.224.947c3.696.846 4.646 1.9 4.646 4.436 0 2.746-2.32 3.484-5.597 3.484-2.006 0-4.752-.42-5.597-1.16l-2.007-5.81h-4.96v9.188c3.377 1.375 8.446 2.114 12.142 2.114m-14.255-17.213c0-14.572-5.07-19.324-15.522-19.324-10.347 0-17.21 6.653-17.21 18.162 0 11.827 6.124 18.374 18.056 18.374 6.44 0 11.615-2.853 13.2-5.07v-3.378c-2.43.738-4.964 1.16-9.293 1.16-6.336 0-9.61-3.272-10.14-10.03h20.91v.105zM736.99 22.7c2.85 0 4.435 1.48 4.435 10.77l-9.61.53c.106-9.293 2.006-11.3 5.174-11.3m-34.214 32.63c11.088 0 15.63-4.964 15.63-12.252 0-5.28-2.534-9.714-9.294-11.192l-4.116-.845c-3.907-.844-4.752-2.006-4.752-4.118s1.9-3.38 4.645-3.38c1.9 0 4.33.423 5.07.846l1.476 4.752h4.86v-8.554c-2.748-1.16-6.865-1.795-10.983-1.795-10.243 0-14.783 4.964-14.783 11.616 0 5.175 2.956 10.243 9.398 11.723l4.224.947c3.695.846 4.645 1.9 4.645 4.436 0 2.746-2.323 3.484-5.597 3.484-2.007 0-4.75-.42-5.596-1.16l-2.007-5.81h-4.963v9.188c3.38 1.375 8.447 2.114 12.142 2.114m-29.88 0c11.086 0 15.626-4.964 15.626-12.252 0-5.28-2.532-9.714-9.292-11.192l-4.116-.845c-3.907-.844-4.752-2.006-4.752-4.118s1.9-3.38 4.645-3.38c1.9 0 4.33.423 5.068.846l1.48 4.752h4.856v-8.554c-2.744-1.16-6.863-1.795-10.98-1.795-10.24 0-14.78 4.964-14.78 11.616 0 5.175 2.955 10.243 9.395 11.723l4.224.947c3.695.846 4.645 1.9 4.645 4.436 0 2.746-2.323 3.484-5.596 3.484-2.008 0-4.753-.42-5.598-1.16l-2.007-5.81h-4.963v9.188c3.378 1.375 8.446 2.114 12.143 2.114M635.41 23.44c.738-.106 2.427-.106 2.955-.106 4.436 0 5.808 2.217 5.808 6.652v4.646l-6.652 1.162c-7.707 1.268-12.353 2.745-12.353 9.926 0 5.807 3.907 9.714 10.03 9.714 4.332 0 8.448-1.9 10.032-4.963h.318c.527 3.697 3.8 4.964 7.39 4.964 2.746 0 5.386-.844 6.546-1.478v-2.64l-3.695-1.69V29.352c0-7.813-5.598-10.56-14.89-10.56-6.124 0-10.03 1.584-13.304 2.64v9.082h5.385l2.43-7.075zm8.763 24.39c-.633.636-1.9 1.27-3.168 1.27-2.217 0-4.33-1.27-4.33-5.07 0-3.273 2.22-5.067 4.858-5.385l2.64-.21v9.396zM604.998 6.86v3.17l3.907 1.794V49.52l-3.695 1.795v3.274h19.007v-3.274l-3.696-1.794V4.538h-.95L605 6.86zM591.06 55.33c5.703 0 10.56-2.748 12.355-4.964v-3.273c-1.69.528-5.28.95-8.448.95-5.702 0-9.926-3.484-9.926-11.72 0-9.504 2.96-13.095 6.76-13.095 1.583 0 2.85.21 3.38.528l2.005 6.863h6.02V20.165c-2.006-.74-7.076-1.48-11.088-1.48-11.508 0-19.007 6.864-19.007 18.268 0 11.09 6.123 18.375 17.95 18.375m-44.665-34.32v3.17l3.907 1.794V49.52l-3.696 1.795v3.274h20.063v-3.274l-4.753-1.794V30.198c2.005-.95 4.645-1.267 7.708-1.267.95 0 2.217.106 2.956.317V19.11c-.42-.105-1.16-.21-1.794-.21-3.8 0-6.863 2.534-8.976 7.075h-.422v-7.39h-.95l-14.043 2.426zm-.74 17.107c0-14.572-5.068-19.324-15.522-19.324-10.348 0-17.21 6.653-17.21 18.162 0 11.827 6.123 18.374 18.057 18.374 6.44 0 11.615-2.853 13.2-5.07v-3.378c-2.432.738-4.964 1.16-9.295 1.16-6.336 0-9.608-3.272-10.137-10.03h20.907v.105zM529.923 22.7c2.85 0 4.433 1.48 4.433 10.77l-9.608.53c.106-9.293 2.007-11.3 5.175-11.3m-36.536 22.28c0 7.392 3.275 10.453 10.14 10.453 3.588 0 7.496-.95 9.502-2.005v-4.436c-.847.105-2.535.21-3.696.21-3.38 0-4.33-1.69-4.33-5.173V25.655h7.602v-6.018h-7.603v-8.13l-11.615 1.583v6.548l-5.385.738v5.174h5.385v19.43zm-21.013 10.35c11.088 0 15.628-4.964 15.628-12.252 0-5.28-2.534-9.714-9.292-11.192l-4.118-.845c-3.907-.844-4.752-2.006-4.752-4.118s1.9-3.38 4.646-3.38c1.9 0 4.33.423 5.068.846l1.477 4.752h4.86v-8.554c-2.747-1.16-6.864-1.795-10.982-1.795-10.243 0-14.783 4.964-14.783 11.616 0 5.175 2.956 10.243 9.398 11.723l4.224.947c3.695.846 4.645 1.9 4.645 4.436 0 2.746-2.32 3.484-5.597 3.484-2.004 0-4.75-.42-5.596-1.16l-2.008-5.81h-4.96v9.188c3.377 1.375 8.447 2.114 12.142 2.114M434.89 23.44c.736-.106 2.428-.106 2.956-.106 4.435 0 5.808 2.217 5.808 6.652v4.646l-6.652 1.162c-7.71 1.268-12.354 2.745-12.354 9.926 0 5.807 3.907 9.714 10.03 9.714 4.33 0 8.448-1.9 10.032-4.963h.316c.528 3.697 3.8 4.964 7.392 4.964 2.852 0 5.385-.844 6.547-1.478v-2.64l-3.695-1.69V29.352c0-7.813-5.597-10.56-14.89-10.56-6.125 0-10.032 1.584-13.305 2.64v9.082h5.385l2.43-7.075zm8.763 24.39c-.636.636-1.9 1.27-3.168 1.27-2.22 0-4.33-1.27-4.33-5.07 0-3.273 2.218-5.067 4.858-5.385l2.64-.21v9.396zm-78.56 6.654h18.372v-3.168l-3.062-1.69V26.712c1.374-.633 2.64-.95 3.907-.95 3.168 0 4.33 1.268 4.33 4.963v18.9l-3.062 1.69v3.168h17.634v-3.168l-3.062-1.69V26.607c1.268-.528 2.64-.845 3.907-.845 3.062 0 4.33 1.268 4.33 4.963v18.9l-3.062 1.69v3.168h18.37v-3.168l-3.8-1.69v-21.54c0-6.44-3.062-9.293-8.87-9.293-4.752 0-8.13 1.69-11.298 4.542h-.317c-1.266-3.062-3.906-4.542-7.92-4.542-4.75 0-7.707 1.69-10.875 4.542h-.422v-4.542h-.95l-14.36 2.323v3.063l4.01 1.795v23.652l-3.8 1.69v3.17z"/>
</svg>
