<?xml version="1.0" encoding="utf-8"?>
<!-- Generator: Adobe Illustrator 20.1.0, SVG Export Plug-In . SVG Version: 6.00 Build 0)  -->
<svg version="1.1" id="Layer_1" xmlns="http://www.w3.org/2000/svg" xmlns:xlink="http://www.w3.org/1999/xlink" x="0px" y="0px"
	 viewBox="0 0 776.7 72.7" style="enable-background:new 0 0 776.7 72.7;" xml:space="preserve">
<style type="text/css">
	.st0{fill:#FFFFFF;}
	.st1{fill:#FCBC00;}
</style>
<path class="st0" d="M324.8,53.6h18.1v-3l-3.5-1.7V27.6c1.3-0.9,2.8-1.3,4.5-1.3c3,0,4.4,1.2,4.4,4.7v18l-3.5,1.7v3H363v-3l-3.6-1.7
	V28.5c0-6.1-2.8-8.8-8.3-8.8c-4.5,0-8.9,1.6-11.8,4.3v-4.3h-0.9l-13.7,2.2v2.9l3.8,1.7V49l-3.6,1.7V53.6z"/>
<path class="st0" d="M282.7,6c-3.3,0-5.9,2.6-5.9,5.9c0,3.2,2.6,5.8,5.9,5.8c3.2,0,5.9-2.6,5.9-5.8C288.6,8.6,285.9,6,282.7,6"/>
<polygon class="st0" points="273.7,21.8 273.7,24.8 277.4,26.5 277.4,48.9 273.9,50.5 273.9,53.6 292,53.6 292,50.5 288.4,48.9
	288.4,19.6 287.5,19.6 "/>
<path class="st0" d="M258.3,47.4c-0.8,0.7-1.7,1.1-3.4,1.1c-4.4,0-6.4-3.5-6.4-11.7c0-9.3,2.6-12.5,6.1-12.5c2,0,2.9,0.6,3.7,1.5
	V47.4z M258.3,21.2c-1.4-0.9-3.5-1.5-5.3-1.5c-8.1,0-15.8,4.7-15.8,18c0,12.7,7.7,16.8,12.9,16.8c4.1,0,7-1.8,8.3-3.6h0.4v3.5h0.9
	l13.1-1.5v-2.4l-3.5-2V6.2h-0.9l-13.8,2.2v3l3.7,1.7V21.2z"/>
<path class="st0" d="M212.1,21.8v3l3.7,1.7v22.4l-3.5,1.7v3.1h19v-3.1l-4.6-1.7V31.3c1.9-1.5,4.4-2,7.3-2c0.9,0,2.1,0.1,2.8,0.3V20
	c-0.4-0.1-1.1-0.2-1.7-0.2c-3.6,0-6.9,2.4-8.9,6.7v-7h-0.9L212.1,21.8z"/>
<path class="st0" d="M188.5,24.4c0.8-0.3,2.4-0.4,2.9-0.4c4.3,0,5.5,2.1,5.5,6.3l0,3.7l-6.3,1.2c-6.5,1.2-11.3,3.2-11.3,10
	c0,5.5,3.9,9.3,9.1,9.3c4.1,0,8-1.8,9.5-4.7h0.3c0.5,3.5,3.6,4.7,7,4.7c2.7,0,5.2-0.8,6.2-1.9v-1.9l-3.5-1.7V29.7
	c0-7.4-5.3-10.2-14.2-10.2c-5.8,0-9.6,1.4-12.7,2.9v8.4h5.1L188.5,24.4z M196.9,47.1c-0.6,0.9-1.8,1.4-3,1.4c-2.1,0-4.1-1.2-4.1-4.8
	c0-2.6,2.4-5,5-5.4l2.2-0.4V47.1z"/>
<path class="st0" d="M300.8,24.4c0.8-0.3,2.4-0.4,2.9-0.4c4.3,0,5.5,2.1,5.5,6.3l0,3.7l-6.3,1.2c-6.5,1.2-11.3,3.2-11.3,10
	c0,5.5,3.9,9.3,9.1,9.3c4.1,0,8-1.8,9.5-4.7h0.3c0.5,3.5,3.6,4.7,7,4.7c2.7,0,5.2-0.8,6.2-1.9v-1.9l-3.5-1.7V29.7
	c0-7.4-5.3-10.2-14.2-10.2c-5.8,0-9.6,1.4-12.7,2.9v8.4h5.1L300.8,24.4z M309.3,47.1c-0.6,0.9-1.8,1.4-3,1.4c-2.1,0-4.1-1.2-4.1-4.8
	c0-2.6,2.4-5,5-5.4l2.2-0.4V47.1z"/>
<path class="st0" d="M145.3,44c0,5.7,2.8,10.5,9.5,10.5c4.4,0,8.3-2,10.5-4.6v4.5h0.9l13.4-1.6v-2.4l-3.7-2V19.7H175l-13.8,2.2v3
	l3.7,1.7v19.9c-1.2,0.8-2.1,1.2-4,1.2c-2.8,0-4.6-0.8-4.6-4.6V19.7h-0.9l-13.8,2.2v3l3.7,1.7V44z"/>
<path class="st0" d="M130.9,46.4h-11.8c-1.3,0-2.4-0.9-2.4-2.1c0-0.9,0.7-1.8,1.5-2.4c1.8,0.5,3.3,0.7,5.4,0.7
	c8.5,0,14.4-3.8,14.4-11.1c0-3.3-1.4-5.1-3.4-7l5.6,1.7l0-6.6l-8.9,1.7c-2.1-0.8-5-1.7-7.6-1.7c-8.5,0-14.4,4.4-14.4,11.5
	c0,4.4,2.2,7.6,5.5,9.5l0.3,0.2c-1.9,1.3-5.8,4.3-5.8,7.8c0,2.6,1.7,5.1,5.3,5.9v0c-3.7,0.8-7.9,2.4-7.9,6.7c0,4.4,6.4,8.8,16.8,8.8
	c12.9,0,18.6-6.1,18.6-14C141.8,49.4,138.2,46.4,130.9,46.4 M123.6,23.4c2.4,0,4.1,1.7,4.1,7.6c0,6.1-1.7,7.3-4.1,7.3
	c-2.4,0-4-1.2-4-7.3C119.6,24.8,121.3,23.4,123.6,23.4 M123.6,64.8c-6,0-8.2-2.4-8.1-4.7c0.1-1.6,0.9-3.7,3.7-3.8h9.4
	c2.7,0,4.4,1.9,4.4,3.6C133,63.3,130.4,64.8,123.6,64.8"/>
<path class="st0" d="M105.8,38.1c0-13.9-6.2-18.5-14.7-18.5c-9.9,0-16.3,6.4-16.3,17.4c0,11.2,5.9,17.5,17.2,17.5
	c6.1,0,10.9-3.2,12.4-5.3l0.2-2.7c-2.3,0.7-4.7,1.1-8.9,1.1c-6,0-9.6-3.1-9.6-9.5H105.8z M90.9,23.3c2.7,0,4.2,2,4.2,10.2L86,34.1
	C86.1,25.7,87.9,23.3,90.9,23.3"/>
<path class="st0" d="M38.9,53.6H57v-3L53.5,49l0-21.3c1.3-0.9,2.8-1.4,4.5-1.4c3,0,4.5,1.9,4.5,4.8v18l-3.5,1.7v3H77v-3L73.4,49
	V28.5c0-6.1-3.5-8.8-8.3-8.8c-4.5,0-8.9,1.6-11.8,4.3h0V5.6h-0.9L38.7,7.7v2.9l3.8,1.7V49l-3.6,1.7V53.6z"/>
<path class="st0" d="M19.1,44.6c0,6.1,2.9,9.9,9.5,9.9c3.4,0,7.1-0.9,9.2-2.4V48c-0.9,0.3-2.4,0.5-3.5,0.5c-3.2,0-4.1-1.7-4.1-4.9
	V26.2h7.2v-5.7h-7.2v-7.7l-11,1.5v6.2l-5.1,1v4.7h5.1V44.6z"/>
<g>
	<path class="st1" d="M746.9,54.4c10.5,0,14.8-4.7,14.8-11.6c0-5-2.4-9.2-8.8-10.6l-3.9-0.8c-3.7-0.8-4.5-1.9-4.5-3.9
		c0-2,1.8-3.2,4.4-3.2c1.8,0,4.1,0.4,4.8,0.8l1.4,4.5h4.6v-8.1c-2.6-1.1-6.5-1.7-10.4-1.7c-9.7,0-14,4.7-14,11
		c0,4.9,2.8,9.7,8.9,11.1l4,0.9c3.5,0.8,4.4,1.8,4.4,4.2c0,2.6-2.2,3.3-5.3,3.3c-1.9,0-4.5-0.4-5.3-1.1l-1.9-5.5h-4.7v8.7
		C738.6,53.7,743.4,54.4,746.9,54.4 M733.4,38.1c0-13.8-4.8-18.3-14.7-18.3c-9.8,0-16.3,6.3-16.3,17.2c0,11.2,5.8,17.4,17.1,17.4
		c6.1,0,11-2.7,12.5-4.8v-3.2c-2.3,0.7-4.7,1.1-8.8,1.1c-6,0-9.1-3.1-9.6-9.5H733.4z M718.5,23.5c2.7,0,4.2,1.4,4.2,10.2l-9.1,0.5
		C713.7,25.4,715.5,23.5,718.5,23.5 M686.1,54.4c10.5,0,14.8-4.7,14.8-11.6c0-5-2.4-9.2-8.8-10.6l-3.9-0.8c-3.7-0.8-4.5-1.9-4.5-3.9
		c0-2,1.8-3.2,4.4-3.2c1.8,0,4.1,0.4,4.8,0.8l1.4,4.5h4.6v-8.1c-2.6-1.1-6.5-1.7-10.4-1.7c-9.7,0-14,4.7-14,11
		c0,4.9,2.8,9.7,8.9,11.1l4,0.9c3.5,0.8,4.4,1.8,4.4,4.2c0,2.6-2.2,3.3-5.3,3.3c-1.9,0-4.5-0.4-5.3-1.1l-1.9-5.5h-4.7v8.7
		C677.8,53.7,682.6,54.4,686.1,54.4 M657.8,54.4c10.5,0,14.8-4.7,14.8-11.6c0-5-2.4-9.2-8.8-10.6l-3.9-0.8c-3.7-0.8-4.5-1.9-4.5-3.9
		c0-2,1.8-3.2,4.4-3.2c1.8,0,4.1,0.4,4.8,0.8l1.4,4.5h4.6v-8.1c-2.6-1.1-6.5-1.7-10.4-1.7c-9.7,0-14,4.7-14,11
		c0,4.9,2.8,9.7,8.9,11.1l4,0.9c3.5,0.8,4.4,1.8,4.4,4.2c0,2.6-2.2,3.3-5.3,3.3c-1.9,0-4.5-0.4-5.3-1.1l-1.9-5.5h-4.7v8.7
		C649.5,53.7,654.3,54.4,657.8,54.4 M622.3,24.2c0.7-0.1,2.3-0.1,2.8-0.1c4.2,0,5.5,2.1,5.5,6.3v4.4l-6.3,1.1
		c-7.3,1.2-11.7,2.6-11.7,9.4c0,5.5,3.7,9.2,9.5,9.2c4.1,0,8-1.8,9.5-4.7h0.3c0.5,3.5,3.6,4.7,7,4.7c2.6,0,5.1-0.8,6.2-1.4v-2.5
		l-3.5-1.6V29.8c0-7.4-5.3-10-14.1-10c-5.8,0-9.5,1.5-12.6,2.5v8.6h5.1L622.3,24.2z M630.6,47.3c-0.6,0.6-1.8,1.2-3,1.2
		c-2.1,0-4.1-1.2-4.1-4.8c0-3.1,2.1-4.8,4.6-5.1l2.5-0.2V47.3z M593.5,8.5v3l3.7,1.7v35.7l-3.5,1.7v3.1h18v-3.1l-3.5-1.7V6.3h-0.9
		L593.5,8.5z M580.3,54.4c5.4,0,10-2.6,11.7-4.7v-3.1c-1.6,0.5-5,0.9-8,0.9c-5.4,0-9.4-3.3-9.4-11.1c0-9,2.8-12.4,6.4-12.4
		c1.5,0,2.7,0.2,3.2,0.5l1.9,6.5h5.7v-9.9c-1.9-0.7-6.7-1.4-10.5-1.4c-10.9,0-18,6.5-18,17.3C563.3,47.5,569.1,54.4,580.3,54.4
		 M538,21.9v3l3.7,1.7v22.3l-3.5,1.7v3.1h19v-3.1l-4.5-1.7V30.6c1.9-0.9,4.4-1.2,7.3-1.2c0.9,0,2.1,0.1,2.8,0.3v-9.6
		c-0.4-0.1-1.1-0.2-1.7-0.2c-3.6,0-6.5,2.4-8.5,6.7h-0.4v-7h-0.9L538,21.9z M537.3,38.1c0-13.8-4.8-18.3-14.7-18.3
		c-9.8,0-16.3,6.3-16.3,17.2c0,11.2,5.8,17.4,17.1,17.4c6.1,0,11-2.7,12.5-4.8v-3.2c-2.3,0.7-4.7,1.1-8.8,1.1c-6,0-9.1-3.1-9.6-9.5
		H537.3z M522.4,23.5c2.7,0,4.2,1.4,4.2,10.2l-9.1,0.5C517.6,25.4,519.4,23.5,522.4,23.5 M487.8,44.6c0,7,3.1,9.9,9.6,9.9
		c3.4,0,7.1-0.9,9-1.9v-4.2c-0.8,0.1-2.4,0.2-3.5,0.2c-3.2,0-4.1-1.6-4.1-4.9V26.3h7.2v-5.7h-7.2v-7.7l-11,1.5v6.2l-5.1,0.7v4.9h5.1
		V44.6z M467.9,54.4c10.5,0,14.8-4.7,14.8-11.6c0-5-2.4-9.2-8.8-10.6l-3.9-0.8c-3.7-0.8-4.5-1.9-4.5-3.9c0-2,1.8-3.2,4.4-3.2
		c1.8,0,4.1,0.4,4.8,0.8l1.4,4.5h4.6v-8.1c-2.6-1.1-6.5-1.7-10.4-1.7c-9.7,0-14,4.7-14,11c0,4.9,2.8,9.7,8.9,11.1l4,0.9
		c3.5,0.8,4.4,1.8,4.4,4.2c0,2.6-2.2,3.3-5.3,3.3c-1.9,0-4.5-0.4-5.3-1.1l-1.9-5.5h-4.7v8.7C459.6,53.7,464.4,54.4,467.9,54.4
		 M432.4,24.2c0.7-0.1,2.3-0.1,2.8-0.1c4.2,0,5.5,2.1,5.5,6.3v4.4l-6.3,1.1c-7.3,1.2-11.7,2.6-11.7,9.4c0,5.5,3.7,9.2,9.5,9.2
		c4.1,0,8-1.8,9.5-4.7h0.3c0.5,3.5,3.6,4.7,7,4.7c2.7,0,5.1-0.8,6.2-1.4v-2.5l-3.5-1.6V29.8c0-7.4-5.3-10-14.1-10
		c-5.8,0-9.5,1.5-12.6,2.5v8.6h5.1L432.4,24.2z M440.7,47.3c-0.6,0.6-1.8,1.2-3,1.2c-2.1,0-4.1-1.2-4.1-4.8c0-3.1,2.1-4.8,4.6-5.1
		l2.5-0.2V47.3z M366.3,53.6h17.4v-3l-2.9-1.6V27.3c1.3-0.6,2.5-0.9,3.7-0.9c3,0,4.1,1.2,4.1,4.7V49l-2.9,1.6v3h16.7v-3l-2.9-1.6
		V27.2c1.2-0.5,2.5-0.8,3.7-0.8c2.9,0,4.1,1.2,4.1,4.7V49l-2.9,1.6v3h17.4v-3l-3.6-1.6V28.6c0-6.1-2.9-8.8-8.4-8.8
		c-4.5,0-7.7,1.6-10.7,4.3h-0.3c-1.2-2.9-3.7-4.3-7.5-4.3c-4.5,0-7.3,1.6-10.3,4.3h-0.4v-4.3h-0.9L366.1,22v2.9l3.8,1.7V49l-3.6,1.6
		V53.6z"/>
</g>
</svg>
