<?xml version="1.0" encoding="utf-8"?>
<!-- Generator: Adobe Illustrator 27.5.0, SVG Export Plug-In . SVG Version: 6.00 Build 0)  -->
<svg version="1.1" id="Layer_1" xmlns="http://www.w3.org/2000/svg" xmlns:xlink="http://www.w3.org/1999/xlink" x="0px" y="0px"
	 viewBox="0 0 256 85" style="enable-background:new 0 0 256 85;" xml:space="preserve">
<g>
	<g>
		<path d="M15.96,83.79l3.31-1.88V58.92l-3.31-0.94v-0.64h11.2l6.31,19.39h0.15l5.79-19.39h10.3v0.64l-2.52,0.56v24.69l2.52,0.56
			v0.64H37.27v-0.64l2.18-0.53V60.46h-0.19l-7.03,23.97h-3.87l-8.15-23.97h-0.19v21.49l3.49,1.84v0.64h-7.55V83.79z"/>
		<path d="M60.71,72.33v-2.74c0-4.17-0.9-5.52-3.19-5.52c-0.26,0-0.49,0.04-0.75,0.08l-5.07,6.88h-0.64l0.15-6.39
			c1.95-0.6,4.4-1.28,7.63-1.28c5.56,0,8.79,1.54,8.79,6.2v13.38l1.99,0.53v0.53c-0.79,0.49-2.37,0.94-4.1,0.94
			c-2.74,0-4.06-0.9-4.66-2.4h-0.19c-1.17,1.58-2.82,2.48-5.41,2.48c-3.31,0-5.56-2.07-5.56-5.64c0-3.46,2.14-5.34,6.5-6.16
			L60.71,72.33z M60.71,81.57v-8.27l-1.39,0.11c-2.18,0.19-2.97,1.58-2.97,4.66c0,3.34,1.09,4.21,2.63,4.21
			C59.85,82.29,60.34,82.03,60.71,81.57z"/>
		<path d="M85.99,78.12c0,4.25-2.97,6.8-8.45,6.8c-2.48,0-5.03-0.3-7.03-1.05l-0.23-6.09h0.64l5.37,6.28
			c0.38,0.11,0.79,0.19,1.13,0.19c2.29,0,3.34-1.24,3.34-3.16c0-1.69-0.9-2.33-3.27-3.46l-1.24-0.56c-3.76-1.77-5.94-3.61-5.94-7.06
			c0-4.21,2.93-6.69,7.97-6.69c2.07,0,4.32,0.19,6.05,0.68l0.19,5.67h-0.64l-4.1-5.49c-0.45-0.15-0.9-0.23-1.32-0.23
			c-2.03,0-2.93,1.17-2.93,2.86c0,1.84,0.86,2.44,3.38,3.61l1.17,0.53C83.96,72.74,85.99,74.36,85.99,78.12z"/>
		<path d="M86.33,65.27v-0.68l2.93-0.75v-3.68l6.84-1.09v4.77h4.55v1.43H96.1v13.68c0,2.1,0.64,2.97,2.89,2.97
			c0.71,0,1.43-0.08,1.88-0.19v0.64c-1.2,1.28-3.27,2.48-5.71,2.48c-3.91,0-5.9-1.8-5.9-6.24V65.27H86.33z"/>
		<path d="M108.03,73.42c0.26,5.07,1.88,8.19,7.14,8.19c1.73,0,3.19-0.23,4.58-0.83v0.6c-1.16,1.77-4.02,3.61-8.12,3.61
			c-6.95,0-10.52-4.21-10.52-10.93c0-6.58,3.91-10.67,10.22-10.67c6.35,0,9.02,3.38,9.02,9.51v0.53H108.03z M108.03,72.67l5.82-0.26
			c0-6.46-0.86-8.3-2.67-8.3C109.23,64.1,108.03,66.73,108.03,72.67z"/>
		<path d="M128.9,63.46l0.68,0.08v5.86h0.19c1.05-4.47,2.78-6.16,5.11-6.16c0.38,0,0.79,0.04,1.01,0.15v6.2
			c-0.38-0.11-1.05-0.15-1.69-0.15c-1.88,0-3.27,0.19-4.47,0.68v13.11l2.78,0.56v0.64h-11.8v-0.64l2.14-0.56V66.21l-2.25-0.9v-0.64
			L128.9,63.46z"/>
		<path d="M136.65,74.06c0-6.58,4.21-10.71,10.9-10.71c2.67,0,5.03,0.23,6.5,0.68l0.11,6.95h-0.64l-5.03-6.88
			c-0.15-0.04-0.26-0.04-0.41-0.04c-2.93,0-4.58,3.08-4.58,8.68c0,5.86,1.99,8.83,6.65,8.83c1.73,0,3.01-0.3,4.1-0.79v0.64
			c-1.35,1.84-3.72,3.49-7.55,3.49C140,84.92,136.65,80.48,136.65,74.06z"/>
		<path d="M163.1,54.75l0.83,0.11v28.33l2.14,0.6v0.64h-11.16v-0.64l2.14-0.6V57.45l-2.29-0.86v-0.64L163.1,54.75z"/>
		<path d="M177.39,72.33v-2.74c0-4.17-0.9-5.52-3.19-5.52c-0.26,0-0.49,0.04-0.75,0.08l-5.07,6.88h-0.64l0.15-6.39
			c1.95-0.6,4.4-1.28,7.63-1.28c5.56,0,8.79,1.54,8.79,6.2v13.38l1.99,0.53v0.53c-0.79,0.49-2.37,0.94-4.1,0.94
			c-2.74,0-4.06-0.9-4.66-2.4h-0.19c-1.17,1.58-2.82,2.48-5.41,2.48c-3.31,0-5.56-2.07-5.56-5.64c0-3.46,2.14-5.34,6.5-6.16
			L177.39,72.33z M177.39,81.57v-8.27L176,73.42c-2.18,0.19-2.97,1.58-2.97,4.66c0,3.34,1.09,4.21,2.63,4.21
			C176.52,82.29,177.01,82.03,177.39,81.57z"/>
		<path d="M202.92,78.12c0,4.25-2.97,6.8-8.45,6.8c-2.48,0-5.03-0.3-7.03-1.05l-0.23-6.09h0.64l5.37,6.28
			c0.38,0.11,0.79,0.19,1.13,0.19c2.29,0,3.34-1.24,3.34-3.16c0-1.69-0.9-2.33-3.27-3.46l-1.24-0.56c-3.76-1.77-5.94-3.61-5.94-7.06
			c0-4.21,2.93-6.69,7.97-6.69c2.07,0,4.32,0.19,6.05,0.68l0.19,5.67h-0.64l-4.1-5.49c-0.45-0.15-0.9-0.23-1.32-0.23
			c-2.03,0-2.93,1.17-2.93,2.86c0,1.84,0.86,2.44,3.38,3.61l1.17,0.53C200.89,72.74,202.92,74.36,202.92,78.12z"/>
		<path d="M219.45,78.12c0,4.25-2.97,6.8-8.45,6.8c-2.48,0-5.03-0.3-7.03-1.05l-0.23-6.09h0.64l5.37,6.28
			c0.38,0.11,0.79,0.19,1.13,0.19c2.29,0,3.34-1.24,3.34-3.16c0-1.69-0.9-2.33-3.27-3.46l-1.24-0.56c-3.76-1.77-5.94-3.61-5.94-7.06
			c0-4.21,2.93-6.69,7.97-6.69c2.07,0,4.32,0.19,6.05,0.68l0.19,5.67h-0.64l-4.1-5.49c-0.45-0.15-0.9-0.23-1.32-0.23
			c-2.03,0-2.93,1.17-2.93,2.86c0,1.84,0.86,2.44,3.38,3.61l1.17,0.53C217.42,72.74,219.45,74.36,219.45,78.12z"/>
		<path d="M227.05,73.42c0.26,5.07,1.88,8.19,7.14,8.19c1.73,0,3.19-0.23,4.58-0.83v0.6c-1.16,1.77-4.02,3.61-8.12,3.61
			c-6.95,0-10.52-4.21-10.52-10.93c0-6.58,3.91-10.67,10.22-10.67c6.35,0,9.02,3.38,9.02,9.51v0.53H227.05z M227.05,72.67l5.82-0.26
			c0-6.46-0.86-8.3-2.67-8.3C228.25,64.1,227.05,66.73,227.05,72.67z"/>
		<path d="M256,78.12c0,4.25-2.97,6.8-8.45,6.8c-2.48,0-5.03-0.3-7.03-1.05l-0.23-6.09h0.64l5.37,6.28
			c0.38,0.11,0.79,0.19,1.13,0.19c2.29,0,3.34-1.24,3.34-3.16c0-1.69-0.9-2.33-3.27-3.46l-1.24-0.56c-3.76-1.77-5.94-3.61-5.94-7.06
			c0-4.21,2.93-6.69,7.97-6.69c2.07,0,4.32,0.19,6.05,0.68l0.19,5.67h-0.64l-4.1-5.49c-0.45-0.15-0.9-0.23-1.32-0.23
			c-2.03,0-2.93,1.17-2.93,2.86c0,1.84,0.86,2.44,3.38,3.61l1.17,0.53C253.97,72.74,256,74.36,256,78.12z"/>
	</g>
	<g>
		<polygon points="37.04,28.12 39.84,26.66 39.84,4.64 37.72,4.64 32.55,11.51 31.97,11.51 32.29,3.86 54.73,3.86 55.05,11.51 
			54.44,11.51 49.37,4.64 47.2,4.64 47.2,26.61 50.02,28.1 50.02,28.84 37.04,28.84 		"/>
		<path d="M57.61,27.14V2.74l-2.17-0.87V1.42l7.87-1.41h0.83v11.54l0.22-0.18c1.74-1.52,4.24-2.5,6.74-2.5
			c3.44,0,4.97,1.94,4.97,5.57v12.71l1.84,1l0,0.74H67.61v-0.74l1.85-1.01V14.39c0-1.99-0.87-2.79-2.5-2.79
			c-1.09,0-2.02,0.34-2.72,0.9v14.68l1.81,1v0.71H55.76v-0.7L57.61,27.14z"/>
		<path d="M84.4,19.65c0.21,4.03,2.02,7.15,6.3,7.15c2.07,0,3.54-0.96,4.92-1.69v0.79c-1.07,1.46-3.78,3.52-7.56,3.52
			c-6.64,0-10.03-3.69-10.03-10.08c0-6.24,3.71-10.13,9.7-10.13c5.64,0,8.56,2.82,8.56,10.24v0.19H84.4z M84.29,18.72l5.84-0.36
			c0-5-0.86-8.31-2.57-8.31C85.74,10.05,84.29,13.91,84.29,18.72"/>
		<path d="M0,38.62C0,28,7.03,24.21,14.86,24.21c3.32,0,6.46,0.53,8.21,1.26l0.15,7.41h-0.75l-4.6-7.17
			c-0.79-0.34-1.53-0.47-2.91-0.47c-4.16,0-6.29,4.81-6.22,12.69c0.08,9.44,1.72,13.72,5.54,13.72c0.99,0,1.76-0.15,2.29-0.38v-10.1
			l-2.52-1.45v-0.85h12.19v0.9l-2.48,1.39v9.97c-2.06,0.8-5.54,1.57-9.21,1.57C5.65,52.71,0,48.58,0,38.62"/>
		<path d="M26.12,33.66v-0.61l8.2-1.45l0.9,0.07v16.15c0,1.95,0.94,2.55,2.51,2.55c1.01,0,1.93-0.38,2.66-1.26V34.63l-2.25-0.97
			v-0.64l8.2-1.45l0.82,0.08v18.51l2.21,0.93v0.59l-8.08,0.99l-0.82-0.07v-2.43h-0.22c-1.5,1.38-3.59,2.58-6.14,2.58
			c-3.93,0-5.73-2.32-5.73-5.84V34.63L26.12,33.66z"/>
		<path d="M78.53,31.57l0.67,0.08l0,5.98h0.19c0.88-4.38,2.81-6.02,5.17-6.02c0.37,0,0.79,0.04,1.01,0.15v6.12
			c-0.37-0.11-1.05-0.15-1.68-0.15c-1.87,0-3.25,0.34-4.45,0.89l0,11.82l1.86,1.03l0,0.77H70.67v-0.76l1.91-1.04V34.3l-2.25-0.67
			v-0.55L78.53,31.57z"/>
		<path d="M99.11,32.07v-6.31l-2.25-0.79v-0.51l8.27-1.52l0.79,0.11v27.09l2.28,0.83v0.7l-8.16,1.1l-0.64-0.07v-2.24h-0.19
			c-1.2,1.2-2.84,2.28-5.43,2.28c-4.45,0-7.71-3.41-7.71-10.37c0-7.34,3.78-10.95,9.51-10.95C97.24,31.43,98.47,31.73,99.11,32.07
			 M99.1,49.41V33.22c-0.52-0.34-0.9-0.75-2.26-0.71c-2.21,0.08-3.58,3.42-3.58,9.37c0,5.35,0.98,8.34,3.93,8.25
			C98.01,50.1,98.69,49.81,99.1,49.41"/>
		<path d="M117.3,31.55l0.71,0.07v18.8l1.87,1.03l0,0.77h-10.63v-0.76l1.91-1.04V34.59l-2.28-0.9v-0.63L117.3,31.55z M118.05,26.47
			c0,1.98-1.69,3.48-3.63,3.48c-2.02,0-3.59-1.5-3.59-3.48s1.57-3.52,3.59-3.52C116.36,22.95,118.05,24.49,118.05,26.47"/>
		<path d="M143.74,50.43v-16l-2.25-0.79v-0.78l8.16-1.52l0.82,0.07v2.4h0.22c1.76-1.57,4.38-2.58,6.96-2.58
			c3.56,0,5.13,1.68,5.13,5.43v13.74l1.91,1.06l0,0.77h-10.63v-0.76l1.91-1.04v-13.4c0-2.06-0.9-2.88-2.58-2.88
			c-1.09,0-1.98,0.28-2.81,0.89v15.38l1.87,1.04v0.77h-10.63v-0.76L143.74,50.43z"/>
		<path d="M131.95,40.37v-2.68c0-4.04-0.88-5.37-3.38-5.37c-0.29,0-0.55,0.04-0.85,0.07l-4.45,6.03h-0.62v-5.55
			c1.91-0.59,4.3-1.29,7.46-1.29c5.44,0,8.6,1.51,8.6,6.07v13.09l1.95,0.51v0.51c-0.77,0.48-2.32,0.92-4.01,0.92
			c-2.68,0-3.97-0.88-4.56-2.35h-0.18c-1.14,1.54-2.76,2.43-5.29,2.43c-3.24,0-5.44-2.02-5.44-5.52c0-3.38,2.1-5.22,6.36-6.03
			L131.95,40.37z M131.95,49.41v-8.09l-1.36,0.11c-2.13,0.18-2.9,1.54-2.9,4.56c0,3.27,1.07,4.12,2.57,4.12
			C131.11,50.11,131.58,49.85,131.95,49.41"/>
		<path d="M60.83,40.37v-2.68c0-4.04-0.88-5.37-3.38-5.37c-0.29,0-0.55,0.04-0.85,0.07l-4.45,6.03h-0.63v-5.55
			c1.91-0.59,4.3-1.29,7.46-1.29c5.44,0,8.6,1.51,8.6,6.07v13.09l1.95,0.51v0.51c-0.77,0.48-2.32,0.92-4.01,0.92
			c-2.68,0-3.97-0.88-4.56-2.35h-0.18c-1.14,1.54-2.76,2.43-5.29,2.43c-3.24,0-5.44-2.02-5.44-5.52c0-3.38,2.1-5.22,6.36-6.03
			L60.83,40.37z M60.83,49.41v-8.09l-1.36,0.11c-2.13,0.18-2.9,1.54-2.9,4.56c0,3.27,1.07,4.12,2.57,4.12
			C59.98,50.11,60.46,49.85,60.83,49.41"/>
	</g>
</g>
</svg>
