<svg xmlns="http://www.w3.org/2000/svg" width="137.036" height="103" viewBox="0 0 137.036 103"><path fill="#111" d="M34.085 98.066c-.107-.258-.252-.465-.435-.623-.183-.16-.398-.268-.65-.33-.252-.065-.53-.097-.83-.097h-1.17v4.06h1.056c.654 0 1.183-.146 1.586-.435.402-.29.603-.823.603-1.603 0-.39-.053-.715-.16-.97m-.142-4.71c0-.64-.156-1.096-.47-1.358-.315-.265-.812-.397-1.492-.397h-.981v3.53h.773c.756 0 1.306-.136 1.652-.408.346-.27.518-.726.518-1.37zm-33.943 8.042v1.6h1.83c-.502-.168-.912-.405-1.222-.717-.25-.253-.452-.547-.608-.882zm11.95 1.6h3.17v-5.905h-3.17v5.905zm-6.728-4.7c-.19-.174-.438-.334-.747-.48-.308-.143-.688-.29-1.14-.44-.604-.203-1.127-.424-1.568-.663-.44-.237-.808-.52-1.103-.84-.296-.32-.513-.69-.652-1.113l-.012-.044v4.148h2.334v.396c0 .315.025.602.074.86.05.26.145.475.283.65.14.175.325.315.558.415.233.1.524.15.877.15.415 0 .79-.135 1.123-.406.333-.27.5-.688.5-1.255 0-.302-.04-.563-.123-.784-.08-.22-.215-.418-.403-.595zm38.327-.234c-.11-.258-.252-.465-.436-.623-.18-.16-.4-.268-.65-.33-.252-.065-.53-.097-.832-.097h-1.17v4.06h1.058c.655 0 1.182-.146 1.586-.435.403-.29.603-.823.603-1.603 0-.39-.055-.715-.16-.97zm16.535 1.01v3.924h3.735l-2.735-5.453-1 1.53zm-16.677-5.72c0-.64-.158-1.095-.472-1.357-.315-.265-.812-.397-1.492-.397h-.98v3.53h.773c.754 0 1.304-.136 1.65-.408.347-.27.52-.726.52-1.37zm10.86-80.933s-14.07-4.963-17.085-7.095c-3.014-2.13-4.019-5.328-4.019-5.328s-1.003 3.197-4.02 5.328l-17.083 7.095s-12.06 4.262-12.06 14.917v64.48c.18-.615.484-1.118.918-1.5.742-.654 1.76-.982 3.057-.982.604 0 1.16.066 1.67.197.51.134.95.347 1.32.642.372.297.662.674.87 1.132.206.46.31 1.01.31 1.65v.378h-2.602c0-.64-.113-1.134-.34-1.48-.227-.347-.604-.52-1.133-.52-.303 0-.554.044-.755.132-.202.088-.362.205-.48.35-.12.145-.202.31-.247.5-.043.187-.066.384-.066.584 0 .415.088.765.265 1.046.175.283.553.545 1.132.785l2.094.905c.517.226.938.462 1.264.706.327.248.59.51.784.793.194.282.33.594.405.934.076.34.112.718.112 1.13 0 1.423-.412 2.458-1.235 3.106-.38.3-.834.526-1.352.687h3.24v-13.392h2.717v5.15h3.17v-5.15h2.717v13.397h3.13c-.325-.114-.625-.272-.897-.48-.403-.308-.723-.745-.962-1.312-.24-.565-.36-1.303-.36-2.208v-9.396h2.72v9.396c0 .34.02.652.065.935.044.283.126.528.246.736.118.208.28.372.49.492.206.12.467.178.782.178.326 0 .592-.058.792-.178.202-.12.362-.284.48-.49.12-.21.202-.454.246-.737.044-.283.065-.595.065-.935v-9.396h2.718v9.395c0 .857-.12 1.564-.358 2.124-.24.56-.56 1.003-.963 1.33-.295.24-.622.42-.977.546h3.227v-13.397h4.548c.553 0 1.066.055 1.537.168.472.116.877.304 1.218.57.34.264.604.615.792 1.056.188.44.284.982.284 1.623 0 .73-.17 1.356-.51 1.877-.34.522-.85.877-1.53 1.065v.038c.757.1 1.355.42 1.794.962.442.54.66 1.265.66 2.17 0 .528-.068 1.032-.207 1.51-.138.48-.374.895-.708 1.254-.335.36-.768.646-1.303.86-.273.11-.582.19-.923.243h3.81v-13.396h4.55c.552 0 1.065.055 1.536.168.473.115.88.303 1.22.567.337.265.602.615.79 1.056.19.44.284.982.284 1.623 0 .728-.17 1.356-.51 1.877-.34.522-.85.877-1.53 1.065v.04c.756.1 1.354.42 1.794.96.44.542.66 1.266.66 2.17 0 .53-.068 1.032-.207 1.51-.137.48-.372.896-.706 1.254-.335.36-.77.646-1.303.86-.273.11-.582.19-.922.243h3.056l3.547-13.394h3.36l3.55 13.398h.458v-13.396h2.717v5.396h.037l3.435-5.396h2.77v-62.264c0-10.655-12.06-14.917-12.06-14.917zm12.06 89.538v-12.081l-3.488 5.497 3.487 6.584zm-16.44-1.734l-.603 2.773h4.798l-.604-2.774h-3.588zm1.776-8.285l-1.303 6.058h2.643l-1.3-6.06h-.04zM77.64 33.504c0-.428-.077-.73-.232-.907-.155-.176-.427-.265-.818-.265l-.195.01-.168.018v3.394h-2.25c-.7 0-1.28-.074-1.734-.223-.456-.147-.818-.35-1.088-.603-.27-.254-.46-.55-.567-.883s-.163-.685-.163-1.05c0-.2.017-.418.052-.656.033-.24.075-.458.125-.656l1.255-.232c-.087.223-.15.448-.186.674-.037.226-.055.47-.055.73 0 .303.04.574.12.813.08.24.22.442.414.61.195.167.455.294.78.38.327.088.73.13 1.215.13h.902v-3.272c.254-.056.512-.1.77-.13.262-.03.53-.046.81-.046.428 0 .783.05 1.065.153.28.102.507.246.674.433.168.186.286.412.354.678s.103.564.103.893v1.292h.874v.966h-2.057v-2.252zm1.87 1.283h1.274v-5.757h1.19v5.757h.875v.967h-3.34v-.967zm3.15 0h1.424c-.198-.186-.34-.405-.423-.656-.083-.25-.124-.496-.124-.738 0-.297.062-.573.186-.827s.292-.47.502-.65c.21-.18.46-.322.744-.424.285-.1.59-.153.91-.153.18 0 .358.014.532.042.173.026.334.065.483.115l-.186 1.023-.396-.13c-.138-.038-.297-.057-.478-.057-.148 0-.292.028-.427.08-.136.054-.26.13-.368.23-.108.098-.193.22-.255.362-.063.143-.093.3-.093.475 0 .16.025.32.078.48.053.157.144.298.275.422.13.123.305.222.525.297.22.074.494.11.823.11h.95v.968h-4.678v-.968zm7.357-1.2c0-.353.052-.67.158-.95.106-.278.254-.513.446-.706.193-.19.426-.338.7-.44.27-.103.578-.155.92-.155.327 0 .61.058.845.172.235.115.432.272.59.475.158.202.274.44.35.72s.11.583.11.912v2.14h-1.822c-1.53 0-2.296-.722-2.296-2.167zm1.255-2.79c-.187 0-.34-.066-.465-.2-.124-.133-.186-.292-.186-.48 0-.18.063-.334.187-.468.125-.134.28-.2.465-.2.186 0 .34.065.46.2.122.133.182.29.182.468 0 .187-.06.346-.182.48-.12.133-.274.2-.46.2zm1.674 3.99v-1.34c0-.37-.073-.658-.22-.86-.145-.2-.348-.3-.608-.3-.248 0-.455.1-.623.306-.167.205-.25.483-.25.837 0 .49.09.838.274 1.046.18.208.5.312.952.312h.474zm-.158-3.99c-.186 0-.34-.066-.464-.2-.125-.133-.187-.292-.187-.48 0-.18.062-.334.187-.468.124-.134.28-.2.464-.2.187 0 .34.065.46.2.12.133.182.29.182.468 0 .187-.06.346-.182.48-.12.133-.274.2-.46.2zm2.185 3.99h2.724c0-.217-.027-.452-.08-.707-.052-.254-.16-.503-.32-.75-.162-.244-.39-.472-.684-.683-.294-.21-.683-.378-1.166-.5l.092-1.015c.625.08 1.15.244 1.576.488.425.245.767.535 1.027.87.26.335.447.7.562 1.097.115.397.172.787.172 1.172v.026h.595v.967h-4.5v-.966zm1.05-4.278c-.186 0-.345-.067-.478-.2-.134-.134-.2-.293-.2-.48 0-.18.066-.336.2-.47.133-.132.292-.2.48-.2.185 0 .343.067.473.2.13.134.195.29.195.47 0 .187-.064.346-.195.48-.13.133-.29.2-.474.2zm3.265 4.278h1.274c-.1-.13-.18-.298-.242-.506s-.093-.46-.093-.757c0-.267.048-.53.144-.79.098-.26.24-.495.43-.702.188-.207.422-.374.7-.5.28-.128.6-.19.96-.19.32 0 .61.053.863.162.254.108.47.26.647.45.176.193.31.42.404.684.093.264.14.554.14.87 0 .335-.06.642-.177.92-.118.28-.283.517-.493.712-.21.195-.462.348-.753.456-.29.108-.61.163-.957.163h-2.845v-.97zm3.04.01c.168 0 .314-.038.438-.113.125-.074.226-.172.303-.293.076-.12.135-.258.175-.413s.06-.313.06-.474c0-.322-.08-.597-.246-.823-.166-.227-.393-.34-.684-.34-.173 0-.32.037-.437.112-.12.075-.216.17-.29.284-.075.115-.127.246-.158.395-.032.15-.047.3-.047.447 0 .16.02.316.056.465s.092.28.164.39c.07.112.163.2.275.265.11.067.24.1.39.1zm.066-4.12c-.187 0-.346-.066-.48-.2-.133-.133-.2-.292-.2-.478 0-.18.067-.337.2-.47.134-.134.293-.2.48-.2.186 0 .343.066.474.2.13.133.195.29.195.47 0 .185-.064.345-.195.478-.13.132-.288.2-.474.2zm3.673-.707l-.387-.032-.423-.033v-.744c.298-.043.62-.077.963-.1.344-.026.69-.032 1.037-.02v5.746h.78v.967h-1.97v-5.784zm1.785 4.817h1.302v-3.31h1.18v4.276h-2.48v-.966zm1.878-3.998c-.186 0-.346-.067-.48-.2-.132-.134-.2-.293-.2-.48 0-.18.068-.336.2-.47.134-.133.294-.2.48-.2.187 0 .344.066.475.2.13.134.195.29.195.47 0 .186-.065.345-.195.48-.13.133-.288.2-.475.2zm5.44 1.673c0 .21-.073.39-.22.54-.145.148-.323.223-.533.223-.21 0-.39-.075-.54-.224-.148-.147-.223-.327-.223-.538 0-.205.074-.38.224-.53.148-.15.328-.224.54-.224.21 0 .387.075.533.224.147.15.22.326.22.53zm0 2.632c0 .21-.073.39-.22.54-.145.15-.323.223-.533.223-.21 0-.39-.074-.54-.223-.148-.15-.223-.33-.223-.54 0-.205.074-.38.224-.53.148-.15.328-.223.54-.223.21 0 .387.075.533.224.147.15.22.325.22.53zm2.71.436c-.455-.148-.818-.35-1.087-.604-.27-.254-.458-.548-.567-.883-.11-.335-.163-.685-.163-1.05 0-.2.017-.418.05-.656.035-.24.077-.458.126-.656l1.254-.23c-.086.222-.148.447-.186.673-.037.227-.056.47-.056.73 0 .304.04.575.12.813s.22.442.415.61c.195.167.455.294.78.38.327.087.73.13 1.215.13h1.73v-5.757h1.19v6.723h-3.088c-.7 0-1.278-.073-1.733-.222zm.58-3.495l.14.005.182.014.19.024.158.032c-.056-.05-.094-.113-.116-.19l-.032-.255c0-.112.024-.217.07-.316.046-.1.114-.19.204-.27s.203-.145.334-.19c.133-.047.29-.07.47-.07l.312.037c.114.025.22.06.31.103l-.203.548-.206-.08-.242-.032c-.093 0-.172.027-.237.08-.064.053-.098.122-.098.21 0 .235.19.352.577.352h.483v.688h-2.297v-.688zm6.074-2.065l-.386-.032-.424-.033v-.744c.3-.043.62-.077.963-.1.344-.026.69-.032 1.037-.02v5.746h.78v.967h-1.97v-5.784zm1.786 4.817h1.3v-3.31h1.182v3.31h.874v.967h-3.356v-.967zm1.68 3.003c-.186 0-.346-.066-.48-.2-.133-.132-.2-.292-.2-.478 0-.18.067-.336.2-.47.134-.133.294-.2.48-.2s.344.067.475.2.195.29.195.47c0 .186-.064.346-.195.48s-.29.2-.475.2zm4.373-1.943c-.26 0-.507-.06-.74-.182-.23-.12-.422-.308-.57-.562-.144.267-.312.442-.508.526-.195.082-.407.124-.637.124h-.428v-.967h.335c.168 0 .313-.04.438-.116.124-.077.226-.182.307-.315s.14-.29.182-.465c.04-.176.06-.364.06-.562v-1.85h1.188v2.426c0 .334.054.577.163.726.108.15.263.223.46.223.274 0 .46-.12.56-.358.098-.238.148-.627.148-1.167v-1.85h1.172v2.584c0 .483.22.725.66.725h.566v-1.414c0-.446-.016-.85-.05-1.208-.035-.36-.077-.69-.125-.995l1.2-.158c.05.285.088.62.116 1.003.027.385.04.782.04 1.19v2.548h-1.813c-.378 0-.68-.054-.907-.163-.226-.108-.398-.278-.516-.507-.155.248-.334.437-.54.568-.204.132-.458.197-.76.197zm1.05-5.05c-.167 0-.306-.06-.418-.18-.112-.12-.167-.266-.167-.433 0-.16.055-.302.167-.423s.25-.18.42-.18c.166 0 .304.06.413.18.108.122.163.263.163.424 0 .167-.053.312-.162.432-.11.122-.247.18-.414.18zm.67-1.208c-.155 0-.284-.058-.386-.173-.102-.114-.154-.243-.154-.386 0-.154.05-.286.154-.395.103-.108.23-.163.386-.163.154 0 .283.055.386.163.1.11.153.24.153.396 0 .144-.052.272-.154.387-.104.115-.232.172-.387.172zm.697 1.207c-.167 0-.307-.06-.418-.18-.11-.12-.167-.266-.167-.433 0-.16.056-.302.167-.423.112-.12.25-.18.418-.18.168 0 .305.06.414.18.108.122.163.263.163.424 0 .167-.055.312-.163.432-.11.122-.246.18-.414.18zm-63.65 15.488c-.402-.407-.603-.968-.603-1.682 0-.335.054-.66.16-.97.107-.313.268-.59.484-.83.216-.24.49-.43.818-.575.33-.144.72-.216 1.172-.216.31 0 .61.015.905.042s.583.065.864.113v3.662h.946v1.07h-2.86c-.858 0-1.486-.205-1.887-.613zm.796-4.87c-.206 0-.377-.074-.515-.22-.136-.15-.205-.325-.205-.53 0-.2.07-.372.206-.52.138-.147.31-.222.516-.222s.375.074.51.222.2.32.2.52c0 .206-.067.38-.2.53-.135.146-.304.22-.51.22zm1.696 4.412v-2.694l-.318-.057-.268-.016c-.356 0-.638.12-.843.36-.206.24-.31.564-.31.976 0 .192.023.374.067.545.045.172.117.323.216.453.1.13.227.235.386.314.158.08.354.118.586.118h.484zm-.02-4.412c-.206 0-.377-.074-.514-.22-.137-.15-.206-.325-.206-.53 0-.2.07-.372.206-.52s.31-.222.514-.222c.206 0 .376.074.51.222s.2.32.2.52c0 .206-.066.38-.2.53-.134.146-.305.22-.51.22zm2.068 4.412h2.612v1.07h-2.612v-1.07zm2.406 0h2.612v1.07h-2.612v-1.07zm2.941 3.322c-.206 0-.377-.074-.514-.22-.137-.148-.206-.325-.206-.53 0-.2.07-.372.206-.52.137-.146.31-.22.514-.22.206 0 .375.073.51.22.134.148.2.32.2.52 0 .206-.066.382-.2.53-.135.146-.305.22-.51.22zm-.535-3.322h1.44v-3.66h1.306v3.66h.967v1.07h-3.712v-1.07zm2.212 3.322c-.206 0-.377-.074-.515-.22-.138-.148-.207-.325-.207-.53 0-.2.068-.372.206-.52.137-.146.308-.22.514-.22.205 0 .375.073.51.22.133.148.2.32.2.52 0 .206-.067.382-.2.53-.135.146-.305.22-.51.22zm1.296-3.322h1.44v-3.66h1.305v4.73h-2.745v-1.07zm1.45 3.322c-.207 0-.383-.074-.53-.22s-.222-.325-.222-.53c0-.2.074-.372.22-.52.148-.146.325-.22.53-.22s.38.073.525.22c.144.148.216.32.216.52 0 .206-.073.382-.217.53s-.318.22-.524.22zm2.035.319c-.185 0-.362-.01-.534-.03l.104-1.07c.152.02.302.03.453.03.432 0 .75-.1.956-.303.207-.202.31-.57.31-1.105v-4.824h1.315v3.66h.967v1.07h-.967v.043c0 .33-.038.645-.113.95-.076.305-.21.574-.407.807-.195.233-.46.42-.797.56-.335.14-.764.21-1.285.21zm3.365-3.641h.544c.706 0 1.35-.13 1.933-.39l-.432-.422c-.136-.137-.282-.268-.437-.39s-.328-.24-.52-.35c-.19-.11-.42-.213-.69-.31l.145-1.12c.41-.29.84-.52 1.286-.69.444-.17.9-.257 1.366-.257.377 0 .706.048.988.145.28.096.515.226.704.39.19.165.33.36.422.582.092.223.14.465.14.725 0 .3-.087.596-.258.884-.17.288-.41.566-.72.833.19.11.373.2.545.268.17.07.38.103.627.103h.34v1.07h-.392c-.473 0-.89-.063-1.25-.19-.36-.126-.684-.296-.97-.51-.413.22-.85.392-1.313.515s-.925.186-1.384.186h-.68v-1.074zm3.546-1.008c.185-.158.324-.322.417-.494.092-.172.14-.336.14-.494 0-.253-.09-.456-.27-.606-.177-.15-.417-.226-.72-.226-.266 0-.504.043-.713.128-.208.086-.406.19-.592.314.18.068.338.15.48.242.14.093.277.196.41.31.134.113.267.238.402.374l.446.452zm2.232 1.008h1.41v-6.366h1.315v7.436h-2.725v-1.07zm4.752-5.326l-.427-.037-.468-.036v-.823c.33-.048.684-.085 1.064-.113.38-.026.762-.033 1.146-.02v7.425h-1.315v-6.396zm5.393 5.784c-.4-.407-.602-.968-.602-1.682 0-.335.054-.66.16-.97.106-.313.267-.59.483-.83.216-.24.49-.43.818-.575.33-.144.72-.216 1.173-.216.308 0 .61.015.905.042.295.027.582.065.864.113v3.662h.946v1.07h-2.86c-.855 0-1.484-.205-1.885-.613zm.797-4.87c-.205 0-.377-.074-.514-.22-.137-.15-.206-.325-.206-.53 0-.2.07-.372.206-.52.137-.147.31-.222.514-.222.206 0 .375.074.51.222.133.147.2.32.2.52 0 .206-.067.38-.2.53-.134.146-.304.22-.51.22zm1.697 4.412v-2.694l-.318-.057-.268-.016c-.356 0-.638.12-.843.36-.208.24-.31.564-.31.976 0 .192.023.374.067.545.045.172.117.323.215.453.1.13.228.235.387.314.156.08.352.118.585.118h.482zm-.02-4.412c-.206 0-.377-.074-.515-.22-.137-.15-.206-.325-.206-.53 0-.2.07-.372.206-.52s.31-.222.515-.222.375.074.51.222c.132.147.2.32.2.52 0 .206-.068.38-.2.53-.134.146-.304.22-.51.22zm2.067 4.412h1.41c-.11-.144-.2-.33-.27-.56-.067-.23-.102-.51-.102-.838 0-.295.054-.586.16-.874.106-.288.264-.547.473-.777.21-.23.468-.415.777-.555.31-.14.66-.21 1.06-.21.356 0 .675.06.955.18.282.12.52.287.716.5.195.21.344.464.446.755.103.292.153.612.153.962 0 .37-.065.71-.195 1.017-.13.31-.312.57-.545.787-.233.216-.51.384-.833.504-.322.12-.676.18-1.06.18h-3.147v-1.072zm3.363.01c.186 0 .347-.04.483-.123.137-.082.25-.19.334-.324.086-.134.15-.287.195-.46.044-.17.066-.345.066-.523 0-.357-.09-.66-.273-.91-.182-.25-.433-.376-.755-.376-.192 0-.354.042-.484.125-.13.082-.236.187-.32.314-.08.125-.14.27-.173.436-.033.164-.05.33-.05.494 0 .178.02.35.062.514.042.165.1.31.18.432.08.124.18.22.304.293.122.07.266.106.43.106zm.072-4.555c-.207 0-.383-.073-.53-.22-.148-.148-.222-.325-.222-.53 0-.2.074-.372.22-.52s.325-.22.53-.22c.208 0 .38.074.525.22s.216.32.216.52c0 .206-.073.382-.217.53-.144.147-.318.22-.524.22zm4.063-.781l-.427-.037-.468-.036v-.823c.33-.048.684-.085 1.064-.113.382-.026.764-.033 1.15-.02v6.355h.862v1.07h-2.18v-6.396zm1.974 5.326h1.43c-.124-.178-.22-.382-.29-.61-.067-.23-.1-.493-.1-.788 0-.302.053-.598.164-.89.11-.292.27-.55.482-.776.212-.226.47-.408.776-.545.305-.137.653-.206 1.044-.206.29 0 .57.048.844.145.273.097.515.242.725.438s.38.444.51.746c.13.3.195.658.195 1.07 0 .328-.052.618-.16.868-.105.25-.2.434-.28.55h1.08v1.07h-6.42v-1.072zm2.365-4.535c-.205 0-.376-.072-.514-.22-.137-.147-.206-.324-.206-.53 0-.2.068-.37.206-.52.138-.146.31-.22.515-.22s.376.074.51.22c.133.15.2.32.2.52 0 .206-.067.383-.2.53-.133.147-.303.22-.51.22zm1 4.546c.184 0 .345-.042.482-.128.137-.085.248-.195.334-.33.086-.134.15-.286.195-.458.046-.172.068-.343.068-.514 0-.39-.094-.703-.283-.936-.188-.232-.437-.35-.745-.35-.192 0-.354.04-.484.118-.13.08-.236.182-.318.31-.082.126-.14.272-.175.437-.035.165-.052.333-.052.504s.02.336.058.497c.037.162.097.305.18.433.082.127.186.228.31.303.122.076.267.113.43.113zm.678-4.545c-.206 0-.377-.072-.515-.22-.137-.147-.206-.324-.206-.53 0-.2.068-.37.206-.52.137-.146.31-.22.515-.22.205 0 .375.074.508.22.134.15.2.32.2.52 0 .206-.066.383-.2.53-.132.147-.303.22-.508.22zm2.169 4.534h1.44v-3.66h1.305v3.66h.967v1.07h-3.712v-1.07zm1.244-4.412c-.185 0-.34-.067-.462-.2-.124-.135-.186-.294-.186-.48 0-.178.062-.334.186-.468.123-.134.277-.2.462-.2.186 0 .337.066.458.2.12.134.18.29.18.468 0 .186-.06.345-.18.48-.12.133-.273.2-.458.2zm.74-1.337c-.17 0-.312-.063-.425-.19-.114-.126-.17-.27-.17-.426 0-.17.057-.316.17-.436.113-.12.255-.18.426-.18.17 0 .314.06.426.18.112.12.17.265.17.437 0 .16-.057.3-.17.427-.113.127-.256.19-.427.19zm.772 1.337c-.186 0-.34-.067-.463-.2s-.185-.294-.185-.48c0-.178.062-.334.186-.468s.28-.2.464-.2.337.066.458.2c.12.134.18.29.18.468 0 .186-.06.345-.18.48-.12.133-.273.2-.458.2zm.75 4.412h1.41v-6.366h1.315v7.436h-2.726v-1.07zm4.751-5.326l-.425-.037-.468-.036v-.823c.33-.048.684-.085 1.064-.113.38-.026.763-.033 1.147-.02v7.425h-1.316l-.002-6.396zm-64.901 16.843c0-.603.09-1.142.27-1.618.18-.476.434-.877.76-1.205.33-.327.725-.58 1.19-.752.464-.175.988-.262 1.57-.262.56 0 1.04.098 1.443.293.4.195.737.464 1.007.807.27.344.468.754.594 1.23.127.475.19.993.19 1.553v3.646h-3.108c-2.61 0-3.916-1.23-3.916-3.693zm2.14-4.757c-.316 0-.58-.114-.792-.34-.21-.228-.316-.5-.316-.817 0-.308.105-.574.316-.802.212-.227.476-.34.793-.34.317 0 .578.113.785.34.206.228.31.494.31.8 0 .318-.104.59-.31.817-.207.227-.468.34-.785.34zm2.855 6.802v-2.284c0-.634-.126-1.123-.374-1.467-.248-.343-.594-.515-1.04-.515-.422 0-.776.174-1.06.522-.286.35-.43.825-.43 1.427 0 .836.156 1.43.468 1.785.312.354.854.53 1.625.53l.81.003zm-.27-6.802c-.318 0-.583-.114-.794-.34-.21-.228-.316-.5-.316-.817 0-.308.105-.574.316-.802.212-.227.477-.34.793-.34.316 0 .577.113.784.34.206.228.31.494.31.8 0 .318-.104.59-.31.817-.207.227-.468.34-.785.34zm3.281 12.414c-.285 0-.56-.015-.824-.046l.158-1.65c.232.033.466.048.698.048.666 0 1.157-.156 1.474-.467.316-.312.476-.88.476-1.705v-7.436h2.03v5.645h1.49v1.647h-1.49v.063c0 .508-.058.996-.174 1.467-.117.47-.325.886-.626 1.245-.3.36-.71.647-1.228.864-.52.216-1.18.325-1.984.325zm5.185-5.612h4.027v1.648h-4.027v-1.648zm3.71 0h4.027v1.648h-4.027v-1.648zm3.71 0h1.903v-5.645h2.03c0 .443-.01.827-.024 1.15-.016.322-.035.602-.056.84-.02.237-.047.443-.08.618l-.08.468c.212-.39.474-.78.786-1.173.312-.39.663-.745 1.054-1.062.39-.317.814-.576 1.27-.776.454-.2.924-.302 1.41-.302.983 0 1.76.302 2.33.904.57.602.857 1.505.857 2.71v3.916h-11.4v-1.648zm9.244 0v-2.062c0-.75-.1-1.294-.294-1.633-.196-.338-.542-.507-1.04-.507-.412 0-.81.108-1.197.325-.386.218-.75.514-1.094.89-.344.375-.664.82-.96 1.33-.296.514-.554 1.066-.776 1.658h5.36zm4.961-8.213l-.657-.056-.722-.056v-1.27c.51-.073 1.056-.13 1.642-.173s1.176-.052 1.768-.03v9.798h1.33v1.65h-3.36v-9.863zm3.045 8.213h.84c1.09 0 2.083-.2 2.98-.603l-.665-.65c-.212-.21-.437-.412-.674-.603-.238-.19-.505-.37-.8-.54-.297-.167-.65-.326-1.063-.475l.222-1.728c.634-.444 1.294-.8 1.982-1.063.687-.264 1.39-.396 2.108-.396.582 0 1.09.076 1.522.223.433.148.795.35 1.086.603.29.253.507.553.65.896.142.343.213.716.213 1.118 0 .465-.132.92-.396 1.363-.264.444-.634.872-1.11 1.285.296.17.576.306.84.412.265.105.588.16.968.16h.524v1.647h-.603c-.73 0-1.373-.097-1.928-.293-.554-.196-1.054-.457-1.498-.786-.635.34-1.31.603-2.02.793s-1.425.286-2.134.286h-1.046v-1.648zm5.47-1.554c.286-.244.5-.497.643-.76.143-.266.214-.52.214-.762 0-.39-.138-.703-.413-.936-.276-.232-.646-.35-1.11-.35-.413 0-.78.067-1.103.2-.323.13-.626.292-.912.482.274.106.52.23.737.373.216.143.427.3.634.477.206.175.412.367.62.58l.69.697zm7.913 3.076c-.37-.084-.685-.193-.943-.325-.26-.132-.465-.28-.62-.443-.152-.165-.26-.32-.324-.468-.147.443-.402.782-.76 1.015-.36.23-.867.348-1.522.348h-.3v-1.65h.633c.202 0 .38-.052.532-.157.154-.105.28-.244.38-.42.102-.174.178-.37.23-.586.053-.217.08-.43.08-.642 0-.698.09-1.303.27-1.816.18-.513.437-.936.77-1.27.332-.332.73-.58 1.197-.744.463-.164.98-.246 1.553-.246.528 0 .993.093 1.395.278s.737.45 1.007.792.476.752.618 1.23c.143.475.214 1.002.214 1.584v1.998h1.49v1.65h-4.6c-.497 0-.93-.044-1.3-.128zm2.377-1.522v-2.284c0-.677-.132-1.175-.395-1.5-.264-.32-.604-.482-1.015-.482-.423 0-.777.182-1.062.547-.286.364-.428.832-.428 1.402 0 .835.153 1.43.46 1.783.306.354.85.532 1.632.532h.808zm3.203 0h2.172v-9.815h2.03v11.463h-4.202v-1.648zm7.325-8.213l-.658-.056-.722-.056v-1.27c.507-.073 1.055-.13 1.64-.173s1.177-.052 1.768-.03v11.447h-2.028v-9.862zM72.412 66.65h1.68l2.22 11.222h-1.582l-.447-2.494h-2.11l-.448 2.494h-1.535l2.222-11.222zm1.63 7.306l-.815-4.492-.815 4.492h1.63zm5.18-7.273h1.63l1.024 7.737 1.23-7.737h1.456l1.215 7.737 1.04-7.737h1.582l-1.759 11.237h-1.632l-1.198-7.577-1.2 7.577h-1.615l-1.773-11.237zm10.118 0h1.566v11.19h-1.566v-11.19zm2.973 0h1.503l2.43 6.778v-6.777h1.535v11.19h-1.42l-2.51-7.034v7.033h-1.536v-11.19zm6.81 0h1.68c2.365 0 3.803 1.823 3.803 5.42v.35c0 3.598-1.438 5.42-3.804 5.42h-1.68v-11.19zm1.822 9.75c1.15 0 2.062-1.07 2.062-3.98v-.35c0-2.91-.927-3.98-2.078-3.98h-.226v8.31h.24zm4.555-3.916v-.48c0-3.772 1.184-5.5 2.878-5.5s2.878 1.728 2.878 5.5v.48c0 3.772-1.184 5.5-2.878 5.5s-2.877-1.726-2.877-5.5zm4.157 0v-.48c0-2.893-.527-4.06-1.278-4.06-.753 0-1.28 1.167-1.28 4.06v.48c0 2.894.527 4.06 1.28 4.06.75 0 1.277-1.166 1.277-4.06zm2.063-5.834h1.63l1.022 7.737 1.23-7.737h1.456l1.215 7.737 1.04-7.737h1.582l-1.758 11.238h-1.63l-1.2-7.576-1.2 7.577h-1.615l-1.773-11.237zm12.405 5.834v-.48c0-3.772 1.183-5.5 2.877-5.5s2.877 1.728 2.877 5.5v.48c0 3.772-1.184 5.5-2.878 5.5s-2.877-1.726-2.877-5.5zm4.155 0v-.48c0-2.893-.527-4.06-1.28-4.06-.75 0-1.277 1.167-1.277 4.06v.48c0 2.894.527 4.06 1.278 4.06.753 0 1.28-1.166 1.28-4.06zm2.718-5.834h1.502l2.43 6.778v-6.777h1.535v11.19h-1.423l-2.51-7.034v7.033h-1.532l-.002-11.19zm-60.545 17.887v-.318c0-3.517 1.31-5 2.893-5 .494 0 .755.072 1.12.247v1.48c-.365-.217-.655-.333-.99-.333-.886 0-1.57.945-1.57 3.59v.35c0 2.746.684 3.59 1.585 3.59.306 0 .64-.103 1.005-.32v1.41c-.364.217-.742.304-1.236.304-1.586 0-2.807-1.51-2.807-5zm4.489.058v-.436c0-3.43 1.076-5 2.616-5s2.617 1.57 2.617 5v.436c0 3.43-1.077 5-2.617 5s-2.616-1.568-2.616-5zm3.78 0v-.436c0-2.63-.48-3.692-1.164-3.692-.684 0-1.163 1.06-1.163 3.692v.436c0 2.63.48 3.692 1.163 3.692s1.163-1.06 1.163-3.692zm2.468-5.305h1.367l2.21 6.163v-6.163h1.394v10.175h-1.29l-2.284-6.395v6.395h-1.397v-10.175zm7.165 1.352h-1.38v-1.352h4.17v1.352h-1.365v8.823h-1.425v-8.823zm3.618-1.352h3.765v1.352h-2.325v3.023h2.078v1.352h-2.077v3.096h2.37v1.352h-3.81v-10.175zm4.767 0h1.467l1.44 4.317 1.437-4.317h1.468v10.175h-1.38v-6.934l-1.512 4.476h-.044l-1.51-4.476v6.934h-1.368v-10.175zm7.033 0h1.482c1.905 0 3.184 1.105 3.184 3.358v.03c0 2.18-1.222 3.33-3.053 3.43h-.173v3.357h-1.44v-10.175zm1.628 5.495c.96-.03 1.6-.712 1.6-2.064v-.03c0-1.41-.61-2.078-1.57-2.078h-.217v4.17h.188zm3.677-.19v-.436c0-3.43 1.075-5 2.616-5 1.54 0 2.617 1.57 2.617 5v.436c0 3.43-1.076 5-2.616 5s-2.616-1.568-2.616-5zm3.778 0v-.436c0-2.63-.48-3.692-1.163-3.692s-1.163 1.06-1.163 3.692v.436c0 2.63.48 3.692 1.163 3.692s1.163-1.06 1.163-3.692zm2.47-5.305h1.657c1.802 0 3.08 1.003 3.08 3.17v.1c0 1.353-.566 2.24-1.365 2.72l1.54 4.185h-1.54l-1.366-3.72-.19.014h-.377v3.706h-1.438v-10.175zm1.686 5.175c.96 0 1.614-.582 1.614-1.89v-.086c0-1.395-.698-1.86-1.657-1.86h-.205v3.836h.247zm5.492-5.204h1.526l2.02 10.204h-1.437l-.408-2.267h-1.92l-.406 2.268h-1.397l2.02-10.204zm1.482 6.644l-.742-4.085-.74 4.085h1.482zm2.819-6.615h1.657c1.802 0 3.08 1.003 3.08 3.17v.1c0 1.353-.566 2.24-1.366 2.72l1.542 4.185h-1.542l-1.365-3.72-.19.014h-.376v3.706h-1.438v-10.175zm1.686 5.175c.96 0 1.615-.582 1.615-1.89v-.086c0-1.395-.698-1.86-1.657-1.86h-.204v3.836h.247zm5.143.872l-1.962-6.047h1.497l1.19 4.158 1.222-4.157h1.454l-1.962 6.047v4.128h-1.438l-.002-4.128zm-61.222 5.985h1.68l2.22 11.222h-1.582l-.447-2.494h-2.11l-.448 2.494h-1.535l2.222-11.222zm1.63 7.306l-.815-4.49-.815 4.49h1.63zm3.101-7.273h1.823c1.982 0 3.39 1.104 3.39 3.485v.112c0 1.487-.624 2.462-1.503 2.99l1.694 4.603h-1.694l-1.503-4.092-.208.016h-.417v4.077h-1.583v-11.192zm1.855 5.69c1.055 0 1.775-.638 1.775-2.077v-.095c0-1.534-.768-2.046-1.823-2.046h-.224v4.22h.272zm6.042-5.723h1.677l2.222 11.222h-1.584l-.448-2.494h-2.11l-.447 2.494h-1.533l2.222-11.222zm1.63 7.306l-.816-4.49-.814 4.49h1.63zm3.1-7.273h1.616c1.854 0 3.452.88 3.452 2.83v.064c0 1.503-.863 2.222-1.743 2.59 1.055.368 1.887 1.102 1.887 2.558v.112c0 1.934-1.487 3.037-3.628 3.037h-1.584v-11.192zm1.742 4.86c1.104 0 1.775-.624 1.775-1.742v-.032c0-1.087-.688-1.63-1.71-1.63h-.224v3.404h.16zm0 4.875c1.135 0 1.887-.607 1.887-1.694v-.065c0-1.12-.72-1.743-1.855-1.743h-.192v3.5h.16zm6.81-3.963v-.354c0-3.868 1.438-5.5 3.18-5.5.544 0 .832.08 1.232.272v1.63c-.4-.24-.72-.368-1.087-.368-.975 0-1.726 1.04-1.726 3.95v.382c0 3.02.75 3.95 1.743 3.95.335 0 .703-.113 1.104-.353v1.55c-.4.24-.815.335-1.36.335-1.742.003-3.085-1.66-3.085-5.496zm5.531 2.27v-8.042h1.566v8.185c0 1.167.447 1.694 1.103 1.694.67 0 1.12-.527 1.12-1.694v-8.185h1.55v8.04c0 2.207-1.104 3.294-2.67 3.294-1.567 0-2.67-1.088-2.67-3.293zm6.649-8.042h1.583v9.704h2.285v1.486h-3.868v-11.19zm5.226 1.487h-1.52v-1.487h4.59v1.487h-1.504v9.703h-1.566v-9.703zm3.948 6.555v-8.042h1.566v8.185c0 1.167.447 1.694 1.103 1.694.67 0 1.12-.527 1.12-1.694v-8.185h1.55v8.04c0 2.207-1.104 3.294-2.67 3.294s-2.67-1.088-2.67-3.293zm6.65-8.042h1.822c1.982 0 3.39 1.104 3.39 3.485v.112c0 1.487-.624 2.462-1.503 2.99l1.694 4.603h-1.695l-1.502-4.092-.208.016h-.415v4.077h-1.583v-11.192zm1.854 5.69c1.055 0 1.774-.638 1.774-2.077v-.095c0-1.534-.767-2.046-1.823-2.046h-.223v4.22h.273zm4.427-5.69h4.14v1.487h-2.557v3.325h2.286v1.486h-2.286v3.405h2.605v1.488h-4.188v-11.19z"/></svg>
