<svg xmlns="http://www.w3.org/2000/svg" width="144.927" height="50" viewBox="0 0 289.853 100" enable-background="new 0 0 289.853 100"><path fill="#fff" d="M136.886 82.496l-3.8-13.793h-7.472l7.472 20.202v11.007h7.338v-11.007l7.78-20.202h-7.515l-3.804 13.793zm-21.02-8.4c2.254 0 2.652.485 2.652 3.183 0 2.386-.13 3.534-1.635 3.845-.354.088-1.017.088-3.27.088v-7.117h2.254zm-9.33 25.816h7.076v-13.306c4.2-.044 4.862-.044 4.862 3.405 0 .884-.088 4.642-.088 5.393 0 2.563.53 3.49 1.06 4.51h6.942c-.663-.753-1.063-1.372-1.063-3.45v-6.63c0-3.802-.308-5.35-4.022-6.232 2.39-1.28 3.936-2.3 3.936-6.94 0-2.21-.134-4.376-1.506-5.968-1.768-1.944-4.596-2.032-6.585-2.032h-10.612v31.252zm-18.704-31.252v31.25h16.137v-5.525h-8.579v-7.515h8.09v-5.524h-8.09v-7.16h8.577v-5.526h-16.137zm-52.798 18.874h-4.2l2.122-13.88 2.078 13.88zm-13.529 12.378h7.384l1.103-7.117h5.79l1.063 7.117h7.38l-6.32-31.21h-10.08l-6.32 31.21zm-1.922-23.34c0-2.607 0-5.527-3.272-7.252-2.253-1.193-5.567-1.193-6.628-1.193-7.516 0-9.682 2.785-9.682 9.99v11.627c-.001 4.023-.001 10.256 6.584 10.256 1.548 0 3.625-.133 5.748-2.96v2.872h7.25v-16.49h-10.166v5.173h2.917v3.537c0 1.148 0 2.96-2.386 2.96-2.387 0-2.387-1.9-2.387-3.005v-15.56c0-1.416 0-2.963 2.344-2.963 2.43 0 2.43 1.725 2.43 2.875v2.917h7.25v-2.786zm263.77-35.326h2.033l-2.033 6.72h3.006l3.493-6.72v-6.72h-6.5v6.72zm-11.627 12.642c2.786 1.99 2.832 2.212 2.832 4.6 0 .75-.046 2.21-2.39 2.21-2.21 0-2.21-1.77-2.21-2.52v-2.433h-7.47c-.09 3.758-.133 6.587 2.122 8.488 1.635 1.326 4.2 1.944 7.692 1.944 4.553 0 6.542-1.062 7.823-2.386 1.326-1.37 1.988-3.007 1.988-6.41 0-4.774-1.148-5.703-4.02-7.69l-6.454-4.466c-1.33-.884-1.417-1.503-1.417-3.183 0-1.282 0-2.74 1.9-2.74 1.946 0 2.08 1.015 2.08 2.607v2.167h7.16c.177-6.852-.576-10.124-8.753-10.124-7.78 0-9.77 2.608-9.77 9.02 0 4.464 1.148 5.348 4.33 7.647l4.556 3.27zm-20.962-13.968c2.255 0 2.652.486 2.652 3.183 0 2.386-.133 3.535-1.638 3.845-.352.09-1.015.09-3.27.09v-7.118h2.256zm-9.327 25.816h7.072v-13.306c4.198-.044 4.86-.044 4.86 3.404 0 .884-.087 4.642-.087 5.394 0 2.564.53 3.49 1.062 4.508h6.94c-.663-.752-1.062-1.37-1.062-3.448v-6.63c0-3.803-.31-5.35-4.022-6.234 2.387-1.282 3.934-2.298 3.934-6.94 0-2.21-.132-4.377-1.502-5.968-1.768-1.943-4.6-2.033-6.587-2.033h-10.608v31.253zm-18.662-31.254v31.253h16.135v-5.525h-8.576v-7.514h8.092v-5.526h-8.092v-7.162h8.576v-5.526h-16.135zm-23.068 31.254h7.56v-13.084h5.26v13.084h7.56v-31.21h-7.56v12.6h-5.26v-12.6h-7.56v31.21zm-14.42-16.886v-9.02c.928 0 3.847 0 4.377.22.928.445.928 1.063.928 4.025 0 3.98 0 4.818-2.785 4.774h-2.52zm-7.558 16.886h7.557v-11.36h5.438c4.51 0 6.94-1.105 6.94-7.074v-6.41c0-4.598-1.857-6.41-7.34-6.41h-12.597v31.254zm-10.872-12.376h-4.2l2.12-13.882 2.08 13.88zm-13.527 12.375h7.385l1.104-7.117h5.79l1.06 7.116h7.384l-6.32-31.21h-10.08l-6.324 31.21zm-11.966-25.815c2.253 0 2.652.486 2.652 3.183 0 2.386-.132 3.535-1.636 3.845-.354.09-1.017.09-3.27.09v-7.118h2.254zm-9.327 25.816h7.073v-13.306c4.2-.044 4.862-.044 4.862 3.404 0 .884-.088 4.642-.088 5.394 0 2.564.53 3.49 1.06 4.508h6.94c-.662-.752-1.06-1.37-1.06-3.448v-6.63c0-3.803-.31-5.35-4.024-6.234 2.39-1.282 3.935-2.298 3.935-6.94 0-2.21-.132-4.377-1.503-5.968-1.768-1.943-4.597-2.033-6.585-2.033h-10.61v31.253zm-2.643-23.34c0-2.608 0-5.526-3.272-7.25-2.255-1.194-5.57-1.194-6.632-1.194-7.514 0-9.68 2.785-9.68 9.99v11.628c0 4.02 0 10.256 6.587 10.256 1.546 0 3.624-.133 5.748-2.962v2.872h7.25v-16.488h-10.17v5.172h2.92v3.536c0 1.15 0 2.962-2.39 2.962-2.385 0-2.385-1.9-2.385-3.006v-15.56c0-1.416 0-2.964 2.343-2.964 2.432 0 2.432 1.726 2.432 2.875v2.917h7.25v-2.784zm-34.637-.398c0-1.856.617-2.52 2.474-2.52 2.035 0 2.743.53 2.743 2.564v15.958c0 1.812-.577 2.652-2.61 2.652-2.606 0-2.606-1.236-2.606-2.652v-16.002zm-7.56 14.234c0 3.625.178 9.902 10.124 9.902 2.255 0 5.66-.132 7.87-2.387 2.3-2.3 2.3-5.305 2.3-7.78v-11.935c0-3.405 0-10.123-9.947-10.123-2.254 0-5.748.085-8.134 2.562-1.903 1.99-2.212 4.377-2.212 6.852v12.908zm-33.717-14.234c0-1.856.62-2.52 2.476-2.52 2.034 0 2.74.53 2.74 2.564v15.958c0 1.812-.573 2.652-2.607 2.652-2.61 0-2.61-1.236-2.61-2.652v-16.002zm-7.56 14.234c0 3.625.177 9.902 10.124 9.902 2.256 0 5.66-.132 7.87-2.387 2.3-2.3 2.3-5.305 2.3-7.78v-11.935c0-3.405 0-10.123-9.947-10.123-2.255 0-5.747.085-8.135 2.562-1.9 1.99-2.21 4.377-2.21 6.852v12.908zm-23.074 9.504h7.56v-13.084h5.26v13.084h7.56v-31.21h-7.56v12.6h-5.26v-12.6h-7.56v31.21zm-14.803-16.886v-9.02c.927 0 3.845 0 4.375.22.928.445.928 1.063.928 4.025 0 3.98 0 4.818-2.785 4.774h-2.517zm-7.56 16.886h7.56v-11.36h5.437c4.51 0 6.94-1.105 6.94-7.074v-6.41c0-4.598-1.857-6.41-7.338-6.41h-12.6v31.254zm45.235-65.736v31.255h16.134v-5.525h-8.576v-7.516h8.092v-5.526h-8.092v-7.16h8.576v-5.528h-16.134zm-22.894 31.255h7.558v-13.085h5.262v13.085h7.56v-31.21h-7.56v12.598h-5.262v-12.598h-7.558v31.21zm-22.694-25.773h6.188v25.772h7.65v-25.772h6.23v-5.482h-20.068v5.482zm84.59 29.018h-17.225v5.496h9.558v25.74h7.67zm-38.504 65.412h17.652v-5.496h-9.983v-25.742h-7.67zm38.519 0h-17.595v-5.496h9.927v-25.742h7.668z"/></svg>