<svg xmlns="http://www.w3.org/2000/svg" width="62" height="100" viewBox="0 0 95 153" enable-background="new 0 0 95 153"><g fill="#fff"><path d="M5.913 52.937c0 7.784.38 21.264 21.738 21.264 4.842 0 12.15-.284 16.897-5.125 4.936-4.937 4.936-11.39 4.936-16.708v-25.63c0-7.31 0-21.737-21.356-21.737-4.842 0-12.34.19-17.467 5.505-4.08 4.27-4.746 9.397-4.746 14.713v27.72zM22.146 22.37c0-3.986 1.33-5.41 5.315-5.41 4.368 0 5.887 1.14 5.887 5.506v34.27c0 3.89-1.234 5.694-5.6 5.694-5.602 0-5.602-2.658-5.602-5.695V22.37zM89.23 6.27H52.233V18.07h20.532v55.274H89.23zM6.546 146.73H44.45v-11.8H23.013V79.654H6.546zM89.26 146.73H51.475v-11.8h21.32V79.654H89.26z"/></g></svg>