<?xml version="1.0" encoding="utf-8"?>
<!-- Generator: Adobe Illustrator 16.0.1, SVG Export Plug-In . SVG Version: 6.00 Build 0)  -->
<!DOCTYPE svg PUBLIC "-//W3C//DTD SVG 1.1//EN" "http://www.w3.org/Graphics/SVG/1.1/DTD/svg11.dtd">
<svg version="1.1" xmlns="http://www.w3.org/2000/svg" xmlns:xlink="http://www.w3.org/1999/xlink" x="0px" y="0px"
	 width="675.274px" height="62.776px" viewBox="0 0 675.274 62.776" enable-background="new 0 0 675.274 62.776"
	 xml:space="preserve">
<g id="Layer_2" display="none">
	<rect x="-21.232" y="-7.282" display="inline" fill="#231F20" width="705.333" height="80.667"/>
</g>
<g id="Layer_1">
	<g>
		<path fill="#FFFFFF" d="M4.816,22.513H0v-4.704l4.816-0.673v-5.88L15.232,9.8v7.336h6.832v5.377h-6.832v16.52
			c0,3.08,0.84,4.647,3.864,4.647c1.12,0,2.576-0.111,3.36-0.224v4.032c-1.736,1.008-5.264,1.848-8.512,1.848
			c-6.216,0-9.128-2.744-9.128-9.408V22.513z"/>
		<path fill="#FFFFFF" d="M23.015,45.64l3.416-1.567V9.408l-3.584-1.624V5.04l12.992-2.071h0.84V20.44h0.336
			c2.8-2.576,6.608-4.088,10.864-4.088c5.208,0,7.84,2.576,7.84,8.344v19.376l3.416,1.567v2.856H41.999V45.64l3.304-1.567V27.048
			c0-3.248-1.344-4.424-4.2-4.424c-1.568,0-2.968,0.336-4.256,0.84v20.608l3.304,1.567v2.856H23.015V45.64z"/>
		<path fill="#FFFFFF" d="M69.764,33.769c0.504,6.104,3.416,9.016,9.128,9.016c3.976,0,6.216-0.392,8.4-1.064v3.024
			c-1.456,2.016-6.16,4.592-11.928,4.592c-10.752,0-16.296-5.936-16.296-16.576c0-10.359,6.104-16.352,15.456-16.352
			c9.408,0,13.944,4.2,13.944,17.36H69.764z M69.651,30.017l8.68-0.505c0-8.344-1.4-9.688-3.976-9.688
			C71.5,19.824,69.764,21.672,69.651,30.017z"/>
		<path fill="#FFFFFF" d="M123.803,50.624c0,7.448-5.32,12.152-17.583,12.152c-9.856,0-15.904-3.08-15.904-7.28
			c0-4.088,3.976-5.264,7.504-5.992v-0.336c-3.36-0.728-4.984-3.136-4.984-5.6c0-3.305,3.472-5.937,5.264-7.168v-0.336
			c-3.136-1.736-5.208-4.816-5.208-8.96c0-6.776,5.6-10.809,13.664-10.809c2.52,0,5.264,0.784,7.224,1.513h0.448l8.008-1.568h0.616
			v6.216h-0.728l-5.208-1.848v0.224c1.96,1.792,3.248,3.528,3.248,6.608c0,6.832-5.544,10.472-13.608,10.472
			c-2.072,0-3.472-0.112-5.152-0.616c-0.784,0.561-1.4,1.456-1.4,2.296c0,1.12,1.008,2.017,2.24,2.017h11.2
			C120.387,41.608,123.803,44.464,123.803,50.624z M114.787,53.536c0-1.624-1.176-2.408-3.752-2.408h-10.976
			c-0.84,0.952-1.232,2.017-1.232,3.528c0,2.184,1.96,4.2,7.672,4.2C112.995,58.856,114.787,56.784,114.787,53.536z M102.859,27.104
			c0,6.384,1.456,6.943,3.696,6.943c2.24,0,3.752-0.672,3.752-6.943c0-6.272-1.456-7.225-3.752-7.225
			C104.315,19.88,102.859,20.72,102.859,27.104z"/>
		<path fill="#FFFFFF" d="M127.045,22.96l-3.528-1.624V18.48l13.048-2.072h0.896v22.12c0,3.584,1.736,4.2,4.368,4.2
			c1.736,0,2.688-0.28,3.752-0.729V22.96l-3.472-1.624V18.48l13.048-2.072h0.84v26.824l3.528,1.848v2.688l-12.712,1.399h-0.84
			v-4.144h-0.392c-2.016,2.464-5.32,4.312-9.52,4.312c-6.328,0-9.016-4.536-9.016-9.968V22.96z"/>
		<path fill="#FFFFFF" d="M167.102,26.937h-4.872V18.76c2.968-0.951,6.496-2.407,11.984-2.407c8.399,0,13.439,2.464,13.439,9.52
			v18.2l3.305,1.567v2.353c-1.009,0.56-3.36,1.288-5.881,1.288c-3.247,0-6.159-1.064-6.663-4.424h-0.28
			c-1.4,2.8-5.096,4.479-9.016,4.479c-5.545,0-9.017-3.584-9.017-8.792c0-6.439,4.145-7.728,11.088-8.903l5.992-1.009v-4.199
			c0-3.977-1.176-5.992-5.208-5.992c-0.504,0-2.016,0.056-2.688,0.111L167.102,26.937z M177.182,33.992l-2.408,0.224
			c-2.408,0.225-4.368,1.849-4.368,4.816c0,3.472,1.904,4.592,3.92,4.592c1.12,0,2.297-0.56,2.856-1.176V33.992z"/>
		<path fill="#FFFFFF" d="M204.039,16.24h0.896v6.608h0.336c1.848-4.145,4.647-6.385,8.063-6.385c0.561,0,1.232,0.057,1.568,0.168
			v9.128c-0.616-0.168-1.736-0.279-2.632-0.279c-2.801,0-5.152,0.279-6.944,1.12v17.416l4.312,1.567v2.912h-18.031v-2.912
			l3.304-1.567V22.792l-3.472-1.624v-2.855L204.039,16.24z"/>
		<path fill="#FFFFFF" d="M235.505,10.08l-3.472-1.567V5.656l13.048-2.072h0.84v39.648l3.304,1.848v2.688l-12.376,1.399h-0.896
			V45.92h-0.336c-1.288,1.681-3.977,3.416-7.896,3.416c-5.712,0-12.544-3.64-12.544-15.68c0-12.656,7-17.192,15.288-17.192
			c1.736,0,3.752,0.393,5.04,1.288V10.08z M235.505,21.896c-0.784-0.616-1.68-1.12-3.528-1.12c-3.304,0-5.768,2.968-5.768,11.815
			c0,7.729,1.96,11.088,6.104,11.088c1.568,0,2.464-0.279,3.192-0.56V21.896z"/>
		<path fill="#FFFFFF" d="M262.81,16.24h0.84v27.776l3.36,1.567v2.912h-17.136v-2.912l3.359-1.567V22.792l-3.527-1.624v-2.855
			L262.81,16.24z M263.817,8.904c0,3.024-2.52,5.488-5.544,5.488c-3.08,0-5.544-2.464-5.544-5.488c0-3.08,2.464-5.544,5.544-5.544
			C261.298,3.36,263.817,5.824,263.817,8.904z"/>
		<path fill="#FFFFFF" d="M274.407,26.937h-4.872V18.76c2.968-0.951,6.496-2.407,11.984-2.407c8.399,0,13.439,2.464,13.439,9.52
			v18.2l3.305,1.567v2.353c-1.009,0.56-3.36,1.288-5.881,1.288c-3.247,0-6.159-1.064-6.663-4.424h-0.28
			c-1.4,2.8-5.096,4.479-9.017,4.479c-5.544,0-9.016-3.584-9.016-8.792c0-6.439,4.145-7.728,11.088-8.903l5.992-1.009v-4.199
			c0-3.977-1.176-5.992-5.208-5.992c-0.504,0-2.016,0.056-2.688,0.111L274.407,26.937z M284.487,33.992l-2.408,0.224
			c-2.408,0.225-4.368,1.849-4.368,4.816c0,3.472,1.904,4.592,3.92,4.592c1.12,0,2.297-0.56,2.856-1.176V33.992z"/>
		<path fill="#FFFFFF" d="M298.912,45.64l3.416-1.567v-21.28l-3.584-1.624v-2.744l12.991-2.071h0.841v4.088h0.336
			c2.8-2.576,6.607-4.088,10.863-4.088c5.208,0,7.841,2.576,7.841,8.344v19.376l3.416,1.567v2.856h-17.137V45.64l3.305-1.567V27.048
			c0-3.248-1.345-4.424-4.2-4.424c-1.568,0-2.968,0.336-4.256,0.84v20.608l3.304,1.567v2.856h-17.136V45.64z"/>
		<path fill="#4BC6DF" d="M338.224,45.64l3.416-1.567v-21.28l-3.583-1.624v-2.744l12.992-2.071h0.84v4.088h0.336
			c2.801-2.576,5.488-4.088,9.744-4.088c3.695,0,6.049,1.288,7.168,4.088h0.279c2.801-2.576,5.881-4.088,10.137-4.088
			c5.207,0,7.951,2.632,7.951,8.399v19.32l3.416,1.567v2.856h-16.52V45.64l2.744-1.567V27.048c0-3.248-1.064-4.424-3.863-4.424
			c-1.064,0-2.297,0.28-3.473,0.784v20.664l2.744,1.567v2.856h-15.904V45.64l2.744-1.567V27.048c0-3.248-1.008-4.424-3.863-4.424
			c-1.121,0-2.24,0.28-3.473,0.84v20.608l2.744,1.567v2.856h-16.576V45.64z"/>
		<path fill="#4BC6DF" d="M401.633,33.769c0.504,6.104,3.416,9.016,9.127,9.016c3.977,0,6.217-0.392,8.4-1.064v3.024
			c-1.457,2.016-6.16,4.592-11.928,4.592c-10.752,0-16.297-5.936-16.297-16.576c0-10.359,6.105-16.352,15.457-16.352
			c9.408,0,13.943,4.2,13.943,17.36H401.633z M401.52,30.017l8.68-0.505c0-8.344-1.398-9.688-3.975-9.688
			C403.368,19.824,401.633,21.672,401.52,30.017z"/>
		<path fill="#4BC6DF" d="M420.84,45.64l3.416-1.567v-21.28l-3.584-1.624v-2.744l12.99-2.071h0.842v4.088h0.336
			c2.799-2.576,5.486-4.088,9.744-4.088c3.695,0,6.047,1.288,7.168,4.088h0.279c2.799-2.576,5.879-4.088,10.135-4.088
			c5.209,0,7.953,2.632,7.953,8.399v19.32l3.416,1.567v2.856h-16.52V45.64l2.744-1.567V27.048c0-3.248-1.064-4.424-3.865-4.424
			c-1.064,0-2.295,0.28-3.471,0.784v20.664l2.742,1.567v2.856h-15.902V45.64l2.744-1.567V27.048c0-3.248-1.008-4.424-3.865-4.424
			c-1.119,0-2.24,0.28-3.471,0.84v20.608l2.744,1.567v2.856H420.84V45.64z"/>
		<path fill="#4BC6DF" d="M486.282,19.992h0.393c1.791-1.904,4.76-3.64,8.791-3.64c5.377,0,11.031,4.312,11.031,15.96
			c0,12.768-7.279,17.023-16.967,17.023c-5.824,0-10.977-1.231-13.664-2.8V10.08l-3.473-1.567V5.656l13.049-2.072h0.84V19.992z
			 M495.577,33.096c0-8.455-2.295-10.64-5.543-10.64c-1.68,0-2.855,0.393-3.752,0.84v21.225c0.615,0.504,1.568,1.063,3.416,1.063
			C493.618,45.584,495.577,42.056,495.577,33.096z"/>
		<path fill="#4BC6DF" d="M518.61,33.769c0.504,6.104,3.416,9.016,9.127,9.016c3.977,0,6.217-0.392,8.4-1.064v3.024
			c-1.457,2.016-6.16,4.592-11.928,4.592c-10.752,0-16.297-5.936-16.297-16.576c0-10.359,6.105-16.352,15.457-16.352
			c9.408,0,13.943,4.2,13.943,17.36H518.61z M518.497,30.017l8.68-0.505c0-8.344-1.398-9.688-3.975-9.688
			C520.344,19.824,518.61,21.672,518.497,30.017z"/>
		<path fill="#4BC6DF" d="M550.249,16.24h0.896v6.608h0.336c1.848-4.145,4.648-6.385,8.064-6.385c0.561,0,1.232,0.057,1.568,0.168
			v9.128c-0.617-0.168-1.736-0.279-2.633-0.279c-2.801,0-5.152,0.279-6.943,1.12v17.416l4.311,1.567v2.912h-18.031v-2.912
			l3.305-1.567V22.792l-3.473-1.624v-2.855L550.249,16.24z"/>
		<path fill="#4BC6DF" d="M561.948,47.32v-8.288h4.424l1.791,5.208c0.729,0.672,3.248,1.008,5.041,1.008
			c2.967,0,5.039-0.672,5.039-3.136c0-2.296-0.783-3.248-4.145-3.977l-3.807-0.84c-5.768-1.288-8.457-5.88-8.457-10.527
			c0-5.992,4.088-10.416,13.328-10.416c3.697,0,7.449,0.56,9.912,1.624v7.728h-4.367l-1.344-4.312
			c-0.729-0.393-2.912-0.784-4.592-0.784c-2.465,0-4.145,1.176-4.145,3.08c0,1.848,0.84,2.968,4.312,3.695l3.695,0.784
			c6.047,1.288,8.344,5.32,8.344,10.08c0,6.552-4.145,11.032-14.111,11.032C569.506,49.28,564.971,48.608,561.948,47.32z"/>
		<path fill="#4BC6DF" d="M587.168,45.64l3.416-1.567V9.408L587,7.784V5.04l12.992-2.071h0.84V20.44h0.336
			c2.801-2.576,6.607-4.088,10.863-4.088c5.209,0,7.84,2.576,7.84,8.344v19.376l3.416,1.567v2.856h-17.135V45.64l3.303-1.567V27.048
			c0-3.248-1.344-4.424-4.199-4.424c-1.568,0-2.969,0.336-4.256,0.84v20.608l3.305,1.567v2.856h-17.137V45.64z"/>
		<path fill="#4BC6DF" d="M637.032,16.24h0.84v27.776l3.359,1.567v2.912h-17.135v-2.912l3.359-1.567V22.792l-3.527-1.624v-2.855
			L637.032,16.24z M638.04,8.904c0,3.024-2.52,5.488-5.545,5.488c-3.08,0-5.543-2.464-5.543-5.488c0-3.08,2.463-5.544,5.543-5.544
			C635.52,3.36,638.04,5.824,638.04,8.904z"/>
		<path fill="#4BC6DF" d="M654.665,20.44c1.736-2.072,4.48-4.088,8.512-4.088c6.16,0,11.256,3.472,11.256,15.903
			c0,12.769-7.168,17.024-15.398,17.024c-2.521,0-3.584-0.504-4.592-0.952v9.408l3.92,1.567v2.912h-17.697v-2.912l3.361-1.567
			V22.792l-3.529-1.624v-2.744l12.992-2.071h0.84v4.088H654.665z M663.512,32.984c0-7.28-2.07-10.416-5.432-10.416
			c-1.736,0-2.744,0.392-3.639,0.84v20.496c0.727,0.504,1.848,1.008,3.303,1.008C660.993,44.912,663.512,41.944,663.512,32.984z"/>
	</g>
</g>
<g id="Layer_1_copy" display="none">
	<text transform="matrix(1 0 0 1 0 48.4961)" display="inline"><tspan x="0" y="0" fill="#FFFFFF" font-family="'GuardianTitlepiece-RegularAutohint'" font-size="56">th</tspan><tspan x="59.471" y="0" fill="#FFFFFF" font-family="'GuardianTitlepiece-RegularAutohint'" font-size="56" letter-spacing="2">e</tspan><tspan x="92.51" y="0" fill="#FFFFFF" font-family="'GuardianTitlepiece-RegularAutohint'" font-size="56">guardia</tspan><tspan x="301.388" y="0" fill="#FFFFFF" font-family="'GuardianTitlepiece-RegularAutohint'" font-size="56" letter-spacing="2">n</tspan><tspan x="340.7" y="0" fill="#CC2B12" font-family="'GuardianTitlepiece-RegularAutohint'" font-size="56">membership</tspan></text>
</g>
<g id="Layer_1_copy_2" display="none">
	<text transform="matrix(1 0 0 1 0 48.4961)" display="inline"><tspan x="0" y="0" fill="#FFFFFF" font-family="'GuardianTitlepiece-RegularAutohint'" font-size="56">th</tspan><tspan x="59.471" y="0" fill="#FFFFFF" font-family="'GuardianTitlepiece-RegularAutohint'" font-size="56" letter-spacing="2">e</tspan><tspan x="92.51" y="0" fill="#FFFFFF" font-family="'GuardianTitlepiece-RegularAutohint'" font-size="56">guardia</tspan><tspan x="301.388" y="0" fill="#FFFFFF" font-family="'GuardianTitlepiece-RegularAutohint'" font-size="56" letter-spacing="2">n</tspan><tspan x="340.7" y="0" fill="#BDBDBD" font-family="'GuardianTitlepiece-RegularAutohint'" font-size="56">membership</tspan></text>
</g>
</svg>
