<?xml version="1.0" encoding="utf-8"?>
<!-- Generator: Adobe Illustrator 16.0.1, SVG Export Plug-In . SVG Version: 6.00 Build 0)  -->
<!DOCTYPE svg PUBLIC "-//W3C//DTD SVG 1.1//EN" "http://www.w3.org/Graphics/SVG/1.1/DTD/svg11.dtd">
<svg version="1.1" id="Layer_1" xmlns="http://www.w3.org/2000/svg" xmlns:xlink="http://www.w3.org/1999/xlink" x="0px" y="0px"
	 width="263.62px" height="65.2px" viewBox="0 0 263.62 65.2" enable-background="new 0 0 263.62 65.2" xml:space="preserve">
<g>
	<path fill="#FFFFFF" d="M138.32,12.13c0.62,0,1.067-0.328,1.067-1.918c0-1.553-0.434-1.995-1.067-1.995
		c-0.617,0-1.053,0.364-1.053,1.995C137.269,11.802,137.703,12.13,138.32,12.13z"/>
	<path fill="#FFFFFF" d="M184.728,13.503c0,0.958,0.524,1.267,1.082,1.267c0.312,0,0.623-0.127,0.789-0.371v-2.421l-0.575,0.109
		C185.346,12.191,184.728,12.819,184.728,13.503z"/>
	<path fill="#FFFFFF" d="M170.709,11.727c0,2.134,0.541,3.06,1.687,3.06c0.431,0,0.672-0.127,0.881-0.298V8.854
		c-0.209-0.229-0.464-0.389-0.976-0.389C171.39,8.465,170.709,9.284,170.709,11.727z"/>
	<path fill="#FFFFFF" d="M129.769,8.2c-0.787,0-1.265,0.612-1.3,2.815l2.397-0.139C130.867,8.719,130.482,8.2,129.769,8.2z"/>
	<path fill="#FFFFFF" d="M155.49,13.503c0,0.958,0.522,1.267,1.082,1.267c0.308,0,0.623-0.127,0.787-0.371v-2.421l-0.576,0.109
		C156.108,12.191,155.49,12.819,155.49,13.503z"/>
	<path fill="#FFFFFF" d="M139.609,16.812h-2.457c-0.742,0.049-0.947,0.587-0.965,1.004c-0.024,0.608,0.541,1.221,2.119,1.221
		c1.793,0,2.463-0.387,2.463-1.283C140.771,17.306,140.32,16.812,139.609,16.812z"/>
	<path fill="#FFFFFF" d="M39.65,35.408c0-4.581-2.721-6.537-6.632-6.537c-3.436,0-6.299,1.336-8.445,3.054h-0.286
		c-1.002-2.099-3.054-3.054-5.726-3.054c-3.531,0-5.869,1.146-8.112,2.815h-0.286v-2.434l-0.716-0.334L0,30.063v3.58l3.103,0.763
		v15.938l-3.007,0.715v3.484h12.788v-3.484l-2.434-0.621V35.217c1.289-0.43,2.195-0.764,3.817-0.764c2.29,0,3.436,0.812,3.436,3.436
		v12.549l-2.434,0.621v3.484h12.215v-3.484l-2.435-0.621V36.744c0-0.619-0.095-1.24-0.143-1.527c1.193-0.43,2.434-0.764,3.77-0.764
		c2.481,0,3.579,0.812,3.579,3.436v12.549l-2.434,0.621v3.484h12.645v-3.484l-2.814-0.715V35.408H39.65z"/>
	<path fill="#FFFFFF" d="M48.672,42.852h15.793c0-9.734-3.482-13.98-11.069-13.98c-7.3,0-12.358,4.771-12.358,12.978
		c0,8.254,4.294,13.312,13.026,13.312c4.628,0,7.49-1.336,9.209-2.434v-3.863c-1.813,0.572-3.865,1.191-7.252,1.191
		C51.63,50.057,49.054,47.957,48.672,42.852z M53.206,33.167c2.386,0,3.865,1.527,3.865,5.869l-8.397,0.287
		C48.959,34.74,50.676,33.167,53.206,33.167z"/>
	<path fill="#FFFFFF" d="M103.739,35.408c0-4.581-2.72-6.537-6.632-6.537c-3.436,0-6.298,1.336-8.445,3.054h-0.286
		c-1.002-2.099-3.054-3.054-5.726-3.054c-3.531,0-5.869,1.146-8.111,2.815h-0.286v-2.434l-0.716-0.334l-9.447,1.145v3.58
		l3.103,0.763v15.938l-3.006,0.715v3.484H76.97v-3.484l-2.434-0.621V35.217c1.289-0.43,2.195-0.764,3.817-0.764
		c2.29,0,3.436,0.812,3.436,3.436v12.549l-2.434,0.621v3.484h12.215v-3.484l-2.435-0.621V36.744c0-0.619-0.095-1.24-0.143-1.527
		c1.193-0.43,2.434-0.764,3.77-0.764c2.481,0,3.579,0.812,3.579,3.436v12.549l-2.434,0.621v3.484h12.645v-3.484l-2.814-0.715V35.408
		z"/>
	<path fill="#FFFFFF" d="M145.21,28.872c-7.3,0-12.357,4.771-12.357,12.978c0,8.254,4.293,13.312,13.025,13.312
		c4.628,0,7.491-1.336,9.209-2.434v-3.863c-1.812,0.572-3.865,1.191-7.252,1.191c-4.39,0-6.966-2.098-7.348-7.205h15.793
		C156.279,33.118,152.796,28.872,145.21,28.872z M140.486,39.322c0.286-4.582,2.004-6.156,4.533-6.156
		c2.386,0,3.864,1.527,3.864,5.869L140.486,39.322z"/>
	<path fill="#FFFFFF" d="M167.304,32.832h-0.285v-3.579l-0.717-0.334l-9.446,1.145v3.579l3.102,0.763v15.938l-3.006,0.715v3.484
		h14.028v-3.484l-3.674-0.715V36.553c1.526-0.762,3.244-1.145,5.534-1.145c0.716,0,1.574,0.047,2.147,0.191v-6.489
		c-0.286-0.096-0.907-0.191-1.336-0.191C170.836,28.92,168.641,30.733,167.304,32.832z"/>
	<path fill="#FFFFFF" d="M188.826,39.225l-2.958-0.762c-2.911-0.764-3.865-1.432-3.865-3.006c0-1.765,1.622-2.481,3.723-2.481
		c1.574,0,2.528,0.333,3.196,0.716l0.765,2.91h4.294v-6.488c-1.909-0.764-4.915-1.241-7.92-1.241
		c-7.252,0-10.594,3.436-10.594,8.063c0,4.248,2.435,6.348,6.871,7.492l2.721,0.715c2.672,0.717,3.578,1.336,3.578,3.055
		c0,1.812-1.574,2.719-3.96,2.719c-1.718,0-3.054-0.428-3.722-0.859l-1.098-3.244h-4.438l0.43,6.871
		c2.48,0.908,5.726,1.48,8.541,1.48c7.776,0,11.213-3.531,11.213-8.541C195.602,42.9,193.74,40.514,188.826,39.225z"/>
	<path fill="#FFFFFF" d="M220.748,35.217c0-4.58-2.625-6.345-6.728-6.345c-3.34,0-5.821,1.193-8.159,2.863h-0.238v-8.687h5.456V0
		H99.171v23.048h5.669v0.767l3.006,0.764v28.437c2.195,1.146,6.013,2.148,10.593,2.148c8.016,0,13.456-4.152,13.456-14.172
		c0-9.494-4.677-12.167-9.305-12.167c-3.388,0-5.583,1.336-7.205,2.672h-0.334v-8.449h80.217v0.433l3.102,0.764v26.1l-3.006,0.715
		v3.484h12.835v-3.484l-2.481-0.619V35.268c1.289-0.43,2.529-0.812,4.009-0.812c2.433,0,3.626,0.764,3.626,3.246v12.74l-2.481,0.619
		v3.484h12.74v-3.484l-2.863-0.715V35.217z M115.195,35.074c0.858-0.43,2.243-0.906,3.913-0.906c3.292,0,5.058,1.957,5.058,7.824
		c0,6.918-2.099,8.779-5.392,8.779c-1.956,0-2.815-0.525-3.579-1.051V35.074z M179.662,3.628c0.836,0,1.53,0.677,1.53,1.53
		c0,0.834-0.694,1.514-1.53,1.514c-0.85,0-1.529-0.68-1.529-1.514C178.133,4.305,178.813,3.628,179.662,3.628z M115.862,15.711
		c-0.545,0.404-1.5,0.638-2.396,0.638c-1.717,0-2.473-1.007-2.473-2.598V8.945h-1.329V7.708l1.329-0.248V5.839l2.875-0.405V7.46
		h1.887v1.485h-1.887v4.559c0,0.85,0.232,1.283,1.068,1.283c0.309,0,0.698-0.068,0.926-0.142V15.711L115.862,15.711z
		 M126.142,16.115h-4.731v-0.787l0.913-0.432v-4.701c0.015-0.75-0.375-1.247-1.164-1.247c-0.432,0-0.824,0.129-1.172,0.366
		l0.004,5.582l0.912,0.432v0.787h-4.733v-0.787l0.943-0.432v-9.57l-0.988-0.448V4.123l3.586-0.575h0.231V8.37
		c0.772-0.71,1.918-1.128,3.091-1.128c1.247,0,2.165,0.712,2.165,2.305v5.35l0.942,0.432L126.142,16.115L126.142,16.115z
		 M131.023,14.538c1.096,0,1.715-0.106,2.317-0.295l-0.044,0.711c-0.4,0.555-1.655,1.394-3.249,1.394
		c-2.967,0-4.499-1.639-4.499-4.575c0-2.859,1.686-4.548,4.268-4.548c2.237,0,3.848,1.192,3.848,4.824h-5.162
		C128.501,13.734,129.446,14.538,131.023,14.538z M138.229,20.353c-2.721,0-4.391-1.145-4.391-2.305c0-1.13,1.098-1.545,2.071-1.745
		v-0.004c-0.926-0.198-1.377-0.862-1.377-1.544c0-0.913,1.029-1.688,1.521-2.028l-0.067-0.043c-0.865-0.477-1.438-1.329-1.438-2.472
		c0-1.873,1.546-3.015,3.771-3.015c0.695,0,1.455,0.249,1.994,0.449l2.336-0.434l-0.004,1.725l-1.465-0.455
		c0.54,0.495,0.896,0.973,0.896,1.823c0,1.885-1.53,2.89-3.757,2.89c-0.57,0-0.959-0.031-1.422-0.168
		c-0.216,0.152-0.386,0.401-0.386,0.633c0,0.31,0.277,0.555,0.616,0.555h3.095c1.913,0,2.857,0.79,2.857,2.491
		C143.082,18.761,141.615,20.353,138.229,20.353z M152.832,15.914l-3.509,0.42h-0.231v-1.177c-0.557,0.68-1.575,1.19-2.735,1.19
		c-1.748,0-2.49-1.253-2.49-2.752v-4.53l-0.973-0.446v-0.79l3.602-0.57h0.246v6.104c0,0.989,0.467,1.207,1.195,1.207
		c0.505,0,0.726-0.1,1.049-0.312V9.065l-0.959-0.446v-0.79l3.602-0.57h0.231v7.515l0.974,0.51L152.832,15.914L152.832,15.914z
		 M161.162,15.828c-0.256,0.287-0.928,0.504-1.623,0.504c-0.896,0-1.699-0.293-1.84-1.22h-0.076
		c-0.387,0.771-1.408,1.236-2.49,1.236c-1.375,0-2.383-0.997-2.383-2.434c0-1.778,1.271-2.29,2.958-2.602l1.649-0.309l0.002-0.977
		c0-1.098-0.326-1.654-1.438-1.654c-0.139,0-0.561,0.003-0.764,0.095l-0.582,1.698h-1.344V7.974
		c0.803-0.385,1.793-0.764,3.308-0.764c2.319,0,3.71,0.713,3.71,2.662v5.025l0.912,0.432L161.162,15.828L161.162,15.828z
		 M166.358,15.312v0.803h-4.978v-0.803l0.911-0.433V9.021l-0.958-0.448v-0.79l3.479-0.572h0.246v1.826
		c0.51-1.144,1.377-1.762,2.319-1.762c0.153,0,0.34,0.016,0.433,0.044V9.84c-0.17-0.045-0.479-0.076-0.729-0.076
		c-0.771,0-1.406,0.125-1.916,0.528v4.587L166.358,15.312z M177.063,15.914l-3.417,0.404h-0.247v-0.914h-0.093
		c-0.356,0.464-1.098,0.944-2.182,0.944c-1.354,0-3.381-1.071-3.381-4.392c0-3.493,2.01-4.714,4.139-4.714
		c0.48,0,1.037,0.141,1.394,0.387V5.511l-0.96-0.431V4.29l3.604-0.574h0.23v11.058l0.912,0.51L177.063,15.914L177.063,15.914z
		 M182.074,16.115h-4.73v-0.803l0.929-0.433V9.021l-0.976-0.448v-0.79l3.617-0.572h0.233v7.668l0.927,0.433V16.115z M190.401,15.828
		c-0.257,0.287-0.929,0.504-1.624,0.504c-0.896,0-1.699-0.293-1.84-1.22h-0.078c-0.385,0.771-1.404,1.236-2.488,1.236
		c-1.375,0-2.385-0.997-2.385-2.434c0-1.778,1.272-2.29,2.961-2.602l1.647-0.309l0.003-0.977c0-1.098-0.324-1.654-1.438-1.654
		c-0.139,0-0.561,0.003-0.766,0.095l-0.578,1.698h-1.347V7.974c0.804-0.385,1.793-0.764,3.31-0.764c2.316,0,3.707,0.713,3.707,2.662
		v5.025l0.915,0.432L190.401,15.828L190.401,15.828z M190.623,8.573V7.817l3.587-0.575h0.231v1.13
		c0.772-0.711,1.918-1.13,3.092-1.13c1.438,0,2.164,0.712,2.164,2.305v5.35l0.943,0.432v0.787h-4.73v-0.787l0.912-0.432v-4.701
		c0-0.897-0.371-1.22-1.158-1.22c-0.434,0-0.836,0.084-1.176,0.327v5.594l0.912,0.432v0.787h-4.73v-0.787l0.941-0.432V9.021
		L190.623,8.573z"/>
	<path fill="#FFFFFF" d="M230.962,26.582c2.338,0,4.199-1.527,4.199-3.771c0-2.29-1.861-3.77-4.199-3.77
		c-2.243,0-4.15,1.479-4.15,3.77C226.812,25.055,228.72,26.582,230.962,26.582z"/>
	<polygon fill="#FFFFFF" points="224.521,51.059 224.521,54.541 237.786,54.541 237.786,51.059 234.875,50.344 234.875,29.254 
		234.159,28.92 224.282,30.065 224.282,33.643 227.527,34.406 227.527,50.344 	"/>
	<path fill="#FFFFFF" d="M253.628,28.824c-3.388,0-5.82,1.479-7.442,2.863h-0.286v-2.434l-0.668-0.334l-9.448,1.145v3.58
		l3.054,0.763v25.623l-2.958,0.621v3.436h13.837V60.65l-3.482-0.668v-5.154c1.002,0.191,1.956,0.334,3.865,0.334
		c7.396,0,12.835-4.15,12.835-14.17C262.933,31.496,258.208,28.824,253.628,28.824z M249.811,50.773
		c-1.956,0-2.815-0.525-3.578-1.004V35.074c0.858-0.43,2.242-0.906,3.913-0.906c3.292,0,5.058,1.957,5.058,7.824
		C255.202,48.912,253.104,50.773,249.811,50.773z"/>
</g>
</svg>
