<?xml version="1.0" encoding="utf-8"?>
<!-- Generator: Adobe Illustrator 16.0.1, SVG Export Plug-In . SVG Version: 6.00 Build 0)  -->
<!DOCTYPE svg PUBLIC "-//W3C//DTD SVG 1.1//EN" "http://www.w3.org/Graphics/SVG/1.1/DTD/svg11.dtd">
<svg version="1.1" id="Layer_1" xmlns="http://www.w3.org/2000/svg" xmlns:xlink="http://www.w3.org/1999/xlink" x="0px" y="0px"
	 width="18px" height="18px" viewBox="0 0 18 18" enable-background="new 0 0 18 18" xml:space="preserve">
<path fill="#FFFFFF" d="M8.984,7.6h0.01c0.824,0.003,1.598-0.288,2.146-0.864C11.689,6.163,12,5.328,11.999,4.289
	C12,3.285,11.707,2.461,11.17,1.884c-0.535-0.579-1.312-0.887-2.166-0.883c-0.82-0.005-1.596,0.283-2.146,0.857
	C6.311,2.429,5.998,3.259,6,4.296c0,1.006,0.292,1.833,0.827,2.415C7.36,7.29,8.133,7.6,8.984,7.6z M14.5,9.652h-0.002
	c-2.957-1.8-8.037-1.8-10.992,0H3.5v0.019L3,15.174l0.741,0.827H14.26L15,15.174L14.5,9.652z"/>
</svg>
