<svg xmlns="http://www.w3.org/2000/svg" width="36.067" height="16.743" viewBox="0 0 36.067 16.743"><path fill-rule="evenodd" clip-rule="evenodd" fill="#333" d="M-138.029 14.125h-3.323c-1.311.001-2.629-.077-3.931.022-1.634.124-3.254.413-4.884.591-1.363.149-2.733.23-4.098.366l-1.065.238-2.19.178c-.863.1-1.853.573-2.553.293-1.304-.519-2.247.264-3.026.754-.82.518-1.71.698-2.536 1.066-1.234.548-2.298.135-2.446-1.593.773-.847 1.856-.708 2.828-.943 1.598-.384 3.167-.887 4.763-1.278 1.313-.32 2.646-.562 3.975-.814.938-.177 1.944-.595 2.81-.405 1.548.337 2.992-.126 4.475-.195 1.59-.075 3.163-.482 4.752-.654.948-.103 1.917-.034 2.875-.04.651-.004 1.312.056 1.95-.037.25-.037.451-.411.752-.706-1.55-1.146-3.001-2.176-4.403-3.27-.745-.582-1.401-1.278-2.107-1.912-.336-.301-.695-.575-1.039-.864-.18-.15-.383-.286-.523-.469-.291-.384-.664-.645-1.037-.937-.851-.671-1.471-1.646-2.124-2.543-.072-.099.191-.613.407-.723 1.324-.673 2.013.439 2.81 1.119 2.186 1.866 4.259 3.871 6.522 5.637 1.636 1.276 3.501 2.259 5.264 3.373.864.545 1.734 1.08 2.588 1.637.612.398.527 1.035.264 1.511-.659 1.186-1.243 2.51-2.205 3.405-1.013.942-1.4 2.336-2.518 3.104-1.297.895-1.752 2.395-2.729 3.51-.732.838-1.56 1.599-2.23 2.483-.678.893-1.16 1.935-1.829 2.838-.298.402-.931.95-1.251.858-.606-.17-1.467-.271-1.644-1.139-.051-.252-.053-.589.075-.795.618-1.004 1.285-1.979 1.937-2.967l.085-.131c.238-1.312 1.145-2.252 1.764-3.356.655-1.175 1.77-1.884 2.455-2.99.662-1.066 1.434-2.067 2.108-3.128.168-.263.145-.65.232-1.094zM-92.479 17.566c.143 1.414.232 2.805 0 4.227-.119.732-.152 1.529.079 2.268.572 1.83.042 3.771.682 5.623.415 1.201-.354 1.938-1.62 1.975-.348.01-.769-.213-1.048.201h-.21c-1.072-1.449-1.155-3.201-1.203-4.855-.068-2.387.344-4.787.259-7.172-.047-1.307.1-2.604.014-3.902-.022-.332-.219-.377-.46-.393-1.941-.125-3.869-.347-5.83-.244-1.509.08-3.028.156-4.555.06-1.005-.062-2.041.105-3.05.217-1.056.115-1.829-.197-2.547-.874v-1.255c.935-1.068 2.233-.736 3.388-.807 1.417-.086 2.82-.248 4.22-.449.745-.107 1.489.052 2.208.078 1.596.061 3.152-.486 4.771-.158.495.102 1.118.031 1.676.029.814-.004.938-.945 1.015-1.502.384-2.826.598-5.675.964-8.504.115-.895.518-1.753.793-2.626.229-.728.899-.752 1.48-.916.276-.078.637.167.836-.215h.418c1.07.69.853 2.094 1.63 2.979.183.208.682.62.414 1.075-.49.831-.802 1.883-1.895 2.131-.664.149-.737.488-.805 1.08-.209 1.859-.655 3.684-.78 5.564-.066.984.233 1.439 1.241 1.27.63-.105 1.27-.09 1.896-.131.81-.055 1.643.285 2.398-.022.691-.282 1.222-.376 1.923.06 1.403.873 3.026.608 4.584.662.751.027 1.503.125 2.243.257.271.048.623.194.538.622-.138.697.275 1 .844 1.197v.837c-1.492 1.521-3.426 1.145-5.255 1.223-.606-.914-1.645-.822-2.52-.988-2.494-.469-5.022-.689-7.564-.65"/><g><path fill="#333" d="M-40.262 10.439h.483c.532.845 1.192 1.255 2.151.627.37-.242.809-.208 1.167-.119 2.164.534 4.339-.491 6.54.164 1.01.3 2.178.217 3.327-.115 1.045-.303 2.214.287 3.271.371 1.481.118 2.23 1.035 3.236 1.728l.118.003v.967c-.186.797-.716 1.05-1.5 1.15-.974.125-2.074-.1-2.849.782h-4.832c-1.115-.555-2.374-.717-3.536-.668-1.785.075-3.555-.054-5.33-.061-1.927-.007-3.865.129-5.774-.049-1.396-.131-2.755.037-4.13.049-.871.007-1.79.264-2.587.17-1.957-.23-4.174-.043-5.462-2.098v-1.45c.477-.274 1.017-.479 1.415-.839.806-.726 1.896.01 2.692-.611h4.35c.315.428.771.441 1.253.504 1.056.135 2.08-.183 3.155-.098.896.071 2.014.465 2.842-.407z"/><path clip-rule="evenodd" d="M-40.262 10.439c-.828.872-1.946.478-2.84.406-1.075-.085-2.1.232-3.155.098-.481-.062-.938-.076-1.253-.504" fill="none"/></g><path fill-rule="evenodd" clip-rule="evenodd" fill="#333" d="M.067 15.273c.466-1.2 1.691-1.617 2.55-2.405l1.489-1.528c1.194-1.104 2.401-2.204 3.691-3.19 1.3-.995 2.732-1.872 3.905-2.974 1.456-1.368 3.279-2.286 4.546-3.843.454-.559.909-1.064 1.585-1.333h.779c.33.537.956.695 1.386 1.065 1.058.911 2.247 1.565 3.482 2.159.347.167.626.384.892.648.33.329.635.828 1.029.922 1.298.311 2.277 1.22 3.483 1.693.738.29 1.415.751 2.093 1.179.248.157.468-.188.7.069.489.542.976 1.103 1.837 1.014.173-.017.429.108.536.251.531.714 1.579.841 1.944 1.731l.073.022v1.091c-.263.107-.177.395-.292.586-.321.537-.773.803-1.346.605-.964-.333-1.923-.722-2.631-1.501-.389-.428-.951-.567-1.373-.931l-.278-.102c-.652-.9-1.927-.767-2.604-1.502-.534-.581-1.261-.824-1.855-1.087-.714-.316-1.424-.648-2.072-1.064-.923-.593-1.906-1.079-2.813-1.712-.857-.6-1.895-.953-2.907-1.293-.565-.19-.877.314-1.038.545-1.136 1.63-2.981 2.338-4.418 3.562-.749.636-1.671 1.036-2.306 1.829-.463.577-1.029 1.055-1.837 1.157-.324.041-.611.29-.798.572-.874 1.325-2.106 2.302-3.228 3.391-.678.659-1.342 1.32-2.179 1.778h-.623c-.468 0-1.117.183-1.352-.051-.232-.236-.05-.886-.05-1.353z"/></svg>