<svg width="36" height="36" xmlns="http://www.w3.org/2000/svg"><g fill="#333"><path d="M20.558 1.787h1.448c.516.143 1.028.381 1.55.403.679.028 1.298.184 1.885.484.671.344 1.293.8 1.987 1.083.868.355 1.521.995 2.121 1.625.836.878 1.556 1.894 2.188 2.935.797 1.311 1.513 2.679 2.155 4.072.556 1.206.968 2.478 1.424 3.729.133.365.225.75.291 1.133.089.513.125 1.035.206 1.549.02.126.122.239.187.358v.772c-.033.129-.083.256-.095.387-.07.793-.056 1.603-.218 2.376-.163.774-.456 1.53-.774 2.258-.206.471-.584.864-.841 1.316-.565.996-.993 2.053-1.769 2.947-.816.941-1.791 1.662-2.8 2.324-.677.444-1.508.684-2.299.919-1.124.335-2.274.583-3.414.865-.776.192-1.515.536-2.339.538-.312.001-.649.192-.931.12-.392-.1-.668-.042-.929.233h-1.254c-.066-.046-.131-.129-.199-.133-.802-.047-1.605-.083-2.408-.121-1.004-.048-2.032.026-3.005-.172-1.44-.293-2.94-.272-4.316-.981-.856-.441-1.734-.818-2.458-1.463-.302-.27-.536-.617-.843-.88-.308-.264-.705-.427-1.001-.701-.875-.807-1.529-1.789-2.084-2.833-.257-.483-.475-.991-.667-1.504-.432-1.151-.848-2.309-1.243-3.472-.092-.268-.078-.574-.113-.863v-3.86c.194-.779.361-1.567.59-2.335.178-.597.375-1.203.673-1.746.323-.591.761-1.122 1.169-1.663.393-.521.789-1.042 1.227-1.524.468-.513.966-1.003 1.489-1.46.519-.453 1.085-.85 1.629-1.274l.528-.433c.47-.357.933-.727 1.423-1.055.307-.206.703-.293.983-.524.907-.749 2.016-1.099 3.054-1.575 1.333-.611 2.781-.856 4.222-1.081.625-.097 1.273-.202 1.894-.138.708.071 1.201-.207 1.677-.635zm-.831 1.929c-.233-.064-.467-.179-.701-.183-.442-.007-.887.037-1.328.083-.898.096-1.824.101-2.684.342-1.032.29-2.008.779-3.002 1.197-.251.105-.476.272-.719.398-.486.251-1.017.436-1.456.75-.922.661-1.808 1.374-2.687 2.092-.718.588-1.458 1.164-2.087 1.84-.663.713-1.219 1.528-1.795 2.318-.271.371-.455.803-.72 1.177-.423.595-.703 1.216-.73 1.968-.02.561-.184 1.115-.254 1.675-.062.494-.102.994-.111 1.491-.007.353.126.72.069 1.058-.114.664-.091 1.296.117 1.934.122.373.184.763.297 1.138.177.582.362 1.163.574 1.733.085.23.262.425.379.645.44.824.752 1.754 1.34 2.452.767.909 1.707 1.692 2.655 2.421.685.526 1.477.938 2.273 1.282.546.236 1.086.539 1.757.497.535-.034 1.081.187 1.627.248.586.066 1.178.09 1.769.112.48.018.988-.095 1.436.028 1.208.33 2.44.171 3.65.208.936.028 1.925-.085 2.855-.42.737-.265 1.511-.429 2.267-.642.493-.139.991-.267 1.475-.434.825-.286 1.645-.588 2.458-.906.253-.099.516-.232.705-.42.272-.272.481-.608.65-.829.259-.099.501-.118.62-.25.477-.527.99-1.044 1.351-1.648.782-1.308 1.742-2.537 2.028-4.096.053-.289.215-.559.258-.847.095-.641.182-1.288.206-1.934.029-.808.113-1.644-.054-2.419-.145-.672-.105-1.37-.485-2.045-.497-.882-.659-1.946-1.045-2.899-.362-.895-.822-1.75-1.251-2.617-.206-.417-.4-.85-.67-1.225-.557-.771-1.125-1.541-1.755-2.25-.529-.592-1.109-1.16-1.745-1.632-.585-.434-1.254-.778-1.927-1.062-.67-.283-1.361-.583-2.162-.509 0 .184-.043.355.008.492.154.405 0 .536-.38.463-.193-.037-.409-.092-.557-.21-.767-.612-1.622-.682-2.519-.565z"/><path d="M24.267 18.867h-1.984c-.783 0-1.569-.046-2.347.013-.975.074-1.942.246-2.916.353-.814.089-1.632.138-2.447.219l-.636.142-1.308.106c-.515.059-1.106.342-1.524.175-.779-.31-1.342.157-1.807.45-.49.309-1.021.417-1.514.637-.737.328-1.372.08-1.46-.951.461-.506 1.108-.423 1.688-.563.954-.229 1.891-.53 2.844-.763.784-.191 1.58-.336 2.373-.486.56-.106 1.161-.355 1.678-.242.924.202 1.786-.075 2.671-.116.95-.044 1.888-.288 2.837-.391.566-.062 1.144-.02 1.717-.023.389-.002.783.033 1.164-.022.15-.022.271-.246.45-.421-.926-.684-1.792-1.299-2.629-1.952-.445-.347-.837-.763-1.259-1.142l-.621-.516c-.107-.09-.229-.17-.312-.28-.175-.229-.397-.385-.619-.56-.508-.4-.879-.983-1.269-1.518-.043-.059.114-.366.243-.432.791-.402 1.202.262 1.677.668 1.305 1.114 2.544 2.311 3.895 3.365.977.762 2.09 1.349 3.143 2.014.516.325 1.035.645 1.546.978.365.238.314.618.157.902-.393.708-.742 1.499-1.316 2.033-.605.562-.836 1.394-1.503 1.854-.774.534-1.046 1.43-1.629 2.095-.438.5-.932.955-1.332 1.482-.404.534-.693 1.156-1.092 1.695-.178.24-.556.567-.748.513-.362-.102-.876-.162-.981-.679-.031-.151-.031-.352.044-.475.369-.601.768-1.183 1.156-1.771l.051-.079c.142-.782.684-1.344 1.053-2.004.392-.701 1.057-1.124 1.466-1.784.396-.638.857-1.234 1.259-1.868.102-.16.088-.391.141-.656z" clip-rule="evenodd" fill-rule="evenodd"/></g></svg>