<svg width="36" height="36" xmlns="http://www.w3.org/2000/svg"><path fill-rule="evenodd" clip-rule="evenodd" fill="#333" d="M5.95 18.765h3.323c1.311-.001 2.629.077 3.931-.022 1.634-.124 3.254-.413 4.884-.591 1.363-.149 2.733-.23 4.098-.366l1.065-.238 2.19-.178c.863-.1 1.853-.573 2.553-.293 1.304.519 2.247-.264 3.026-.754.82-.518 1.71-.698 2.536-1.066 1.234-.548 2.298-.135 2.446 1.592-.773.847-1.856.708-2.828.943-1.598.384-3.167.887-4.763 1.278-1.313.32-2.646.562-3.975.814-.938.177-1.944.595-2.81.405-1.548-.337-2.992.126-4.475.195-1.59.075-3.163.482-4.752.654-.948.103-1.917.034-2.875.04-.651.004-1.312-.056-1.95.037-.25.037-.451.411-.752.706 1.55 1.146 3.001 2.176 4.403 3.27.745.582 1.401 1.278 2.107 1.912.336.301.695.575 1.039.864.18.15.383.286.523.469.291.384.664.645 1.037.937.851.671 1.471 1.646 2.124 2.543.072.099-.191.613-.407.723-1.324.673-2.013-.439-2.81-1.119-2.186-1.866-4.259-3.871-6.522-5.637-1.636-1.276-3.501-2.259-5.264-3.373-.864-.545-1.734-1.08-2.588-1.637-.612-.398-.527-1.035-.264-1.511.659-1.186 1.243-2.51 2.205-3.405 1.013-.942 1.4-2.336 2.518-3.104 1.297-.895 1.752-2.395 2.729-3.51.732-.838 1.56-1.599 2.23-2.483.678-.893 1.16-1.935 1.829-2.838.298-.402.931-.95 1.251-.858.606.17 1.467.271 1.644 1.139.051.252.053.589-.075.795-.618 1.004-1.285 1.979-1.937 2.967l-.085.131c-.238 1.312-1.145 2.252-1.764 3.356-.655 1.175-1.77 1.884-2.455 2.99-.662 1.066-1.434 2.067-2.108 3.128-.169.265-.145.652-.232 1.095z"/></svg>