<svg width="36" height="36" xmlns="http://www.w3.org/2000/svg"><path d="M35.999 11.101c-.466 1.2-1.691 1.617-2.55 2.405l-1.489 1.528c-1.194 1.104-2.401 2.204-3.691 3.19-1.3.995-2.732 1.872-3.905 2.974-1.456 1.368-3.279 2.286-4.546 3.844-.453.557-.908 1.062-1.584 1.331h-.779c-.33-.536-.956-.695-1.386-1.065-1.058-.91-2.247-1.564-3.482-2.158-.347-.167-.626-.384-.892-.648-.33-.329-.635-.828-1.029-.922-1.298-.311-2.277-1.22-3.483-1.693-.738-.29-1.415-.751-2.093-1.179-.248-.157-.468.188-.7-.069-.491-.543-.977-1.104-1.838-1.014-.172.017-.429-.108-.535-.25-.532-.714-1.579-.841-1.945-1.732l-.073-.022v-1.091c.263-.107.177-.395.292-.586.321-.537.773-.803 1.346-.605.964.333 1.923.721 2.631 1.5.389.428.951.567 1.373.931l.278.102c.652.9 1.927.767 2.604 1.502.534.581 1.261.824 1.855 1.087.714.316 1.424.648 2.072 1.064.923.593 1.906 1.079 2.813 1.712.857.6 1.895.953 2.907 1.293.565.19.877-.314 1.038-.545 1.136-1.63 2.981-2.338 4.418-3.562.749-.636 1.671-1.036 2.306-1.829.463-.577 1.029-1.055 1.837-1.157.324-.041.611-.29.798-.572.874-1.325 2.106-2.302 3.228-3.391.678-.659 1.342-1.32 2.179-1.778h.623c.468 0 1.117-.183 1.352.051.233.238.05.887.05 1.354z" fill="#333" clip-rule="evenodd" fill-rule="evenodd"/></svg>