<svg width="25" height="25" viewBox="0 0 25 25" xmlns="http://www.w3.org/2000/svg" xmlns:sketch="http://www.bohemiancoding.com/sketch/ns"><title>Slice 1</title><desc>Created with Sketch.</desc><path d="M23.295 4.6h-21.591l-1.704 1.778v12.453l1.704 1.768h21.591l1.705-1.815v-12.407l-1.705-1.778zm-6.715 1.643c.702 0 1.273.303 1.273 2.295 0 1.993-.587 2.206-1.273 2.206-.685 0-1.255-.178-1.255-2.206s.569-2.295 1.255-2.295zm-2.67 9.3c-1.077.231-2.29.712-2.29 2.01l.005.107c-1.243-1.314-2.01-3.119-2.01-5.112 0-2.936 1.666-5.465 4.066-6.616-.803.589-1.273 1.477-1.273 2.606 0 1.317.633 2.295 1.59 2.844l.065.038c-.547.39-1.671 1.295-1.671 2.345 0 .782.495 1.546 1.52 1.778zm2.73 3.15c-1.813 0-2.435-.665-2.435-1.386 0-.498.258-1.17 1.13-1.17h2.595c.833 0 1.329.475 1.329 1.163.001.788-.558 1.393-2.62 1.393zm4.826-.943c.258-.507.382-1.093.382-1.745 0-1.955-1.043-2.861-3.163-2.861h-3.424c-.377 0-.685-.285-.685-.642 0-.267.188-.553.428-.729.513.16.942.194 1.575.194 2.463 0 4.157-1.153 4.157-3.324l-.021-.245c-.039-1.109-.543-1.975-1.373-2.539 2.482 1.114 4.221 3.689 4.221 6.688 0 2.039-.803 3.881-2.097 5.203z" sketch:type="MSShapeGroup" fill="#4EC6DC"/></svg>