<svg width="25" height="25" viewBox="0 0 25 25" xmlns="http://www.w3.org/2000/svg" xmlns:sketch="http://www.bohemiancoding.com/sketch/ns"><title>Slice 1</title><desc>Created with Sketch.</desc><path d="M23.709 15.667l-.602-.586c-1.345-.445-2.784-.688-4.279-.688-1.076 0-2.122.127-3.126.364l1.499 6.158-.597.745h7.843l.553-.69-1.291-5.303zm-4.881-2.56c1.27 0 2.788-1.425 2.788-3.185 0-1.759-1.029-2.787-2.788-2.787-1.76 0-2.788 1.028-2.788 2.787 0 1.76 1.643 3.185 2.788 3.185zm-10.612-2.823c1.689 0 3.707-1.897 3.707-4.237s-1.368-3.707-3.707-3.707c-2.34 0-3.708 1.368-3.708 3.707 0 2.34 2.185 4.237 3.708 4.237zm6.492 3.405l-.8-.78c-1.79-.592-3.703-.915-5.691-.915-2 0-3.922.325-5.72.923l-.808.79-1.688 7.051.72.901h14.969l.735-.918-1.716-7.054z" sketch:type="MSShapeGroup" fill="#4EC6DC"/></svg>