<svg width="25" height="25" viewBox="0 0 25 25" xmlns="http://www.w3.org/2000/svg" xmlns:sketch="http://www.bohemiancoding.com/sketch/ns"><title>Slice 1</title><desc>Created with Sketch.</desc><path d="M25 12.041v-6.004l-1.137-1.142h-22.727l-1.137 1.142v6.004l1.137.571v.571l-1.137.571v5.997l1.137 1.143h22.727l1.136-1.143v-5.996l-1.137-.571v-.571l1.137-.572zm-4.685 6.569h-1.135v-1.141h1.135v1.141zm0-1.714h-1.135v-1.142h1.135v1.142zm0-1.713h-1.135v-1.142h1.135v1.142zm0-1.713h-1.135v-1.142h1.135v1.142zm0-1.713h-1.135v-1.142h1.135v1.142zm0-1.713h-1.135v-1.142h1.135v1.142zm0-1.714h-1.135v-1.142h1.135v1.142z" sketch:type="MSShapeGroup"/></svg>
