<svg width="25" height="25" viewBox="0 0 25 25" xmlns="http://www.w3.org/2000/svg" xmlns:sketch="http://www.bohemiancoding.com/sketch/ns"><title>Slice 1</title><desc>Created with Sketch.</desc><path d="M11.669 9.51h1.66v10.352h-1.66zm-8.374 9.002l1.534 1.35h5.563v-10.352h-7.097v9.002zm19.943-11.595h-6.635c.552-.5.952-1.079 1.124-1.638.197-.633.087-1.173-.308-1.52-.264-.232-.633-.354-1.068-.354-.817 0-1.781.419-2.579 1.122-.777.683-1.22 1.478-1.268 2.148-.011-.146-.041-.299-.09-.458-.179-.578-.598-1.178-1.18-1.69-.797-.702-1.762-1.122-2.579-1.122-.435 0-.805.122-1.068.354-.767.675-.405 2.052.816 3.158h-6.642l-.511.45v1.125l.511.45h8.632v-.983h1.276v.983h1.66v-.983h1.277v.983h8.632l.512-.45v-1.125l-.512-.45zm-11.377 0h-2.501c-.154-.104-.306-.219-.45-.345-1.082-.952-1.325-2.017-.873-2.415.143-.126.351-.19.617-.19.642 0 1.458.366 2.128.957.505.444.866.955 1.016 1.44.044.142.088.35.063.553zm.643 0v-.002.002zm3.143 0h-2.503c-.066-.512.274-1.284 1.079-1.994.671-.59 1.486-.956 2.128-.956.266 0 .474.063.617.19.305.268.22.726.144.975-.15.485-.511.997-1.016 1.441-.143.127-.295.241-.449.345zm-1.04 12.945h5.563l1.534-1.35v-9.002h-7.097v10.352z" sketch:type="MSShapeGroup" fill="#4EC6DC"/></svg>