<?xml version="1.0" encoding="utf-8"?>
<!-- Generator: Adobe Illustrator 16.0.1, SVG Export Plug-In . SVG Version: 6.00 Build 0)  -->
<!DOCTYPE svg PUBLIC "-//W3C//DTD SVG 1.1//EN" "http://www.w3.org/Graphics/SVG/1.1/DTD/svg11.dtd">
<svg version="1.1" id="Layer_1" xmlns="http://www.w3.org/2000/svg" xmlns:xlink="http://www.w3.org/1999/xlink" x="0px" y="0px"
	 width="28px" height="37px" viewBox="0 0 28 37" enable-background="new 0 0 28 37" xml:space="preserve">
<g>
	<path fill="#333333" d="M25,31H3V4h22V31z M12,34c0-1.104,0.896-2,2-2c1.105,0,2,0.896,2,2s-0.895,2-2,2C12.896,36,12,35.104,12,34
		 M28,33V4c0,0,0-4-4-4H4c0,0-4,0-4,4v29c0,0,0,4,4,4h20C24,37,28,37,28,33"/>
</g>
</svg>
