<?xml version="1.0" encoding="utf-8"?>
<!-- Generator: Adobe Illustrator 16.0.1, SVG Export Plug-In . SVG Version: 6.00 Build 0)  -->
<!DOCTYPE svg PUBLIC "-//W3C//DTD SVG 1.1//EN" "http://www.w3.org/Graphics/SVG/1.1/DTD/svg11.dtd">
<svg version="1.1" id="Layer_1" xmlns="http://www.w3.org/2000/svg" xmlns:xlink="http://www.w3.org/1999/xlink" x="0px" y="0px"
	 width="28px" height="30px" viewBox="0 0 28 30" enable-background="new 0 0 28 30" xml:space="preserve">
<g>
	<path fill="#333333" d="M8,10c5.523,0,10-4.477,10-10c0,5.523,4.477,10,10,10c-5.523,0-10,4.478-10,10C18,14.478,13.523,10,8,10"/>
	<path fill="#333333" d="M0,18.211c3.314,0,6-2.687,6-6c0,3.313,2.686,6,6,6c-3.314,0-6,2.686-6,6C6,20.896,3.314,18.211,0,18.211"
		/>
	<path fill="#333333" d="M11,25c2.761,0,5-2.238,5-5c0,2.762,2.238,5,5,5c-2.762,0-5,2.239-5,5C16,27.239,13.761,25,11,25"/>
</g>
</svg>
