<svg width="36" height="36" xmlns="http://www.w3.org/2000/svg"><path d="M12.036.035c1.2.466 1.617 1.691 2.405 2.55l1.528 1.489c1.104 1.194 2.204 2.401 3.19 3.691.995 1.3 1.872 2.732 2.974 3.905 1.368 1.456 2.286 3.279 3.844 4.546.557.453 1.062.908 1.331 1.584v.779c-.536.33-.695.956-1.065 1.386-.91 1.058-1.564 2.247-2.158 3.482-.167.347-.384.626-.648.892-.329.33-.828.635-.922 1.029-.311 1.298-1.22 2.277-1.693 3.483-.29.738-.751 1.415-1.179 2.093-.157.248.188.468-.069.7-.543.491-1.104.977-1.014 1.838.017.172-.108.429-.25.535-.714.532-.841 1.579-1.732 1.945l-.022.073h-1.091c-.107-.263-.395-.177-.586-.292-.537-.321-.803-.773-.605-1.346.333-.964.721-1.923 1.5-2.631.428-.389.567-.951.931-1.373l.102-.278c.9-.652.767-1.927 1.502-2.604.581-.534.824-1.261 1.087-1.855.316-.714.648-1.424 1.064-2.072.593-.923 1.079-1.906 1.712-2.813.6-.857.953-1.895 1.293-2.907.19-.565-.314-.877-.545-1.038-1.63-1.136-2.338-2.981-3.562-4.418-.636-.749-1.036-1.671-1.829-2.306-.577-.463-1.055-1.029-1.157-1.837-.041-.324-.29-.611-.572-.798-1.325-.874-2.302-2.106-3.391-3.228-.659-.678-1.32-1.342-1.778-2.179v-.623c0-.468-.183-1.117.051-1.352.238-.233.887-.05 1.354-.05z" fill="#333" clip-rule="evenodd" fill-rule="evenodd"/></svg>