<svg xmlns="http://www.w3.org/2000/svg" width="36" height="36" viewBox="0 0 36 36"><path d="M-169.248 14.897l-.186-.102c-2.746-1.512-4.56-4.2-4.56-7.818 0-3.1 1.35-5.54 3.65-7.16-6.876 3.163-11.656 10.113-11.656 18.183 0 5.474 2.2 10.433 5.764 14.045l-.013-.293c0-3.57 3.48-4.887 6.57-5.523v-.007c-2.94-.636-4.36-2.737-4.36-4.886 0-2.883 3.227-5.37 4.796-6.444zm7.222-1.857c1.964 0 3.65-.586 3.65-6.062 0-5.475-1.637-6.306-3.65-6.306-1.964 0-3.6.733-3.6 6.306s1.636 6.062 3.6 6.062zm20.026 4.96c0-8.242-4.985-15.318-12.104-18.38 2.38 1.55 3.826 3.93 3.937 6.978.038.234.06.46.06.673 0 5.97-4.854 9.14-11.918 9.14-1.816 0-3.043-.1-4.516-.538-.69.488-1.23 1.27-1.23 2.005 0 .98.88 1.763 1.96 1.763h9.817c6.08 0 9.07 2.49 9.07 7.862 0 1.79-.356 3.4-1.094 4.792 3.714-3.633 6.018-8.695 6.018-14.295zm-16.147 9.86h-7.443c-2.5 0-3.24 1.848-3.24 3.218 0 1.98 1.783 3.806 6.98 3.806 5.91 0 7.515-1.664 7.515-3.83 0-1.888-1.423-3.194-3.812-3.194zM11.478 15.133l-.168-.092c-2.47-1.36-4.104-3.78-4.104-7.03 0-2.79 1.215-4.987 3.285-6.445-6.191 2.842-10.491 9.099-10.491 16.359 0 4.927 1.98 9.39 5.188 12.64l-.012-.263c0-3.21 3.133-4.397 5.91-4.97-2.644-.573-3.924-2.464-3.924-4.398 0-2.595 2.902-4.834 4.316-5.8zm6.5-1.673c1.77 0 3.283-.527 3.283-5.455 0-4.927-1.47-5.675-3.28-5.675-1.766 0-3.24.66-3.24 5.675 0 5.016 1.474 5.456 3.24 5.456zm18.022 4.464c0-7.417-4.487-13.786-10.894-16.542 2.144 1.398 3.444 3.538 3.544 6.28.032.212.053.416.053.607 0 5.363-4.368 8.22-10.727 8.22-1.634 0-2.74-.09-4.064-.487-.618.44-1.104 1.144-1.104 1.805 0 .88.794 1.586 1.767 1.586h8.834c5.47 0 8.16 2.24 8.16 7.075 0 1.614-.32 3.062-.985 4.315 3.341-3.263 5.416-7.818 5.416-12.858zm-14.532 8.876h-6.7c-2.25 0-2.916 1.662-2.916 2.895 0 1.78 1.605 3.425 6.283 3.425 5.32 0 6.762-1.497 6.762-3.447 0-1.7-1.28-2.874-3.43-2.874zM-109.248 14.897l-.186-.102c-2.746-1.512-4.56-4.2-4.56-7.818 0-3.1 1.35-5.54 3.65-7.16-6.876 3.163-11.656 10.113-11.656 18.183 0 5.474 2.2 10.433 5.764 14.045l-.013-.293c0-3.57 3.48-4.887 6.57-5.523v-.007c-2.94-.636-4.36-2.737-4.36-4.886 0-2.883 3.227-5.37 4.796-6.444zm7.222-1.857c1.964 0 3.65-.586 3.65-6.062 0-5.475-1.637-6.306-3.65-6.306-1.964 0-3.6.733-3.6 6.306s1.636 6.062 3.6 6.062zm20.026 4.96c0-8.243-4.985-15.32-12.104-18.38 2.38 1.55 3.826 3.93 3.937 6.978.038.234.06.46.06.673 0 5.97-4.854 9.14-11.918 9.14-1.816 0-3.043-.1-4.516-.538-.69.488-1.23 1.27-1.23 2.005 0 .98.88 1.763 1.96 1.763h9.817c6.08 0 9.07 2.49 9.07 7.862 0 1.79-.356 3.4-1.094 4.792 3.714-3.633 6.018-8.695 6.018-14.295zm-16.147 9.86h-7.443c-2.5 0-3.24 1.848-3.24 3.218 0 1.98 1.783 3.806 6.98 3.806 5.91 0 7.515-1.664 7.515-3.83 0-1.888-1.423-3.194-3.812-3.194zM-49.248 14.897l-.186-.102c-2.746-1.512-4.56-4.2-4.56-7.818 0-3.1 1.35-5.54 3.65-7.16-6.876 3.163-11.656 10.113-11.656 18.183 0 5.474 2.2 10.433 5.764 14.045l-.013-.293c0-3.57 3.48-4.887 6.57-5.523v-.007c-2.94-.636-4.36-2.737-4.36-4.886 0-2.883 3.227-5.37 4.796-6.444zm7.222-1.857c1.964 0 3.65-.586 3.65-6.062 0-5.475-1.637-6.306-3.65-6.306-1.964 0-3.6.733-3.6 6.306s1.636 6.062 3.6 6.062zm20.026 4.96c0-8.243-4.985-15.32-12.104-18.38 2.38 1.55 3.826 3.93 3.937 6.978.038.234.06.46.06.673 0 5.97-4.854 9.14-11.918 9.14-1.816 0-3.043-.1-4.516-.538-.69.488-1.23 1.27-1.23 2.005 0 .98.88 1.763 1.96 1.763h9.817c6.08 0 9.07 2.49 9.07 7.862 0 1.79-.356 3.4-1.094 4.792 3.714-3.633 6.018-8.695 6.018-14.295zm-16.147 9.86h-7.443c-2.5 0-3.24 1.848-3.24 3.218 0 1.98 1.783 3.806 6.98 3.806 5.91 0 7.515-1.664 7.515-3.83 0-1.888-1.423-3.194-3.812-3.194z"/></svg>
