<svg xmlns="http://www.w3.org/2000/svg" viewBox="0 0 170 170"><path d="M84.909 0C38.016 0 0 38.014 0 84.908c0 46.895 38.016 84.908 84.909 84.908 46.895 0 84.908-38.014 84.908-84.908S131.804 0 84.909 0"/><path fill="#FFF" d="M99.932 20.973c11 1.754 25 9.294 30 14.647V60h-3.045L99.932 23.701v-2.728zM89.932 22.513l-.268-.001c-19.264 0-29.732 26.676-29.732 62.661v.13c0 35.985 10.469 62.662 29.732 62.662l.268-.002v2.773c-29 1.984-68-20.114-67-65.433v-.13c-1-45.318 38-67.416 67-65.433v2.773z"/><path fill="#FFF" d="M138.932 90.82l-9 3.949v40.737c-5 4.733-18 12.111-30 14.647V93.881l-10-3.316V88h49v2.82z"/></svg>
