<svg xmlns="http://www.w3.org/2000/svg" viewBox="0 0 170 170">
<g>
	<g>
		<path fill="#FFF" d="M84.9,0C38,0,0,38,0,84.9s38,84.9,84.9,84.9s84.9-38,84.9-84.9S131.8,0,84.9,0z"/>
	</g>
	<g>
		<g>
			<path d="M99.5,21c11.9,1.8,25,9.3,30.1,14.6v24.6h-2.7L99.5,23.7V21z"/>
		</g>
		<g>
			<path d="M90.4,22.5c0,0-0.2,0-0.3,0c-19.3,0-30.4,26.7-29.8,62.7v0.1c-0.6,36,10.5,62.7,29.8,62.7c0.1,0,0.3,0,0.3,0v2.8
				c-29,2-68.2-20.1-67.6-65.4v-0.1c-0.6-45.3,38.6-67.4,67.6-65.4V22.5z"/>
		</g>
		<g>
			<path d="M138.7,90.8l-9.1,3.9v40.7c-5.1,4.7-17.6,12.1-30.1,14.6v-3v-5.6V93.9l-9.1-3.3v-2.5h48.3V90.8z"/>
		</g>
	</g>
</g>
</svg>
