<?xml version="1.0" encoding="utf-8"?>
<!-- Generator: Adobe Illustrator 16.0.1, SVG Export Plug-In . SVG Version: 6.00 Build 0)  -->
<!DOCTYPE svg PUBLIC "-//W3C//DTD SVG 1.1//EN" "http://www.w3.org/Graphics/SVG/1.1/DTD/svg11.dtd">
<svg version="1.1" id="Layer_1" xmlns="http://www.w3.org/2000/svg" xmlns:xlink="http://www.w3.org/1999/xlink" x="0px" y="0px"
	 width="23.938px" height="24px" viewBox="0 0 23.938 24" enable-background="new 0 0 23.938 24" xml:space="preserve">
<g>
	<path fill="#333333" d="M16.824,2.931c0.281,0.687,0.521,1.439,0.729,2.233h4.314c-1.529-2.21-3.777-3.883-6.408-4.679
		C15.968,1.148,16.427,1.964,16.824,2.931z"/>
	<path fill="#333333" d="M-0.031,11.18H5.58c0.04-1.524,0.19-3,0.443-4.375H1.115C0.473,8.145,0.074,9.621-0.031,11.18z"/>
	<path fill="#333333" d="M16.019,5.164c-0.889-3.138-2.371-5.195-4.05-5.195c-1.679,0-3.162,2.057-4.049,5.195H16.019z"/>
	<path fill="#333333" d="M7.06,12.82c0.043,1.558,0.206,3.035,0.469,4.375h8.88c0.262-1.34,0.426-2.817,0.469-4.375H7.06z"/>
	<path fill="#333333" d="M7.92,18.836c0.888,3.138,2.37,5.195,4.049,5.195c1.679,0,3.161-2.058,4.05-5.195H7.92z"/>
	<path fill="#333333" d="M16.878,11.18c-0.043-1.559-0.207-3.035-0.469-4.375h-8.88C7.266,8.145,7.103,9.621,7.06,11.18H16.878z"/>
	<path fill="#333333" d="M7.115,21.069c-0.28-0.687-0.521-1.439-0.729-2.233H2.07c1.529,2.21,3.778,3.882,6.409,4.679
		C7.97,22.853,7.511,22.036,7.115,21.069z"/>
	<path fill="#333333" d="M6.023,17.195C5.77,15.819,5.62,14.345,5.58,12.82h-5.611c0.105,1.558,0.504,3.035,1.146,4.375H6.023z"/>
	<path fill="#333333" d="M6.386,5.164C6.594,4.37,6.835,3.617,7.115,2.931C7.511,1.964,7.97,1.148,8.479,0.485
		C5.849,1.281,3.6,2.954,2.07,5.164H6.386z"/>
	<path fill="#333333" d="M17.553,18.836c-0.208,0.794-0.448,1.547-0.729,2.233c-0.396,0.967-0.855,1.783-1.364,2.445
		c2.631-0.797,4.879-2.469,6.408-4.679H17.553z"/>
	<path fill="#333333" d="M17.916,6.805c0.253,1.375,0.403,2.85,0.443,4.375h5.61c-0.105-1.559-0.504-3.035-1.146-4.375H17.916z"/>
	<path fill="#333333" d="M23.969,12.82h-5.61c-0.04,1.524-0.19,2.999-0.443,4.375h4.908C23.465,15.855,23.864,14.378,23.969,12.82z"
		/>
</g>
</svg>
