<svg xmlns="http://www.w3.org/2000/svg" width="120" height="47.15" viewBox="60 23.58 120 47.15"><g fill="#333"><path d="M169.19 51.54c-.36-1.25-.77-2.55-1.46-3.63-.6-.94-1.64-1.6-2.49-2.39-.02-.02-.05 0-.08-.01-.6-.11-1.21-.18-1.79-.34-1.37-.38-2.71-.69-4.06.08-.39.23-.78.47-1.19.67-2.38 1.17-4.39 2.81-6.02 4.9-.55.7-1.09 1.42-1.62 2.13-.75 1.01-1.13 1.99-.83 3.22.04.18 0 .38.03.57.09.68-.49.99-.82 1.42-.6.77-1.23 1.53-1.94 2.19-.49.46-1.11.83-1.73 1.11-1.02.47-2.06 1.06-3.15 1.22-1.34.2-2.66-.15-3.38-1.36.02-.32.02-.52.04-.72.07-.54.17-1.08.21-1.62.04-.58.47-.76.84-1.09.61-.54 1.03-1.29 1.58-1.89.88-.94 1.81-1.84 2.72-2.75.19-.19.45-.31.63-.51.55-.63 1.1-1.28 1.62-1.95.68-.86 1.34-1.75 2-2.63.13-.17.21-.39.35-.56.52-.69 1.06-1.36 1.57-2.06.89-1.23 1.78-2.46 2.63-3.71.48-.69.9-1.42 1.33-2.15.51-.88 1.03-1.76 1.5-2.65.56-1.04 1.31-2.04 1.55-3.15.18-.83.66-1.44.94-2.17.25-.63.65-1.21.88-1.85.38-1.07.66-2.18.98-3.27.28-.95-.02-1.77-.83-2.35-.29-.21-.59-.42-.89-.64h-2.69c-.27.17-.53.45-.81.48-1.63.17-2.85 1.17-4.12 2.04-.59.4-1.11.94-1.62 1.45-.79.76-1.62 1.49-2.3 2.34-.78.98-1.64 1.9-2.29 2.98-.64 1.06-1.43 2.04-2.28 2.95-.94 1-1.39 2.27-2 3.43-.66 1.26-1.09 2.65-1.62 3.97-.21.55-.47 1.08-.62 1.65-.25.92-.24 1.98-.72 2.74-.74 1.15-.78 2.48-1.25 3.7-.52 1.31-.47 2.84-.75 4.26-.14.73-.27 1.61-.74 2.09-.91.92-2.03 1.66-3.11 2.39-.83.57-1.76 1.02-2.62 1.55-1.15.71-2.3.47-3.39-.07-1.35-.67-1.4-2.18-1.88-3.37-.27-.65.03-1.55.1-2.33.02-.22.06-.49.19-.65.79-.97 1.62-1.92 2.44-2.86.67-.76 1.39-1.46 2.02-2.25.76-.96 1.42-2 2.15-2.99.46-.62 1.1-1.16 1.36-1.86.28-.75.75-1.18 1.33-1.63.46-.36.83-.83 1.18-1.31.71-.98 1.39-2 2.08-3 .26-.38.53-.76.79-1.15.71-1.07 1.39-2.16 1.76-3.42.12-.4.63-.69.74-1.09.27-1.08.47-2.2.59-3.31.08-.67.01-1.37-.09-2.04-.08-.54-.3-1.05-.47-1.58-.36-1.13-1.45-1.75-2.6-1.46-.46.11-.92.24-1.34.43-1.13.5-2.35.9-3.35 1.6-1.2.84-2.22 1.94-3.31 2.94-.34.32-.72.62-.98 1-.91 1.29-1.79 2.6-2.67 3.91-.25.37-.53.73-.71 1.14-.53 1.2-1 2.42-1.54 3.62-.25.56-.66 1.06-.85 1.64-.61 1.88-1.15 3.78-1.72 5.67-.04.14-.07.29-.09.44-.05.61-.06 1.23-.16 1.82-.15.9-.63 1.81-.52 2.67.15 1.22-.53 1.94-1.21 2.62-1.12 1.12-2.39 2.1-3.62 3.11-.66.54-1.4.98-2.07 1.52-.44.37-.75.94-1.23 1.21-1.12.62-2.23 1.23-3.24 2.04-.81.65-1.87.97-2.74 1.57-1.51 1.04-3.19 1.58-4.97 1.82-.35.05-.69.25-1.04.23-.51-.04-1.02-.21-1.52-.33-.35-.1-.69-.2-1.05-.22-1.67-.14-2.61-1.38-3.43-2.56-.62-.9-1.01-2.04-.72-3.27.1-.44.24-.62.65-.7.56-.1 1.2-.09 1.65-.37 1.15-.7 2.52-1 3.52-1.99.29-.28.75-.39 1.05-.67.4-.38.69-.86 1.06-1.26.21-.22.47-.4.73-.56.17-.11.46-.09.58-.23.72-.86 1.4-1.75 2.09-2.63.75-.94.81-2.08.81-3.18 0-.89-.56-1.56-1.38-1.98-.62-.33-.82-1.24-1.66-1.25-.79-.02-1.6-.06-2.39.03-.94.12-1.88.33-2.79.57-.87.23-1.87.36-2.53.89-1.1.88-2.02 2-2.94 3.08-.45.52-.76 1.17-1.09 1.79-.25.47-.38 1.01-.66 1.46-.24.38-.51.8-1.17.6-.27-.08-.75.09-.96.33-1.01 1.12-1.08 2.56-.2 3.79.28.39.71.66 1.01 1.04.12.15.09.43.12.65.1.63-.33 1.24.04 1.93.36.68.44 1.51.67 2.27.17.57.24 1.25.6 1.66 1.01 1.12 1.94 2.3 3.18 3.28 1.32 1.04 2.79 1.27 4.21 1.5 1.65.26 3.4.58 5.11.04.9-.29 1.85-.44 2.71-.82 1.28-.56 2.53-1.24 3.75-1.94.91-.53 1.78-1.12 2.6-1.77.84-.68 1.54-1.54 2.4-2.19 1.02-.79 2.16-1.42 3.2-2.17.76-.55 1.44-1.22 2.2-1.77.11-.08.49.2.74.32-.37.75.27 1.37.48 1.92.45 1.18 1.41 2.13 2.48 2.89.02.02.05 0 .08.02.67.34 1.33.71 2 1.02.29.14.61.23.92.25 1.24.08 2.5.46 3.7-.26.67-.4 1.38-.76 2.11-1 .87-.27 1.52-.79 2.18-1.37.25-.22.67-.33 1.02-.35.11-.01.24.42.38.63.09.12.24.21.36.3.47.39.95.78.71 1.49.13 0 .37-.07.45.01.64.66 1.37 1.11 2.31 1.17.46.03.96-.05 1.35.12 1.33.58 2.62-.02 3.85-.24 1.25-.22 2.38-1.08 3.56-1.69.69-.36 1.15-.31 1.46.36.74 1.62 1.98 2.67 3.56 3.39.31.14.61.36.92.42.71.12 1.45.21 2.17.19.53-.02 1.08-.19 1.55-.43.62-.31 1.14-.84 1.77-1.14 1.5-.72 2.54-1.97 3.72-3.07.34-.33.71-.63 1.01-.99.49-.58.91-1.22 1.4-1.82.34-.42.8-.77 1.1-1.22.99-1.52 1.49-3.32 2.7-4.71.14-.16.11-.48.14-.73.02-.19.02-.38.01-.57-.02-.96.07-1.86-.16-2.67zM141 49.22c.3-.29.3-.91.42-1.38.21-.83.41-1.68.62-2.52.05-.2.08-.4.17-.59 1.05-2.29 2.06-4.6 3.2-6.85.46-.89 1.33-1.58 1.79-2.48.57-1.15 1.54-1.85 2.34-2.74.45-.5.95-1.02 1.35-1.6.37-.5.93-.87 1.35-1.33.43-.48.72-1.07 1.39-1.31.78-.29 1.53-.67 2.3-.96.17-.06.41.03.74.07-3.85 8.98-8.83 17.06-15.89 23.75-.11-.75-.43-1.42.22-2.06zm-15.73-4.41c.61-2.39 1.55-4.65 2.74-6.79.5-.91 1.11-1.79 1.58-2.74.32-.65.76-1.25 1.24-1.8.46-.53 1.02-.96 1.55-1.44.54-.49 1.19-.9 1.62-1.47.51-.7 1.17-1.05 1.94-1.29.26-.08.52-.17.78-.25.09.06.18.12.28.18-.23.92-.38 1.86-.69 2.75-.38 1.08-.79 2.19-1.37 3.16-.84 1.4-1.85 2.71-2.81 4.04-.82 1.14-1.67 2.25-2.51 3.36-1.13 1.49-2.26 2.98-3.42 4.46-.44.56-.91 1.08-1.42 1.56-.14.13-.46.07-.65.09.4-1.38.83-2.59 1.14-3.82zm-30.75 7.9c.25-.46.58-.87.94-1.26.32-.36.67-.74 1.08-1 .5-.32 1.22-.41 1.6-.82.58-.64 1.31-.38 1.95-.57.16-.05.37.05.81.12-.65.82-1.07 1.51-1.65 2.03-.9.79-1.76 1.65-2.93 2.09-.34.12-.59.49-.88.74-.48.4-1.26.39-1.27-.03-.05-.43.14-.9.35-1.3zm70.63 1.15c-.35.75-.74 1.49-1.18 2.18-.45.71-.96 1.39-1.5 2.03-.66.78-1.34 1.55-2.08 2.26-.8.79-1.68 1.49-2.5 2.25-.42.38-.76.85-1.17 1.25-.13.13-.38.14-.55.23-.98.52-2.6.12-2.95-.74-.06-.17-.12-.35-.11-.52.09-1.43.38-2.81.97-4.14.21-.47.05-1.21-.17-1.73-.42-1-.38-1.96.38-2.64 1.81-1.62 3.58-3.27 5.49-4.77.7-.55 1.7-.96 2.58-.98 1.03-.01 2.05.49 2.55 1.58.29.64.6 1.27.88 1.88-.23.71-.38 1.31-.64 1.86zM87.6 35.42c.26-.52.76-.95.94-1.48.47-1.4 1.16-2.65 2-3.85.63-.9 1.13-1.92 2.21-2.34.51-.2.6-.56.58-.95-.04-.81-.27-1.58-.95-2.15-.96-.8-2.49-.85-3.11-.02-.6.8-1.2 1.63-1.68 2.52-.73 1.35-1.37 2.75-2.02 4.15-.71 1.53-1.41 3.06-2.07 4.61-.88 2.02-1.74 4.05-2.56 6.09-.62 1.55-.71 3.24-1.26 4.83-.41 1.16-.92 1.76-2.07 1.84-1.18.08-2.35.3-3.52.45-1.06.13-2.14.42-3.18.34-1.22-.1-2.41-.53-3.59-.82-.07-.31-.22-.59-.18-.86.17-1.27.37-2.54.61-3.79.21-1.08.44-2.16.73-3.22.42-1.59.78-3.21 1.38-4.74.4-1.05.62-2.24 1.54-3.07.15-.14.21-.4.31-.6.21-.46.3-1.05.64-1.35 1-.88 1.61-1.88 1.87-3.21.25-1.29-.35-2.55-1.66-2.81-.39-.08-1.01.04-1.24.31-1 1.21-1.78 2.57-2.29 4.09-.34 1.01-.9 1.94-1.36 2.92-.38.81-.83 1.59-1.12 2.43-.43 1.28-.75 2.59-1.08 3.9-.41 1.63-.8 3.27-1.15 4.92-.28 1.33-.48 2.67-.73 4.12-.35-.22-.55-.34-.74-.47-.67-.44-1.35-.61-1.96.08-.35.38-.6.83-.88 1.25v.16c.11.08.31.14.31.22.02 1.17.85 1.51 1.77 1.83.58.2 1.06.57 1.09 1.26.02.48-.04.96-.08 1.44-.05.61-.17 1.22-.19 1.84-.02.29.1.59.15.89-.07.3-.05.57-.02.83.01.09.04.17.03.26-.07 1.19-.28 2.38-.18 3.56.1 1.24-.11 2.54.54 3.7.02.04 0 .1-.01.14-.2 1.15.77 1.57 1.41 2.17.21.2.67.38.9.28.54-.24 1.18-.55 1.46-1.02.3-.5.22-1.23.31-1.85-1.7-.88-1.08-2.59-1.29-3.92-.19-1.23.12-2.54.2-3.81.08-1.25.15-2.51.29-3.76.01-.15.46-.35.71-.35.33 0 .65.23.98.27.47.06.96.04 1.43.05.95.03 1.92.06 2.87.06.19 0 .38-.12.57-.18.04.1.08.21.06.18.38.02.65.09.91.05 1.01-.13 2.02-.28 3.02-.46.63-.12.83.04.8.67-.11 2.2-1.05 4.25-1.03 6.49.01 1.43-.26 2.86-.41 4.29-.04.4-.26.9-.1 1.16.5.77.11 1.52-.02 2.19-.19 1.04 0 2.08.59 2.67.62.62 1.63 1.17 2.73.66.12-.05.33.07.62.14.15-.61.28-1.16.41-1.73.09-.42.03-.96.26-1.25.6-.74.86-1.43.57-2.42-.19-.64-.39-1.18-.87-1.62-.11-.11-.28-.27-.27-.39.05-.49.18-.97.25-1.46.08-.54.12-1.08.17-1.62.11-1.21.02-2.5.39-3.63.39-1.22.09-2.49.64-3.69.43-.94.35-2.1.59-3.14.36-1.61.8-3.21 1.22-4.82.12-.47.27-.94.45-1.39.33-.82.69-1.63 1.02-2.44.29-.71.56-1.42.86-2.12.24-.56.51-1.11.75-1.67.26-.62.44-1.26.73-1.84zM179.75 61.46c-.23-.6-.55-1.11-1.16-1.39-.42-.2-1.94-.11-2.09.24-.37.89-.62 1.83-.9 2.75-.11.35-.09.83-.32 1.03-.7.59-.75 1.54-1.41 2.16-.38.35-.54.93-.86 1.38-.4.56-.39 1.4.09 1.93.54.6 1.21.71 1.87.19 1.36-1.06 2.14-2.58 3.1-3.97.62-.9 1.28-1.78 1.92-2.67v-1.43c-.07-.07-.2-.13-.24-.22z"/></g></svg>