<svg width="36" height="36" xmlns="http://www.w3.org/2000/svg"><g><path d="M15.706 15.278h.483c.532.845 1.192 1.255 2.151.627.37-.242.809-.208 1.167-.119 2.164.534 4.339-.491 6.54.164 1.01.3 2.178.217 3.327-.115 1.045-.303 2.214.287 3.271.371 1.481.118 2.23 1.035 3.236 1.728l.118.003v.967c-.186.797-.716 1.05-1.5 1.15-.974.125-2.074-.1-2.849.782h-4.832c-1.115-.555-2.374-.717-3.536-.668-1.785.075-3.555-.054-5.33-.061-1.927-.007-3.865.129-5.774-.049-1.396-.131-2.755.037-4.13.049-.871.007-1.79.264-2.587.17-1.957-.23-4.174-.043-5.462-2.098v-1.45c.477-.274 1.017-.479 1.415-.839.806-.726 1.896.01 2.692-.611h4.35c.315.428.771.441 1.253.504 1.056.135 2.08-.183 3.155-.098.896.071 2.014.465 2.842-.407z" fill="#333"/><path d="M15.706 15.278c-.828.872-1.946.478-2.84.406-1.075-.085-2.1.232-3.155.098-.481-.062-.938-.076-1.253-.504" clip-rule="evenodd" fill="none"/></g></svg>