<svg xmlns="http://www.w3.org/2000/svg" width="114.241" height="40.333" viewBox="0 0 114.241 40.333"><path fill="#D93983" d="M.895 39.615l.021.023.09.082c.148.14.316.267.508.378.833.499 1.646.097 2.292-.647.514-.327.714-.783.817-1.285.368-.785.57-1.62.523-2.194.325-.704.064-2.771.144-3.557.191-1.878.45-3.746.639-5.624l.043-.476.045-.428c.258-2.806.189-5.65.536-8.442l.129.2c.604 1.016.757 2.412 1.218 3.496.755 1.762 1.682 3.399 2.646 5.049 1.566 2.689 3.744 4.478 5.615 6.872 3.365 4.312 10.628 2.722 11.274-2.691.712-6.009-.563-11.554-1.515-17.423-.491-3.031-1.097-5.996-1.723-8.998-.209-.996-.342-2.558-1.095-3.274l-.237-.187-.275-.188c-.766-.424-1.738.063-2.306-.301-.596.458-.768 1.194-.736 2.02.021 1.53.68 3.438.97 4.63.6 3.173 1.048 6.373 1.73 9.526.09.411.172.826.247 1.237l.125.755.071.424.125.91.058.437.052.479c.224 2.057.305 4.129.284 6.207-.017 1.801-.316 4.062-1.23 5.028-.693.678-1.708.665-3.107-.635v-.002l-.291-.282c-.234-.237-.46-.482-.686-.729l-.292-.337-.357-.411-.37-.458-.25-.312-.404-.538-.185-.251-.422-.598-.14-.207-.424-.654-.107-.172-.417-.693-.088-.153-.407-.721-.073-.138-.388-.745-.069-.135-.366-.76-.06-.131-.344-.775-.056-.129-.32-.785-.045-.119c-.107-.271-.21-.54-.305-.811l-.028-.075c-.325-.895-.609-1.801-.854-2.707-.17-.635-.314-1.273-.439-1.919-.577-3.466-.363-8.554-2.07-11.734-.458-.925-1.136-1.721-2.192-2.283l-.138.037c-.187.039-.4.047-.624.047-.516-.02-1.026-.119-1.42.073-.34.108-.577.34-.594.837-.335 1.024-.335 2.602-.473 3.576l-.146 1.065c-.465 3.19-1.033 6.566-1.119 9.815-.344 5.26-1.037 10.473-1.355 15.731l-.017.202c-.185 2.089-1.25 5.357.258 6.883l.099.095M39.161 18.096c.777 1.525-1.304 5.047-2.799 5.678.393-1.73 1.06-4.735 2.799-5.678m30.546-5.658c-.533-.606-1.983-2.295-2.713-2.199-.245-.062-.411.013-.437.299-.237 2.405.684 5.284 1.05 7.659.054.338.099.699.129 1.073l.004.05.024.312c.236 3.449-.42 7.683-2.374 10.331-.74 1-1.381 1.098-1.936.665-.745-.63-1.36-2.246-1.825-3.944-.413-1.564-.686-3.149-.83-3.937-.069-.43-.112-.771-.129-.968-.064-.729-.172-1.226-.366-1.611-.202-.517-.563-.947-1.299-1.287l-.265-.116-.26-.157c-1.726-1.054-2.371-.318-2.576.813-.144.499-.157 1.157-.073 1.936.226 2.04-.14 4.538-1.125 6.62-.62 1.252-1.443 2.36-2.414 3.09l-.236.17c-.577-.671-.861-2.07-.923-3.481.011-1.652.38-3.406.729-4.514l.188-.604c.559-1.695 1.052-3.425 1.512-5.133l.013-.056.172-.6c.172-.609.164-1.097.017-1.484-.155-.654-.628-1.145-1.708-1.239-.603-.052-2.018-.491-2.319.312l-.159.426c-.387.587-.568 1.418-.721 2.229l-.114.484c-.318 1.491-.63 3.303-1.196 4.706-.146.361-.245.749-.305 1.145-.601 1.525-.08 1.74-1.637 2.909-.373.277-.751.549-1.13.815l-.378.243-.534.392-1.069.744c-1.418 1-4.77 3.417-5.837 1.136-.534-1.138-.02-1.558.762-1.859l.792-.252.112-.047c.198-.066.396-.133.585-.215 1.568-.678 3.098-2.41 3.998-4.372 1.073-2.061 1.407-4.384.116-6.123-1.528-2.067-4.776-2.459-6.919-1.414-.972.474-1.652 1.717-2.177 2.941-.366.701-.663 1.472-.897 2.28-.647 1.79-.837 3.664-1.379 5.478-.112.346-.232.695-.37 1.039l.23.2c.2.617.725 1.332.858 2.007.168.875.525 1.712 1.039 2.439.28.51.661.953 1.229 1.27 4.019 3.077 9.337-.738 12.565-3.053.663 2.504 1.876 4.826 4.729 5.138 3.085.338 4.953-1.908 6.625-4.124l.049.002v.002l.03.006-.017-.002-.062-.008-.032.045-.004.011-.008.021-.004.011v.019l.004.006v.006l.008.004h.022l.004-.002.024-.009h.002l.02-.011.011-.004.013-.008.009-.006.008-.009.009-.006.006-.009.006-.009.002-.006.002-.008-.002-.007-.002-.008-.004-.002c.116.041.262.148.426.306.383.454.706 1.261.973 1.527.421.424.946.882 1.501 1.229l.021.015c.94.633 1.978.8 3.017.714 1.209-.047 2.392-.437 3.485-1.054 3.288-1.854 4.041-7.205 4.167-10.56.11-3.037-.378-8.306-2.532-10.758M106.221 35.127c-.92 1.332-1.798 2.722-2.999 3.83-.357.329-1.923 1.56-2.298.766-.419-.886-.712-1.736-.366-2.711.407-1.145 1.373-1.872 2.01-2.872.869-1.373 1.788-2.657 2.569-4.071.559-1.011 1.308-1.936 1.865-2.976.906-1.688-1.441-1.099-2.477-1.102-3.326-.011-6.648-.099-9.965-.292-5.964-.344-6.592-.073-12.539.162-.798.03-4.202.968-3.67-.878.189-.665-.301-1.469.041-2.321.419-1.046 2.691-1.244 3.621-1.358 5.305-.66 5.559-.858 10.903-.667 2.298.082 4.6.058 6.898.033 2.237-.026 4.638.29 6.85-.181-.981-1.517-2.668-2.543-3.957-3.776-1.271-1.213-2.578-2.352-3.929-3.498-1.102-.932-3.227-2.468-3.729-3.854-.559-1.536.486-3.672 1.947-3.967.609.164-.15.028 0 0 1.16.312 2.356 1.81 3.242 2.571 1.078.925 2.124 1.93 3.271 2.769 2.214 1.618 4.384 3.623 6.316 5.557.74.74 1.521 1.607 2.126 2.459.499.704 1.676 1.545 1.902 2.369.267.977.609 1.358.043 2.111"/></svg>
