<svg width="36" height="36" xmlns="http://www.w3.org/2000/svg"><path d="M19.489 20.45c.143 1.414.232 2.805 0 4.227-.119.732-.152 1.529.079 2.268.572 1.83.042 3.771.682 5.623.415 1.201-.354 1.938-1.62 1.975-.348.01-.769-.213-1.048.201h-.21c-1.072-1.449-1.155-3.201-1.203-4.855-.068-2.387.344-4.787.259-7.172-.047-1.307.1-2.604.014-3.902-.022-.332-.219-.377-.46-.393-1.941-.125-3.869-.347-5.83-.244-1.509.08-3.028.156-4.555.06-1.005-.062-2.041.105-3.05.217-1.056.115-1.829-.197-2.547-.874v-1.255c.935-1.068 2.233-.736 3.388-.807 1.417-.086 2.82-.248 4.22-.449.745-.107 1.489.052 2.208.078 1.596.061 3.152-.486 4.771-.158.495.102 1.118.031 1.676.029.814-.004.938-.945 1.015-1.502.384-2.826.598-5.675.964-8.504.115-.895.518-1.753.793-2.626.229-.728.899-.752 1.48-.916.276-.078.637.167.836-.215h.418c1.07.69.853 2.094 1.63 2.979.183.208.682.62.414 1.075-.49.831-.802 1.883-1.895 2.131-.664.149-.737.488-.805 1.08-.209 1.859-.655 3.684-.78 5.564-.066.984.233 1.439 1.241 1.27.63-.105 1.27-.09 1.896-.131.81-.055 1.643.285 2.398-.022.691-.282 1.222-.376 1.923.06 1.403.873 3.026.608 4.584.662.751.027 1.503.125 2.243.257.271.048.623.194.538.622-.138.697.275 1 .844 1.197v.837c-1.492 1.521-3.426 1.145-5.255 1.223-.606-.914-1.645-.822-2.52-.988-2.494-.469-5.022-.689-7.564-.65" fill="#333" clip-rule="evenodd" fill-rule="evenodd"/></svg>