<svg height="0" id="svg-sprite" width="0">
  <symbol id="icon-arrow-circle" viewBox="0 0 36 36">
    <title>arrow-circle</title>
    <g>
      <path d="M20.558 1.787h1.448c.516.143 1.028.381 1.55.403a4.463 4.463 0 0 1 1.885.484c.671.344 1.293.8 1.987 1.083.868.355 1.521.995 2.121 1.625.836.878 1.556 1.894 2.188 2.935a40.38 40.38 0 0 1 2.155 4.072c.556 1.206.968 2.478 1.424 3.729.133.365.225.75.291 1.133.089.513.125 1.035.206 1.549.02.126.122.239.187.358v.772c-.033.129-.083.256-.095.387-.07.793-.056 1.603-.218 2.376-.163.774-.456 1.53-.774 2.258-.206.471-.584.864-.841 1.316-.565.996-.993 2.053-1.769 2.947-.816.941-1.791 1.662-2.8 2.324-.677.444-1.508.684-2.299.919-1.124.335-2.274.583-3.414.865-.776.192-1.515.536-2.339.538-.312.001-.649.192-.931.12-.392-.1-.668-.042-.929.233h-1.254c-.066-.046-.131-.129-.199-.133-.802-.047-1.605-.083-2.408-.121-1.004-.048-2.032.026-3.005-.172-1.44-.293-2.94-.272-4.316-.981-.856-.441-1.734-.818-2.458-1.463-.302-.27-.536-.617-.843-.88-.308-.264-.705-.427-1.001-.701-.875-.807-1.529-1.789-2.084-2.833a12.619 12.619 0 0 1-.667-1.504 116.605 116.605 0 0 1-1.243-3.472c-.092-.268-.078-.574-.113-.863v-3.86c.194-.779.361-1.567.59-2.335.178-.597.375-1.203.673-1.746.323-.591.761-1.122 1.169-1.663.393-.521.789-1.042 1.227-1.524.468-.513.966-1.003 1.489-1.46.519-.453 1.085-.85 1.629-1.274l.528-.433c.47-.357.933-.727 1.423-1.055.307-.206.703-.293.983-.524.907-.749 2.016-1.099 3.054-1.575 1.333-.611 2.781-.856 4.222-1.081.625-.097 1.273-.202 1.894-.138.708.071 1.201-.207 1.677-.635zm-.831 1.929c-.233-.064-.467-.179-.701-.183-.442-.007-.887.037-1.328.083-.898.096-1.824.101-2.684.342-1.032.29-2.008.779-3.002 1.197-.251.105-.476.272-.719.398-.486.251-1.017.436-1.456.75-.922.661-1.808 1.374-2.687 2.092-.718.588-1.458 1.164-2.087 1.84-.663.713-1.219 1.528-1.795 2.318-.271.371-.455.803-.72 1.177-.423.595-.703 1.216-.73 1.968-.02.561-.184 1.115-.254 1.675-.062.494-.102.994-.111 1.491-.007.353.126.72.069 1.058-.114.664-.091 1.296.117 1.934.122.373.184.763.297 1.138.177.582.362 1.163.574 1.733.085.23.262.425.379.645.44.824.752 1.754 1.34 2.452.767.909 1.707 1.692 2.655 2.421.685.526 1.477.938 2.273 1.282.546.236 1.086.539 1.757.497.535-.034 1.081.187 1.627.248.586.066 1.178.09 1.769.112.48.018.988-.095 1.436.028 1.208.33 2.44.171 3.65.208.936.028 1.925-.085 2.855-.42.737-.265 1.511-.429 2.267-.642.493-.139.991-.267 1.475-.434a66.941 66.941 0 0 0 2.458-.906c.253-.099.516-.232.705-.42.272-.272.481-.608.65-.829.259-.099.501-.118.62-.25.477-.527.99-1.044 1.351-1.648.782-1.308 1.742-2.537 2.028-4.096.053-.289.215-.559.258-.847.095-.641.182-1.288.206-1.934.029-.808.113-1.644-.054-2.419-.145-.672-.105-1.37-.485-2.045-.497-.882-.659-1.946-1.045-2.899-.362-.895-.822-1.75-1.251-2.617-.206-.417-.4-.85-.67-1.225-.557-.771-1.125-1.541-1.755-2.25-.529-.592-1.109-1.16-1.745-1.632-.585-.434-1.254-.778-1.927-1.062-.67-.283-1.361-.583-2.162-.509 0 .184-.043.355.008.492.154.405 0 .536-.38.463-.193-.037-.409-.092-.557-.21-.767-.612-1.622-.682-2.519-.565z"/>
      <path clip-rule="evenodd" d="M24.267 18.867h-1.984c-.783 0-1.569-.046-2.347.013-.975.074-1.942.246-2.916.353-.814.089-1.632.138-2.447.219l-.636.142-1.308.106c-.515.059-1.106.342-1.524.175-.779-.31-1.342.157-1.807.45-.49.309-1.021.417-1.514.637-.737.328-1.372.08-1.46-.951.461-.506 1.108-.423 1.688-.563.954-.229 1.891-.53 2.844-.763.784-.191 1.58-.336 2.373-.486.56-.106 1.161-.355 1.678-.242.924.202 1.786-.075 2.671-.116.95-.044 1.888-.288 2.837-.391.566-.062 1.144-.02 1.717-.023.389-.002.783.033 1.164-.022.15-.022.271-.246.45-.421-.926-.684-1.792-1.299-2.629-1.952-.445-.347-.837-.763-1.259-1.142l-.621-.516c-.107-.09-.229-.17-.312-.28-.175-.229-.397-.385-.619-.56-.508-.4-.879-.983-1.269-1.518-.043-.059.114-.366.243-.432.791-.402 1.202.262 1.677.668 1.305 1.114 2.544 2.311 3.895 3.365.977.762 2.09 1.349 3.143 2.014.516.325 1.035.645 1.546.978.365.238.314.618.157.902-.393.708-.742 1.499-1.316 2.033-.605.562-.836 1.394-1.503 1.854-.774.534-1.046 1.43-1.629 2.095-.438.5-.932.955-1.332 1.482-.404.534-.693 1.156-1.092 1.695-.178.24-.556.567-.748.513-.362-.102-.876-.162-.981-.679-.031-.151-.031-.352.044-.475.369-.601.768-1.183 1.156-1.771l.051-.079c.142-.782.684-1.344 1.053-2.004.392-.701 1.057-1.124 1.466-1.784.396-.638.857-1.234 1.259-1.868.102-.16.088-.391.141-.656z" fill-rule="evenodd"/>
    </g>
  </symbol>
  <symbol id="icon-arrow-down" viewBox="0 0 36 36">
    <title>arrow-down</title>
    <path clip-rule="evenodd" d="M35.999 11.101c-.466 1.2-1.691 1.617-2.55 2.405l-1.489 1.528c-1.194 1.104-2.401 2.204-3.691 3.19-1.3.995-2.732 1.872-3.905 2.974-1.456 1.368-3.279 2.286-4.546 3.844-.453.557-.908 1.062-1.584 1.331h-.779c-.33-.536-.956-.695-1.386-1.065-1.058-.91-2.247-1.564-3.482-2.158a3.237 3.237 0 0 1-.892-.648c-.33-.329-.635-.828-1.029-.922-1.298-.311-2.277-1.22-3.483-1.693-.738-.29-1.415-.751-2.093-1.179-.248-.157-.468.188-.7-.069-.491-.543-.977-1.104-1.838-1.014-.172.017-.429-.108-.535-.25-.532-.714-1.579-.841-1.945-1.732l-.073-.022V14.53c.263-.107.177-.395.292-.586.321-.537.773-.803 1.346-.605.964.333 1.923.721 2.631 1.5.389.428.951.567 1.373.931l.278.102c.652.9 1.927.767 2.604 1.502.534.581 1.261.824 1.855 1.087.714.316 1.424.648 2.072 1.064.923.593 1.906 1.079 2.813 1.712.857.6 1.895.953 2.907 1.293.565.19.877-.314 1.038-.545 1.136-1.63 2.981-2.338 4.418-3.562.749-.636 1.671-1.036 2.306-1.829.463-.577 1.029-1.055 1.837-1.157.324-.041.611-.29.798-.572.874-1.325 2.106-2.302 3.228-3.391.678-.659 1.342-1.32 2.179-1.778h.623c.468 0 1.117-.183 1.352.051.233.238.05.887.05 1.354z" fill-rule="evenodd"/>
  </symbol>
  <symbol id="icon-arrow-left" viewBox="0 0 36 36">
    <title>arrow-left</title>
    <path clip-rule="evenodd" d="M5.95 18.765h3.323c1.311-.001 2.629.077 3.931-.022 1.634-.124 3.254-.413 4.884-.591 1.363-.149 2.733-.23 4.098-.366l1.065-.238 2.19-.178c.863-.1 1.853-.573 2.553-.293 1.304.519 2.247-.264 3.026-.754.82-.518 1.71-.698 2.536-1.066 1.234-.548 2.298-.135 2.446 1.592-.773.847-1.856.708-2.828.943-1.598.384-3.167.887-4.763 1.278-1.313.32-2.646.562-3.975.814-.938.177-1.944.595-2.81.405-1.548-.337-2.992.126-4.475.195-1.59.075-3.163.482-4.752.654-.948.103-1.917.034-2.875.04-.651.004-1.312-.056-1.95.037-.25.037-.451.411-.752.706 1.55 1.146 3.001 2.176 4.403 3.27.745.582 1.401 1.278 2.107 1.912.336.301.695.575 1.039.864.18.15.383.286.523.469.291.384.664.645 1.037.937.851.671 1.471 1.646 2.124 2.543.072.099-.191.613-.407.723-1.324.673-2.013-.439-2.81-1.119-2.186-1.866-4.259-3.871-6.522-5.637-1.636-1.276-3.501-2.259-5.264-3.373-.864-.545-1.734-1.08-2.588-1.637-.612-.398-.527-1.035-.264-1.511.659-1.186 1.243-2.51 2.205-3.405 1.013-.942 1.4-2.336 2.518-3.104 1.297-.895 1.752-2.395 2.729-3.51.732-.838 1.56-1.599 2.23-2.483.678-.893 1.16-1.935 1.829-2.838.298-.402.931-.95 1.251-.858.606.17 1.467.271 1.644 1.139.051.252.053.589-.075.795-.618 1.004-1.285 1.979-1.937 2.967l-.085.131c-.238 1.312-1.145 2.252-1.764 3.356-.655 1.175-1.77 1.884-2.455 2.99-.662 1.066-1.434 2.067-2.108 3.128-.169.265-.145.652-.232 1.095z" fill-rule="evenodd"/>
  </symbol>
  <symbol id="icon-arrow-right-button" viewBox="0 0 18 17.121">
    <title>arrow-right-button</title>
    <path d="M0 9.343h14.952L9.09 16.36l.76.76L18 8.95v-.78L9.85 0l-.76.762 5.862 7.016H0"/>
  </symbol>
  <symbol id="icon-arrow-right-straight" viewBox="0 0 20 17.89">
    <title>arrow-right-straight</title>
    <path d="M20 9.35l-9.08 8.54-.86-.81 6.54-7.31H0V8.12h16.6L10.06.81l.86-.81L20 8.51v.84z"/>
  </symbol>
  <symbol id="icon-arrow-right" viewBox="0 0 36 36">
    <title>arrow-right</title>
    <path clip-rule="evenodd" d="M30.052 17.236h-3.323c-1.311.001-2.629-.077-3.931.022-1.634.124-3.254.413-4.884.591-1.363.149-2.733.23-4.098.366l-1.065.238-2.19.178c-.863.1-1.853.573-2.553.293-1.304-.519-2.247.264-3.026.754-.82.518-1.71.698-2.536 1.066-1.234.548-2.298.135-2.446-1.592.773-.847 1.856-.708 2.828-.943 1.598-.384 3.167-.887 4.763-1.278 1.313-.32 2.646-.562 3.975-.814.938-.177 1.944-.595 2.81-.405 1.548.337 2.992-.126 4.475-.195 1.59-.075 3.163-.482 4.752-.654.948-.103 1.917-.034 2.875-.04.651-.004 1.312.056 1.95-.037.25-.037.451-.411.752-.706-1.55-1.146-3.001-2.176-4.403-3.27-.745-.582-1.401-1.278-2.107-1.912-.336-.301-.695-.575-1.039-.864-.18-.15-.383-.286-.523-.469-.291-.384-.664-.645-1.037-.937-.851-.671-1.471-1.646-2.124-2.543-.072-.099.191-.613.407-.723 1.324-.673 2.013.439 2.81 1.119 2.186 1.866 4.259 3.871 6.522 5.637 1.636 1.276 3.501 2.259 5.264 3.373.864.545 1.734 1.08 2.588 1.637.612.398.527 1.035.264 1.511-.659 1.186-1.243 2.51-2.205 3.405-1.013.942-1.4 2.336-2.518 3.104-1.297.895-1.752 2.395-2.729 3.51-.732.838-1.56 1.599-2.23 2.483-.678.893-1.16 1.935-1.829 2.838-.298.402-.931.95-1.251.858-.606-.17-1.467-.271-1.644-1.139-.051-.252-.053-.589.075-.795.618-1.004 1.285-1.979 1.937-2.967l.085-.131c.238-1.312 1.145-2.252 1.764-3.356.655-1.175 1.77-1.884 2.455-2.99.662-1.066 1.434-2.067 2.108-3.128.169-.265.145-.652.232-1.095z" fill-rule="evenodd"/>
  </symbol>
  <symbol id="icon-arrow-up" viewBox="0 0 36.067 16.743">
    <title>arrow-up</title>
    <path clip-rule="evenodd" d="M-138.029 14.125h-3.323c-1.311.001-2.629-.077-3.931.022-1.634.124-3.254.413-4.884.591-1.363.149-2.733.23-4.098.366l-1.065.238-2.19.178c-.863.1-1.853.573-2.553.293-1.304-.519-2.247.264-3.026.754-.82.518-1.71.698-2.536 1.066-1.234.548-2.298.135-2.446-1.593.773-.847 1.856-.708 2.828-.943 1.598-.384 3.167-.887 4.763-1.278 1.313-.32 2.646-.562 3.975-.814.938-.177 1.944-.595 2.81-.405 1.548.337 2.992-.126 4.475-.195 1.59-.075 3.163-.482 4.752-.654.948-.103 1.917-.034 2.875-.04.651-.004 1.312.056 1.95-.037.25-.037.451-.411.752-.706-1.55-1.146-3.001-2.176-4.403-3.27-.745-.582-1.401-1.278-2.107-1.912-.336-.301-.695-.575-1.039-.864-.18-.15-.383-.286-.523-.469-.291-.384-.664-.645-1.037-.937-.851-.671-1.471-1.646-2.124-2.543-.072-.099.191-.613.407-.723 1.324-.673 2.013.439 2.81 1.119 2.186 1.866 4.259 3.871 6.522 5.637 1.636 1.276 3.501 2.259 5.264 3.373.864.545 1.734 1.08 2.588 1.637.612.398.527 1.035.264 1.511-.659 1.186-1.243 2.51-2.205 3.405-1.013.942-1.4 2.336-2.518 3.104-1.297.895-1.752 2.395-2.729 3.51-.732.838-1.56 1.599-2.23 2.483-.678.893-1.16 1.935-1.829 2.838-.298.402-.931.95-1.251.858-.606-.17-1.467-.271-1.644-1.139-.051-.252-.053-.589.075-.795.618-1.004 1.285-1.979 1.937-2.967l.085-.131c.238-1.312 1.145-2.252 1.764-3.356.655-1.175 1.77-1.884 2.455-2.99.662-1.066 1.434-2.067 2.108-3.128.168-.263.145-.65.232-1.094zm45.55 3.441c.143 1.414.232 2.805 0 4.227-.119.732-.152 1.529.079 2.268.572 1.83.042 3.771.682 5.623.415 1.201-.354 1.938-1.62 1.975-.348.01-.769-.213-1.048.201h-.21c-1.072-1.449-1.155-3.201-1.203-4.855-.068-2.387.344-4.787.259-7.172-.047-1.307.1-2.604.014-3.902-.022-.332-.219-.377-.46-.393-1.941-.125-3.869-.347-5.83-.244-1.509.08-3.028.156-4.555.06-1.005-.062-2.041.105-3.05.217-1.056.115-1.829-.197-2.547-.874v-1.255c.935-1.068 2.233-.736 3.388-.807a51.706 51.706 0 0 0 4.22-.449c.745-.107 1.489.052 2.208.078 1.596.061 3.152-.486 4.771-.158.495.102 1.118.031 1.676.029.814-.004.938-.945 1.015-1.502.384-2.826.598-5.675.964-8.504.115-.895.518-1.753.793-2.626.229-.728.899-.752 1.48-.916.276-.078.637.167.836-.215h.418c1.07.69.853 2.094 1.63 2.979.183.208.682.62.414 1.075-.49.831-.802 1.883-1.895 2.131-.664.149-.737.488-.805 1.08-.209 1.859-.655 3.684-.78 5.564-.066.984.233 1.439 1.241 1.27.63-.105 1.27-.09 1.896-.131.81-.055 1.643.285 2.398-.022.691-.282 1.222-.376 1.923.06 1.403.873 3.026.608 4.584.662.751.027 1.503.125 2.243.257.271.048.623.194.538.622-.138.697.275 1 .844 1.197v.837c-1.492 1.521-3.426 1.145-5.255 1.223-.606-.914-1.645-.822-2.52-.988a37.749 37.749 0 0 0-7.564-.65" fill-rule="evenodd"/>
    <path d="M-40.262 10.439h.483c.532.845 1.192 1.255 2.151.627.37-.242.809-.208 1.167-.119 2.164.534 4.339-.491 6.54.164 1.01.3 2.178.217 3.327-.115 1.045-.303 2.214.287 3.271.371 1.481.118 2.23 1.035 3.236 1.728l.118.003v.967c-.186.797-.716 1.05-1.5 1.15-.974.125-2.074-.1-2.849.782h-4.832c-1.115-.555-2.374-.717-3.536-.668-1.785.075-3.555-.054-5.33-.061-1.927-.007-3.865.129-5.774-.049-1.396-.131-2.755.037-4.13.049-.871.007-1.79.264-2.587.17-1.957-.23-4.174-.043-5.462-2.098v-1.45c.477-.274 1.017-.479 1.415-.839.806-.726 1.896.01 2.692-.611h4.35c.315.428.771.441 1.253.504 1.056.135 2.08-.183 3.155-.098.896.071 2.014.465 2.842-.407z"/>
    <path clip-rule="evenodd" d="M-40.262 10.439c-.828.872-1.946.478-2.84.406-1.075-.085-2.1.232-3.155.098-.481-.062-.938-.076-1.253-.504"/>
    <path clip-rule="evenodd" d="M.067 15.273c.466-1.2 1.691-1.617 2.55-2.405l1.489-1.528C5.3 10.236 6.507 9.136 7.797 8.15c1.3-.995 2.732-1.872 3.905-2.974 1.456-1.368 3.279-2.286 4.546-3.843.454-.559.909-1.064 1.585-1.333h.779c.33.537.956.695 1.386 1.065 1.058.911 2.247 1.565 3.482 2.159.347.167.626.384.892.648.33.329.635.828 1.029.922 1.298.311 2.277 1.22 3.483 1.693.738.29 1.415.751 2.093 1.179.248.157.468-.188.7.069.489.542.976 1.103 1.837 1.014.173-.017.429.108.536.251.531.714 1.579.841 1.944 1.731l.073.022v1.091c-.263.107-.177.395-.292.586-.321.537-.773.803-1.346.605-.964-.333-1.923-.722-2.631-1.501-.389-.428-.951-.567-1.373-.931l-.278-.102c-.652-.9-1.927-.767-2.604-1.502-.534-.581-1.261-.824-1.855-1.087-.714-.316-1.424-.648-2.072-1.064-.923-.593-1.906-1.079-2.813-1.712-.857-.6-1.895-.953-2.907-1.293-.565-.19-.877.314-1.038.545-1.136 1.63-2.981 2.338-4.418 3.562-.749.636-1.671 1.036-2.306 1.829-.463.577-1.029 1.055-1.837 1.157-.324.041-.611.29-.798.572-.874 1.325-2.106 2.302-3.228 3.391-.678.659-1.342 1.32-2.179 1.778h-.623c-.468 0-1.117.183-1.352-.051-.232-.236-.05-.886-.05-1.353z" fill-rule="evenodd"/>
  </symbol>
  <symbol id="icon-bundle-adfree" viewBox="0 0 28 30">
    <title>bundle-adfree</title>
    <path d="M8 10c5.523 0 10-4.477 10-10 0 5.523 4.477 10 10 10-5.523 0-10 4.478-10 10 0-5.522-4.477-10-10-10M0 18.211a6 6 0 0 0 6-6 6 6 0 0 0 6 6 6 6 0 0 0-6 6c0-3.315-2.686-6-6-6M11 25a5 5 0 0 0 5-5 5 5 0 0 0 5 5 5 5 0 0 0-5 5 5 5 0 0 0-5-5"/>
  </symbol>
  <symbol id="icon-bundle-arrow" viewBox="0 0 20 19.023">
    <title>bundle-arrow</title>
    <path d="M10.945 0l-.846.846 6.513 7.797H0v1.739h16.612l-6.513 7.796.846.845L20 9.946v-.869z"/>
  </symbol>
  <symbol id="icon-bundle-chevron" viewBox="0 0 20 10.41">
    <title>bundle-chevron</title>
    <path d="M19.11 0l-9.109 7.671L.89 0 0 .866l9.544 9.544h.913L20 .866z"/>
  </symbol>
  <symbol id="icon-bundle-commenting" viewBox="0 0 28 26.444">
    <title>bundle-commenting</title>
    <path d="M2.334 0L0 2.334v14l2.293 2.333h3.93v7.777h1.515l4.707-7.777h13.221L28 16.334v-14L25.666 0z"/>
  </symbol>
  <symbol id="icon-bundle-guardian_g" viewBox="0 0 28 28">
    <title>bundle-guardian_g</title>
    <path d="M8.927 11.828l-.13-.07c-1.922-1.06-3.19-2.94-3.19-5.474 0-2.17.944-3.878 2.554-5.012C3.346 3.486 0 8.352 0 14c0 3.83 1.54 7.303 4.035 9.83a2.732 2.732 0 0 1-.01-.204c0-2.498 2.438-3.42 4.6-3.866-2.06-.446-3.053-1.917-3.053-3.42 0-2.02 2.256-3.76 3.355-4.512zm5.055-1.3c1.375 0 2.554-.41 2.554-4.244 0-3.832-1.146-4.414-2.554-4.414-1.375 0-2.52.513-2.52 4.414 0 3.902 1.145 4.244 2.52 4.244z"/>
    <path d="M28 14c0-5.77-3.49-10.723-8.473-12.867 1.666 1.087 2.678 2.752 2.755 4.886.027.163.043.32.043.47 0 4.175-3.397 6.394-8.343 6.394-1.27 0-2.13-.068-3.16-.376-.482.342-.86.89-.86 1.404 0 .685.618 1.234 1.375 1.234h6.872c4.255 0 6.348 1.742 6.348 5.503 0 1.254-.25 2.38-.767 3.355A13.934 13.934 0 0 0 28 14zm-11.303 6.902h-5.21c-1.75 0-2.27 1.293-2.27 2.252 0 1.386 1.25 2.664 4.886 2.664 4.14 0 5.262-1.165 5.262-2.68 0-1.323-.996-2.236-2.668-2.236z"/>
  </symbol>
  <symbol id="icon-bundle-newspaper" viewBox="0 0 28 43.3">
    <title>bundle-newspaper</title>
    <path class="st0" d="M28 41s-.2-33.2-.2-36.2c.1-1.6-1-3.1-2.5-3.4L1.5 0 0 34.7h21.9c2 .4 3.8 1.6 5 3.3v2.4l-.5 1.3L28 41zM9.1 32H7.2V16.3H9V32zm3.7 0H11V16.3h1.9L12.8 32zm3.7 0h-1.8V16.3h1.8V32zM7.2 13.4V3.3l12.9.5v9.6H7.2zM20.1 32h-1.8V16.3h1.9L20.1 32z"/>
    <path class="st0" d="M21.3 36.9H4.7v1.5h20.7c-.6-.9-2.2-1.5-4.1-1.5zM4.7 43.2v.1L22 41c.4 0 .7-.1 1.1-.2.9-.1 1.7-.5 2.3-1.2H4.7v3.6z"/>
  </symbol>
  <symbol id="icon-bundle-tabletedition" viewBox="0 0 28 37">
    <title>bundle-tabletedition</title>
    <path d="M25 31H3V4h22v27zm-13 3a2 2 0 1 1 4.001.001A2 2 0 0 1 12 34m16-1V4s0-4-4-4H4S0 0 0 4v29s0 4 4 4h20s4 0 4-4"/>
  </symbol>
  <symbol id="icon-caption-camera" viewBox="0 0 16 16">
    <title>caption-camera</title>
    <path d="M15.868 5.19v7.868l-1.124 1.124H1.256L.132 13.058V5.19l1.124-1.124h2.81l2.248-2.248h3.372l2.248 2.248h2.81l1.124 1.124zM10.81 8.562c0-1.574-1.236-2.81-2.81-2.81s-2.81 1.236-2.81 2.81 1.236 2.81 2.81 2.81 2.81-1.236 2.81-2.81z"/>
  </symbol>
  <symbol id="icon-chevron-left" viewBox="0 0 36 36">
    <title>chevron-left</title>
    <path clip-rule="evenodd" d="M23.464 35.966c-1.2-.466-1.617-1.691-2.405-2.55l-1.528-1.489c-1.104-1.194-2.204-2.401-3.19-3.691-.995-1.3-1.872-2.732-2.974-3.905-1.368-1.456-2.286-3.279-3.844-4.546-.557-.453-1.062-.908-1.331-1.584v-.779c.536-.33.695-.956 1.065-1.386.91-1.058 1.564-2.247 2.158-3.482.167-.347.384-.626.648-.892.329-.33.828-.635.922-1.029.311-1.298 1.22-2.277 1.693-3.483.29-.738.751-1.415 1.179-2.093.157-.248-.188-.468.069-.7.543-.491 1.104-.977 1.014-1.838-.017-.172.108-.429.25-.535.714-.532.841-1.579 1.732-1.945l.022-.073h1.091c.107.263.395.177.586.292.537.321.803.773.605 1.346-.333.964-.721 1.923-1.5 2.631-.428.389-.567.951-.931 1.373l-.102.278c-.9.652-.767 1.927-1.502 2.604-.581.534-.824 1.261-1.087 1.855-.316.714-.648 1.424-1.064 2.072-.593.923-1.079 1.906-1.712 2.813-.6.857-.953 1.895-1.293 2.907-.19.565.314.877.545 1.038 1.63 1.136 2.338 2.981 3.562 4.418.636.749 1.036 1.671 1.829 2.306.577.463 1.055 1.029 1.157 1.837.041.324.29.611.572.798 1.325.874 2.302 2.106 3.391 3.228.659.678 1.32 1.342 1.778 2.179v.623c0 .468.183 1.117-.051 1.352-.238.233-.887.05-1.354.05z" fill-rule="evenodd"/>
  </symbol>
  <symbol id="icon-chevron-right" viewBox="0 0 36 36">
    <title>chevron-right</title>
    <path clip-rule="evenodd" d="M12.036.035c1.2.466 1.617 1.691 2.405 2.55l1.528 1.489c1.104 1.194 2.204 2.401 3.19 3.691.995 1.3 1.872 2.732 2.974 3.905 1.368 1.456 2.286 3.279 3.844 4.546.557.453 1.062.908 1.331 1.584v.779c-.536.33-.695.956-1.065 1.386-.91 1.058-1.564 2.247-2.158 3.482a3.237 3.237 0 0 1-.648.892c-.329.33-.828.635-.922 1.029-.311 1.298-1.22 2.277-1.693 3.483-.29.738-.751 1.415-1.179 2.093-.157.248.188.468-.069.7-.543.491-1.104.977-1.014 1.838.017.172-.108.429-.25.535-.714.532-.841 1.579-1.732 1.945l-.022.073h-1.091c-.107-.263-.395-.177-.586-.292-.537-.321-.803-.773-.605-1.346.333-.964.721-1.923 1.5-2.631.428-.389.567-.951.931-1.373l.102-.278c.9-.652.767-1.927 1.502-2.604.581-.534.824-1.261 1.087-1.855.316-.714.648-1.424 1.064-2.072.593-.923 1.079-1.906 1.712-2.813.6-.857.953-1.895 1.293-2.907.19-.565-.314-.877-.545-1.038-1.63-1.136-2.338-2.981-3.562-4.418-.636-.749-1.036-1.671-1.829-2.306-.577-.463-1.055-1.029-1.157-1.837-.041-.324-.29-.611-.572-.798-1.325-.874-2.302-2.106-3.391-3.228-.659-.678-1.32-1.342-1.778-2.179v-.623c0-.468-.183-1.117.051-1.352.238-.233.887-.05 1.354-.05z" fill-rule="evenodd"/>
  </symbol>
  <symbol id="icon-cross-upright" viewBox="0 0 20 20">
    <title>cross-upright</title>
    <path d="M9.3 0l-.39 8.91L0 9.3v1.38l8.91.41L9.3 20h1.38l.41-8.91 8.91-.41V9.3l-8.91-.39L10.68 0z"/>
  </symbol>
  <symbol id="icon-cross" viewBox="0 0 28 28">
    <title>cross</title>
    <path d="M5.233 26l-3.382-3.382 8.013-8.741-8.03-8.812 3.422-3.287 8.721 7.992 8.765-7.99 3.424 3.286-8.031 8.811 8.011 8.741-3.15 3.151-8.948-7.802"/>
  </symbol>
  <symbol id="icon-filter-clear" viewBox="0 0 16 16">
    <title>filter-clear</title>
    <path d="M8 0a8 8 0 1 0 0 16A8 8 0 0 0 8 0zm4 11.49l-.425.425-3.565-3.11L4.51 12 4 11.49 7.186 8 4 4.51 4.51 4 8 7.186 11.49 4l.51.51L8.814 8 12 11.49z"/>
  </symbol>
  <symbol id="icon-g-mark" viewBox="0 0 36 36">
    <title>g-mark</title>
    <path d="M-169.248 14.897l-.186-.102c-2.746-1.512-4.56-4.2-4.56-7.818 0-3.1 1.35-5.54 3.65-7.16C-177.22 2.98-182 9.93-182 18c0 5.474 2.2 10.433 5.764 14.045l-.013-.293c0-3.57 3.48-4.887 6.57-5.523v-.007c-2.94-.636-4.36-2.737-4.36-4.886 0-2.883 3.227-5.37 4.796-6.444zm7.222-1.857c1.964 0 3.65-.586 3.65-6.062 0-5.475-1.637-6.306-3.65-6.306-1.964 0-3.6.733-3.6 6.306s1.636 6.062 3.6 6.062zM-142 18c0-8.242-4.985-15.318-12.104-18.38 2.38 1.55 3.826 3.93 3.937 6.978.038.234.06.46.06.673 0 5.97-4.854 9.14-11.918 9.14-1.816 0-3.043-.1-4.516-.538-.69.488-1.23 1.27-1.23 2.005 0 .98.88 1.763 1.96 1.763h9.817c6.08 0 9.07 2.49 9.07 7.862 0 1.79-.356 3.4-1.094 4.792A19.934 19.934 0 0 0-142 18zm-16.147 9.86h-7.443c-2.5 0-3.24 1.848-3.24 3.218 0 1.98 1.783 3.806 6.98 3.806 5.91 0 7.515-1.664 7.515-3.83 0-1.888-1.423-3.194-3.812-3.194zM11.478 15.133l-.168-.092c-2.47-1.36-4.104-3.78-4.104-7.03 0-2.79 1.215-4.987 3.285-6.445C4.3 4.408 0 10.665 0 17.925c0 4.927 1.98 9.39 5.188 12.64l-.012-.263c0-3.21 3.133-4.397 5.91-4.97-2.644-.573-3.924-2.464-3.924-4.398 0-2.595 2.902-4.834 4.316-5.8zm6.5-1.673c1.77 0 3.283-.527 3.283-5.455 0-4.927-1.47-5.675-3.28-5.675-1.766 0-3.24.66-3.24 5.675 0 5.016 1.474 5.456 3.24 5.456zM36 17.924c0-7.417-4.487-13.786-10.894-16.542C27.25 2.78 28.55 4.92 28.65 7.662c.032.212.053.416.053.607 0 5.363-4.368 8.22-10.727 8.22-1.634 0-2.74-.09-4.064-.487-.618.44-1.104 1.144-1.104 1.805 0 .88.794 1.586 1.767 1.586h8.834c5.47 0 8.16 2.24 8.16 7.075 0 1.614-.32 3.062-.985 4.315A17.918 17.918 0 0 0 36 17.925zM21.468 26.8h-6.7c-2.25 0-2.916 1.662-2.916 2.895 0 1.78 1.605 3.425 6.283 3.425 5.32 0 6.762-1.497 6.762-3.447 0-1.7-1.28-2.874-3.43-2.874zm-130.716-11.903l-.186-.102c-2.746-1.512-4.56-4.2-4.56-7.818 0-3.1 1.35-5.54 3.65-7.16C-117.22 2.98-122 9.93-122 18c0 5.474 2.2 10.433 5.764 14.045l-.013-.293c0-3.57 3.48-4.887 6.57-5.523v-.007c-2.94-.636-4.36-2.737-4.36-4.886 0-2.883 3.227-5.37 4.796-6.444zm7.222-1.857c1.964 0 3.65-.586 3.65-6.062 0-5.475-1.637-6.306-3.65-6.306-1.964 0-3.6.733-3.6 6.306s1.636 6.062 3.6 6.062zM-82 18c0-8.243-4.985-15.32-12.104-18.38 2.38 1.55 3.826 3.93 3.937 6.978.038.234.06.46.06.673 0 5.97-4.854 9.14-11.918 9.14-1.816 0-3.043-.1-4.516-.538-.69.488-1.23 1.27-1.23 2.005 0 .98.88 1.763 1.96 1.763h9.817c6.08 0 9.07 2.49 9.07 7.862 0 1.79-.356 3.4-1.094 4.792A19.934 19.934 0 0 0-82 18zm-16.147 9.86h-7.443c-2.5 0-3.24 1.848-3.24 3.218 0 1.98 1.783 3.806 6.98 3.806 5.91 0 7.515-1.664 7.515-3.83 0-1.888-1.423-3.194-3.812-3.194zm48.899-12.963l-.186-.102c-2.746-1.512-4.56-4.2-4.56-7.818 0-3.1 1.35-5.54 3.65-7.16C-57.22 2.98-62 9.93-62 18c0 5.474 2.2 10.433 5.764 14.045l-.013-.293c0-3.57 3.48-4.887 6.57-5.523v-.007c-2.94-.636-4.36-2.737-4.36-4.886 0-2.883 3.227-5.37 4.796-6.444zm7.222-1.857c1.964 0 3.65-.586 3.65-6.062 0-5.475-1.637-6.306-3.65-6.306-1.964 0-3.6.733-3.6 6.306s1.636 6.062 3.6 6.062zM-22 18c0-8.243-4.985-15.32-12.104-18.38 2.38 1.55 3.826 3.93 3.937 6.978.038.234.06.46.06.673 0 5.97-4.854 9.14-11.918 9.14-1.816 0-3.043-.1-4.516-.538-.69.488-1.23 1.27-1.23 2.005 0 .98.88 1.763 1.96 1.763h9.817c6.08 0 9.07 2.49 9.07 7.862 0 1.79-.356 3.4-1.094 4.792A19.934 19.934 0 0 0-22 18zm-16.147 9.86h-7.443c-2.5 0-3.24 1.848-3.24 3.218 0 1.98 1.783 3.806 6.98 3.806 5.91 0 7.515-1.664 7.515-3.83 0-1.888-1.423-3.194-3.812-3.194z"/>
  </symbol>
  <symbol id="icon-globe" viewBox="0 0 23.938 24">
    <title>globe</title>
    <g>
      <path d="M16.824 2.931c.281.687.521 1.439.729 2.233h4.314A12.047 12.047 0 0 0 15.459.485c.509.663.968 1.479 1.365 2.446zM-.031 11.18H5.58c.04-1.524.19-3 .443-4.375H1.115A11.964 11.964 0 0 0-.031 11.18zM16.019 5.164c-.889-3.138-2.371-5.195-4.05-5.195-1.679 0-3.162 2.057-4.049 5.195h8.099zM7.06 12.82c.043 1.558.206 3.035.469 4.375h8.88c.262-1.34.426-2.817.469-4.375H7.06zM7.92 18.836c.888 3.138 2.37 5.195 4.049 5.195 1.679 0 3.161-2.058 4.05-5.195H7.92zM16.878 11.18a26.783 26.783 0 0 0-.469-4.375h-8.88a26.674 26.674 0 0 0-.469 4.375h9.818zM7.115 21.069a18.101 18.101 0 0 1-.729-2.233H2.07a12.055 12.055 0 0 0 6.409 4.679c-.509-.662-.968-1.479-1.364-2.446zM6.023 17.195a28.433 28.433 0 0 1-.443-4.375H-.031a11.97 11.97 0 0 0 1.146 4.375h4.908zM6.386 5.164c.208-.794.449-1.547.729-2.233.396-.967.855-1.783 1.364-2.446A12.057 12.057 0 0 0 2.07 5.164h4.316zM17.553 18.836a17.88 17.88 0 0 1-.729 2.233c-.396.967-.855 1.783-1.364 2.445a12.052 12.052 0 0 0 6.408-4.679h-4.315zM17.916 6.805a28.42 28.42 0 0 1 .443 4.375h5.61a11.964 11.964 0 0 0-1.146-4.375h-4.907zM23.969 12.82h-5.61a28.446 28.446 0 0 1-.443 4.375h4.908a11.988 11.988 0 0 0 1.145-4.375z"/>
    </g>
  </symbol>
  <symbol id="icon-grid-view" viewBox="0 0 25 25">
    <title>grid-view</title>
    <path d="M4.5 11.5h7v-7h-7v7zm9-7v7h7v-7h-7zm0 16h7v-7h-7v7zm-9 0h7v-7h-7v7z" stroke="null"/>
  </symbol>
  <symbol id="icon-hello" viewBox="60 23.58 120 47.15">
    <title>hello</title>
    <path d="M169.19 51.54c-.36-1.25-.77-2.55-1.46-3.63-.6-.94-1.64-1.6-2.49-2.39-.02-.02-.05 0-.08-.01-.6-.11-1.21-.18-1.79-.34-1.37-.38-2.71-.69-4.06.08-.39.23-.78.47-1.19.67a17.142 17.142 0 0 0-6.02 4.9c-.55.7-1.09 1.42-1.62 2.13-.75 1.01-1.13 1.99-.83 3.22.04.18 0 .38.03.57.09.68-.49.99-.82 1.42-.6.77-1.23 1.53-1.94 2.19-.49.46-1.11.83-1.73 1.11-1.02.47-2.06 1.06-3.15 1.22-1.34.2-2.66-.15-3.38-1.36.02-.32.02-.52.04-.72.07-.54.17-1.08.21-1.62.04-.58.47-.76.84-1.09.61-.54 1.03-1.29 1.58-1.89.88-.94 1.81-1.84 2.72-2.75.19-.19.45-.31.63-.51.55-.63 1.1-1.28 1.62-1.95.68-.86 1.34-1.75 2-2.63.13-.17.21-.39.35-.56.52-.69 1.06-1.36 1.57-2.06.89-1.23 1.78-2.46 2.63-3.71.48-.69.9-1.42 1.33-2.15.51-.88 1.03-1.76 1.5-2.65.56-1.04 1.31-2.04 1.55-3.15.18-.83.66-1.44.94-2.17.25-.63.65-1.21.88-1.85.38-1.07.66-2.18.98-3.27.28-.95-.02-1.77-.83-2.35-.29-.21-.59-.42-.89-.64h-2.69c-.27.17-.53.45-.81.48-1.63.17-2.85 1.17-4.12 2.04-.59.4-1.11.94-1.62 1.45-.79.76-1.62 1.49-2.3 2.34-.78.98-1.64 1.9-2.29 2.98-.64 1.06-1.43 2.04-2.28 2.95-.94 1-1.39 2.27-2 3.43-.66 1.26-1.09 2.65-1.62 3.97-.21.55-.47 1.08-.62 1.65-.25.92-.24 1.98-.72 2.74-.74 1.15-.78 2.48-1.25 3.7-.52 1.31-.47 2.84-.75 4.26-.14.73-.27 1.61-.74 2.09-.91.92-2.03 1.66-3.11 2.39-.83.57-1.76 1.02-2.62 1.55-1.15.71-2.3.47-3.39-.07-1.35-.67-1.4-2.18-1.88-3.37-.27-.65.03-1.55.1-2.33.02-.22.06-.49.19-.65.79-.97 1.62-1.92 2.44-2.86.67-.76 1.39-1.46 2.02-2.25.76-.96 1.42-2 2.15-2.99.46-.62 1.1-1.16 1.36-1.86.28-.75.75-1.18 1.33-1.63.46-.36.83-.83 1.18-1.31.71-.98 1.39-2 2.08-3 .26-.38.53-.76.79-1.15.71-1.07 1.39-2.16 1.76-3.42.12-.4.63-.69.74-1.09.27-1.08.47-2.2.59-3.31.08-.67.01-1.37-.09-2.04-.08-.54-.3-1.05-.47-1.58-.36-1.13-1.45-1.75-2.6-1.46-.46.11-.92.24-1.34.43-1.13.5-2.35.9-3.35 1.6-1.2.84-2.22 1.94-3.31 2.94-.34.32-.72.62-.98 1-.91 1.29-1.79 2.6-2.67 3.91-.25.37-.53.73-.71 1.14-.53 1.2-1 2.42-1.54 3.62-.25.56-.66 1.06-.85 1.64-.61 1.88-1.15 3.78-1.72 5.67-.04.14-.07.29-.09.44-.05.61-.06 1.23-.16 1.82-.15.9-.63 1.81-.52 2.67.15 1.22-.53 1.94-1.21 2.62-1.12 1.12-2.39 2.1-3.62 3.11-.66.54-1.4.98-2.07 1.52-.44.37-.75.94-1.23 1.21-1.12.62-2.23 1.23-3.24 2.04-.81.65-1.87.97-2.74 1.57-1.51 1.04-3.19 1.58-4.97 1.82-.35.05-.69.25-1.04.23-.51-.04-1.02-.21-1.52-.33-.35-.1-.69-.2-1.05-.22-1.67-.14-2.61-1.38-3.43-2.56-.62-.9-1.01-2.04-.72-3.27.1-.44.24-.62.65-.7.56-.1 1.2-.09 1.65-.37 1.15-.7 2.52-1 3.52-1.99.29-.28.75-.39 1.05-.67.4-.38.69-.86 1.06-1.26.21-.22.47-.4.73-.56.17-.11.46-.09.58-.23.72-.86 1.4-1.75 2.09-2.63.75-.94.81-2.08.81-3.18 0-.89-.56-1.56-1.38-1.98-.62-.33-.82-1.24-1.66-1.25-.79-.02-1.6-.06-2.39.03-.94.12-1.88.33-2.79.57-.87.23-1.87.36-2.53.89-1.1.88-2.02 2-2.94 3.08-.45.52-.76 1.17-1.09 1.79-.25.47-.38 1.01-.66 1.46-.24.38-.51.8-1.17.6-.27-.08-.75.09-.96.33-1.01 1.12-1.08 2.56-.2 3.79.28.39.71.66 1.01 1.04.12.15.09.43.12.65.1.63-.33 1.24.04 1.93.36.68.44 1.51.67 2.27.17.57.24 1.25.6 1.66 1.01 1.12 1.94 2.3 3.18 3.28 1.32 1.04 2.79 1.27 4.21 1.5 1.65.26 3.4.58 5.11.04.9-.29 1.85-.44 2.71-.82 1.28-.56 2.53-1.24 3.75-1.94.91-.53 1.78-1.12 2.6-1.77.84-.68 1.54-1.54 2.4-2.19 1.02-.79 2.16-1.42 3.2-2.17.76-.55 1.44-1.22 2.2-1.77.11-.08.49.2.74.32-.37.75.27 1.37.48 1.92.45 1.18 1.41 2.13 2.48 2.89.02.02.05 0 .08.02.67.34 1.33.71 2 1.02.29.14.61.23.92.25 1.24.08 2.5.46 3.7-.26.67-.4 1.38-.76 2.11-1 .87-.27 1.52-.79 2.18-1.37.25-.22.67-.33 1.02-.35.11-.01.24.42.38.63.09.12.24.21.36.3.47.39.95.78.71 1.49.13 0 .37-.07.45.01.64.66 1.37 1.11 2.31 1.17.46.03.96-.05 1.35.12 1.33.58 2.62-.02 3.85-.24 1.25-.22 2.38-1.08 3.56-1.69.69-.36 1.15-.31 1.46.36.74 1.62 1.98 2.67 3.56 3.39.31.14.61.36.92.42.71.12 1.45.21 2.17.19.53-.02 1.08-.19 1.55-.43.62-.31 1.14-.84 1.77-1.14 1.5-.72 2.54-1.97 3.72-3.07.34-.33.71-.63 1.01-.99.49-.58.91-1.22 1.4-1.82.34-.42.8-.77 1.1-1.22.99-1.52 1.49-3.32 2.7-4.71.14-.16.11-.48.14-.73.02-.19.02-.38.01-.57-.02-.96.07-1.86-.16-2.67zM141 49.22c.3-.29.3-.91.42-1.38.21-.83.41-1.68.62-2.52.05-.2.08-.4.17-.59 1.05-2.29 2.06-4.6 3.2-6.85.46-.89 1.33-1.58 1.79-2.48.57-1.15 1.54-1.85 2.34-2.74.45-.5.95-1.02 1.35-1.6.37-.5.93-.87 1.35-1.33.43-.48.72-1.07 1.39-1.31.78-.29 1.53-.67 2.3-.96.17-.06.41.03.74.07-3.85 8.98-8.83 17.06-15.89 23.75-.11-.75-.43-1.42.22-2.06zm-15.73-4.41c.61-2.39 1.55-4.65 2.74-6.79.5-.91 1.11-1.79 1.58-2.74.32-.65.76-1.25 1.24-1.8.46-.53 1.02-.96 1.55-1.44.54-.49 1.19-.9 1.62-1.47.51-.7 1.17-1.05 1.94-1.29.26-.08.52-.17.78-.25.09.06.18.12.28.18-.23.92-.38 1.86-.69 2.75-.38 1.08-.79 2.19-1.37 3.16-.84 1.4-1.85 2.71-2.81 4.04-.82 1.14-1.67 2.25-2.51 3.36-1.13 1.49-2.26 2.98-3.42 4.46-.44.56-.91 1.08-1.42 1.56-.14.13-.46.07-.65.09.4-1.38.83-2.59 1.14-3.82zm-30.75 7.9c.25-.46.58-.87.94-1.26.32-.36.67-.74 1.08-1 .5-.32 1.22-.41 1.6-.82.58-.64 1.31-.38 1.95-.57.16-.05.37.05.81.12-.65.82-1.07 1.51-1.65 2.03-.9.79-1.76 1.65-2.93 2.09-.34.12-.59.49-.88.74-.48.4-1.26.39-1.27-.03-.05-.43.14-.9.35-1.3zm70.63 1.15c-.35.75-.74 1.49-1.18 2.18-.45.71-.96 1.39-1.5 2.03-.66.78-1.34 1.55-2.08 2.26-.8.79-1.68 1.49-2.5 2.25-.42.38-.76.85-1.17 1.25-.13.13-.38.14-.55.23-.98.52-2.6.12-2.95-.74-.06-.17-.12-.35-.11-.52.09-1.43.38-2.81.97-4.14.21-.47.05-1.21-.17-1.73-.42-1-.38-1.96.38-2.64 1.81-1.62 3.58-3.27 5.49-4.77.7-.55 1.7-.96 2.58-.98 1.03-.01 2.05.49 2.55 1.58.29.64.6 1.27.88 1.88-.23.71-.38 1.31-.64 1.86zM87.6 35.42c.26-.52.76-.95.94-1.48.47-1.4 1.16-2.65 2-3.85.63-.9 1.13-1.92 2.21-2.34.51-.2.6-.56.58-.95-.04-.81-.27-1.58-.95-2.15-.96-.8-2.49-.85-3.11-.02-.6.8-1.2 1.63-1.68 2.52-.73 1.35-1.37 2.75-2.02 4.15-.71 1.53-1.41 3.06-2.07 4.61-.88 2.02-1.74 4.05-2.56 6.09-.62 1.55-.71 3.24-1.26 4.83-.41 1.16-.92 1.76-2.07 1.84-1.18.08-2.35.3-3.52.45-1.06.13-2.14.42-3.18.34-1.22-.1-2.41-.53-3.59-.82-.07-.31-.22-.59-.18-.86.17-1.27.37-2.54.61-3.79.21-1.08.44-2.16.73-3.22.42-1.59.78-3.21 1.38-4.74.4-1.05.62-2.24 1.54-3.07.15-.14.21-.4.31-.6.21-.46.3-1.05.64-1.35 1-.88 1.61-1.88 1.87-3.21.25-1.29-.35-2.55-1.66-2.81-.39-.08-1.01.04-1.24.31-1 1.21-1.78 2.57-2.29 4.09-.34 1.01-.9 1.94-1.36 2.92-.38.81-.83 1.59-1.12 2.43-.43 1.28-.75 2.59-1.08 3.9-.41 1.63-.8 3.27-1.15 4.92-.28 1.33-.48 2.67-.73 4.12-.35-.22-.55-.34-.74-.47-.67-.44-1.35-.61-1.96.08-.35.38-.6.83-.88 1.25v.16c.11.08.31.14.31.22.02 1.17.85 1.51 1.77 1.83.58.2 1.06.57 1.09 1.26.02.48-.04.96-.08 1.44-.05.61-.17 1.22-.19 1.84-.02.29.1.59.15.89-.07.3-.05.57-.02.83.01.09.04.17.03.26-.07 1.19-.28 2.38-.18 3.56.1 1.24-.11 2.54.54 3.7.02.04 0 .1-.01.14-.2 1.15.77 1.57 1.41 2.17.21.2.67.38.9.28.54-.24 1.18-.55 1.46-1.02.3-.5.22-1.23.31-1.85-1.7-.88-1.08-2.59-1.29-3.92-.19-1.23.12-2.54.2-3.81.08-1.25.15-2.51.29-3.76.01-.15.46-.35.71-.35.33 0 .65.23.98.27.47.06.96.04 1.43.05.95.03 1.92.06 2.87.06.19 0 .38-.12.57-.18.04.1.08.21.06.18.38.02.65.09.91.05 1.01-.13 2.02-.28 3.02-.46.63-.12.83.04.8.67-.11 2.2-1.05 4.25-1.03 6.49.01 1.43-.26 2.86-.41 4.29-.04.4-.26.9-.1 1.16.5.77.11 1.52-.02 2.19-.19 1.04 0 2.08.59 2.67.62.62 1.63 1.17 2.73.66.12-.05.33.07.62.14.15-.61.28-1.16.41-1.73.09-.42.03-.96.26-1.25.6-.74.86-1.43.57-2.42-.19-.64-.39-1.18-.87-1.62-.11-.11-.28-.27-.27-.39.05-.49.18-.97.25-1.46.08-.54.12-1.08.17-1.62.11-1.21.02-2.5.39-3.63.39-1.22.09-2.49.64-3.69.43-.94.35-2.1.59-3.14.36-1.61.8-3.21 1.22-4.82.12-.47.27-.94.45-1.39.33-.82.69-1.63 1.02-2.44.29-.71.56-1.42.86-2.12.24-.56.51-1.11.75-1.67.26-.62.44-1.26.73-1.84zm92.15 26.04c-.23-.6-.55-1.11-1.16-1.39-.42-.2-1.94-.11-2.09.24-.37.89-.62 1.83-.9 2.75-.11.35-.09.83-.32 1.03-.7.59-.75 1.54-1.41 2.16-.38.35-.54.93-.86 1.38-.4.56-.39 1.4.09 1.93.54.6 1.21.71 1.87.19 1.36-1.06 2.14-2.58 3.1-3.97.62-.9 1.28-1.78 1.92-2.67v-1.43c-.07-.07-.2-.13-.24-.22z"/>
  </symbol>
  <symbol id="icon-home" viewBox="0 0 15 18">
    <title>home</title>
    <path d="M8 0H7L0 7v10l1 1h4v-7h5v7h4l1-1V7z"/>
  </symbol>
  <symbol id="icon-icon-facebook" viewBox="0 0 18 18">
    <title>icon-facebook</title>
    <path d="M17.007 0H.994A.994.994 0 0 0 0 .994v16.013c0 .548.445.993.994.993h8.62v-6.97H7.27V8.312h2.345V6.31c0-2.325 1.42-3.59 3.494-3.59.992 0 1.847.073 2.095.106v2.43h-1.438c-1.128 0-1.346.536-1.346 1.323v1.733h2.69l-.35 2.716h-2.34V18h4.587a.994.994 0 0 0 .993-.993V.994A.994.994 0 0 0 17.007 0z"/>
  </symbol>
  <symbol id="icon-icon-google" viewBox="0 0 18 18.368">
    <title>icon-google</title>
    <path d="M9.184 7.515v3.552h4.942a4.224 4.224 0 0 1-1.833 2.772v2.303h2.968C17 14.543 18 12.19 18 9.393c0-.65-.058-1.277-.167-1.878h-8.65z"/>
    <path d="M9.184 14.716c-2.393 0-4.417-1.616-5.14-3.787H.978v2.378a9.18 9.18 0 0 0 8.208 5.06c2.48 0 4.558-.823 6.078-2.226l-2.968-2.304c-.823.552-1.876.878-3.11.878z"/>
    <path d="M0 9.184c0 1.482.355 2.885.977 4.125l3.068-2.38a5.513 5.513 0 0 1-.288-1.745c0-.605.104-1.194.288-1.745V5.06H.977A9.18 9.18 0 0 0 0 9.184z"/>
    <path d="M.977 5.06l3.068 2.38c.722-2.172 2.747-3.787 5.14-3.787 1.347 0 2.558.463 3.51 1.374l2.633-2.634C13.738.91 11.658 0 9.184 0A9.18 9.18 0 0 0 .977 5.06z"/>
  </symbol>
  <symbol id="icon-list-view" viewBox="0 0 24 24">
    <title>list-view</title>
    <path d="M4 14h4v-4H4v4zm0 5h4v-4H4v4zM4 9h4V5H4v4zm5 5h12v-4H9v4zm0 5h12v-4H9v4zM9 5v4h12V5H9z"/>
  </symbol>
  <symbol id="icon-location" viewBox="0 0 25 25">
    <title>location</title>
    <path d="M12.654 0c-3.866 0-7 3.049-7 6.81 0 .998.283 2.07.621 2.975L12.155 25h.999l5.934-15.173c.371-1.089.566-2.064.566-3.017 0-3.761-3.134-6.81-7-6.81zm-.009 11.65c-2.742 0-4.965-2.162-4.965-4.83s2.223-4.831 4.965-4.831c2.741 0 4.964 2.163 4.964 4.831 0 2.668-2.223 4.83-4.964 4.83z"/>
  </symbol>
  <symbol id="icon-lock" viewBox="0 0 9 10.57">
    <title>lock</title>
    <path class="st0" d="M8.17 3.68C8.17 1.65 6.52 0 4.5 0S.83 1.65.83 3.68H0V9.3l1.28 1.28h6.45L9 9.3V3.68h-.83zM4.5 1.57c1.12 0 2.1.9 2.1 2.1H2.4c0-1.12.98-2.1 2.1-2.1z"/>
  </symbol>
  <symbol id="icon-minus" viewBox="0 0 36 36">
    <title>minus</title>
    <path d="M15.706 15.278h.483c.532.845 1.192 1.255 2.151.627.37-.242.809-.208 1.167-.119 2.164.534 4.339-.491 6.54.164 1.01.3 2.178.217 3.327-.115 1.045-.303 2.214.287 3.271.371 1.481.118 2.23 1.035 3.236 1.728l.118.003v.967c-.186.797-.716 1.05-1.5 1.15-.974.125-2.074-.1-2.849.782h-4.832c-1.115-.555-2.374-.717-3.536-.668-1.785.075-3.555-.054-5.33-.061-1.927-.007-3.865.129-5.774-.049-1.396-.131-2.755.037-4.13.049-.871.007-1.79.264-2.587.17-1.957-.23-4.174-.043-5.462-2.098v-1.45c.477-.274 1.017-.479 1.415-.839.806-.726 1.896.01 2.692-.611h4.35c.315.428.771.441 1.253.504 1.056.135 2.08-.183 3.155-.098.896.071 2.014.465 2.842-.407z"/>
    <path clip-rule="evenodd" d="M15.706 15.278c-.828.872-1.946.478-2.84.406-1.075-.085-2.1.232-3.155.098-.481-.062-.938-.076-1.253-.504"/>
  </symbol>
  <symbol id="icon-new-arrow" viewBox="0 0 114.241 40.333">
    <title>new-arrow</title>
    <path d="M.895 39.615l.021.023.09.082c.148.14.316.267.508.378.833.499 1.646.097 2.292-.647.514-.327.714-.783.817-1.285.368-.785.57-1.62.523-2.194.325-.704.064-2.771.144-3.557.191-1.878.45-3.746.639-5.624l.043-.476.045-.428c.258-2.806.189-5.65.536-8.442l.129.2c.604 1.016.757 2.412 1.218 3.496.755 1.762 1.682 3.399 2.646 5.049 1.566 2.689 3.744 4.478 5.615 6.872 3.365 4.312 10.628 2.722 11.274-2.691.712-6.009-.563-11.554-1.515-17.423-.491-3.031-1.097-5.996-1.723-8.998-.209-.996-.342-2.558-1.095-3.274l-.237-.187-.275-.188c-.766-.424-1.738.063-2.306-.301-.596.458-.768 1.194-.736 2.02.021 1.53.68 3.438.97 4.63.6 3.173 1.048 6.373 1.73 9.526.09.411.172.826.247 1.237l.125.755.071.424.125.91.058.437.052.479c.224 2.057.305 4.129.284 6.207-.017 1.801-.316 4.062-1.23 5.028-.693.678-1.708.665-3.107-.635v-.002l-.291-.282c-.234-.237-.46-.482-.686-.729l-.292-.337-.357-.411-.37-.458-.25-.312-.404-.538-.185-.251-.422-.598-.14-.207-.424-.654-.107-.172-.417-.693-.088-.153-.407-.721-.073-.138-.388-.745-.069-.135-.366-.76-.06-.131-.344-.775-.056-.129-.32-.785-.045-.119c-.107-.271-.21-.54-.305-.811l-.028-.075a33.753 33.753 0 0 1-.854-2.707 27.897 27.897 0 0 1-.439-1.919c-.577-3.466-.363-8.554-2.07-11.734-.458-.925-1.136-1.721-2.192-2.283l-.138.037c-.187.039-.4.047-.624.047-.516-.02-1.026-.119-1.42.073-.34.108-.577.34-.594.837-.335 1.024-.335 2.602-.473 3.576l-.146 1.065c-.465 3.19-1.033 6.566-1.119 9.815C1.566 21.964.873 27.177.555 32.435l-.017.202c-.185 2.089-1.25 5.357.258 6.883l.099.095m38.266-21.519c.777 1.525-1.304 5.047-2.799 5.678.393-1.73 1.06-4.735 2.799-5.678m30.546-5.658c-.533-.606-1.983-2.295-2.713-2.199-.245-.062-.411.013-.437.299-.237 2.405.684 5.284 1.05 7.659.054.338.099.699.129 1.073l.004.05.024.312c.236 3.449-.42 7.683-2.374 10.331-.74 1-1.381 1.098-1.936.665-.745-.63-1.36-2.246-1.825-3.944-.413-1.564-.686-3.149-.83-3.937-.069-.43-.112-.771-.129-.968-.064-.729-.172-1.226-.366-1.611-.202-.517-.563-.947-1.299-1.287l-.265-.116-.26-.157c-1.726-1.054-2.371-.318-2.576.813-.144.499-.157 1.157-.073 1.936.226 2.04-.14 4.538-1.125 6.62-.62 1.252-1.443 2.36-2.414 3.09l-.236.17c-.577-.671-.861-2.07-.923-3.481.011-1.652.38-3.406.729-4.514l.188-.604a96.781 96.781 0 0 0 1.512-5.133l.013-.056.172-.6c.172-.609.164-1.097.017-1.484-.155-.654-.628-1.145-1.708-1.239-.603-.052-2.018-.491-2.319.312l-.159.426c-.387.587-.568 1.418-.721 2.229l-.114.484c-.318 1.491-.63 3.303-1.196 4.706a5.098 5.098 0 0 0-.305 1.145c-.601 1.525-.08 1.74-1.637 2.909-.373.277-.751.549-1.13.815l-.378.243-.534.392-1.069.744c-1.418 1-4.77 3.417-5.837 1.136-.534-1.138-.02-1.558.762-1.859l.792-.252.112-.047c.198-.066.396-.133.585-.215 1.568-.678 3.098-2.41 3.998-4.372 1.073-2.061 1.407-4.384.116-6.123-1.528-2.067-4.776-2.459-6.919-1.414-.972.474-1.652 1.717-2.177 2.941a12.379 12.379 0 0 0-.897 2.28c-.647 1.79-.837 3.664-1.379 5.478-.112.346-.232.695-.37 1.039l.23.2c.2.617.725 1.332.858 2.007a6.296 6.296 0 0 0 1.039 2.439c.28.51.661.953 1.229 1.27 4.019 3.077 9.337-.738 12.565-3.053.663 2.504 1.876 4.826 4.729 5.138 3.085.338 4.953-1.908 6.625-4.124l.049.002v.002l.03.006-.017-.002-.062-.008-.032.045-.004.011-.008.021-.004.011v.019l.004.006v.006l.008.004h.022l.004-.002.024-.009h.002l.02-.011.011-.004.013-.008.009-.006.008-.009.009-.006.006-.009.006-.009.002-.006.002-.008-.002-.007-.002-.008-.004-.002c.116.041.262.148.426.306.383.454.706 1.261.973 1.527.421.424.946.882 1.501 1.229l.021.015c.94.633 1.978.8 3.017.714 1.209-.047 2.392-.437 3.485-1.054 3.288-1.854 4.041-7.205 4.167-10.56.11-3.037-.378-8.306-2.532-10.758m36.514 22.689c-.92 1.332-1.798 2.722-2.999 3.83-.357.329-1.923 1.56-2.298.766-.419-.886-.712-1.736-.366-2.711.407-1.145 1.373-1.872 2.01-2.872.869-1.373 1.788-2.657 2.569-4.071.559-1.011 1.308-1.936 1.865-2.976.906-1.688-1.441-1.099-2.477-1.102a181.875 181.875 0 0 1-9.965-.292c-5.964-.344-6.592-.073-12.539.162-.798.03-4.202.968-3.67-.878.189-.665-.301-1.469.041-2.321.419-1.046 2.691-1.244 3.621-1.358 5.305-.66 5.559-.858 10.903-.667 2.298.082 4.6.058 6.898.033 2.237-.026 4.638.29 6.85-.181-.981-1.517-2.668-2.543-3.957-3.776-1.271-1.213-2.578-2.352-3.929-3.498-1.102-.932-3.227-2.468-3.729-3.854-.559-1.536.486-3.672 1.947-3.967.609.164-.15.028 0 0 1.16.312 2.356 1.81 3.242 2.571 1.078.925 2.124 1.93 3.271 2.769 2.214 1.618 4.384 3.623 6.316 5.557.74.74 1.521 1.607 2.126 2.459.499.704 1.676 1.545 1.902 2.369.267.977.609 1.358.043 2.111"/>
  </symbol>
  <symbol id="icon-outbound-link" viewBox="0 0 36 36">
    <title>outbound-link</title>
    <g clip-rule="evenodd" fill-rule="evenodd">
      <path d="M2.686 26.299c1.066-.094 1.815-.17 2.566-.221.383-.026.77.004 1.154-.008 1.601-.046 3.2-.133 4.802-.138 1.106-.005 2.214.139 3.321.143.662.002 1.323-.154 1.987-.216 1.142-.106 2.285-.234 3.43-.275.787-.029 1.618.237 2.356.063.611-.143 1.132-.238 1.749-.093.658.154 1.092-.076 1.128-.887.053-1.194.207-2.384.32-3.575.101-1.062 1.064-1.923 2.104-1.883.49.019 1.503 1.051 1.509 1.777.006.884-.204 1.771-.334 2.655-.158 1.065-.394 2.124-.48 3.195-.137 1.671-1.096 2.312-2.957 2.052-1.166-.163-2.361-.108-3.542-.169-.553-.027-1.102-.135-1.653-.138-.747-.005-1.496.058-2.244.092-1.229.056-2.46.099-3.688.177-.568.035-1.132.188-1.699.201-1.714.046-3.43.029-5.143.079-1.026.03-2.052.223-3.074.19a19.607 19.607 0 0 1-3.536-.414c-.349-.075-.718-.653-.832-1.068-.14-.508-.024-1.087-.013-1.635.059-2.898.615-5.724 1.146-8.563.365-1.942.772-3.842 1.767-5.567.613-1.064.892-1.227 2.048-.854 1.939.625 3.924.525 5.91.545.9.009 1.801.149 2.701.143a47.172 47.172 0 0 0 3.78-.17c.573-.05 1.922.298 2.086.799.141.425.133.967-.001 1.397-.133.426-.574.332-1.017.38-1.773.19-3.521-.61-5.308-.021-.555.184-1.253-.075-1.887-.109-1.48-.082-2.964-.23-4.444-.201-1.565.031-1.886.362-2.373 1.903-.576 1.82-.956 3.674-1.088 5.587-.104 1.506-.337 3.004-.551 4.827z"/>
      <path d="M30.082 13.246c-.355.244-.7.508-1.07.727-.786.466-1.571.94-2.385 1.355-.994.507-2.018.958-3.027 1.433-.104.049-.229.083-.302.165-.938 1.042-2.333 1.271-3.451 1.97-.896.561-1.389-.125-2.083-.328l-.03-.6c-.04-1.128.374-1.571 1.414-1.979 1.008-.396 1.938-.988 2.905-1.483.301-.154.618-.274.927-.412.918-.41 1.861-.773 2.743-1.25.497-.268.885-.733 1.333-1.093.253-.202.532-.371.772-.537-.744-.649-1.271-.677-2.018-.021l-1.858-.589c-1.021-.321-1.398-.822-1.248-1.782.134-.844.601-1.221 1.524-1.111 1.087.129 2.197.21 3.287.138 1.087-.071 2.153-.421 3.241-.526.684-.065 1.278-.676 2.117-.172.288.172 1.041-.139 1.638.009 1.166.29 1.7 1.492 1.106 2.559-.73 1.315-1.442 2.647-2.054 4.02-.215.479-.167 1.104-.137 1.657.035.645-1.002 2.982-1.554 3.322-.539.331-1.622.097-2.083-.45-.568-.678-.616-2.019-.198-2.797.331-.616.538-1.297.8-1.95l-.309-.275z"/>
    </g>
  </symbol>
  <symbol id="icon-play" viewBox="0 0 38 31.848">
    <title>play</title>
    <path d="M38 15.12L1.28 0 0 .987v29.919l1.287.942L38 16.731z"/>
  </symbol>
  <symbol id="icon-plus" viewBox="0 0 36 36">
    <title>plus</title>
    <path clip-rule="evenodd" d="M19.489 20.45c.143 1.414.232 2.805 0 4.227-.119.732-.152 1.529.079 2.268.572 1.83.042 3.771.682 5.623.415 1.201-.354 1.938-1.62 1.975-.348.01-.769-.213-1.048.201h-.21c-1.072-1.449-1.155-3.201-1.203-4.855-.068-2.387.344-4.787.259-7.172-.047-1.307.1-2.604.014-3.902-.022-.332-.219-.377-.46-.393-1.941-.125-3.869-.347-5.83-.244-1.509.08-3.028.156-4.555.06-1.005-.062-2.041.105-3.05.217-1.056.115-1.829-.197-2.547-.874v-1.255c.935-1.068 2.233-.736 3.388-.807a51.706 51.706 0 0 0 4.22-.449c.745-.107 1.489.052 2.208.078 1.596.061 3.152-.486 4.771-.158.495.102 1.118.031 1.676.029.814-.004.938-.945 1.015-1.502.384-2.826.598-5.675.964-8.504.115-.895.518-1.753.793-2.626.229-.728.899-.752 1.48-.916.276-.078.637.167.836-.215h.418c1.07.69.853 2.094 1.63 2.979.183.208.682.62.414 1.075-.49.831-.802 1.883-1.895 2.131-.664.149-.737.488-.805 1.08-.209 1.859-.655 3.684-.78 5.564-.066.984.233 1.439 1.241 1.27.63-.105 1.27-.09 1.896-.131.81-.055 1.643.285 2.398-.022.691-.282 1.222-.376 1.923.06 1.403.873 3.026.608 4.584.662.751.027 1.503.125 2.243.257.271.048.623.194.538.622-.138.697.275 1 .844 1.197v.837c-1.492 1.521-3.426 1.145-5.255 1.223-.606-.914-1.645-.822-2.52-.988a37.749 37.749 0 0 0-7.564-.65" fill-rule="evenodd"/>
  </symbol>
  <symbol id="icon-search" viewBox="0 0 18 18">
    <title>search</title>
    <path d="M6.5 1.6c2.7 0 4.9 2.2 4.9 4.9s-2.2 4.9-4.9 4.9-4.9-2.2-4.9-4.9 2.2-4.9 4.9-4.9m0-1.6C2.9 0 0 2.9 0 6.5S2.9 13 6.5 13 13 10.1 13 6.5 10.1 0 6.5 0zm6.6 11.5l4.9 4.9-1.6 1.6-4.9-4.9v-.8l.8-.8h.8z"/>
  </symbol>
  <symbol id="icon-secure" viewBox="0 0 20 20">
    <title>secure</title>
    <path d="M15.8 8H14V5.6C14 2.703 12.665 1 10 1S6 2.703 6 5.6V8H4c-.553 0-1 .646-1 1.199V17c0 .549.428 1.139.951 1.307l1.197.387A7.731 7.731 0 0 0 7.1 19h5.8a7.68 7.68 0 0 0 1.951-.307l1.196-.387c.524-.167.953-.757.953-1.306V9.199C17 8.646 16.352 8 15.8 8zM12 8H8V5.199C8 3.754 8.797 3 10 3s2 .754 2 2.199V8z"/>
  </symbol>
  <symbol id="icon-share-email" viewBox="0 0 16 16">
    <title>share-email</title>
    <path d="M13.446 6.419l-.351-.351L8.088 8.44 3.081 6.068l-.264.351 5.271 4.304 5.358-4.304zM14.5 2.29H1.412L.094 4.486v8.169l1.405 1.054h13.088l1.318-1.054V4.486L14.5 2.29zm-.439 9.487H1.939V4.223h12.122v7.554z"/>
  </symbol>
  <symbol id="icon-share-facebook" viewBox="0 0 16 16">
    <title>share-facebook</title>
    <path d="M10.897 8.371H8.668v5.943H6.514V8.371H5.029V6.217h1.485V4.434c0-1.412.817-2.748 2.971-2.748.892 0 1.485.074 1.485.074v2.229H9.633c-.743 0-.892.371-.892.966v1.337h2.229l-.074 2.08z"/>
  </symbol>
  <symbol id="icon-share-gplus" viewBox="4 -4 32 32">
    <title>share-gplus</title>
    <path d="M8.8 12c-.1 2.9 2 5.7 4.7 6.6 2.6.9 5.8.2 7.5-2 1.3-1.6 1.6-3.6 1.4-5.6h-6.7v2.4h4c-.3 1.2-1.1 2.2-2.3 2.7-2.3 1-5.1-.3-5.8-2.7-.9-2.3.5-5 2.9-5.7 1.4-.5 2.9.1 4.1.8l1.8-1.8c-1.4-1.2-3.2-1.9-5-1.7-3.6.1-6.8 3.4-6.6 7zm18-3v2h-2v2h2v2h2v-2h2v-2h-2V9h-2z"/>
  </symbol>
  <symbol id="icon-share-linkedin" viewBox="0 0 30 30">
    <title>share-linkedin</title>
    <path d="M10.576 7.985a1.57 1.57 0 0 1 0 3.137 1.568 1.568 0 0 1 0-3.137zm-1.353 4.327h2.706v8.704H9.223v-8.704zm4.403 0h2.595v1.19h.037c.361-.685 1.244-1.407 2.56-1.407 2.737 0 3.243 1.803 3.243 4.147v4.774h-2.702v-4.232c0-1.01-.02-2.308-1.406-2.308-1.408 0-1.623 1.1-1.623 2.235v4.305h-2.704v-8.704"/>
  </symbol>
  <symbol id="icon-share-twitter" viewBox="0 0 16 16">
    <title>share-twitter</title>
    <path d="M13.553 5.05v.399c0 3.746-2.79 8.051-7.892 8.051a7.548 7.548 0 0 1-4.224-1.275c.239 0 .478.08.638.08 1.275 0 2.471-.478 3.428-1.196-1.196 0-2.232-.797-2.631-1.913.159 0 .319.08.558.08l.718-.08c-1.275-.239-2.232-1.434-2.232-2.79.399.239.797.319 1.275.319-.718-.478-1.275-1.355-1.275-2.312 0-.478.159-1.037.399-1.434 1.355 1.674 3.428 2.87 5.74 2.95-.08-.239-.08-.399-.08-.638a2.773 2.773 0 0 1 2.79-2.79c.797 0 1.514.319 1.993.877.638-.08 1.196-.319 1.753-.638-.239.638-.638 1.196-1.196 1.514a9.287 9.287 0 0 0 1.594-.399c-.319.319-.797.797-1.355 1.196l-.001-.001z"/>
  </symbol>
  <symbol id="icon-tick" viewBox="0 0 28 28">
    <title>tick</title>
    <path d="M7.885 25.741L0 14.821l3.219-3.218 5.082 5.136 16.393-14.48L28 5.566"/>
  </symbol>
  <symbol id="icon-tickets" viewBox="0 0 25 25">
    <title>Slice 1</title>
    <path d="M25 12.041V6.037l-1.137-1.142H1.136L-.001 6.037v6.004l1.137.571v.571l-1.137.571v5.997l1.137 1.143h22.727l1.136-1.143v-5.996l-1.137-.571v-.571l1.137-.572zm-4.685 6.569H19.18v-1.141h1.135v1.141zm0-1.714H19.18v-1.142h1.135v1.142zm0-1.713H19.18v-1.142h1.135v1.142zm0-1.713H19.18v-1.142h1.135v1.142zm0-1.713H19.18v-1.142h1.135v1.142zm0-1.713H19.18V8.902h1.135v1.142zm0-1.714H19.18V7.188h1.135V8.33z"/>
  </symbol>
  <symbol id="icon-time" viewBox="0 0 25 25">
    <title>Slice 1</title>
    <path d="M12.5 0C5.596 0 0 5.598 0 12.5 0 19.404 5.596 25 12.5 25S25 19.404 25 12.5C25 5.598 19.404 0 12.5 0zm8.807 13.637l-8.783.734-1.728-1.456.852-10.642h1.704l.742 9.271 7.212.388v1.706z"/>
  </symbol>
  <symbol id="icon-triangle-down" viewBox="0 0 20 20">
    <title>triangle-down</title>
    <path d="M5 6h10l-5 9-5-9z"/>
  </symbol>
  <symbol id="icon-triangle-up" viewBox="0 0 20 20">
    <title>triangle-up</title>
    <path d="M15 14H5l5-9 5 9z"/>
  </symbol>
  <symbol id="icon-user" viewBox="0 0 20 20">
    <title>Layer 1</title>
    <path d="M10 8.3c1.55 0 3.4-1.75 3.4-3.9S12.15 1 10 1 6.6 2.25 6.6 4.4s2 3.9 3.4 3.9zm5.86 3.4l-.86-.82c-1.67-.58-3.14-.88-5-.88-1.87 0-3.32.3-5 .86l-.86.85L2 18.16l.86.84h14.28l.86-.86-2.14-6.42v-.02z" stroke="null"/>
  </symbol>
  <symbol id="icon-video" viewBox="0 0 20 12.728">
    <title>video</title>
    <path d="M0 1.818v9.091l1.818 1.819H12.5V0H1.818zM18.75.165l-5 5v2.5l5 5.001H20V.165z"/>
  </symbol>
</svg>