<svg xmlns="http://www.w3.org/2000/svg" width="240" height="83" viewBox="0 0 240 83"><g fill="#fff"><path d="M3.963 82.892c-.634 0-5.078-.505-3.7-7.166.94-4.548.874-6.911 1.458-11.459.351-2.735.573-7.009.747-7.911.931-3.15 5.806-3.36 5.576-.971-.346 3.85-2.746 18.611-2.828 19.35-.095.856.687.771 1.083.335.848-.932 4.845-5.488 7.54-8.83 5.872-7.282 15.426-19.743 17.254-20.542.468-.204.943-.308 1.41-.308.966 0 1.796.462 2.168 1.205.449.898.19 2.103-.711 3.305-1.862 2.483-7.177 23.028-7.321 23.966-.219 1.424 1.259.876 2.081 0 .359-.383 4.378-4.776 6.572-7.009 2.507-2.552 9.839-10.521 10.854-11.688 1.531-1.763 3.109-2.912 4.611-2.905.839.004 1.386.205 1.951 1.085.412.642.357 1.68-.011 2.629-.617 1.591-.968 3.188-.968 3.188s-2.559 12.557-2.679 13.496c-.128 1.007.662 2.183 2.643 1.097 2.53-1.386 5.255-2.966 7.33-4.308l.188-.122.019-.223c.404-4.844 1.717-10.517 8.382-15.862 1.802-1.445 4.406-2.343 6.793-2.343 1.118 0 2.126.194 2.996.577 1.704.749 2.714 1.813 3.004 3.165.379 1.769-.508 4.06-2.375 6.128-3.009 3.336-13.395 10.063-13.5 10.131l-.165.106-.035.193c-.137.746-.103 1.188.05 2.757.15 1.546 1.033 2.664 2.485 3.148.306.102.613.149.964.149.738 0 1.689-.217 2.995-.684 4.304-1.537 10.887-8.803 15.244-13.611l1.062-1.17c1.151-1.263 1.544-1.77 1.764-2.483.033-.128.442-1.084 1.168-1.734.93-.832 1.934-.909 2.375-.953 1.272-.128 1.825.177 1.874 1.005.101 1.691-1.472 3.386-2.188 5.292-.439 1.17-1.933 6.035-2.007 6.276-.125.405-.066.44.098.237 1.268-1.574 5.068-6.015 6.354-7.558.059-.077 4.333-5.829 6.66-8.767 2.435-3.072 6.526-8.116 6.857-8.49.372-.42.866-.932 1.387-1.161.567-.25.828-.293 1.196-.293.37 0 1.057.081 1.503.625.653.793.65 1.741-.009 2.818-.379.618-.781 1.239-1.161 1.822-.462.708-2.511 4.173-2.984 5.166-.481 1.012-1.657 3.826-1.665 3.847-.663 1.579-2.722 6.531-3.414 8.355-.652 1.718.663 2.156 1.648 1.005.159-.186 2.598-2.597 3.289-3.285 0 0 8.122-7.814 9.479-9.069l4.714-4.465c.764-.733 1.486-1.426 2.318-2.138.61-.522 1.262-.787 1.936-.787.579 0 1.084.209 1.34.389.717.5.958 1.108.783 1.973-.201.989-1.177 3.541-1.889 5.403 0 0-2.716 7.88-3.12 9.336 0 0-1.656 4.998-1.711 6.421-.021.55.931 1.479 2.902-.766 2.861-3.259 7.936-8.914 10.824-11.949 3.726-3.916 9.031-10.249 9.084-10.312.938-1.12 2.111-2.438 3.354-3.834 3.144-3.53 6.708-7.532 7.696-9.793.201-.459.396-1.122.603-1.824.353-1.195.791-2.684 1.351-3.413.211-.274.973-.812 1.777-.812.699 0 1.411.119 1.774.953.859 1.975-.38 7.011-.998 8.755l-.11.312c-.813 2.314-5.503 11.194-5.503 11.194-1.021 2.021-5.815 11.881-5.815 11.881 1.069-1.082 3.613-3.672 4.648-4.609 1.631-1.478 3.114-2.723 4.532-3.805 2.613-1.991 4.233-2.99 6.403-2.99 1.866 0 2.888 1.352 3.253 2.981.241 1.076-.124 3.612-.662 5.051-2.14 5.734-4.38 8.398-5.441 9.798l-1.148 1.515 9.433-4.651c.078-.265.567-1.665.9-2.358 2.259-4.724 3.803-7.071 7.622-10.195 1.232-1.007 3.092-2.269 4.947-2.562.485-.077 1.011-.148 1.566-.148.733 0 1.382.122 1.984.373 1.25.522 1.866 1.064 2.271 1.999.512 1.181.093 3.177-1.021 4.854-1.428 2.15-4.514 4.445-11.386 8.467-.678.397-1.34.766-1.969 1.096 0 0-1.018.55-1.453.768l-.236.409c-.475.989-.731 2.855.225 3.721.314.284.734.428 1.248.428 3.844 0 22.576-11.731 27.339-16.77 0 0 1.54-1.575 2.571-2.884.563-.713 1.094-1.388 1.225-1.464.503-.218 1-.33 1.471-.33 1.006 0 2.17.607 2.601 1.039.497.498.357.986.372 1.146 0 .273-2.476 4.497-2.762 5.201 2.02-1.834 7.717-7.958 14.806-13.417 1.813-1.396 4.343-2.873 6.408-1.779.283.149.491.737 1.058.737.227 0 1.261-.409 2.458-.409 1.788 0 3.148.492 4.324 1.417.945.744 1.805 1.778 1.741 2.649-.03.402-1.043 1.44-1.877 1.44-.366 0-.646-.134-.833-.399-.47-.665-1.477-1.381-2.581-1.381-.362 0-.708.077-1.03.228-.861.403-1.515 1.467-1.515 3.244 0 .582.112 1.364.252 2.354.305 2.139.952 5.37.602 9.263-.701 7.794-4.407 10.196-6.694 11.213-.798.354-2.636 1.024-3.839 1.024-2.093 0-5.229-.934-7.434-3.577-1.167-1.398-2.028-2.74-.692-4.13.665-.691 1.74-.868 2.245-.769.385.075.678.293 1.01.643 0 0 1.356 3.026 4.368 3.096 1.525.035 3.813-1.007 5.043-2.451 1.705-2.003 1.981-5.131 1.912-8.592-.029-1.453-.853-8.381-.902-8.988-.049-.606-.31-.86-.475-.974-.25-.173-.967-.257-1.355.085 0 0-10.706 8.113-19.268 16.852-1.948 1.988-4.253 5.628-5.268 6.859-.532.645-1.232.903-2.099.903l-.223-.006c-.629-.034-1.469-.393-1.926-1.116-.4-.63-.42-1.432-.058-2.316.08-.188 2.289-4.304 2.74-5.15.451-.846 1.242-2.308 1.242-2.308s-7.374 6.526-20.269 12.726c-1.072.515-4.344 1.727-5.602 1.727-2.645 0-4.837-2.225-4.991-5.064-.015-.286-.026-.66-.033-1.04l-.013-.685-.626.277c-3.008 1.333-6.588 2.823-10.943 4.556l-.092.037-.068.072c-2.358 2.471-5.767 5.756-8.127 5.756-.257 0-.5-.04-.723-.118-2.356-1.214-2.569-3.481-2.379-4.172.237-.866.979-1.621 2.203-2.245l.046-.024.04-.033c.085-.072.192-.12.347-.156l.04-.009.038-.016c.248-.107.466-.194.685-.272 1.005-.357 2.206-.687 3.478-1.036l1.125-.311.107-.03.082-.077c1.528-1.434 3.307-3.426 5.04-5.89 2.033-2.892 3.709-6.965 3.926-7.816.301-1.182.04-1.857-.193-2.213-.428-.657-1.131-.396-1.568-.152-.501.281-4.418 3.623-5.471 4.577-1.718 1.556-3.425 3.2-5.075 4.886l-.283.286c-.951.958-3.478 3.5-4.917 5.22l-.452.54c-1.562 1.868-3.504 4.193-4.495 5.085-.058.052-.136.079-.229.079-.913 0-2.77-1.636-2.86-2.078.018-.29.728-1.755 1.376-2.931.233-.434 2.703-5.015 2.808-5.198.188-.326.815-1.429 1.591-2.795 1.478-2.603 3.501-6.167 4.061-7.11l.08-.149c1.569-2.957 2.669-5.066 3.098-5.94.697-1.421 2.568-5.296 3.061-6.453l.815-1.955c-1.59 2.18-4.645 5.137-5.872 6.611-2.801 3.365-5.013 6.022-8.701 10.153-4.512 5.053-9.757 10.82-11.48 12.716-.315.347-4.785 6.469-8.222 4.985-1.26-.544-1.997-1.96-1.752-4.268.121-1.155 1.324-6.34 2.159-9.377l.494-1.802c.22-.812 1.323-4.918 1.323-4.918l-1.584 1.587c-1.113 1.116-2.178 2.084-2.741 2.642-1.358 1.346-2.747 2.692-4.09 3.994 0 0-2.043 1.98-2.821 2.741-.503.491-4.284 4.248-5.604 5.464-.8.736-1.874 1.645-3.102 2.129-.417.165-.852.249-1.292.249-.808 0-1.557-.288-2.168-.832-.818-.729-1.599-1.693-1.192-3.323.587-2.364 1.349-4.646 2.331-6.979l1.06-2.816c-.769.958-3.365 4.277-4.127 5.24-1.191 1.505-2.316 2.928-3.444 4.313-2.113 2.596-3.87 4.604-5.605 6.571l-.486.663c-.765.952-1.86 2.235-3.292 2.314-.542.03-1.521-.054-2.075-.805-.552-.75-.623-1.582-.162-2.893.297-.847.874-2.438 1.352-3.757.365-1.008.673-1.858.758-2.104.125-.359.265-.732.411-1.112l.921-2.399-1.688 1.938c-2.153 2.472-4.194 4.747-4.583 5.177-.074.082-7.572 8.163-14.258 8.163-.683 0-1.934-.134-2.775-.636-1.228-.731-3.181-2.402-4.189-6.013l-.171-.611-.524.358c-2.505 1.715-5.175 3.518-7.847 5.044-.907.518-2.036.815-3.099.815-1.017 0-1.901-.266-2.56-.768-1.65-1.261-1.63-3.537-1.472-4.781.143-1.125 2.734-13.456 2.912-14.047.073-.245.023-.415-.159-.229-.128.129-2.26 2.35-4.006 4.468-3.826 4.64-10.948 13.278-12.825 15.059-1.529 1.451-3.238 2.351-5.154 2.351-1.907 0-3.187-1.682-3.483-3.251-.437-2.325 1.744-10.296 2.78-14.063.384-1.394.949-4.162 1.015-4.389.083-.284-.095-.232-.311.09-.121.182-9.861 13.167-13.605 17.629-2.482 2.958-4.676 4.451-7.007 4.451m70.834-27.696c-.419 0-.889.084-1.396.249-1.471.479-2.884 1.3-4.199 2.442-1.388 1.203-3.261 3.353-4.308 6.76l-.377 1.227 1.065-.717c.295-.198 7.266-4.893 9.775-7.195 1.02-.935 1.047-1.609.891-2.01-.186-.481-.715-.756-1.451-.756m110.003-1.804c-.799 0-1.843.425-2.475.82-.992.62-2.872 2.444-3.867 3.752-.89 1.17-1.473 2.309-1.805 3.059l-.589 1.328 1.241-.756c1.378-.839 3.662-2.4 4.634-3.133.305-.23.645-.467 1.004-.718 1.452-1.013 2.953-2.061 3.042-3.226.031-.396-.116-.644-.245-.783-.209-.228-.526-.343-.94-.343M194.248.142c-1.549 0-2.787 1.239-2.787 2.788 0 1.521 1.238 2.76 2.787 2.76 1.521 0 2.788-1.239 2.788-2.76 0-1.549-1.267-2.788-2.788-2.788"/><path d="M214.3 22.894h8.617v-1.436l-1.662-.788v-10.189c.62-.446 1.352-.598 2.14-.598 1.436 0 2.112.592 2.112 2.225v8.561l-1.662.788v1.436h8.617v-1.436l-1.718-.788v-9.744c0-2.9-1.323-4.196-3.942-4.196-2.14 0-4.224.76-5.632 2.056v-2.055h-.423l-6.533 1.042v1.38l1.803.816v10.701l-1.718.788v1.437zM189.939 7.716v1.436l1.774.816v10.673l-1.689.788v1.465h8.617v-1.465l-1.69-.788v-13.967h-.423zM182.611 19.928c-.38.314-.816.544-1.605.544-2.084 0-3.069-1.689-3.069-5.575 0-4.449 1.239-5.941 2.9-5.941.93 0 1.395.29 1.774.708v10.264zm0-12.494c-.647-.451-1.661-.706-2.534-.706-3.877 0-7.542 2.223-7.542 8.587 0 6.054 3.691 8 6.163 8 1.971 0 3.322-.873 3.97-1.717h.169v1.663h.451l6.223-.733v-1.148l-1.661-.929v-20.141h-.422l-6.561 1.042v1.437l1.746.788v3.857zM160.858 7.716v1.436l1.746.816v10.673l-1.661.788v1.464h9.067v-1.464l-2.168-.788v-8.361c.926-.729 2.083-.96 3.491-.96.451 0 1.014.057 1.324.141v-4.59c-.169-.057-.507-.085-.789-.085-1.718 0-3.294 1.127-4.224 3.21v-3.322h-.451l-6.335 1.042zM149.608 8.959c.373-.166 1.139-.174 1.392-.174 2.027 0 2.618 1.014 2.618 3.013l-.004 1.78-3.002.564c-3.074.567-5.394 1.5-5.394 4.739 0 2.619 1.839 4.434 4.345 4.434 1.971 0 3.829-.844 4.533-2.252h.142c.253 1.689 1.717 2.225 3.351 2.225 1.267 0 2.492-.395 2.958-.921v-.909l-1.663-.788v-9.152c0-3.548-2.534-4.846-6.758-4.846-2.759 0-4.563.689-6.026 1.386v3.995h2.449l1.059-3.094zm4.01 10.806c-.301.445-.873.679-1.436.679-1.014 0-1.971-.562-1.971-2.309 0-1.246 1.126-2.393 2.359-2.581l1.048-.199v4.41zM202.871 8.959c.373-.166 1.139-.174 1.392-.174 2.028 0 2.619 1.014 2.619 3.013l-.004 1.78-3.003.564c-3.073.567-5.393 1.5-5.393 4.739 0 2.619 1.839 4.434 4.345 4.434 1.971 0 3.83-.844 4.534-2.252h.141c.253 1.689 1.717 2.225 3.351 2.225 1.267 0 2.492-.395 2.957-.921v-.909l-1.662-.788v-9.152c0-3.548-2.534-4.846-6.758-4.846-2.759 0-4.563.689-6.025 1.386v3.995h2.449l1.057-3.094zm4.01 10.806c-.302.445-.873.679-1.437.679-1.014 0-1.971-.562-1.971-2.309 0-1.246 1.125-2.393 2.359-2.581l1.048-.199v4.41zM129.038 18.304c0 2.732 1.352 5.012 4.534 5.012 2.112 0 3.971-.929 4.984-2.168v2.142h.422l6.392-.763v-1.147l-1.774-.929v-13.693h-.422l-6.561 1.042v1.436l1.746.817v9.458c-.584.387-.985.565-1.91.565-1.323 0-2.173-.393-2.173-2.194v-11.124h-.451l-6.561 1.042v1.436l1.773.817v8.251zM122.4 19.43h-5.632c-.62 0-1.126-.45-1.126-1.014 0-.422.31-.873.704-1.154.845.254 1.549.31 2.591.31 4.055 0 6.842-1.831 6.842-5.266 0-1.55-.647-2.422-1.633-3.324l2.67.833.006-3.142-4.252.789c-.986-.367-2.365-.818-3.632-.818-4.056 0-6.871 2.085-6.871 5.493 0 2.084 1.042 3.633 2.619 4.506l.126.078c-.9.62-2.773 2.034-2.773 3.695 0 1.239.816 2.45 2.506 2.816v.004c-1.774.366-3.773 1.122-3.773 3.178 0 2.112 3.041 4.201 7.997 4.201 6.167 0 8.843-2.905 8.843-6.651-.002-3.098-1.72-4.534-5.212-4.534m-3.463-10.926c1.154 0 1.944.806 1.944 3.633 0 2.9-.818 3.492-1.944 3.492s-1.917-.592-1.917-3.492c0-2.971.791-3.633 1.917-3.633m-.027 19.714c-2.873 0-3.905-1.122-3.859-2.227.031-.759.407-1.743 1.755-1.829h4.477c1.295 0 2.114.898 2.114 1.715 0 1.634-1.22 2.341-4.487 2.341M111.065 15.488c0-6.618-2.936-8.788-7.012-8.788-4.703 0-7.772 3.071-7.772 8.281 0 5.35 2.788 8.334 8.195 8.334 2.901 0 5.187-1.526 5.919-2.54l.079-1.289c-1.098.338-2.224.535-4.224.535-2.873 0-4.593-1.468-4.59-4.534h9.405zm-7.096-7.012c1.295 0 1.999.941 1.999 4.872l-4.364.253c.059-4.014.929-5.125 2.365-5.125"/><path d="M79.198 22.894h8.617v-1.436l-1.661-.788-.004-10.165c.629-.434 1.347-.667 2.136-.667 1.436 0 2.146.907 2.12 2.271v8.561l-1.662.788v1.436h8.617v-1.436l-1.718-.788v-9.744c0-2.9-1.673-4.196-3.943-4.196-2.14 0-4.229.76-5.637 2.056h.005v-8.786h-.422l-6.533 1.042v1.38l1.802.816v17.431l-1.718.788v1.437zM69.765 18.585c0 2.898 1.377 4.73 4.503 4.73 1.633 0 3.375-.422 4.367-1.162v-1.94c-.412.133-1.126.258-1.689.258-1.521 0-1.943-.789-1.943-2.337v-8.306h3.435v-2.704h-3.435v-3.688l-5.238.732v2.956l-2.422.455v2.249h2.422v8.757z"/></g></svg>
