<svg xmlns="http://www.w3.org/2000/svg" width="300" height="90" viewBox="0 0 300 90"><g fill="#fff"><path d="M164.807.383c-1.459 0-2.627 1.168-2.627 2.627 0 1.433 1.168 2.6 2.627 2.6 1.432 0 2.626-1.167 2.626-2.6 0-1.459-1.195-2.627-2.626-2.627"/><path d="M183.697 21.816h8.117v-1.352l-1.564-.742v-9.6c.583-.419 1.273-.562 2.016-.562 1.354 0 1.989.556 1.989 2.096v8.065l-1.564.742v1.352h8.117v-1.352l-1.618-.742v-9.18c0-2.732-1.247-3.953-3.715-3.953-2.015 0-3.979.717-5.305 1.936v-1.934h-.398l-6.154.981v1.3l1.698.77v10.082l-1.618.742v1.351zM160.748 7.52v1.351l1.672.77v10.054l-1.593.743v1.378h8.117v-1.378l-1.591-.743v-13.159h-.398zM153.844 19.023c-.358.295-.769.513-1.511.513-1.964 0-2.892-1.592-2.892-5.253 0-4.191 1.166-5.598 2.731-5.598.876 0 1.312.273 1.671.668v9.67zm0-11.769c-.61-.426-1.564-.666-2.387-.666-3.652 0-7.105 2.094-7.105 8.09 0 5.703 3.478 7.537 5.805 7.537 1.857 0 3.131-.822 3.741-1.618h.158v1.565h.426l5.862-.689v-1.081l-1.565-.874v-18.977h-.398l-6.181.982v1.354l1.645.742v3.635zM133.351 7.52v1.352l1.646.77v10.055l-1.566.742v1.379h8.543v-1.379l-2.044-.742v-7.877c.874-.687 1.964-.904 3.289-.904.426 0 .955.053 1.248.132v-4.325c-.16-.053-.477-.08-.742-.08-1.619 0-3.104 1.062-3.979 3.025v-3.132h-.425l-5.97.984zM122.752 8.689c.352-.156 1.072-.164 1.312-.164 1.909 0 2.467.956 2.467 2.84l-.004 1.677-2.828.531c-2.896.534-5.081 1.413-5.081 4.465 0 2.466 1.732 4.176 4.093 4.176 1.858 0 3.608-.795 4.272-2.121h.132c.239 1.593 1.618 2.097 3.156 2.097 1.194 0 2.348-.373 2.786-.869v-.855l-1.565-.742v-8.624c0-3.342-2.387-4.564-6.367-4.564-2.599 0-4.298.648-5.677 1.305v3.764h2.308l.996-2.916zm3.778 10.181c-.284.419-.822.64-1.353.64-.956 0-1.856-.531-1.856-2.176 0-1.174 1.061-2.254 2.221-2.432l.988-.188v4.156zM172.931 8.689c.35-.156 1.071-.164 1.311-.164 1.91 0 2.466.956 2.466 2.84l-.003 1.677-2.828.531c-2.896.534-5.081 1.413-5.081 4.465 0 2.466 1.732 4.176 4.094 4.176 1.856 0 3.606-.795 4.271-2.121h.133c.239 1.593 1.617 2.097 3.157 2.097 1.193 0 2.347-.373 2.786-.869v-.855l-1.566-.742v-8.624c0-3.342-2.388-4.564-6.366-4.564-2.601 0-4.3.648-5.677 1.305v3.764h2.307l.996-2.916zm3.776 10.181c-.282.419-.82.64-1.353.64-.954 0-1.856-.531-1.856-2.176 0-1.174 1.061-2.254 2.223-2.432l.986-.188v4.156zM103.374 17.492c0 2.574 1.274 4.723 4.272 4.723 1.99 0 3.74-.875 4.695-2.042v2.017h.398l6.022-.718v-1.08l-1.672-.876v-12.899h-.398l-6.181.98v1.354l1.644.769v8.91c-.549.364-.928.534-1.799.534-1.247 0-2.047-.371-2.047-2.069v-10.478h-.424l-6.181.98v1.354l1.671.769v7.772zM97.121 18.555h-5.306c-.584 0-1.061-.424-1.061-.956 0-.396.292-.822.663-1.087.796.238 1.46.293 2.44.293 3.821 0 6.447-1.727 6.447-4.961 0-1.46-.61-2.282-1.539-3.132l2.516.784.005-2.959-4.006.742c-.929-.346-2.228-.77-3.423-.77-3.819 0-6.472 1.964-6.472 5.174 0 1.963.982 3.422 2.467 4.244l.119.073c-.849.584-2.613 1.917-2.613 3.481 0 1.168.77 2.307 2.362 2.652v.005c-1.672.345-3.555 1.056-3.555 2.993 0 1.99 2.865 3.957 7.533 3.957 5.81 0 8.33-2.736 8.33-6.265 0-2.917-1.618-4.268-4.907-4.268m-3.264-10.293c1.088 0 1.833.758 1.833 3.422 0 2.731-.771 3.289-1.833 3.289-1.061 0-1.805-.558-1.805-3.289 0-2.799.744-3.422 1.805-3.422m-.025 18.572c-2.705 0-3.679-1.058-3.635-2.099.029-.715.382-1.642 1.653-1.724h4.218c1.22 0 1.991.847 1.991 1.617 0 1.538-1.149 2.206-4.227 2.206M86.442 14.84c0-6.234-2.766-8.279-6.606-8.279-4.429 0-7.321 2.894-7.321 7.803 0 5.041 2.626 7.851 7.72 7.851 2.732 0 4.886-1.438 5.576-2.393l.075-1.214c-1.036.318-2.096.505-3.98.505-2.706 0-4.327-1.384-4.324-4.272h8.86zm-6.685-6.606c1.22 0 1.883.887 1.883 4.59l-4.111.238c.056-3.781.874-4.828 2.228-4.828"/><path d="M56.42 21.816h8.117v-1.352l-1.564-.742-.003-9.578c.592-.408 1.269-.627 2.011-.627 1.354 0 2.022.854 1.997 2.14v8.065l-1.564.742v1.352h8.117v-1.352l-1.617-.742v-9.18c0-2.732-1.576-3.953-3.714-3.953-2.016 0-3.984.717-5.312 1.936h.006v-8.275h-.398l-6.153.982v1.299l1.697.768v16.424l-1.618.742v1.351zM47.533 17.758c0 2.732 1.298 4.457 4.242 4.457 1.539 0 3.18-.398 4.115-1.095v-1.827c-.389.125-1.062.243-1.592.243-1.432 0-1.83-.742-1.83-2.202v-7.826h3.236v-2.547h-3.236v-3.476l-4.935.69v2.785l-2.281.43v2.117h2.281v8.251z"/></g><path fill="#fff" d="M159.468 46.802c.14-.771.461-5.438.351-6.26-.056-.423-.413-.827-.693-1.194-.212-.279-.488-.527-.782-.717-.756-.488-1.494-1.07-2.327-1.341-.369-.121-.989.371-1.429.681-.362.256-.675.619-.929.99-.611.897-5.009 9.363-5.587 10.387-1.1 1.95-2.186 3.909-3.305 5.846-.452.782-.976 1.522-1.496 2.325-.186-1.407-.152-14.764-.167-15.986-.011-.837-3.528-3.976-4.044-4.039-1.504-.105-.936.337-2.271 2.365-.52 1.151-1.502 2.592-1.955 3.771-.566 1.474-7.678 16.03-7.821 15.983.072-.914.686-10.738 4.021-21.469.067-.184.061-.435-.006-.62-.235-.658-2.227-3.198-3.33-3.825-.516-.293-1.434.834-1.994.771-.855-.098-.87.442-.966.965-.065.346-.012.719-.1 1.055-.272 1.024-1.139 4.078-1.615 5.48-.476 1.402-1.974 8.588-2.829 10.021-4.758 6.542-14.717 13.107-16.343 13.884-.542.26-1.215.364-1.798-.303-.413-.791-1.262-4.651-1.301-6.26-.012-.301.012-.896.026-1.187.103-.098 4.573-1.604 9.223-6.119 2.388-2.317 3.952-6.081 4.326-7.973.52-2.621.341-4.97-.851-7.469-.586-1.235-1.217-2.078-1.469-2.338-1.277-1.322-4.833-2.463-4.833-2.463-1.537-.011-4.013 1.597-5.379 2.964-.885.885-6.353 7.367-6.988 18.382 0 0-1.357.405-3.129-.008-.167.63-.535 4.288-.427 4.535.333.764.658 1.534 1.058 2.261.104.188.998.104 1.239.117.239.015 1.221-.064 1.221-.064.034.227-.293 5.517 3.85 11.52.594.858 2.691 1.36 3.419 1.559.729.2 1.317.13 2.22-.144 1.59-.482 5.756-3.262 9.594-6.358.991-.8 6.302-5.6 6.876-6.262-.159 1.839-.343 3.675-.481 5.515-.115 1.529-.196 3.063-.257 4.594-.058 1.439-.083 2.879-.079 4.32 0 .153.261.347.444.446.205.113 3.135 1.808 4.777 1.261.296-.063.484-.535.715-.889.781-1.207 10.419-20.976 11.06-22.281l.459-.914c.147.541.492 13.028.043 15.47-.148.351.067.539.22.633 1.149.694 1.258.968 2.497 1.449.641.249 1.528.067 2.24-.142.62-.183 3.106-3.807 3.767-4.809 1.044-1.586 1.997-3.234 2.972-4.865.7-1.17 1.378-2.354 2.059-3.536.299-.519.582-1.045.872-1.569l.306.113c-.055.397.396 14.242.399 14.936.005 1.563.264 2.509.629 3.363.574 1.347 2.449 1.712 4.19 1.603.869-.055 2.06-1.716 2.291-2.714.108-.482-1.578-15.338-.383-25.447m-55.244-5.285c.664-1.445 1.66-3.254 3.053-4.111.257-.159 1.383-.06 1.661.75.339.999.697 4.686-1.08 7.195-1.448 2.041-4.087 4.617-6.942 6.232.054-3.208 2.901-9.179 3.308-10.066M82.254 30.505c-.446-.046-1.314.518-1.965 1.804-3.602 7.135-13.569 27.377-13.648 27.31-.149-.129-.235-.41-.232-.624.042-2.389.122-4.775.159-7.163.019-1.185.115-7.536.162-9.529.037-1.517.334-7.574-.087-8.153-1.191-1.638-3.094-3.131-4.995-2.881-.161.021-1.303.85-1.908 1.681-.985 1.359-11 19.664-13.662 24.876.093-.432 1.032-20.099 3.29-22.921.326-.407.652-.449.481-1.089-.198-.748-.961-3.143-4.326-4.379-.603-.221-.945-.066-1.302.238-.388.33-1.135 1.324-1.352 1.738-.5.954-.4.847-.534 1.7-.157 1.002-1.39 11.675-1.617 15.297-.038.602-.934 18.048-1.081 19.876-.086 1.06-.422 2.033-.237 3.19.126.785.479 1.166.899 1.601.437.453 1.642 1.09 2.175 1.132 1.071.081 1.522-.117 2.58-.367.3-.072 2.232-4.011 2.97-5.459.493-.969 3.421-6.841 4.422-8.792.327-.637 7.87-16.339 7.87-16.339.403.08.188 2.128.164 2.86-.07 2.019-1.056 24.413-.803 26.043.203 1.161.144 2.158.951 2.771 1.492 1.134 2.981 1.034 4.721.729.255-.044.539-.31.681-.549.526-.884 1.004-1.795 1.489-2.702.414-.776 3.266-5.9 6.911-13.32 3.646-7.419 7.045-15.966 7.175-15.938.026.406-.292 7.837-.269 8.951.039 1.813-.007 19.714.735 20.659 2.332 2.964 6.646.777 7.014-.118.114-.279.157-1.264-.122-2.911-2.739-16.169-.88-32.642-1.121-34.345-.107-.758-.158-1.461-.393-1.957-.871-1.84-4.175-2.816-5.195-2.92M246.225 39.608c.079-.549.067-1.102-.039-1.758-.422-.239-.968-.178-1.679-.909-.603-.618-1.166-.592-1.877-.394-3.331.926-7.487 5.177-9.54 7.75-1.312 1.64-3.047 4.063-3.389 4.639-.135-.01-.154-.715-.089-1.055.203-1.804.806-6.116.899-6.619.137-.75.338-1.769-.286-2.267-.688-.551-1.537-.866-1.791-1.828l-.069-.058c-1.087-.585-3.119.02-3.752 1.131-.064.114-.06.271-.071.41-.055.611-.669 9.37-.753 9.944s.027 2.231-3.794 7.3c-8.536 11.326-15.135 11.555-15.987 10.392-1.288-1.756-1.921-3.936-2.301-5.429-.176-.689-.209-1.518-.209-1.518 3.95-1.927 8.158-5.93 9.544-8.402.938-1.677 1.857-3.814 2.027-5.736.237-2.661-.797-5.402-2.401-7.657-.812-1.142-.856-1.525-2.85-2.229-1.992-.704-4.246-1.256-4.246-1.256-1.529.152-2.753.964-3.669 2.239-5.205 7.242-4.473 18.309-4.473 18.309s-1.778.415-3.599.461c-.002.653.565 4.285.733 4.498.515.654 1.024 1.317 1.596 1.922.146.153.516.131.756.121.24-.013 1.337-.225 1.337-.225.102.387 1.489 6.854 4.91 9.946 1.866 1.687 4.467 2.117 6.567 1.495 1.664-.494 4.097-1.328 8.017-4.242 5.678-4.224 7.893-8.034 7.893-8.034.079.445-.192 9.146.161 10.771.149.684.396 1.024 1.067 1.424.716.426 2.338 1.004 3.02 1.129.87.16 1.833-.672 2.136-1.422.337-.838.271-11.438 1.532-14.836 1.255-3.381 3.169-7.428 7.143-10.908 2.651-2.321 4.605-3.712 5.341-4.129 2.004-1.332 2.087-2.278 2.185-2.97m-43.631 4.268c.52-1.557 1.373-3.242 2.468-4.458.712-.792 1.335-.131 1.728.862 1.004 2.544 1.449 4.295.222 6.398-1.262 2.162-3.003 3.844-5.668 5.756-.156-.448-.145-4.377 1.25-8.558M260.886 30.953c-3.558-1.698-7.372-.06-8.64 1.472-3.842 4.287-2.758 12.399-2.585 14.783.112 1.564.924 5.196 1.526 7.338.603 2.141 1.688 5.93 1.959 7.162.274 1.239 1.032 3.894-.397 5.298-1.722 1.693-7.011.646-11.093-2.644-.319-.255-.751-.078-1.076.275-.396.432-.444 1.071-1.029 1.586-.311.245-.522.723-.498.97.203 1.932 2.053 3.276 3.573 4.384 1.009.736 2.806 1.6 4.133 1.991.961.281 2.558.607 3.997.512 1.479-.098 3.603-.666 5.235-1.647 1.553-.934 3.691-3.619 3.618-6.854-.195-5.086-3.218-10.097-4.454-17.336-.555-3.252-.453-7.119-.187-8.607.269-1.485.977-2.667 1.542-3.241 1.098-1.11 2.308-.848 3.451-.287 2.341 1.153 3.765 1.034 4.947-.061.612-.567.93-1.597.747-2.184-.094-.304-.437-.523-1.799-1.313-.725-.42-1.573-.93-2.97-1.597M187.417 41.47c-.446-.495-1.6-1.462-2.552-1.84-1.162-.46-2.29-.664-3.576.043-1.015.559-2.787 2.414-5.547 6.162-2.153 2.924-4.562 6.421-4.835 6.965-.082-.357-.273-.727-.229-1.065.25-1.922 3.41-16.731 3.664-24.746.021-.704-1.039-1.145-2.204-1.614-1.425-.573-3.06-.917-3.693 1.51-.141 1.043-1.46 7.013-1.57 7.847-.146 1.114-2.55 20.292-2.914 23.012-.174 1.302-.411 2.599-.7 3.881-.286 1.264-.752 2.524-.32 3.812.149.45.597.956 1.03 1.125.778.303 1.628.508 2.54.736l.009-.001.029.01c.272.068 6.817-8.932 7.727-10.333 1.056-1.628 8.223-10.645 8.618-10.723.277.068.333.255.354.79.083 1.819-.112 3.675-.269 5.491-.062.696-.161 1.392-.273 2.083-.316 1.964-.44 3.99-1.027 5.87-.73 2.34-1.396 4.722-3.034 6.742-.842 1.041-2.075 1.846-3.643 2.193-1.627.361-3.738.11-5.364-.677-.329-.161-1.258.274-1.874 1.217-.098.148-.561 1.294.182 2.693.641 1.207 3.701 2.409 4.941 2.741 4.791 1.279 9.137-2.316 10.599-3.789.814-.82 1.83-2.345 2.474-3.614 3.646-7.162 3.665-19.138 3.621-20.759-.051-1.772-.504-3.925-2.164-5.762"/></svg>