<svg id="Layer_1" xmlns="http://www.w3.org/2000/svg" preserveAspectRatio="xMinYMin slice" viewBox="0 0 52 52">
    <style>.st0{fill:#FFFFFF;} .st1{fill:#54C1DA;}</style>
    <circle class="st0" cx="26" cy="26" r="26"/>
    <path class="st1"
          d="M30.71 11.66c0-7.12-2.13-8.2-4.74-8.2-2.55 0-4.68.95-4.68 8.2 0 7.24 2.13 7.88 4.68 7.88s4.74-.76 4.74-7.88m-9.38 27.15c-3.25 0-4.21 2.4-4.21 4.18 0 2.57 2.32 4.95 9.07 4.95 7.68 0 9.77-2.16 9.77-4.98 0-2.46-1.85-4.15-4.95-4.15h-9.68zM15.16 2.36C6.21 6.47 0 15.5 0 25.99c0 7.12 2.86 13.56 7.49 18.26-.01-.13-.01-.25-.01-.38 0-4.64 4.52-6.35 8.54-7.18-3.82-.83-5.67-3.56-5.67-6.35 0-3.75 4.19-6.98 6.23-8.38l-.24-.13c-3.57-1.97-5.93-5.46-5.93-10.16 0-4.04 1.75-7.21 4.75-9.31M52 25.99C52 15.28 45.52 6.08 36.26 2.1c3.1 2.02 4.97 5.11 5.12 9.07.05.31.08.6.08.88 0 7.75-6.31 11.87-15.49 11.87-2.36 0-3.96-.13-5.87-.7-.89.63-1.6 1.65-1.6 2.61 0 1.27 1.15 2.29 2.55 2.29h12.76c7.9 0 11.79 3.24 11.79 10.22 0 2.33-.46 4.42-1.42 6.23C49.01 39.85 52 33.27 52 25.99"
          id="Layer_1_2_"/>
</svg>
