<svg xmlns="http://www.w3.org/2000/svg" width="253.121" height="67.369" viewBox="45.252 0.25 253.121 67.369"><g fill="#FFF"><path d="M164.807.383c-1.46 0-2.627 1.167-2.627 2.626 0 1.432 1.168 2.598 2.627 2.598 1.433 0 2.627-1.167 2.627-2.6 0-1.458-1.196-2.625-2.627-2.625M183.697 21.817h8.117v-1.352l-1.564-.743v-9.6c.583-.418 1.273-.56 2.016-.56 1.354 0 1.99.555 1.99 2.095v8.065l-1.564.743v1.352h8.117v-1.352l-1.62-.743v-9.18c0-2.73-1.246-3.953-3.715-3.953-2.015 0-3.98.716-5.305 1.936V6.59h-.398l-6.153.98v1.3l1.697.77v10.082l-1.618.743-.003 1.352zM160.748 7.52V8.87l1.672.768v10.055l-1.593.742v1.38h8.116v-1.38l-1.59-.742V6.535h-.398M153.844 19.023c-.357.295-.77.513-1.51.513-1.965 0-2.893-1.592-2.893-5.253 0-4.19 1.168-5.597 2.732-5.597.876 0 1.312.273 1.67.668l.002 9.67zm0-11.77c-.61-.426-1.564-.665-2.387-.665-3.652 0-7.105 2.094-7.105 8.09 0 5.703 3.478 7.537 5.805 7.537 1.856 0 3.13-.822 3.74-1.62h.16v1.567h.425l5.86-.69v-1.08l-1.563-.876V.54h-.4l-6.18.983v1.354l1.646.742v3.633h-.002zM133.35 7.52V8.87l1.647.77v10.054l-1.566.742v1.38h8.544v-1.38l-2.044-.742V11.82c.874-.687 1.964-.904 3.29-.904.425 0 .954.053 1.247.132V6.723c-.16-.054-.477-.08-.742-.08-1.62 0-3.104 1.062-3.98 3.024v-3.13h-.424l-5.97.982zM122.752 8.69c.352-.156 1.072-.164 1.312-.164 1.91 0 2.467.956 2.467 2.84l-.003 1.676-2.828.53c-2.897.535-5.082 1.414-5.082 4.466 0 2.466 1.732 4.176 4.093 4.176 1.86 0 3.61-.795 4.273-2.12h.132c.24 1.59 1.618 2.095 3.156 2.095 1.195 0 2.35-.373 2.787-.87v-.855l-1.565-.743V11.1c0-3.342-2.387-4.565-6.367-4.565-2.6 0-4.298.65-5.677 1.306v3.765h2.308l.996-2.915zm3.778 10.18c-.284.42-.822.64-1.353.64-.956 0-1.856-.532-1.856-2.176 0-1.174 1.062-2.255 2.222-2.433l.988-.186v4.156z"/><path d="M172.932 8.69c.35-.156 1.07-.164 1.31-.164 1.91 0 2.467.956 2.467 2.84l-.004 1.676-2.828.53c-2.896.535-5.08 1.414-5.08 4.466 0 2.466 1.73 4.176 4.094 4.176 1.855 0 3.605-.795 4.27-2.12h.134c.24 1.59 1.617 2.095 3.157 2.095 1.193 0 2.347-.373 2.785-.87v-.855l-1.565-.743V11.1c0-3.342-2.388-4.565-6.366-4.565-2.6 0-4.3.65-5.677 1.306v3.765h2.308l.994-2.915zm3.775 10.18c-.282.42-.82.64-1.354.64-.953 0-1.855-.532-1.855-2.176 0-1.174 1.06-2.255 2.223-2.433l.987-.186v4.156zM103.374 17.493c0 2.574 1.274 4.723 4.272 4.723 1.99 0 3.74-.875 4.695-2.042v2.017h.4l6.02-.717v-1.08l-1.67-.876v-12.9h-.4l-6.18.98v1.355l1.644.77v8.91c-.55.364-.928.533-1.8.533-1.246 0-2.046-.37-2.046-2.07V6.618h-.424l-6.18.98v1.355l1.67.77v7.77zM97.12 18.555h-5.305c-.584 0-1.06-.424-1.06-.956 0-.397.29-.823.662-1.087.796.238 1.46.292 2.44.292 3.82 0 6.447-1.726 6.447-4.96 0-1.46-.61-2.283-1.54-3.132l2.517.785.006-2.96-4.006.74c-.93-.344-2.228-.77-3.423-.77-3.82 0-6.472 1.965-6.472 5.175 0 1.962.982 3.422 2.467 4.245l.12.073c-.85.585-2.614 1.918-2.614 3.483 0 1.167.77 2.307 2.362 2.652v.004c-1.672.344-3.555 1.055-3.555 2.993 0 1.99 2.865 3.957 7.533 3.957 5.81 0 8.33-2.737 8.33-6.265 0-2.918-1.618-4.27-4.907-4.27M93.858 8.26c1.088 0 1.833.76 1.833 3.423 0 2.73-.77 3.29-1.833 3.29-1.06 0-1.805-.56-1.805-3.29 0-2.798.744-3.422 1.805-3.422m-.025 18.573c-2.705 0-3.68-1.057-3.635-2.098.03-.715.382-1.642 1.653-1.723h4.218c1.22 0 1.99.846 1.99 1.616 0 1.54-1.148 2.205-4.226 2.205M86.442 14.84c0-6.235-2.766-8.28-6.606-8.28-4.43 0-7.32 2.894-7.32 7.804 0 5.04 2.625 7.85 7.72 7.85 2.73 0 4.885-1.438 5.575-2.393l.076-1.212c-1.036.318-2.096.504-3.98.504-2.706 0-4.327-1.383-4.324-4.272h8.86zm-6.685-6.606c1.22 0 1.883.887 1.883 4.59l-4.11.238c.055-3.78.873-4.828 2.227-4.828"/><path d="M56.42 21.817h8.117v-1.352l-1.564-.743-.003-9.577c.592-.408 1.27-.628 2.01-.628 1.355 0 2.023.854 1.998 2.14v8.065l-1.564.743v1.352h8.117v-1.352l-1.616-.743v-9.18c0-2.73-1.576-3.953-3.714-3.953-2.016 0-3.984.716-5.312 1.936h.006V.25h-.398l-6.153.982v1.3l1.697.768v16.423l-1.618.743v1.35h-.002zM47.533 17.758c0 2.73 1.298 4.457 4.242 4.457 1.54 0 3.18-.398 4.115-1.095v-1.828c-.39.125-1.062.244-1.592.244-1.432 0-1.83-.742-1.83-2.202V9.508h3.236V6.96h-3.236V3.486l-4.935.69v2.786l-2.28.43v2.118h2.28v8.25z"/></g><path fill="#FFF" d="M81.338 67.613c-.393-.03-.79-.197-1.18-.495l-.26-.194c-.747-.547-1.678-1.23-1.207-2.763.547-1.77 4.25-13.353 4.282-13.602-.43.727-6.667 6.004-11.692 8.94-.476.278-1.962 1.194-2.7 1.004-3.45-.89-2.264-4.34-1.303-5.138.066-.055.345-.217.657-.348 1.75-.736 6.655-3.297 11.89-8.16 3.496-3.25 8.84-10.15 9.232-11.025.097-.216.195-.432.293-.644.256-.548.856-1.833 2.14-1.73.252.02.517.095.788.224 1.608.76 2.277 2.054 1.75 3.378-.366.915-.86 1.773-1.34 2.603-.346.603-.705 1.223-1 1.848-1.08 2.273-2.148 4.664-3.27 7.308-.686 1.62-1.274 3.283-1.815 4.847-.097.276-.152.575-.2.89.072-.07.137-.143.19-.215.83-1.18 3.514-5.208 6.64-9.277 3.127-4.067 8.74-11.198 9.867-11.94 1.388-.915 3.17.65 3.628 1.564.465.93.562 1.926.263 2.732-1.416 3.83-2.85 7.652-4.286 11.475l-1.202 3.204c-.184.49-.375.98-.563 1.47l-.012.024c.28-.154.542-.307.724-.498 2.12-2.2 6.897-7.31 6.897-7.31 3.922-4.197 7.847-8.395 11.753-12.606.67-.722 1.34-1.046 2.043-.99.316.025.63.13.938.312.77.455 2.064 1.215 1.553 2.925-.183.615-4.747 15.7-4.982 16.398-.523 1.547-1.064 3.148-1.435 4.746-.133.58-.256 1.776.266 2.64 1.366-.36 7.308-4.118 7.308-4.118s-.168-.852-.044-2.73c.387-5.835 2.91-10.43 5.55-13.557 2.442-2.892 5.773-4.92 7.856-4.784 1.8.118 3.562 1.648 3.403 3.917-.125 1.794-.72 3.83-1.722 5.88-2.65 5.434-5.292 9.196-8.57 12.198-.456.42-.68.605-1.228 1.048 0 0 .244.586.967.645 1.542.123 2.902-.428 4.028-.983 3.816-1.882 7.29-4.798 10.62-8.915 1.706-2.106 2.96-3.902 3.946-5.644.84-1.485 1.54-3.103 2.214-4.667.295-.685.59-1.37.898-2.048.304-.67.87-1.92 2.165-1.817.267.022.552.103.846.243.854.402 1.437 1.007 1.68 1.75.253.757.126 1.605-.32 2.476-1.272 2.468-5.396 12.126-5.396 12.126-.168.512-.105.938.062.973.167.033 6.697-7.3 9.87-10.86 0 0 5.187-5.664 5.478-6.042.542-.705 1.927-1.743 3.26-.972 1.24.72 1.74 2.847 1.304 4.052-1.225 3.357-2.424 6.724-3.623 10.09l-1.124 3.267c.34-.343.66-.667.923-1.028 4.835-6.578 15.39-16.836 17.964-16.63 1.122.09 1.87 1.088 2.51 2.154.306.504.606 1.263-.05 2.242-1.245 1.86-4.795 11.335-5.06 12.07-.382 1.072-2.12 6.464-2.162 6.654-.04.168-.2.635-.18.85 0 0 8.755-6.823 11.702-10.365 5.178-6.225 13.174-26.018 13.54-26.71.744-1.418 2.14-2.293 3.597-2.14 1.587.167 1.984 1.206 2.03 2.16.16 3.307-11.185 23.215-11.076 23.406.457-.497 8.774-7.646 13.443-6.237 1.936.583 2.072 1.95 2.46 3.792.706 3.36-3.556 23.634-19.028 24.276-1.923.08-4.727-1.348-5.727-4.15-.028-.08-.438.302-.85.1-.845-.463-1.4-.98-1.616-1.523-.182-.448-.05-.952.16-1.796.275-1.113 4.193-5.598-.79-.92-4.177 3.922-8.412 6.762-9.09 7.234-.604.425-1.378.898-2.194.807-.785-.09-1.746-.584-2.31-1.283-.827-1.033-.42-2.406.306-4.006.554-1.22 1.373-4.71 1.567-5.3l1.166-3.5c.933-2.79 1.86-5.582 2.775-8.378.104-.327.337-1.07.19-1.14 0 0-4.417 4.856-5.89 6.51-.896 1-8.47 10.16-10.466 12.642-.52.643-1.146.938-1.862.883-.615-.05-1.183-.355-1.64-.602-1.237-.66-1.593-1.618-1.118-2.883.575-1.54.97-3.197 1.352-4.797.236-1.002.48-2.037.77-3.046.388-1.342.855-2.674 1.31-3.965.213-.608.428-1.218.636-1.83.082-.248.16-.497.237-.746-.19.292-12.74 14.977-14.642 16.645-.4.353-1.11.85-1.81.794-.383-.03-1.773-.77-2.736-1.767-.487-.502-.803-.94.256-2.843.207-.37.652-1.186.625-1.575-.006-.105-.02-.268-.1-.4-.15.055-4.52 4.902-10.398 7.393-1.514.64-2.982.945-4.377.816-3.327-.31-5.147-2.525-5.147-2.525s-7.297 5.167-11.865 5.973c-.943.166-2.157-.4-2.796-1.27-.64-.874-.02-4.15.526-6.52.857-3.712 3.02-10.272 3.443-11.447.482-1.335.966-2.674 1.43-4.017l-.02-.05c-.183.034-.427.083-.493.148-.688.688-7.127 7.807-7.127 7.807-2.542 2.787-5.083 5.574-7.617 8.367-1.362 1.496-2.49 2.767-3.578 4.096-.5.61-1.165 1.018-1.826.863-1.587-.37-2.65-2.03-2.534-2.972.26-2.082.71-4.32 1.418-7.05.54-2.073 2.75-9.02 2.976-9.616l.08-.21c-.113.043-.218.09-.245.13-1.29 1.825-11.644 16.69-14.204 20.284-.676.952-1.267 1.677-1.855 2.278-.53.54-1.1.794-1.692.747m56.294-27.826c-2.814 1.047-6.422 6.146-7.618 12.354 2.314-2.363 7.436-10.075 7.618-12.353m61.657 20.168c12.063-1.56 17.588-21.06 10.946-17.244-4.47 2.57-10.225 8.804-12.625 15.3-.405 1.1-.21 2.488 1.68 1.945"/><path fill="#FFF" d="M266.902 66.886c-2.135-.23-3.924-1.323-5.03-3.07-1.177-1.85-1.446-4.198-.726-6.277.508-1.477 2.02-2.487 3.845-3.272.855-.37 5.725-2.812 5.725-2.812s.657-1.506.89-2.14c.523-1.44 1.782-4.887 2.22-6.098 0 0-1.9 1.113-5.245 2.233-3.412 1.143-8.838 2.36-10.903 2.613-2.064.254-2.81.925-3.55 1.826-1.94 2.376-4.35 5.544-6.495 8.322-.578.745-1.412 1.78-2.672 1.683-.382-.03-1.697-.547-2.21-1.28-.41-.59-.563-1.1.09-2.554.302-.667 2.498-4.663 2.84-5.33-.02.023.07-.177-.007-.204-1.688 1.686-12.354 11.738-18.66 11.232-5.623-.45-6.322-7.32-6.322-7.32s-1.31.363-1.605.35c-.597-.03-1.324-.71-1.896-2.025-.368-.854-1.013-2.492-.206-2.668 2.396-.527 3.687-.914 3.687-.914.956-6.115 3.957-10.144 5.053-11.44 2.89-3.42 6.162-4.39 7.03-4.504 3.9-.515 5.586 1.993 5.646 4.255.087 3.39-1.425 6.178-2.69 8.023-3.79 5.525-9.87 7.436-9.87 7.436s-.082 3.167 1.997 3.333c4.527.36 16.4-10.037 20.905-15.627.915-1.136 5.808-7.363 6.16-7.76.3-.342.712-.398 1.514-.107.882.318 3.142 1.875 2.1 3.602-1.045 1.728-4.19 7.197-4.19 7.197.607-.533 1.37-.94 2.68-1.043 8.756-.706 16.398-3.822 19.05-7.392 1.343-1.81 3.47-3.694 5.406-2.18 1.812 1.41 2.09 3.268 1.49 4.43-.412.793-1.515 1.82-2.968 2.716l-3.133 8.653s15.203-7.732 17.718-8.745c.78-.315 2.49.097 3.44 1.43.575.803.483 1.62-.327 1.995-4.452 2.06-23.187 11.702-23.187 11.702s-2.915 7.767-4.22 9.998c-.822 1.414-2.552 1.8-3.288 1.74l-.083-.007zm1.567-8.906c-1.587.74-2.612 1.483-2.747 2.1-.074.346.184.988.63 1.3.69.48 1.756-2.153 2.116-3.4m-39.763-16.19c-1.44 2.468-2.163 5.15-2.186 5.43 4.4-2.395 7.44-6.095 7.014-9.327-.01-.053-.063-.073-.095-.068-.786.11-3.342 1.59-4.733 3.966"/></svg>