<svg xmlns="http://www.w3.org/2000/svg" width="300" height="90" viewBox="0 0 300 90"><g fill="#fff"><path d="M164.807.383c-1.459 0-2.627 1.167-2.627 2.626 0 1.433 1.168 2.599 2.627 2.599 1.432 0 2.626-1.167 2.626-2.599 0-1.459-1.195-2.626-2.626-2.626"/><path d="M183.697 21.817h8.117v-1.352l-1.564-.743v-9.599c.583-.419 1.273-.562 2.016-.562 1.354 0 1.989.556 1.989 2.096v8.065l-1.564.743v1.352h8.117v-1.352l-1.618-.743v-9.179c0-2.732-1.247-3.954-3.715-3.954-2.015 0-3.979.717-5.305 1.937v-1.937h-.398l-6.154.982v1.3l1.698.769v10.082l-1.618.743v1.352zM160.748 7.519v1.353l1.672.768v10.055l-1.593.742v1.38h8.117v-1.38l-1.591-.742v-13.159h-.398zM153.844 19.023c-.358.295-.769.513-1.511.513-1.964 0-2.892-1.592-2.892-5.253 0-4.191 1.166-5.597 2.731-5.597.876 0 1.312.273 1.671.668v9.669zm0-11.77c-.61-.426-1.564-.665-2.387-.665-3.652 0-7.105 2.094-7.105 8.089 0 5.704 3.478 7.538 5.805 7.538 1.857 0 3.131-.822 3.741-1.619h.158v1.566h.426l5.862-.69v-1.081l-1.565-.875v-18.975h-.398l-6.181.982v1.354l1.645.742v3.634zM133.351 7.519v1.353l1.646.769v10.055l-1.566.742v1.38h8.543v-1.38l-2.044-.742v-7.876c.874-.687 1.964-.904 3.289-.904.426 0 .955.053 1.248.132v-4.325c-.16-.054-.477-.08-.742-.08-1.619 0-3.104 1.062-3.979 3.024v-3.131h-.425l-5.97.983zM122.752 8.69c.352-.156 1.072-.164 1.312-.164 1.909 0 2.467.956 2.467 2.839l-.004 1.677-2.828.531c-2.896.534-5.081 1.413-5.081 4.465 0 2.466 1.732 4.176 4.093 4.176 1.858 0 3.608-.795 4.272-2.121h.132c.239 1.592 1.618 2.096 3.156 2.096 1.194 0 2.348-.372 2.786-.869v-.855l-1.565-.743v-8.622c0-3.342-2.387-4.565-6.367-4.565-2.599 0-4.298.649-5.677 1.306v3.764h2.308l.996-2.915zm3.778 10.18c-.284.419-.822.64-1.353.64-.956 0-1.856-.532-1.856-2.176 0-1.174 1.061-2.255 2.221-2.433l.988-.187v4.156zM172.931 8.69c.35-.156 1.071-.164 1.311-.164 1.91 0 2.466.956 2.466 2.839l-.003 1.677-2.828.531c-2.896.534-5.081 1.413-5.081 4.465 0 2.466 1.732 4.176 4.094 4.176 1.856 0 3.606-.795 4.271-2.121h.133c.239 1.592 1.617 2.096 3.157 2.096 1.193 0 2.347-.372 2.786-.869v-.855l-1.566-.743v-8.622c0-3.342-2.388-4.565-6.366-4.565-2.601 0-4.3.649-5.677 1.306v3.764h2.307l.996-2.915zm3.776 10.18c-.282.419-.82.64-1.353.64-.954 0-1.856-.532-1.856-2.176 0-1.174 1.061-2.255 2.223-2.433l.986-.187v4.156zM103.374 17.493c0 2.574 1.274 4.723 4.272 4.723 1.99 0 3.74-.875 4.695-2.042v2.017h.398l6.022-.718v-1.08l-1.672-.876v-12.9h-.398l-6.181.981v1.354l1.644.769v8.91c-.549.365-.928.534-1.799.534-1.247 0-2.047-.371-2.047-2.069v-10.479h-.424l-6.181.981v1.354l1.671.769v7.772zM97.121 18.555h-5.306c-.584 0-1.061-.424-1.061-.956 0-.396.292-.822.663-1.086.796.238 1.46.292 2.44.292 3.821 0 6.447-1.726 6.447-4.961 0-1.459-.61-2.282-1.539-3.131l2.516.785.005-2.959-4.006.74c-.929-.345-2.228-.77-3.423-.77-3.819 0-6.472 1.964-6.472 5.174 0 1.962.982 3.422 2.467 4.245l.119.073c-.849.584-2.613 1.917-2.613 3.482 0 1.167.77 2.307 2.362 2.652v.004c-1.672.345-3.555 1.056-3.555 2.994 0 1.99 2.865 3.957 7.533 3.957 5.81 0 8.33-2.737 8.33-6.265 0-2.918-1.618-4.27-4.907-4.27m-3.264-10.294c1.088 0 1.833.758 1.833 3.422 0 2.731-.771 3.289-1.833 3.289-1.061 0-1.805-.558-1.805-3.289 0-2.798.744-3.422 1.805-3.422m-.025 18.572c-2.705 0-3.679-1.057-3.635-2.098.029-.715.382-1.642 1.653-1.723h4.218c1.22 0 1.991.846 1.991 1.616 0 1.539-1.149 2.205-4.227 2.205M86.442 14.84c0-6.235-2.766-8.279-6.606-8.279-4.429 0-7.321 2.893-7.321 7.803 0 5.041 2.626 7.85 7.72 7.85 2.732 0 4.886-1.438 5.576-2.393l.075-1.213c-1.036.318-2.096.504-3.98.504-2.706 0-4.327-1.383-4.324-4.272h8.86zm-6.685-6.606c1.22 0 1.883.887 1.883 4.59l-4.111.238c.056-3.781.874-4.828 2.228-4.828"/><path d="M56.42 21.817h8.117v-1.352l-1.564-.743-.003-9.577c.592-.408 1.269-.628 2.011-.628 1.354 0 2.022.854 1.997 2.14v8.065l-1.564.743v1.352h8.117v-1.352l-1.617-.743v-9.179c0-2.732-1.576-3.954-3.714-3.954-2.016 0-3.984.717-5.312 1.937h.006v-8.276h-.398l-6.153.982v1.299l1.697.769v16.423l-1.618.743v1.351zM47.533 17.758c0 2.731 1.298 4.457 4.242 4.457 1.539 0 3.18-.398 4.115-1.095v-1.828c-.389.125-1.062.244-1.592.244-1.432 0-1.83-.742-1.83-2.202v-7.826h3.236v-2.547h-3.236v-3.476l-4.935.691v2.785l-2.281.429v2.118h2.281v8.25z"/></g><path fill="#fff" d="M81.338 67.613c-.393-.031-.789-.197-1.179-.495l-.261-.194c-.747-.547-1.678-1.228-1.207-2.763.546-1.773 4.25-13.355 4.281-13.602-.431.726-6.667 6.003-11.692 8.94-.476.278-1.962 1.195-2.699 1.004-3.452-.89-2.265-4.34-1.304-5.138.066-.055.345-.216.657-.347 1.749-.737 6.655-3.297 11.89-8.161 3.496-3.248 8.839-10.151 9.232-11.025l.293-.645c.257-.548.857-1.833 2.142-1.73.251.019.516.095.787.224 1.608.759 2.277 2.054 1.75 3.378-.366.915-.861 1.773-1.339 2.603-.347.602-.706 1.222-1.001 1.847-1.081 2.273-2.148 4.664-3.269 7.308-.687 1.621-1.275 3.283-1.816 4.846-.097.277-.152.575-.201.89l.19-.215c.83-1.179 3.515-5.208 6.642-9.277 3.126-4.068 8.739-11.199 9.866-11.942 1.388-.914 3.17.65 3.628 1.565.465.929.562 1.926.263 2.732-1.417 3.829-2.852 7.652-4.287 11.474l-1.202 3.204-.563 1.468-.011.026c.281-.155.542-.307.724-.498 2.119-2.199 6.897-7.311 6.897-7.311 3.923-4.196 7.848-8.393 11.754-12.605.671-.722 1.34-1.046 2.043-.989.316.024.631.13.938.311.771.455 2.064 1.215 1.553 2.925-.183.614-4.747 15.699-4.982 16.397-.523 1.547-1.064 3.149-1.435 4.747-.133.58-.256 1.776.266 2.639 1.366-.36 7.308-4.118 7.308-4.118s-.168-.851-.044-2.729c.387-5.835 2.911-10.431 5.551-13.557 2.441-2.891 5.772-4.919 7.855-4.783 1.799.118 3.562 1.648 3.403 3.917-.124 1.794-.719 3.829-1.721 5.881-2.65 5.433-5.292 9.195-8.569 12.197-.457.418-.681.603-1.229 1.046 0 0 .244.587.967.645 1.542.123 2.902-.428 4.028-.983 3.816-1.882 7.291-4.798 10.621-8.916 1.705-2.106 2.958-3.901 3.945-5.643.84-1.486 1.538-3.104 2.212-4.668.295-.685.591-1.371.899-2.048.304-.671.871-1.919 2.165-1.817.267.022.552.103.846.243.855.401 1.436 1.006 1.681 1.748.252.758.124 1.606-.323 2.477-1.271 2.468-5.394 12.127-5.394 12.127-.168.512-.106.938.061.973.168.033 6.699-7.301 9.871-10.861 0 0 5.187-5.664 5.479-6.042.542-.705 1.927-1.743 3.261-.972 1.238.719 1.74 2.846 1.303 4.051-1.225 3.357-2.425 6.724-3.623 10.09l-1.124 3.267c.34-.342.66-.667.923-1.028 4.836-6.578 15.391-16.836 17.965-16.63 1.122.09 1.869 1.088 2.51 2.154.305.504.606 1.263-.05 2.242-1.245 1.86-4.795 11.335-5.059 12.071-.382 1.072-2.121 6.463-2.163 6.653-.04.168-.199.635-.181.851 0 0 8.757-6.824 11.703-10.366 5.178-6.225 13.175-26.018 13.54-26.711.745-1.417 2.141-2.292 3.598-2.138 1.586.166 1.983 1.205 2.029 2.158.16 3.308-11.185 23.216-11.076 23.407.456-.497 8.774-7.646 13.443-6.237 1.935.583 2.072 1.951 2.46 3.792.706 3.361-3.556 23.634-19.029 24.275-1.921.08-4.725-1.347-5.725-4.15-.029-.079-.438.302-.848.099-.846-.462-1.402-.979-1.618-1.522-.182-.45-.048-.954.16-1.797.275-1.113 4.193-5.598-.791-.92-4.176 3.921-8.411 6.761-9.087 7.234-.606.425-1.38.899-2.196.807-.785-.089-1.746-.584-2.308-1.284-.829-1.033-.42-2.406.304-4.005.555-1.219 1.374-4.711 1.569-5.301l1.166-3.5c.932-2.79 1.861-5.581 2.775-8.377.104-.327.337-1.07.19-1.141 0 0-4.417 4.858-5.89 6.511-.896 1.001-8.468 10.16-10.465 12.641-.519.643-1.146.939-1.863.883-.614-.049-1.182-.355-1.639-.601-1.238-.66-1.593-1.62-1.118-2.884.575-1.539.968-3.197 1.351-4.797.237-1.002.481-2.037.772-3.045.386-1.342.854-2.675 1.309-3.965.213-.608.427-1.218.635-1.829l.237-.746c-.191.292-12.74 14.977-14.641 16.645-.402.354-1.109.851-1.809.795-.384-.03-1.774-.769-2.737-1.767-.486-.502-.802-.941.257-2.842.207-.37.652-1.186.625-1.576-.007-.105-.02-.266-.1-.399-.152.055-4.52 4.902-10.399 7.392-1.514.64-2.982.946-4.377.816-3.327-.308-5.147-2.524-5.147-2.524s-7.297 5.167-11.865 5.973c-.943.166-2.157-.399-2.796-1.269-.639-.874-.021-4.15.526-6.522.857-3.711 3.019-10.271 3.443-11.446.482-1.337.966-2.675 1.431-4.018l-.022-.051c-.182.035-.426.084-.492.149-.688.687-7.127 7.807-7.127 7.807-2.542 2.787-5.083 5.573-7.617 8.366-1.361 1.497-2.49 2.767-3.577 4.096-.5.611-1.165 1.018-1.826.864-1.587-.37-2.65-2.032-2.534-2.972.26-2.083.709-4.322 1.418-7.05.539-2.074 2.75-9.021 2.976-9.617l.08-.211c-.113.044-.218.092-.245.132-1.291 1.824-11.645 16.688-14.205 20.283-.676.952-1.267 1.677-1.855 2.278-.533.541-1.104.795-1.695.748m56.294-27.826c-2.814 1.047-6.422 6.146-7.618 12.354 2.314-2.363 7.436-10.076 7.618-12.354m61.657 20.168c12.065-1.561 17.589-21.059 10.947-17.244-4.47 2.569-10.225 8.803-12.624 15.299-.407 1.101-.212 2.488 1.677 1.945M266.903 66.886c-2.136-.232-3.925-1.323-5.031-3.07-1.176-1.851-1.446-4.199-.726-6.278.508-1.475 2.021-2.486 3.845-3.271.854-.369 5.724-2.811 5.724-2.811s.657-1.506.89-2.14c.523-1.441 1.781-4.887 2.218-6.097 0 0-1.898 1.113-5.244 2.233-3.412 1.142-8.838 2.358-10.903 2.613-2.065.254-2.811.924-3.549 1.826-1.942 2.376-4.349 5.544-6.496 8.323-.578.745-1.413 1.781-2.672 1.682-.382-.031-1.697-.547-2.209-1.281-.41-.59-.565-1.097.09-2.552.301-.668 2.497-4.664 2.839-5.333-.02.025.071-.176-.007-.202-1.688 1.685-12.353 11.737-18.661 11.232-5.623-.449-6.322-7.32-6.322-7.32s-1.312.363-1.606.349c-.597-.031-1.324-.709-1.895-2.026-.367-.854-1.012-2.491-.206-2.667 2.396-.527 3.687-.914 3.687-.914.955-6.116 3.956-10.145 5.052-11.442 2.889-3.42 6.162-4.39 7.03-4.504 3.902-.515 5.586 1.993 5.646 4.255.088 3.388-1.425 6.177-2.689 8.022-3.791 5.526-9.871 7.436-9.871 7.436s-.082 3.168 1.997 3.334c4.527.362 16.401-10.037 20.905-15.627.916-1.136 5.808-7.363 6.159-7.761.302-.341.713-.397 1.515-.106.882.319 3.141 1.876 2.098 3.603-1.043 1.728-4.188 7.197-4.188 7.197.607-.532 1.368-.939 2.68-1.042 8.755-.706 16.397-3.822 19.049-7.392 1.342-1.809 3.469-3.694 5.406-2.181 1.811 1.41 2.09 3.269 1.49 4.432-.412.792-1.515 1.818-2.968 2.715l-3.133 8.652s15.203-7.732 17.717-8.744c.781-.315 2.491.097 3.44 1.429.576.804.484 1.62-.326 1.996-4.454 2.06-23.188 11.702-23.188 11.702s-2.915 7.767-4.218 9.999c-.824 1.413-2.553 1.798-3.29 1.739l-.079-.008zm1.566-8.905c-1.586.739-2.612 1.483-2.746 2.1-.074.345.183.987.631 1.299.689.481 1.755-2.153 2.115-3.399m-39.762-16.19c-1.441 2.467-2.163 5.151-2.185 5.428 4.4-2.394 7.44-6.094 7.012-9.326-.009-.053-.064-.073-.095-.068-.784.11-3.341 1.589-4.732 3.966"/></svg>