<svg xmlns="http://www.w3.org/2000/svg" width="300" height="90" viewBox="0 0 300 90"><g fill="#fff"><path d="M164.807.383c-1.459 0-2.627 1.167-2.627 2.626 0 1.433 1.168 2.599 2.627 2.599 1.432 0 2.626-1.167 2.626-2.599 0-1.459-1.195-2.626-2.626-2.626"/><path d="M183.697 21.817h8.117v-1.352l-1.564-.743v-9.599c.583-.419 1.273-.562 2.016-.562 1.354 0 1.989.556 1.989 2.096v8.065l-1.564.743v1.352h8.117v-1.352l-1.618-.743v-9.179c0-2.732-1.247-3.954-3.715-3.954-2.015 0-3.979.717-5.305 1.937v-1.937h-.398l-6.154.982v1.3l1.698.769v10.082l-1.618.743v1.352zM160.748 7.519v1.353l1.672.768v10.055l-1.593.742v1.38h8.117v-1.38l-1.591-.742v-13.159h-.398zM153.844 19.023c-.358.295-.769.513-1.511.513-1.964 0-2.892-1.592-2.892-5.253 0-4.191 1.166-5.597 2.731-5.597.876 0 1.312.273 1.671.668v9.669zm0-11.77c-.61-.426-1.564-.665-2.387-.665-3.652 0-7.106 2.094-7.106 8.089 0 5.704 3.478 7.538 5.805 7.538 1.857 0 3.131-.822 3.741-1.619h.158v1.566h.426l5.862-.69v-1.081l-1.565-.875v-18.975h-.398l-6.181.982v1.354l1.645.742v3.634zM133.351 7.519v1.353l1.646.769v10.055l-1.566.742v1.38h8.543v-1.38l-2.044-.742v-7.876c.874-.687 1.964-.904 3.289-.904.425 0 .956.053 1.248.132v-4.325c-.16-.054-.477-.08-.742-.08-1.618 0-3.103 1.062-3.979 3.024v-3.131h-.425l-5.97.983zM122.752 8.69c.352-.156 1.072-.164 1.312-.164 1.909 0 2.467.956 2.467 2.839l-.004 1.677-2.828.531c-2.896.534-5.081 1.413-5.081 4.465 0 2.466 1.732 4.176 4.093 4.176 1.858 0 3.608-.795 4.272-2.121h.132c.239 1.592 1.618 2.096 3.156 2.096 1.194 0 2.348-.372 2.786-.869v-.855l-1.565-.743v-8.622c0-3.342-2.387-4.565-6.367-4.565-2.599 0-4.298.649-5.677 1.306v3.764h2.308l.996-2.915zm3.778 10.18c-.284.419-.822.64-1.353.64-.956 0-1.856-.532-1.856-2.176 0-1.174 1.061-2.255 2.221-2.433l.988-.187v4.156zM172.931 8.69c.35-.156 1.071-.164 1.311-.164 1.91 0 2.466.956 2.466 2.839l-.003 1.677-2.828.531c-2.896.534-5.081 1.413-5.081 4.465 0 2.466 1.732 4.176 4.094 4.176 1.856 0 3.606-.795 4.271-2.121h.133c.239 1.592 1.617 2.096 3.157 2.096 1.193 0 2.347-.372 2.786-.869v-.855l-1.566-.743v-8.622c0-3.342-2.388-4.565-6.366-4.565-2.601 0-4.3.649-5.677 1.306v3.764h2.307l.996-2.915zm3.776 10.18c-.282.419-.82.64-1.353.64-.954 0-1.856-.532-1.856-2.176 0-1.174 1.061-2.255 2.223-2.433l.986-.187v4.156zM103.374 17.493c0 2.574 1.274 4.723 4.272 4.723 1.99 0 3.74-.875 4.695-2.042v2.017h.398l6.022-.718v-1.08l-1.672-.876v-12.9h-.398l-6.181.981v1.354l1.644.769v8.91c-.549.365-.928.534-1.799.534-1.247 0-2.047-.371-2.047-2.069v-10.479h-.424l-6.181.981v1.354l1.671.769v7.772zM97.121 18.555h-5.306c-.584 0-1.061-.424-1.061-.956 0-.396.292-.822.663-1.086.796.238 1.46.292 2.44.292 3.821 0 6.447-1.726 6.447-4.961 0-1.459-.61-2.282-1.539-3.131l2.516.785.005-2.959-4.006.74c-.929-.345-2.228-.77-3.423-.77-3.819 0-6.472 1.964-6.472 5.174 0 1.962.982 3.422 2.467 4.245l.119.073c-.849.584-2.613 1.917-2.613 3.482 0 1.167.77 2.307 2.362 2.652v.004c-1.672.345-3.555 1.056-3.555 2.994 0 1.99 2.865 3.957 7.533 3.957 5.81 0 8.33-2.737 8.33-6.265 0-2.918-1.618-4.27-4.907-4.27m-3.264-10.294c1.088 0 1.833.758 1.833 3.422 0 2.731-.771 3.289-1.833 3.289-1.061 0-1.805-.558-1.805-3.289 0-2.798.744-3.422 1.805-3.422m-.025 18.572c-2.705 0-3.679-1.057-3.635-2.098.029-.715.382-1.642 1.653-1.723h4.218c1.22 0 1.991.846 1.991 1.616 0 1.539-1.149 2.205-4.227 2.205M86.442 14.84c0-6.235-2.766-8.279-6.606-8.279-4.429 0-7.321 2.893-7.321 7.803 0 5.041 2.626 7.85 7.72 7.85 2.732 0 4.886-1.438 5.576-2.393l.075-1.213c-1.036.318-2.096.504-3.98.504-2.706 0-4.327-1.383-4.324-4.272h8.86zm-6.685-6.606c1.22 0 1.883.887 1.883 4.59l-4.111.238c.056-3.781.874-4.828 2.228-4.828"/><path d="M56.42 21.817h8.117v-1.352l-1.564-.743-.003-9.577c.592-.408 1.269-.628 2.011-.628 1.354 0 2.022.854 1.997 2.14v8.065l-1.564.743v1.352h8.117v-1.352l-1.617-.743v-9.179c0-2.732-1.576-3.954-3.714-3.954-2.016 0-3.984.717-5.312 1.937h.006v-8.276h-.398l-6.153.982v1.299l1.697.769v16.423l-1.618.743v1.351zM47.533 17.758c0 2.731 1.298 4.457 4.242 4.457 1.539 0 3.18-.398 4.115-1.095v-1.828c-.389.125-1.062.244-1.592.244-1.432 0-1.83-.742-1.83-2.202v-7.826h3.236v-2.547h-3.236v-3.476l-4.935.691v2.785l-2.281.429v2.118h2.281v8.25z"/></g><path fill="#fff" d="M103.05 36.541l.081-.281c.367-1.262.745-2.57 1.083-3.88.318-1.23.553-2.488.787-3.739l.18-.957c.085-.436-.089-.787-.216-1.038 0 0-.403-.23-.778-.354-.375-.125-.806-.1-.925-.051-.376.153-.845.346-1.182.778-.327.421-.467.892-.598 1.333l-.123.378-.543 1.451c-.354.945-.71 1.891-1.056 2.841-.256.709-.506 1.419-.757 2.131l-.033.093c-.39 1.107-.779 2.215-1.199 3.312-.385 1.008-.797 2.006-1.211 3.005-.339.818-.676 1.637-1 2.461-.254.645-1.627 4.057-2.168 5.214-.208.443-.39.899-.57 1.351l-.975 2.39c-.508 1.249-1.019 2.5-1.537 3.749-.145.351-.299.697-.453 1.044-.159.357-.318.714-.468 1.074-.252.612-2.2 5.369-2.525 6.189-.646 1.403-1.117 2.274-1.44 2.809-.286-.979-.497-2.396-.592-3.034-.168-1.134-.289-2.293-.405-3.413-.052-.506-.183-1.708-.184-1.708-.046-.7-.128-3.241-.09-4.637.036-1.224.1-2.449.164-3.679.041-.801.082-1.604.115-2.406.046-1.087.082-2.175.119-3.287l.08-2.288.066-1.507c.03-.671.062-1.342.082-2.014.028-.866.283-5.183.373-6.556.075-1.152.115-2.305.155-3.458l.022-.624.042-.798c.046-.782.094-1.587.001-2.417-.16-1.429-.924-2.205-2.135-2.452-.115-.023-.477-.06-.608-.06-.51 0-1.281.18-1.614.918-.351.776-.533 1.392-.718 2.283-.298 1.429-.566 2.921-.793 4.208-.257 1.465-.495 3.59-.518 3.875-.195.909-.493 1.969-.757 2.905-.259.917-.551 1.957-.754 2.877-.156.707-.586 2.946-1.091 5.583l-.118.611c-.181.948-.339 1.77-.435 2.258-.281 1.428-6.075 29.641-6.469 31.35-.149.65-.326 1.277-.508 1.922-.22.779-.447 1.586-.629 2.456-.05.236-.041.601.283 1 .286.351 1.069 1.012 1.998 1.012.209 0 .413-.034.605-.101l.476-.169.084-.275c.348-.327 1.224-1.169.837-2.324-.032-.159-.054-1.069 1.053-6.133l.108-.502c.159-.751 1.17-5.649 2.286-11.061l.393-1.911c1.303-6.325 2.652-12.864 2.842-13.744.146-.672.279-1.344.412-2.019l.017-.086c.143-.726.287-1.45.447-2.171.144-.646.292-1.291.446-1.935l.03 1.534c.063 3.325.123 6.467.159 6.953.042.579.052 2.191.06 3.645.008 1.262.013 2.352.041 2.796.11 1.787.302 3.684.569 5.636.187 1.353.506 2.674.792 3.788.256.992.581 1.991.868 2.873l.239.744c.167.523.67.83 1.068.893.184.029.365.044.542.044 1.078 0 2.039-.526 2.637-1.445.761-1.17 2.801-5.215 3.162-6.143.241-.618.467-1.241.694-1.863l.351-.96.355-.941c.253-.666.505-1.332.735-2.003l.037-.103c1.199-3.485 2.159-6.208 2.632-7.469.158-.42.309-.842.48-1.328.187-.527.374-1.055.58-1.577l.159-.402c-.266 1.469-.96 5.259-.96 5.259-.396 2.164-.746 4.072-.837 4.602-.13.75-.288 1.506-.448 2.27-.146.71-.293 1.418-.42 2.122l-.027.151c-.305 1.743-.522 2.908-.645 3.462-.308 1.39-.916 5.792-1.012 6.628-.227 1.954-.408 3.897-.543 5.776-.098 1.381-.159 2.765-.219 4.147l-.088 1.884c-.087 1.486-.106 2.266.028 2.682.188.585.519 1.169.956 1.691.143.171.411.375.864.375.508 0 1.912-.323 2.444-.599.626-.314.95-.786.963-1.398.009-.345-.114-.677-.231-.998-.083-.229-.198-.545-.193-.752l-.018-.321-.075-.32-.027-.014-.043-.301-.044-.385c-.071-.663-.158-1.49-1.082-1.505l-.178-.008.016-.255c.126-1.25.152-2.511.175-3.759.013-.689.027-1.379.059-2.067.059-1.26.147-2.284.275-3.219.128-.93.283-1.852.441-2.777l.02-.128c.112-.663.223-1.325.324-1.988.145-.96.942-5.265 1.22-6.416l.139-.57c.137-.551.293-1.174.397-1.798.127-.741.851-4.176 1.09-5.306l.185-.882c.132-.628.397-1.967.7-3.491l.108-.543c.483-2.425 1.029-5.172 1.245-6.164.137-.62.244-1.187.351-1.767.191-1.019.389-2.071.775-3.466.218-.782.441-1.553.663-2.316M150.203 72.271l-.639-.108c-.247-.037-.494-.074-.734-.138l-.014-1.119-.018-1.154c-.076-1.972-.139-3.752-.146-5.548-.009-1.897.02-3.746.09-5.492.052-1.33.158-2.769.324-4.397.042-.411.098-1.75.156-3.204.035-.857.066-1.618.084-1.877.048-.689.36-4.256.471-5.449l.106-1.15c.146-1.565.292-3.13.4-4.698.065-.917.089-1.744.11-2.576.02-.731.04-1.465.09-2.274.069-1.102-.248-1.556-1.291-1.859l-.159-.05c-.222-.073-.497-.164-.788-.164-.515 0-.941.286-1.112.745-.495 1.325-1.036 3.072-1.499 4.606-.334 1.114-.661 2.231-1 3.39-.344 1.173-.688 2.346-1.04 3.517-.285.937-.583 1.87-.883 2.802l-.052.159c-.169.521-.337 1.042-.5 1.562-.054.167-.625 1.748-1.044 2.903l-.809 2.238.029-.533c.027-.504.053-1.01.112-1.511.12-1.028.263-2.054.405-3.079.115-.832.231-1.662.335-2.494.112-.904.214-1.811.316-2.727.108-.964.216-1.929.339-2.891.118-.926.275-1.858.428-2.759l.108-.646c.11-.662.151-1.371.195-2.125.045-.777.092-1.58.22-2.32l.048-.282-.114-.26c-.199-.452-.662-.78-1.383-.978-.259-.067-.499-.102-.712-.102-.771 0-1.103.452-1.21.647-.39.705-.548 1.428-.695 2.097-.064.293-.13.59-.221.89-.274.907-.497 1.831-.713 2.725-.151.622-.303 1.246-.469 1.861l-.035.128c-1.492 5.476-4.99 18.373-5.248 19.84-.117.667-3.834 15.845-4.076 16.771-.146.566-.539 1.388-.808 1.691l-.163.183-.052.239c-.162.725.41 1.184.962 1.625l.339.279s.408.347.85.391c.382.038.677-.17.677-.17.664-.689.813-.896.875-1.014l.281-.507c.26-.46.53-.937.71-1.483.161-.485.237-.98.304-1.417.045-.292.089-.583.16-.864.252-1.005.515-2.01.779-3.01l.04-.153c.221-.835.438-1.669.654-2.504.083-.327.151-.657.226-1.03.06-.297.119-.594.194-.887l.3-1.279c.14-.608.292-1.26.369-1.57.104-.424.229-.843.357-1.273.157-.527.321-1.074.447-1.637 0 0 .427-1.901.539-2.413-.071 1.134-.141 2.267-.186 3.4-.029.715-.009 1.447.008 2.09l.021.989.006 1.115c.006.931.009 1.862.046 2.794.018.453.452 1.649 1.389 1.649l.054-.001.312-.074c.692-.157 1.553-.351 1.801-1.126.569-1.75 2.269-7.257 2.515-8.082.221-.734 1.394-5.205 2.253-8.475.42-1.603.762-2.906.869-3.305.142-.527.548-1.66.962-2.799-.027 1.208-.078 2.697-.121 3.357l-.076 1.105c-.072 1.058-.145 2.116-.186 3.175-.043 1.063-.068 2.126-.096 3.189l-.005.184c-.022.874-.044 1.747-.075 2.62-.034.909-.086 1.818-.136 2.727l-.098 1.848-.06 1.115c-.059 1.087-.121 2.21-.119 3.34 0 1.082.056 2.164.107 3.21l.01.186.059 1.318c.023.567.039 1.135.056 1.703l.017.573c.03.996 1.262 1.97 2.16 1.97.27 0 .521-.078.725-.223l.192-.135c.44-.307.987-.687 1.32-1.254.395-.675.683-1.388.968-2.086l.281-.684c.181-.425.012-.827-.069-.979-.152-.294-.401-.487-.706-.548M178.182 63.724c.313-.703.531-1.485.628-2.263.093-.758.048-1.544-.131-2.211-.387-1.458-1.353-2.607-2.979-3.528l-.398-.195c-1.308-.639-2.171-1.062-4.184-1.324-.586-.078-1.119-.115-1.674-.115-.49 0-1.012.028-1.641.091-.815.081-1.899.391-2.548.655-.753.308-1.461.695-2.201 1.102l-.694.375-1.08.579.453-.632c.241-.338 2.118-2.463 3.359-3.871l.104-.119c.993-1.126 1.778-2.016 1.983-2.273l.163-.204c4.805-6.008 7.373-9.349 7.851-10.212.212-.384.424-.733.653-1.117.442-.731.857-1.423 1.238-2.322.347-.819.5-1.681.432-2.424-.146-1.613-.971-2.844-2.384-3.559-.784-.399-2.049-.853-3.246-.931l-.533-.016c-.933 0-1.847.144-2.73.283l-.438.068c-.461.071-1.075.218-1.733.412.127-.537.171-.881.15-1.135-.055-.707-.432-1.373-.938-1.658-.179-.1-.377-.149-.609-.149-.52 0-1.265.278-1.608.489-.332.234-.534.377-1.138 4.278-.447.256-1.104.648-1.586.995-3.167 2.305-3.793 3.769-4.174 4.667l-.123.27c-.169.311-.199.672-.087 1.019.124.383.426.721.809.906.189.09.684.303 1.174.303.724 0 1.024-.448 1.12-.639l.137-.276c.221-.445.451-.906.731-1.211.202-.218.549-.539.998-.893-.129.706-.328 1.771-.418 2.168-.066.28-.792 3.581-2.22 10.09l-.447 2.04c-.161.735-.356 1.461-.553 2.188-.119.443-.236.887-.348 1.33-.079.308-.147.619-.216.928l-.029.132c-.076.338-.153.676-.24 1.011-.058.222-.129.44-.201.659-.101.309-.201.617-.279.951-.11.525-.198.708-.271.854-.146.293-.254.565-.225 1.138.007.61.112 1.408.29 2.2-.096.945-.499 3.882-.892 6.728l-.026.2c-.504 3.66-.98 7.119-1.026 7.894-.045.685.213 1.282.688 1.595.548.361 1.065.546 1.534.546.693 0 1.493-.429 1.669-1.631.218-1.486.388-3.064.506-4.69.111-1.512.654-8.232.858-10.607l.193-.089c.521-.239 1.014-.514 1.498-.786.316-.177.632-.354.954-.517 1.383-.701 2.771-1.394 4.17-2.062 1.197-.574 2.342-.864 3.403-.864l.487.021c1.515.137 2.13.318 3.29.97 1.251.702 1.544 1.358 1.117 2.515-1.772 5.137-5.689 9.354-7.292 10.93-1.28 1.257-2.772 2.523-4.695 3.986-1.32 1.004-2.729 1.956-4.112 2.893-.604.407-1.206.815-1.806 1.228l-.097.052c-.218.113-.581.301-.765.72-.395.895-.724 1.785-.995 2.539-.158.442.019.825.125 1.056 0 0 .167.677.454.677l.804-.096.114-.04c.162-.055.404-.137.63-.312l1.217-.928c1.909-1.446 5.105-3.867 7.86-6.209.984-.876 1.956-1.765 2.975-2.694l.303-.276.604-.573c.204-.199.41-.397.621-.588.545-.492 2.525-2.697 3.067-3.368.452-.566 2.625-3.607 3.222-4.631l.296-.503c.374-.636.761-1.288 1.078-1.99m-4.788-29.784l.063.089c-.102 1.092-.522 1.973-1.164 3.032-2.746 4.351-5.839 8.34-7.005 9.843l-.192.25c-.937 1.213-2.688 3.406-3.729 4.675l.565-2.68c.154-.735.311-1.471.475-2.204.171-.75.347-1.496.524-2.246l.386-1.634c.308-1.329.604-2.661.905-3.996.09-.398.178-.812.266-1.231l.039-.181c.193-.917.394-1.864.626-2.743.419-.176 1.041-.433 1.322-.537.396-.148 2.184-.728 3.665-.874.245-.024.488-.037.737-.037.881.001 1.727.161 2.517.474M208.547 33.222l.128-.055c.778-.264 1.346-1.229 1.37-1.929.027-.796-.21-1.478-.687-1.971-.443-.457-1.038-.698-1.725-.698-.215 0-.438.024-.661.073l-.754.155c-1.371.278-3.251.66-6.603 1.732-.835.287-3.273 1.262-4.187 1.674-.213.084-.712.32-1.196.554l.024-.078c.115-.363.147-.479.195-1.004.059-.649-.378-1.209-.754-1.566-.141-.133-.393-.292-.793-.292-.103 0-1.024.02-1.317.731-.157.379-.283.77-.407 1.16-.09.277-.178.551-.278.821-.282.743-.865 2.055-1.112 2.609-2.211 1.339-4.117 2.62-5.668 3.808-.595.456-.987 2.109-.921 2.786l.025.119.021.058c.185.5.619.799 1.163.799.373 0 .901-.114 2.247-.948l.793-.519.81-.528-.248.939c-.328 1.244-.657 2.488-.969 3.736-.557 2.224-2.021 7.891-2.218 8.566-.083.283-.155.571-.243.911-.073.29-.148.581-.233.866-.057.182-.168.388-.295.618l-.246.367c-.241.341-.544.768-.629 1.306-.072.467-.037.92-.004 1.32.028.353.055.687-.002.936-.206.895-.493 1.808-.782 2.723-.195.619-.389 1.239-.563 1.863-.16.574-.466 1.765-.759 2.913l-.042.162c-.288 1.125-.558 2.18-.658 2.508-.174.583-.817 3.343-1.226 5.108l-.038.012c-.771.26-1.345.469-1.707.8-.594.539-.587 1.388-.581 2.082.054 1.718.989 1.904 1.389 1.904.175 0 .313-.035.378-.051l.727-.183c.838-.208 1.705-.424 2.56-.702 1.012-.331 5.924-2.085 7.384-2.767 1.838-.856 3.668-1.786 5.437-2.684.95-.484 1.902-.967 2.857-1.441.846-.421 1.69-.803 2.511-1.134.339-.137.688-.25 1.072-.374.376-.121.75-.241 1.117-.386l.459-.165c.411-.143.835-.292 1.313-.599.576-.374.912-.991.854-1.574-.052-.528-.396-.956-.961-1.178-.376-.132-.849-.268-1.499-.268-.269 0-.556.022-.877.068-.943.135-2.271.544-3.781 1.028-.62.197-3.437 1.416-4.254 1.802-.64.304-1.271.625-1.899.949-.677.348-1.354.695-2.042 1.015-1.219.564-2.442 1.067-3.907 1.649-.4.16-1.406.517-2.264.812.154-1.129.354-2.435.517-3.171l.267-1.316c.277-1.392.855-4.286.984-4.704.131-.417.352-1.277.609-2.294.206-.808.438-1.723.527-1.989.045-.135.078-.291.109-.448l.016-.08c.811-.484 1.666-.94 2.502-1.387l.752-.401.513-.261c.302-.149.604-.3.892-.474.856-.519 4.487-2.646 5.335-3.041l.817-.374c2.969-1.355 3.802-1.737 4.073-1.888l.001.001c1.601-.748 2.354-1.253 2.309-2.125-.131-1.098-.347-2.935-1.648-2.935-.15 0-.305.029-.388.067-.335.113-1.629.653-1.947.808-.686.336-5.986 3.055-6.806 3.533l-1.002.576c-.685.388-1.37.779-2.036 1.199-.417.262-1.483.779-1.947 1.005l-.077.037c.259-1.012.523-2.024.801-3.031l.354-1.283c.381-1.383.952-3.451 1.202-4.345.572-2.045 1.124-3.881 1.688-5.614.226-.686.46-1.422.613-1.898 2.074-1.07 4.017-1.977 5.933-2.767 1.947-.803 3.877-1.583 4.813-1.845 1.004-.28 2.046-.524 3.095-.769l.084-.021c.293.367.701.572 1.165.572.412-.001.759-.158 1.036-.285M253.118 59.585c-.584-1.061-1.54-2.653-2.776-4.21-1.122-1.414-3.299-3.949-3.572-4.238l-1.086-1.132c-1.414-1.47-3.78-3.929-4.364-4.672-1.113-1.421-1.455-2.45-1.407-4.196.172-1.478.887-2.895 1.29-3.596 1.755-2.834 3.373-4.577 5.414-5.83 1.063-.654 1.932-1.058 2.55-1.302.229.284.6.514 1.117.514l.312-.027c.512-.085 1.215-.407 1.555-.909.627-.928.446-1.786.26-2.35-.467-1.392-1.443-2.191-2.685-2.191-.45 0-.925.106-1.412.317-1.063.46-2.11 1.038-3.115 1.721-.773.527-2.296 1.625-3.093 2.398-.789.761-1.651 1.627-2.765 3.066-1.986 2.534-3.062 5.367-3.197 8.418-.21 4.786 2.761 7.799 4.216 9.274l.454.475c.461.527.943 1.037 1.459 1.577.441.467.885.932 1.317 1.424 2.555 2.832 4.727 5.542 5.669 7.078.329.53.602 1.159.708 1.642.193.862.188 1.724.161 2.845-.024.942-.818 3.255-2.85 5.459-.534.582-1.332 1.093-1.852 1.355-1.128.567-2.503 1.078-3.221 1.331-1.642.579-4.225 1.358-5.023 1.516-.777.152-1.252.23-1.68.23l-1.757-.039.676 1.195-.049.148c-.2.604-.537 1.617.138 2.403.349.404.887.459 1.367.459 1.277 0 3.663-.479 4.469-.738l.248-.08c1.783-.568 6.522-2.075 9.451-4.748.798-.728 1.142-1.159 1.546-1.666l.28-.351c1.174-1.438 2.008-3.198 2.485-5.273.455-3.364-.168-5.351-1.238-7.297"/><path fill="#fff" d="M110.05 54.313c.61-2.246 1.242-4.566 1.569-5.996l.003-.017.082-.33.036-.15.36-1.445.472-1.834c.362-1.405.792-3.074 1.067-4.115l.277-.163.739-.374c.499-.257 1.015-.522 1.528-.732 1.285-.525 2.446-.99 3.647-1.351 1.178-.354 2.404-.664 3.607-.968l1.595-.407.666-.174c.667-.172 1.334-.347 1.999-.527l.474-.126c.644-.173 1.375-.367 2.075-.609l.352-.101c.65-.177 1.059-.302 1.257-.558l.112-.144-.015-.182c-.042-.563-.078-.974-.111-1.282l.141-.178-.173-.099c-.076-.572-.146-.625-.274-.715-.275-.195-.651-.462-1.16-.462-.702.002-1.47.082-2.416.25-.89.157-1.774.351-2.657.545l-.698.152c-.18.04-.359.092-.548.149l-.348.096-.781.161c-.581.113-1.182.23-1.778.447-.448.164-1.494.465-2.257.686-.726.209-1.119.325-1.255.377-.361.139-.659.234-.987.34-.473.152-.992.318-1.776.642.208-1.023.58-2.905.764-3.913.055-.3-.022-.604-.241-.86l-.322-.325h-.418c-.263 0-.538.099-.858.324l-.076.067-.034.037c-.191.207-.307.333-1.749 6.173-.761.521-2.156 1.548-3.307 2.555-1.432 1.25-1.983 2.009-2.469 2.68-.489.676-.808 1.263-.768 1.99l.222.854c.056.22.172.677.619.921.234.128.481.155.647.155.188 0 .662-.038.999-.388.248-.257.483-.53.727-.814.29-.337.59-.686.905-.984.249-.233.51-.462.777-.686-.141.534-.289 1.065-.438 1.597l-.034.123c-.205.73-.409 1.461-.598 2.196-.139.54-.268 1.078-.388 1.61-.276.904-.701 2.542-1.054 3.938-.142.561-.294 1.108-.457 1.691-.202.728-.404 1.453-.581 2.202-.127.541-.265 1.079-.405 1.615l-.208.779c-.103.375-.204.752-.299 1.129-.096.386-.229.83-.317 1.123l-.24.147c-.759.467-1.907 1.173-3.041 2.206-.594.584-.955 1.048-1.098 1.417-.221.564-.022 1.119.121 1.521l.068.197c.193.622.873.788 1.241.788l.327-.022.214-.134c.318-.198.631-.405.943-.614-.292 1.283-.695 3.15-1.29 5.904l-.184.167.125.098c-.161.688-.705 2.888-.96 3.886-.064.256-.352 1.582-.376 1.846-.028.299-.094.646-.169 1.049-.15.802-.306 1.632-.227 2.352.102.925 1.055 1.673 2.458 2.512l.14.081c.202.101.417.151.64.151h.001c.353 0 .647-.124.961-.256l.413-.167c1.35-.498 9.377-3.914 14.206-5.97 1.908-.811 3.313-1.41 3.567-1.515.966-.35 1.541-1.651 1.322-3.107l-.049-.151-.039-.071c-.121-.229-.431-.611-1.137-.611-.699 0-2.234.354-8.332 2.99-1.427.617-2.73 1.147-3.834 1.598-1.473.599-2.536 1.032-3.154 1.365-.665.357-2.645 1.188-3.752 1.646-.105-.979-.072-2.626.067-3.059.148-.463.313-1.208.424-1.711l.084-.375.059-.375c.454-1.549 1.371-5.737 1.947-8.507l.14-.494.38-1.309c.598-.262 1.171-.542 1.753-.83.844-.417 1.699-.81 2.625-1.236.883-.406 1.767-.812 2.65-1.25 5.821-2.979 8.563-5.001 8.678-5.086l.127-.094c1.022-.759 1.761-1.307 1.723-2.801l-.002-.079-.033-.213c-.067-.516-.159-1.222-.873-1.462-.242-.085-.5-.167-.769-.167-.198 0-.38.045-.541.135-.5.275-.594.744-.636.949l-.026.105c-1.646 1.168-4.849 2.905-7.259 4.163-.345.179-3.198 1.426-4.579 2.028l-.977.432c-.103.035-.337.137-.603.258.329-1.303.806-3.062 1.271-4.775l.042-.145zM218.668 56.569l.226-.305c.115-.159.38-.468.753-.905l.073-.086c1.136-1.334 3.035-3.567 5.093-6.378 3.118-4.266 5.478-7.707 5.981-8.551l.233-.396c.655-1.099 1.023-1.717 1.724-2.957 1.188-2.105 1.49-5.286-.285-7.037-.807-.794-1.963-1.199-2.79-1.398-.678-.164-1.694-.38-2.707-.38-.322 0-.636.022-.929.064-2.026.296-4.189 1.221-5.264 2.251-.927.889-1.931 2.3-2.497 3.512-.373.798-1.171 3.661-2.026 6.78l-.029.113c-.23.832-.4 1.458-.461 1.646-.275.845-.94 3.051-1.496 4.895l-.029.097c-.385 1.273-.708 2.355-.806 2.655-.251.768-1.234 4.35-2.103 7.511-.747 2.724-1.454 5.296-1.643 5.903-.158.515-.346 1.022-.536 1.528l-.354.909-.038.094c-.241.611-.481 1.223-.693 1.842-.125.362-.209.939-.299 1.528l-.081.541c-.247.357-.349.743-.294 1.123.067.47.361.873.871 1.2l.179.138c.265.219.665.547 1.276.547.365 0 .726-.12 1.102-.365.835-.546 1.037-1.37 1.241-2.202.054-.218.113-.457.188-.715.304-1.022.626-2.651.912-4.098.121-.618.233-1.188.329-1.632l.032-.145c.209.263.456.511.73.701 1.33.92 3.921 2.417 6.936 4.004.435.228 3.696 1.782 4.703 2.178l.486.196c1.263.508 2.99 1.203 4.396 1.203l.377-.017c.506-.049 1.007-.426 1.937-1.251l.137-.12c.323-.283.497-.663.49-1.069-.005-.378-.176-.741-.457-.973-.525-.428-2.384-1.23-6.63-2.866l-.255-.097c-.709-.273-4.541-1.959-5.712-2.58-1.407-.746-2.93-1.701-3.396-2.024l-.144-.1c-.184-.125-.654-.447-.759-.612.21-.668.589-1.34.968-1.968.395-.649.868-1.293 1.34-1.932m10.558-23.433c.213 1.176-.224 2.15-.437 2.623l-.087.199c-.295.724-1.44 2.956-1.869 3.764-.193.364-2.338 3.604-3.286 5.036l-.511.774c-.072.106-.76 1.025-1.425 1.913-1.756 2.34-4.666 6.22-6.251 8.492l.227-.806c.252-.874.524-1.743.798-2.614l.194-.624.287-.866c.445-1.337 1.292-3.886 1.78-5.393.112-.339.479-1.622.837-2.871.327-1.135.646-2.242.745-2.554.188-.593.368-1.188.542-1.769.417-1.388.847-2.82 1.197-3.306 1.766-2.446 3.617-2.959 4.856-2.959.7 0 1.199.157 1.38.224.699.26.994.583 1.023.737"/></svg>