<svg xmlns="http://www.w3.org/2000/svg" width="300" height="90" viewBox="0 0 300 90"><g fill="#fff"><path d="M164.807.383c-1.459 0-2.627 1.168-2.627 2.627 0 1.433 1.168 2.6 2.627 2.6 1.432 0 2.626-1.167 2.626-2.6 0-1.459-1.195-2.627-2.626-2.627"/><path d="M183.697 21.816h8.117v-1.352l-1.564-.742v-9.6c.583-.419 1.273-.562 2.016-.562 1.354 0 1.989.556 1.989 2.096v8.065l-1.564.742v1.352h8.117v-1.352l-1.618-.742v-9.18c0-2.732-1.247-3.953-3.715-3.953-2.015 0-3.979.717-5.305 1.936v-1.934h-.398l-6.154.981v1.3l1.698.77v10.082l-1.618.742v1.351zM160.748 7.52v1.351l1.672.77v10.054l-1.593.743v1.378h8.117v-1.378l-1.591-.743v-13.159h-.398zM153.844 19.023c-.358.295-.769.513-1.511.513-1.964 0-2.892-1.592-2.892-5.253 0-4.191 1.166-5.598 2.731-5.598.876 0 1.312.273 1.671.668v9.67zm0-11.769c-.61-.426-1.564-.666-2.387-.666-3.652 0-7.105 2.094-7.105 8.09 0 5.703 3.478 7.537 5.805 7.537 1.857 0 3.131-.822 3.741-1.618h.158v1.565h.426l5.862-.689v-1.081l-1.565-.874v-18.977h-.398l-6.181.982v1.354l1.645.742v3.635zM133.351 7.52v1.352l1.646.77v10.055l-1.566.742v1.379h8.543v-1.379l-2.044-.742v-7.877c.874-.687 1.964-.904 3.289-.904.426 0 .955.053 1.248.132v-4.325c-.16-.053-.477-.08-.742-.08-1.619 0-3.104 1.062-3.979 3.025v-3.132h-.425l-5.97.984zM122.752 8.689c.352-.156 1.072-.164 1.312-.164 1.909 0 2.467.956 2.467 2.84l-.004 1.677-2.828.531c-2.896.534-5.081 1.413-5.081 4.465 0 2.466 1.732 4.176 4.093 4.176 1.858 0 3.608-.795 4.272-2.121h.132c.239 1.593 1.618 2.097 3.156 2.097 1.194 0 2.348-.373 2.786-.869v-.855l-1.565-.742v-8.624c0-3.342-2.387-4.564-6.367-4.564-2.599 0-4.298.648-5.677 1.305v3.764h2.308l.996-2.916zm3.778 10.181c-.284.419-.822.64-1.353.64-.956 0-1.856-.531-1.856-2.176 0-1.174 1.061-2.254 2.221-2.432l.988-.188v4.156zM172.931 8.689c.35-.156 1.071-.164 1.311-.164 1.91 0 2.466.956 2.466 2.84l-.003 1.677-2.828.531c-2.896.534-5.081 1.413-5.081 4.465 0 2.466 1.732 4.176 4.094 4.176 1.856 0 3.606-.795 4.271-2.121h.133c.239 1.593 1.617 2.097 3.157 2.097 1.193 0 2.347-.373 2.786-.869v-.855l-1.566-.742v-8.624c0-3.342-2.388-4.564-6.366-4.564-2.601 0-4.3.648-5.677 1.305v3.764h2.307l.996-2.916zm3.776 10.181c-.282.419-.82.64-1.353.64-.954 0-1.856-.531-1.856-2.176 0-1.174 1.061-2.254 2.223-2.432l.986-.188v4.156zM103.374 17.492c0 2.574 1.274 4.723 4.272 4.723 1.99 0 3.74-.875 4.695-2.042v2.017h.398l6.022-.718v-1.08l-1.672-.876v-12.899h-.398l-6.181.98v1.354l1.644.769v8.91c-.549.364-.928.534-1.799.534-1.247 0-2.047-.371-2.047-2.069v-10.478h-.424l-6.181.98v1.354l1.671.769v7.772zM97.121 18.555h-5.306c-.584 0-1.061-.424-1.061-.956 0-.396.292-.822.663-1.087.796.238 1.46.293 2.44.293 3.821 0 6.447-1.727 6.447-4.961 0-1.46-.61-2.282-1.539-3.132l2.516.784.005-2.959-4.006.742c-.929-.346-2.228-.77-3.423-.77-3.819 0-6.472 1.964-6.472 5.174 0 1.963.982 3.422 2.467 4.244l.119.073c-.849.584-2.613 1.917-2.613 3.481 0 1.168.77 2.307 2.362 2.652v.005c-1.672.345-3.555 1.056-3.555 2.993 0 1.99 2.865 3.957 7.533 3.957 5.81 0 8.33-2.736 8.33-6.265 0-2.917-1.618-4.268-4.907-4.268m-3.264-10.293c1.088 0 1.833.758 1.833 3.422 0 2.731-.771 3.289-1.833 3.289-1.061 0-1.805-.558-1.805-3.289 0-2.799.744-3.422 1.805-3.422m-.025 18.572c-2.705 0-3.679-1.058-3.635-2.099.029-.715.382-1.642 1.653-1.724h4.218c1.22 0 1.991.847 1.991 1.617 0 1.538-1.149 2.206-4.227 2.206M86.442 14.84c0-6.234-2.766-8.279-6.606-8.279-4.429 0-7.321 2.894-7.321 7.803 0 5.041 2.626 7.851 7.72 7.851 2.732 0 4.886-1.438 5.576-2.393l.075-1.214c-1.036.318-2.096.505-3.98.505-2.706 0-4.327-1.384-4.324-4.272h8.86zm-6.685-6.606c1.22 0 1.883.887 1.883 4.59l-4.111.238c.056-3.781.874-4.828 2.228-4.828"/><path d="M56.42 21.816h8.117v-1.352l-1.564-.742-.003-9.578c.592-.408 1.269-.627 2.011-.627 1.354 0 2.022.854 1.997 2.14v8.065l-1.564.742v1.352h8.117v-1.352l-1.617-.742v-9.18c0-2.732-1.576-3.953-3.714-3.953-2.016 0-3.984.717-5.312 1.936h.006v-8.275h-.398l-6.153.982v1.299l1.697.768v16.424l-1.618.742v1.351zM47.533 17.758c0 2.732 1.298 4.457 4.242 4.457 1.539 0 3.18-.398 4.115-1.095v-1.827c-.389.125-1.062.243-1.592.243-1.432 0-1.83-.742-1.83-2.202v-7.826h3.236v-2.547h-3.236v-3.476l-4.935.69v2.785l-2.281.43v2.117h2.281v8.251z"/></g><path fill="#fff" d="M148.899 61.312c1.946-5.699 3.88-11.416 5.482-17.218.725-2.63 2.488-1.792 3.981-1.786 1.592.008 2.835.759 2.771 2.655-.1 3.059-.298 6.118-.309 9.177-.3 18.895 4.351 6.092 10.277-10.93 1.035-3.27 2.355-4.679 4.461-4.34 1.896.308 3.224 2.4 3.023 5.475-.373 5.737.467 11.275 2.625 16.551.722 1.766 2.025 3.381 3.368 4.809 2.407 2.556-.115 3.396-1.521 3.567-7.266.882-7.554-9.694-9.451-11.559-1.547 2.908-2.759 5.07-3.907 7.256-5.471 10.411-11.768 4.732-13.25 1.218-.789-1.87-1.399-2.164-2.396-.229-1.214 2.359-2.518 4.674-3.873 6.953-1.662 2.799-6.466 2.578-8.331-.505-1.005-1.66-1.504-3.628-2.206-5.466-.27-.708-.465-1.442-1.011-2.271-3.308 5.375-15.785 11.851-24.598 6.194-7.94-5.095-5.979-26.113 5.428-36.088 13.066-12.015 19.375.317 12.761 10.537-4.034 6.268-9.223 11.495-14.84 16.367-.808.701-1.1 3.05-.475 4.151 2.175 3.828 10.946 1.936 16.688-5.163 3.451-4.266 4.628-8.781 4.503-14.004-.039-1.624-.949-3.969 2.142-4.116 2.667-.128 4.725 1.389 4.811 4.109.099 3.197-.933 11.851.441 18.604.712 1.395 2.88-2.406 3.406-3.948m-21.416-24.549c-1.361-1.218-7.904 6.971-9.588 12.532-.148.406-.012 2.15 1.649.914 4.095-3.045 11.063-9.603 7.939-13.446M91.82 71.717c-1.032 1.766-1.611 2.949-3.309 2.753-2.03-.233-3.903-1.252-4.32-3.28-.858-4.171-1.348-8.421-1.926-12.646-.333-2.434-.542-4.884-1.328-7.331-2.316 8.582-4.179 26.102-7.842 25.605-4.732-.532-5.626-1.362-5.574-6.923.063-6.723-.001-22.662 1.262-29.254.343-1.781 3.49-3.878 7.511.372.994-3.442 2.062-7.385 2.538-10.074.449-2.557 2.171-2.552 4.118-2.543 2 .009 3.121 1.23 3.268 2.892 1.406 15.939 1.641 24.71 3.422 26.232.682-2.12 1.392-3.967 1.953-6.119 1.093-4.201 2.014-8.446 3.106-12.647.5-1.916.931-3.974 1.984-5.576.623-.944 2.631-1.807 3.61-1.482 1.266.418 3.469 1.993 3.019 3.199-2.273 6.084.383 30.915.383 37.184 0 2.562-6.071 1.986-6.384-2.958-.186-2.947-.007-5.906-.007-8.858-1.327-1.715-3.156 6.962-5.484 11.454M276.437 62.459c-1.688-3.158-3.506-6.259-5.454-9.266-5.119-7.903-5.426-10.664-1.604-17.047 1.087-1.813.84-2.982-.365-4.247-1.349-1.417-3.694-1.726-4.986-.611-10.535 8.468-13.194 16.301-16.585 19.577-.127-1.54-.254-2.396-.242-3.235.066-5.13-6.032-2.547-6.482-1.58-1.494 3.212-2.36 6.719-3.433 10.123-1.682 5.333-4.404 9.836-10.087 11.552-1.77.535-4.811-1.055-3.3-2.313 2.088-1.739 4.312-3.315 6.443-5.005 5.181-4.107 6.669-9.535 5.038-15.911-1.099-4.298-4.066-5.998-7.844-6.34-3.425-.348-10.75 4.289-11.746 19.624-.76 3.184-3.641 4.446-4.841.721-1.366-4.604-2.556-9.278-4.247-13.762-1.439-3.816-5.621-6.127-10.805 2.248-1.094-3.397 1.104-14.777-.262-19.675-.744-2.673-6.258-3.878-6.224 1.321-1.104 16.445.378 24.271.56 28.457.147 3.142-3.336 3.142-1.888 6.258.632 1.36.387 3.216 1.218 4.35 3.702 5.058 8.846 6.997 15.008 6.007 3.697-.478 4.943-3.006 8.802-8.045 4.965 1.943 7.168 5.131 8.737 6.511 6.391 6.666 14.788-3.786 19.131-6.716-.01 1.888 3.405 3.465 5.342 3.383 1.976.08 2.062-2.282 2.27-3.955 3.937-7.686 6.77-14.729 11.546-19.786 1.199 2.441 2.105 4.594 3.271 6.595 2.101 3.602 4.344 7.118 6.552 10.656.732 1.171.201 1.985-.806 2.801-1.393 1.328-5.168 3.055-11.394 1.487-2.154-.541-.152 7.36 6.071 6.95 4.096-.27 7.725-1.52 10.914-4.085 1.981-1.596 2.894-4.796 1.692-7.042m-77.292 5.969c-.666-.366-1.459-1.575-1.308-2.178 1.148-4.579 2.515-9.104 3.821-13.644.06-.944.833-1.376 1.241-.585.931 3.883 2.146 7.725 2.693 11.66.4 2.868-4.139 6.016-6.447 4.747m23.578-12.934c1.584-7.313 2.693-8.251 4.042-9.808.867-1.002 2.559-1.761 2.851.8.296 2.607-.194 4.821-1.663 6.768-1.219 1.609-3.102 3.044-4.801 4.375-.865.341-.642-1.53-.429-2.135"/></svg>