<svg xmlns="http://www.w3.org/2000/svg" width="256" height="72" viewBox="0 0 256 72"><g fill="#fff"><path d="M.174 67.707l3.537-1.625v-22.034l-3.711-1.681v-2.843l13.453-2.144h.87v4.232h.348c2.899-2.669 5.682-4.232 10.089-4.232 3.827 0 6.263 1.333 7.422 4.232h.291c2.899-2.669 6.088-4.232 10.495-4.232 5.393 0 8.233 2.724 8.233 8.696v20.005l3.538 1.625v2.956h-17.107v-2.956l2.842-1.625v-17.625c0-3.365-1.102-4.582-4.001-4.582-1.102 0-2.377.29-3.595.812v21.396l2.841 1.625v2.956h-16.468v-2.956l2.841-1.625v-17.626c0-3.365-1.044-4.582-4.001-4.582-1.16 0-2.319.29-3.595.869v21.339l2.841 1.625v2.956h-17.163v-2.956zM64.198 55.413c.521 6.321 3.537 9.338 9.451 9.338 4.117 0 6.437-.408 8.697-1.104v3.132c-1.507 2.087-6.377 4.754-12.35 4.754-11.133 0-16.873-6.144-16.873-17.164 0-10.727 6.319-16.932 16.003-16.932 9.741 0 14.438 4.351 14.438 17.977h-19.366zm-.116-3.885l8.987-.521c0-8.64-1.449-10.032-4.117-10.032-2.956 0-4.754 1.914-4.87 10.553zM83.046 67.707l3.537-1.625v-22.034l-3.711-1.681v-2.843l13.453-2.144h.87v4.232h.348c2.899-2.669 5.682-4.232 10.089-4.232 3.827 0 6.263 1.333 7.422 4.232h.291c2.899-2.669 6.088-4.232 10.495-4.232 5.393 0 8.235 2.724 8.235 8.696v20.005l3.536 1.625v2.956h-17.106v-2.956l2.842-1.625v-17.625c0-3.365-1.102-4.582-4.001-4.582-1.102 0-2.377.29-3.595.812v21.396l2.841 1.625v2.956h-16.468v-2.956l2.842-1.625v-17.626c0-3.365-1.044-4.582-4.001-4.582-1.16 0-2.319.29-3.595.869v21.339l2.841 1.625v2.956h-17.165v-2.956zM150.665 41.149h.407c1.854-1.972 4.926-3.769 9.102-3.769 5.566 0 11.424 4.464 11.424 16.524 0 13.221-7.537 17.627-17.57 17.627-6.03 0-11.363-1.273-14.147-2.899v-37.747l-3.596-1.623v-2.957l13.511-2.146h.87v16.99zm9.626 13.568c0-8.757-2.377-11.016-5.741-11.016-1.738 0-2.957.404-3.885.869v21.976c.639.524 1.625 1.102 3.537 1.102 4.06-.001 6.089-3.654 6.089-12.931zM183.839 55.413c.521 6.321 3.537 9.338 9.449 9.338 4.118 0 6.438-.408 8.701-1.104v3.132c-1.508 2.087-6.379 4.754-12.354 4.754-11.132 0-16.873-6.144-16.873-17.164 0-10.727 6.321-16.932 16.004-16.932 9.74 0 14.438 4.351 14.438 17.977h-19.365zm-.116-3.885l8.988-.521c0-8.64-1.45-10.032-4.117-10.032-2.957 0-4.755 1.914-4.871 10.553zM216.718 37.264h.93v6.842h.348c1.916-4.289 4.812-6.609 8.351-6.609.578 0 1.275.057 1.623.173v9.452c-.637-.176-1.798-.289-2.728-.289-2.896 0-5.33.289-7.189 1.159v18.034l4.467 1.622v3.016h-18.671v-3.016l3.421-1.622v-21.978l-3.596-1.681v-2.958l13.044-2.145zM229.539 69.446v-8.581h4.58l1.854 5.392c.755.696 3.364 1.042 5.219 1.042 3.073 0 5.219-.693 5.219-3.245 0-2.378-.812-3.363-4.289-4.117l-3.943-.869c-5.974-1.333-8.758-6.09-8.758-10.903 0-6.204 4.234-10.783 13.804-10.783 3.825 0 7.71.578 10.261 1.681v8.001h-4.521l-1.393-4.464c-.753-.407-3.015-.812-4.756-.812-2.55 0-4.289 1.217-4.289 3.188 0 1.915.868 3.074 4.464 3.828l3.828.812c6.262 1.333 8.64 5.509 8.64 10.438 0 6.785-4.291 11.424-14.613 11.424-3.479-.001-8.177-.698-11.307-2.032z"/></g><g fill="#fff"><path d="M225.549.113c-1.243 0-2.237.991-2.237 2.236 0 1.22.994 2.211 2.237 2.211 1.22 0 2.237-.991 2.237-2.211 0-1.245-1.017-2.236-2.237-2.236"/><path d="M241.645 18.357h6.915v-1.153l-1.335-.631v-8.17c.499-.358 1.089-.479 1.719-.479 1.153 0 1.696.473 1.696 1.784v6.864l-1.334.631v1.153h6.915v-1.153l-1.379-.631v-7.812c0-2.327-1.062-3.366-3.163-3.366-1.718 0-3.392.612-4.521 1.648v-1.647h-.338l-5.245.836v1.104l1.448.657v8.581l-1.379.631v1.153zM222.091 6.185v1.15l1.424.657v8.558l-1.357.632v1.175h6.915v-1.175l-1.356-.632v-11.199h-.336zM216.209 15.978c-.307.252-.656.437-1.289.437-1.674 0-2.463-1.355-2.463-4.47 0-3.568.994-4.766 2.328-4.766.745 0 1.117.234 1.424.571v8.228zm0-10.018c-.521-.362-1.334-.566-2.035-.566-3.11 0-6.053 1.784-6.053 6.884 0 4.854 2.963 6.417 4.944 6.417 1.584 0 2.668-.7 3.188-1.378h.135v1.333h.361l4.995-.586v-.922l-1.334-.743v-16.151h-.338l-5.266.834v1.153l1.401.633v3.092zM198.749 6.185v1.151l1.401.657v8.558l-1.334.631v1.175h7.276v-1.175l-1.736-.631v-6.706c.74-.582 1.67-.768 2.801-.768.361 0 .812.042 1.062.113v-3.681c-.137-.047-.409-.068-.633-.068-1.379 0-2.644.905-3.389 2.574v-2.664h-.363l-5.085.834zM189.719 7.183c.297-.133.911-.141 1.114-.141 1.63 0 2.105.814 2.105 2.418l-.006 1.429-2.41.45c-2.468.456-4.326 1.202-4.326 3.799 0 2.1 1.475 3.557 3.486 3.557 1.582 0 3.075-.678 3.638-1.807h.112c.205 1.355 1.379 1.781 2.69 1.781 1.018 0 2-.312 2.374-.736v-.729l-1.335-.631v-7.339c0-2.845-2.033-3.886-5.422-3.886-2.217 0-3.665.552-4.84 1.111v3.204h1.969l.851-2.48zm3.219 8.665c-.244.356-.704.545-1.153.545-.815 0-1.582-.452-1.582-1.852 0-.999.902-1.918 1.894-2.072l.842-.158v3.537zM232.47 7.183c.299-.133.913-.141 1.118-.141 1.628 0 2.102.814 2.102 2.418l-.004 1.429-2.41.45c-2.47.456-4.328 1.202-4.328 3.799 0 2.1 1.477 3.557 3.488 3.557 1.582 0 3.072-.678 3.638-1.807h.114c.203 1.355 1.375 1.781 2.687 1.781 1.02 0 2.001-.312 2.376-.736v-.729l-1.334-.631v-7.339c0-2.845-2.036-3.886-5.425-3.886-2.215 0-3.663.552-4.836 1.111v3.204h1.964l.85-2.48zm3.219 8.665c-.242.356-.7.545-1.153.545-.813 0-1.58-.452-1.58-1.852 0-.999.9-1.918 1.892-2.072l.842-.158v3.537zM173.204 14.677c0 2.188 1.086 4.018 3.641 4.018 1.696 0 3.189-.747 4.001-1.737v1.714h.341l5.13-.608v-.922l-1.424-.743v-10.981h-.34l-5.268.835v1.153l1.401.652v7.582c-.466.312-.789.455-1.531.455-1.062 0-1.745-.313-1.745-1.757v-8.92h-.362l-5.268.835v1.153l1.424.652v6.619zM167.878 15.579h-4.521c-.498 0-.903-.363-.903-.813 0-.34.246-.702.563-.926.678.204 1.243.249 2.079.249 3.256 0 5.493-1.468 5.493-4.224 0-1.242-.519-1.941-1.31-2.666l2.142.669.006-2.519-3.415.63c-.791-.293-1.897-.654-2.916-.654-3.255 0-5.514 1.673-5.514 4.405 0 1.667.834 2.912 2.101 3.612l.102.063c-.722.496-2.225 1.631-2.225 2.962 0 .993.654 1.964 2.009 2.259v.003c-1.421.293-3.026.9-3.026 2.547 0 1.693 2.441 3.37 6.417 3.37 4.952 0 7.098-2.331 7.098-5.333-.001-2.483-1.375-3.634-4.18-3.634m-2.782-8.762c.927 0 1.562.647 1.562 2.914 0 2.322-.657 2.797-1.562 2.797s-1.538-.476-1.538-2.797c0-2.381.632-2.914 1.538-2.914m-.021 15.807c-2.307 0-3.135-.897-3.098-1.785.024-.604.325-1.397 1.407-1.464h3.596c1.039 0 1.696.717 1.696 1.371.001 1.313-.98 1.878-3.601 1.878M158.776 12.418c0-5.307-2.355-7.048-5.626-7.048-3.774 0-6.239 2.461-6.239 6.641 0 4.292 2.237 6.685 6.577 6.685 2.329 0 4.163-1.223 4.751-2.038l.065-1.033c-.883.271-1.788.428-3.393.428-2.307 0-3.686-1.175-3.686-3.634h7.551zm-5.694-5.623c1.039 0 1.606.754 1.606 3.908l-3.505.202c.047-3.22.748-4.11 1.899-4.11"/><path d="M133.2 18.357h6.916v-1.153l-1.334-.631-.005-8.148c.507-.352 1.082-.537 1.715-.537 1.153 0 1.723.727 1.702 1.821v6.864l-1.334.631v1.153h6.917v-1.153l-1.379-.631v-7.813c0-2.327-1.343-3.366-3.165-3.366-1.716 0-3.394.612-4.524 1.648h.006v-7.042h-.34l-5.244.834v1.107l1.445.652v13.979l-1.376.631v1.154zM125.627 14.902c0 2.323 1.106 3.793 3.615 3.793 1.311 0 2.71-.34 3.506-.932v-1.557c-.331.108-.904.208-1.356.208-1.22 0-1.561-.632-1.561-1.874v-6.66h2.759v-2.171h-2.759v-2.957l-4.204.589v2.367l-1.945.368v1.804h1.945v7.022z"/></g></svg>