<svg xmlns="http://www.w3.org/2000/svg" width="468" height="42"><g fill="#231F20"><path d="M203.1 31.4h11.8v-2l-2.3-1.1v-14c.9-.6 1.9-.8 2.9-.8 2 0 2.9.8 2.9 3.1v11.7l-2.3 1.1v2h11.9v-2l-2.4-1.1v-13.3c0-4-1.8-5.8-5.4-5.8-2.9 0-5.8 1-7.7 2.8v-2.8h-.5l-9 1.4v1.9l2.5 1.1v14.7l-2.4 1.1v2zm-27.5-31.1c-2.1 0-3.8 1.7-3.8 3.8 0 2.1 1.7 3.8 3.8 3.8 2.1 0 3.8-1.7 3.8-3.8 0-2.1-1.7-3.8-3.8-3.8m-5.9 10.3v2l2.4 1.1v14.6l-2.3 1.1v2h11.8v-2l-2.3-1.1v-19.1h-.6zm-10.1 16.8c-.5.4-1.1.7-2.2.7-2.9 0-4.2-2.3-4.2-7.7 0-6.1 1.7-8.2 4-8.2 1.3 0 1.9.4 2.4 1v14.2zm0-17.2c-.9-.6-2.3-1-3.5-1-5.3 0-10.3 3-10.3 11.8 0 8.3 5.1 11 8.5 11 2.7 0 4.6-1.2 5.4-2.4h.2v2.3h.6l8.5-1v-1.6l-2.3-1.3v-27.6h-.6l-9 1.4v2l2.4 1.1v5.3zm-30.2.4v2l2.4 1.1v14.6l-2.3 1.1v2h12.5v-2l-3-1.1v-11.4c1.3-1 2.9-1.3 4.8-1.3.6 0 1.4.1 1.8.2v-6.4c-.2-.1-.7-.1-1.1-.1-2.4 0-4.5 1.5-5.8 4.4v-4.5h-.6l-8.7 1.4zm-15.4 1.7c.5-.2 1.6-.2 1.9-.2 2.8 0 3.6 1.4 3.6 4.1v2.4l-4.1.8c-4.2.8-7.4 2.1-7.4 6.5 0 3.6 2.5 6.1 6 6.1 2.7 0 5.3-1.2 6.2-3.1h.2c.3 2.3 2.4 3.1 4.6 3.1 1.7 0 3.4-.5 4.1-1.3v-1.2l-2.3-1.1v-12.6c0-4.9-3.5-6.6-9.3-6.6-3.8 0-6.3.9-8.3 1.9v5.5h3.4l1.4-4.3zm5.5 14.8c-.4.6-1.2.9-2 .9-1.4 0-2.7-.8-2.7-3.2 0-1.7 1.5-3.3 3.2-3.5l1.4-.3v6.1zm67.9-14.8c.5-.2 1.6-.2 1.9-.2 2.8 0 3.6 1.4 3.6 4.1v2.4l-4.1.8c-4.2.8-7.4 2.1-7.4 6.5 0 3.6 2.5 6.1 6 6.1 2.7 0 5.3-1.2 6.2-3.1h.2c.3 2.3 2.4 3.1 4.6 3.1 1.7 0 3.4-.5 4.1-1.3v-1.2l-2.3-1.1v-12.6c0-4.9-3.5-6.6-9.3-6.6-3.8 0-6.3.9-8.3 1.9v5.5h3.4l1.4-4.3zm5.5 14.8c-.4.6-1.2.9-2 .9-1.4 0-2.7-.8-2.7-3.2 0-1.7 1.5-3.3 3.2-3.5l1.4-.3v6.1zm-107.1-2c0 3.7 1.9 6.9 6.2 6.9 2.9 0 5.4-1.3 6.8-3v3h.6l8.8-1v-1.6l-2.4-1.3v-18.8h-.6l-9 1.4v2l2.4 1.1v13c-.8.5-1.4.8-2.6.8-1.8 0-3-.5-3-3v-15.3h-.6l-9 1.4v2l2.4 1.1v11.3zm-9.4 1.6h-7.7c-.8 0-1.5-.6-1.5-1.4 0-.6.4-1.2 1-1.6 1.2.3 2.1.4 3.6.4 5.6 0 9.4-2.5 9.4-7.2 0-2.1-.9-3.3-2.2-4.6l3.7 1.1v-4.3l-5.8 1.1c-1.4-.5-3.2-1.1-5-1.1-5.6 0-9.4 2.9-9.4 7.5 0 2.9 1.4 5 3.6 6.2l-.1.2c-1.2.9-3.8 2.8-3.8 5.1 0 1.7 1.1 3.4 3.4 3.9-2.4.5-5.2 1.5-5.2 4.4 0 2.9 4.2 5.8 11 5.8 8.5 0 12.1-4 12.1-9.1 0-4.5-2.3-6.4-7.1-6.4m-4.8-15c1.6 0 2.7 1.1 2.7 5 0 4-1.1 4.8-2.7 4.8-1.5 0-2.6-.8-2.6-4.8 0-4.1 1.1-5 2.6-5m0 27c-3.9 0-5.4-1.5-5.3-3.1 0-1 .6-2.4 2.4-2.5h6.1c1.8 0 2.9 1.2 2.9 2.4.1 2.3-1.6 3.2-6.1 3.2m-11.6-17.4c0-9.1-4-12.1-9.6-12.1-6.5 0-10.7 4.2-10.7 11.4 0 7.3 3.8 11.4 11.2 11.4 4 0 7.1-2.1 8.1-3.5l.1-1.8c-1.5.5-3.1.7-5.8.7-3.9 0-6.3-2-6.3-6.2h13zm-9.7-9.7c1.8 0 2.7 1.3 2.7 6.7l-6 .3c.1-5.4 1.3-7 3.3-7"/><path d="M16.3 31.4h11.8v-2l-2.3-1.1v-13.9c.9-.6 1.8-.9 2.9-.9 2 0 2.9 1.2 2.9 3.1v11.7l-2.3 1.1v2h11.8v-2l-2.4-1.1v-13.3c0-4-2.3-5.8-5.4-5.8-2.9 0-5.8 1-7.7 2.8v-12h-.6l-9 1.4v1.9l2.5 1.1v23.9l-2.4 1.1v2zm-13-5.9c0 4 1.9 6.5 6.2 6.5 2.2 0 4.6-.6 6-1.6v-2.7c-.6.2-1.5.4-2.3.4-2.1 0-2.7-1.1-2.7-3.2v-11.4h4.7v-3.7h-4.7v-5.1l-7.2 1v4.1l-3.3.6v3.1h3.3v12z"/></g><path d="M231 29.5l2.4-1.1v-14.7l-2.5-1.1v-1.9l9-1.4h.6v2.8h.2c1.9-1.8 3.8-2.8 6.7-2.8 2.6 0 4.2.9 4.9 2.8h.2c1.9-1.8 4.1-2.8 7-2.8 3.6 0 5.5 1.8 5.5 5.8v13.3l2.4 1.1v2h-11.4v-2l1.9-1.1v-11.8c0-2.2-.7-3.1-2.7-3.1-.7 0-1.6.2-2.4.5v14.3l1.9 1.1v2h-11v-2l1.9-1.1v-11.7c0-2.2-.7-3.1-2.7-3.1-.8 0-1.5.2-2.4.6v14.2l1.9 1.1v2h-11.4v-1.9zm44.6-8.2c.3 4.2 2.4 6.2 6.3 6.2 2.7 0 4.3-.3 5.8-.7v2.1c-1 1.4-4.3 3.2-8.2 3.2-7.4 0-11.2-4.1-11.2-11.4 0-7.2 4.2-11.3 10.7-11.3 6.5 0 9.6 2.9 9.6 12h-13zm-.1-2.6l6-.3c0-5.8-1-6.7-2.7-6.7-2-.1-3.2 1.2-3.3 7zm13.8 10.8l2.4-1.1v-14.7l-2.5-1.1v-1.9l9-1.4h.6v2.8h.2c1.9-1.8 3.8-2.8 6.7-2.8 2.6 0 4.2.9 4.9 2.8h.2c1.9-1.8 4.1-2.8 7-2.8 3.6 0 5.5 1.8 5.5 5.8v13.3l2.4 1.1v2h-11.4v-2l1.9-1.1v-11.8c0-2.2-.7-3.1-2.7-3.1-.7 0-1.6.2-2.4.5v14.3l1.9 1.1v2h-11v-2l1.9-1.1v-11.7c0-2.2-.7-3.1-2.7-3.1-.8 0-1.5.2-2.4.6v14.2l1.9 1.1v2h-11.4v-1.9zm46.2-17.8h.3c1.2-1.3 3.3-2.5 6.1-2.5 3.7 0 7.6 3 7.6 11 0 8.8-5 11.7-11.7 11.7-4 0-7.6-.9-9.4-1.9v-25.1l-2.4-1.1v-2l9-1.4h.6v11.3zm6.5 9.1c0-5.8-1.6-7.3-3.8-7.3-1.2 0-2 .3-2.6.6v14.6c.4.3 1.1.7 2.4.7 2.6 0 4-2.4 4-8.6zm16 .5c.3 4.2 2.4 6.2 6.3 6.2 2.7 0 4.3-.3 5.8-.7v2.1c-1 1.4-4.3 3.2-8.2 3.2-7.4 0-11.2-4.1-11.2-11.4 0-7.2 4.2-11.3 10.7-11.3 6.5 0 9.6 2.9 9.6 12h-13zm0-2.6l6-.3c0-5.8-1-6.7-2.7-6.7-2.1-.1-3.3 1.2-3.3 7zm22.3-9.5h.6v4.6h.2c1.3-2.9 3.2-4.4 5.6-4.4.4 0 .9 0 1.1.1v6.3c-.4-.1-1.2-.2-1.8-.2-1.9 0-3.6.2-4.8.8v12l3 1.1v2h-12.4v-2l2.3-1.1v-14.7l-2.4-1.1v-2l8.6-1.4zm8.2 21.4v-5.7h3.1l1.2 3.6c.5.5 2.2.7 3.5.7 2 0 3.5-.5 3.5-2.2 0-1.6-.5-2.2-2.9-2.7l-2.6-.6c-4-.9-5.8-4.1-5.8-7.3 0-4.1 2.8-7.2 9.2-7.2 2.6 0 5.1.4 6.8 1.1v5.3h-3l-.9-3c-.5-.3-2-.5-3.2-.5-1.7 0-2.9.8-2.9 2.1s.6 2 3 2.6l2.6.5c4.2.9 5.8 3.7 5.8 7 0 4.5-2.9 7.6-9.7 7.6-2.5.1-5.6-.4-7.7-1.3zm18.1-1.1l2.4-1.1v-24l-2.5-1.1v-1.9l9-1.4h.6v12.1h.2c1.9-1.8 4.6-2.8 7.5-2.8 3.6 0 5.4 1.8 5.4 5.8v13.4l2.4 1.1v2h-11.8v-2l2.3-1.1v-11.9c0-2.2-.9-3.1-2.9-3.1-1.1 0-2 .2-2.9.6v14.2l2.3 1.1v2h-11.8v-1.9zm34.5-20.3h.6v19.2l2.3 1.1v2h-11.8v-2l2.3-1.1v-14.7l-2.4-1.1v-2l9-1.4zm.7-5.1c0 2.1-1.7 3.8-3.8 3.8-2.1 0-3.8-1.7-3.8-3.8 0-2.1 1.7-3.8 3.8-3.8 2.1 0 3.8 1.7 3.8 3.8zm12.5 8c1.2-1.4 3.1-2.8 5.9-2.8 4.3 0 7.8 2.4 7.8 11 0 8.8-4.9 11.7-10.6 11.7-1.7 0-2.5-.3-3.2-.7v6.5l2.7 1.1v2h-12.2v-2l2.3-1.1v-24.1l-2.4-1.1v-1.9l9-1.4h.6v2.8h.1zm6.1 8.6c0-5-1.4-7.2-3.8-7.2-1.2 0-1.9.3-2.5.6v14.1c.5.3 1.3.7 2.3.7 2.2 0 4-2 4-8.2z" fill="#fff"/></svg>